<?xml version="1.0" encoding="UTF-8"?>
<!DOCTYPE score-partwise PUBLIC "-//Recordare//DTD MusicXML 2.0 Partwise//EN"
  "http://www.musicxml.org/dtds/partwise.dtd">
<score-partwise version="2.0"><work><work-title>L 3 - Progs within Progrs: 2ndary Leading Tone Chords</work-title></work><identification><creator type="composer"/><creator type="lyricist"/><rights/><encoding><software>Noteflight version 0.4</software><encoding-date>2021-10-08</encoding-date><supports attribute="new-system" element="print" type="no" value="no"/><supports attribute="new-page" element="print" type="no" value="no"/></encoding></identification><defaults><scaling><millimeters>2.1166666679999997</millimeters><tenths>10</tenths></scaling><page-layout><page-height>1320</page-height><page-width>1020</page-width><page-margins type="both"><left-margin>59.583333333333336</left-margin><right-margin>56.66666666666667</right-margin><top-margin>96.66666666666667</top-margin><bottom-margin>80</bottom-margin></page-margins></page-layout><system-layout><system-margins><left-margin>59.583333333333336</left-margin><right-margin>26.666666666666668</right-margin></system-margins><system-distance>92.5</system-distance><top-system-distance>145.83333333333334</top-system-distance></system-layout><staff-layout><staff-distance>55</staff-distance></staff-layout></defaults><credit page="1"><credit-type>title</credit-type><credit-words font-size="24" default-x="510" default-y="1210" justify="right" valign="top">L 3 - Progs within Progrs: 2ndary Leading Tone Chords</credit-words></credit><part-list><score-part id="P1"><part-name>Piano</part-name><part-abbreviation>Pno</part-abbreviation><score-instrument id="P1I1"><instrument-name>Piano</instrument-name><instrument-sound>keyboard.piano</instrument-sound></score-instrument><midi-instrument id="P1I1"><midi-channel>1</midi-channel><midi-program>1</midi-program></midi-instrument></score-part></part-list><part id="P1"><measure number="1"><direction placement="above"><direction-type><metronome><beat-unit>quarter</beat-unit><per-minute>100</per-minute></metronome></direction-type><sound tempo="100"/></direction><direction placement="above"><direction-type><metronome><beat-unit>quarter</beat-unit><per-minute>100</per-minute></metronome></direction-type><sound tempo="100"/></direction><direction placement="above"><direction-type><words>Chords a 2nd apart (upwards)</words></direction-type></direction><note><pitch><step>A</step><octave>4</octave></pitch><duration>128</duration><voice>1</voice><type>half</type><staff>1</staff></note><note><pitch><step>A</step><octave>4</octave></pitch><duration>128</duration><voice>1</voice><type>half</type><staff>1</staff></note><backup><duration>256</duration></backup><note><pitch><step>F</step><octave>4</octave></pitch><duration>128</duration><voice>2</voice><type>half</type><staff>1</staff></note><note><pitch><step>E</step><alter>-1</alter><octave>4</octave></pitch><duration>128</duration><voice>2</voice><type>half</type><accidental>flat</accidental><staff>1</staff></note><backup><duration>256</duration></backup><attributes><divisions>64</divisions><key><fifths>0</fifths><mode>major</mode></key><time print-object="yes"><beats>4</beats><beat-type>4</beat-type></time><staves>2</staves><clef number="1"><sign>G</sign><line>2</line></clef><key><fifths>0</fifths><mode>major</mode></key><clef number="2"><sign>F</sign><line>4</line></clef></attributes><note><pitch><step>F</step><octave>3</octave></pitch><duration>128</duration><voice>3</voice><type>half</type><staff>2</staff></note><note><chord/><pitch><step>C</step><octave>4</octave></pitch><duration>128</duration><voice>3</voice><type>half</type><staff>2</staff></note><note><pitch><step>F</step><alter>1</alter><octave>3</octave></pitch><duration>128</duration><voice>3</voice><type>half</type><accidental>sharp</accidental><staff>2</staff></note><note><chord/><pitch><step>C</step><octave>4</octave></pitch><duration>128</duration><voice>3</voice><type>half</type><staff>2</staff></note></measure><measure number="2"><note><pitch><step>D</step><octave>4</octave></pitch><duration>256</duration><voice>1</voice><type>whole</type><staff>1</staff></note><note><chord/><pitch><step>G</step><octave>4</octave></pitch><duration>256</duration><voice>1</voice><type>whole</type><staff>1</staff></note><backup><duration>256</duration></backup><attributes/><note><pitch><step>G</step><octave>3</octave></pitch><duration>256</duration><voice>3</voice><type>whole</type><staff>2</staff></note><note><chord/><pitch><step>B</step><octave>3</octave></pitch><duration>256</duration><voice>3</voice><type>whole</type><staff>2</staff></note><barline location="right"><bar-style>light-light</bar-style></barline></measure><measure number="3"><note><pitch><step>D</step><octave>4</octave></pitch><duration>256</duration><voice>1</voice><type>whole</type><staff>1</staff></note><note><chord/><pitch><step>G</step><octave>4</octave></pitch><duration>256</duration><voice>1</voice><type>whole</type><staff>1</staff></note><backup><duration>256</duration></backup><attributes/><note><pitch><step>G</step><octave>3</octave></pitch><duration>256</duration><voice>3</voice><type>whole</type><staff>2</staff></note><note><chord/><pitch><step>B</step><octave>3</octave></pitch><duration>256</duration><voice>3</voice><type>whole</type><staff>2</staff></note></measure><measure number="4"><print new-system="yes"/><note><rest/><duration>128</duration><voice>1</voice><type>half</type><staff>1</staff></note><note><rest/><duration>128</duration><voice>1</voice><type>half</type><staff>1</staff></note><backup><duration>256</duration></backup><attributes/><note><rest/><duration>256</duration><voice>3</voice><type>whole</type><staff>2</staff></note><barline location="right"><bar-style>light-light</bar-style></barline></measure><measure number="5"><direction placement="above"><direction-type><words relative-x="31.25" relative-y="-10.41666666666667">Chords a 3rd apart (downward)</words></direction-type></direction><note><pitch><step>B</step><alter>-1</alter><octave>4</octave></pitch><duration>128</duration><voice>1</voice><type>half</type><staff>1</staff></note><note><pitch><step>C</step><octave>5</octave></pitch><duration>128</duration><voice>1</voice><type>half</type><staff>1</staff></note><backup><duration>256</duration></backup><note><pitch><step>D</step><octave>4</octave></pitch><duration>128</duration><voice>2</voice><type>half</type><staff>1</staff></note><note><pitch><step>E</step><alter>-1</alter><octave>4</octave></pitch><duration>128</duration><voice>2</voice><type>half</type><staff>1</staff></note><backup><duration>256</duration></backup><attributes><key><fifths>-2</fifths><mode>major</mode></key><key><fifths>-2</fifths><mode>major</mode></key></attributes><note><pitch><step>B</step><alter>-1</alter><octave>2</octave></pitch><duration>128</duration><voice>3</voice><type>half</type><staff>2</staff></note><note><chord/><pitch><step>F</step><octave>3</octave></pitch><duration>128</duration><voice>3</voice><type>half</type><staff>2</staff></note><note><pitch><step>A</step><octave>2</octave></pitch><duration>128</duration><voice>3</voice><type>half</type><staff>2</staff></note><note><chord/><pitch><step>F</step><alter>1</alter><octave>3</octave></pitch><duration>128</duration><voice>3</voice><type>half</type><accidental>sharp</accidental><staff>2</staff></note></measure><measure number="6"><note><pitch><step>D</step><octave>4</octave></pitch><duration>256</duration><voice>1</voice><type>whole</type><staff>1</staff></note><note><chord/><pitch><step>B</step><alter>-1</alter><octave>4</octave></pitch><duration>256</duration><voice>1</voice><type>whole</type><staff>1</staff></note><backup><duration>256</duration></backup><attributes/><note><pitch><step>G</step><octave>2</octave></pitch><duration>256</duration><voice>3</voice><type>whole</type><staff>2</staff></note><note><chord/><pitch><step>G</step><octave>3</octave></pitch><duration>256</duration><voice>3</voice><type>whole</type><staff>2</staff></note></measure><measure number="7"><note><rest/><duration>256</duration><voice>1</voice><type>whole</type><staff>1</staff></note><backup><duration>256</duration></backup><attributes/><note><rest/><duration>256</duration><voice>3</voice><type>whole</type><staff>2</staff></note></measure><measure number="8"><print new-system="yes"/><note><rest/><duration>256</duration><voice>1</voice><type>whole</type><staff>1</staff></note><backup><duration>256</duration></backup><attributes/><note><rest/><duration>256</duration><voice>3</voice><type>whole</type><staff>2</staff></note></measure><measure number="9"><direction placement="above"><direction-type><words relative-y="-10.41666666666667">Chords a 4th apart (upwards)</words></direction-type></direction><note><pitch><step>D</step><octave>4</octave></pitch><duration>256</duration><voice>1</voice><type>whole</type><staff>1</staff></note><note><chord/><pitch><step>B</step><alter>-1</alter><octave>4</octave></pitch><duration>256</duration><voice>1</voice><type>whole</type><staff>1</staff></note><backup><duration>256</duration></backup><attributes/><note><pitch><step>B</step><alter>-1</alter><octave>2</octave></pitch><duration>256</duration><voice>3</voice><type>whole</type><staff>2</staff></note><note><chord/><pitch><step>F</step><octave>3</octave></pitch><duration>256</duration><voice>3</voice><type>whole</type><staff>2</staff></note></measure><measure number="10"><note><pitch><step>B</step><alter>-1</alter><octave>3</octave></pitch><duration>256</duration><voice>1</voice><type>whole</type><staff>1</staff></note><note><chord/><pitch><step>G</step><octave>4</octave></pitch><duration>256</duration><voice>1</voice><type>whole</type><staff>1</staff></note><backup><duration>256</duration></backup><attributes/><note><pitch><step>E</step><alter>-1</alter><octave>3</octave></pitch><duration>256</duration><voice>3</voice><type>whole</type><staff>2</staff></note><note><chord/><pitch><step>E</step><alter>-1</alter><octave>3</octave></pitch><duration>256</duration><voice>3</voice><type>whole</type><staff>2</staff></note></measure><measure number="11"><note><pitch><step>D</step><octave>4</octave></pitch><duration>128</duration><voice>1</voice><type>half</type><staff>1</staff></note><note><chord/><pitch><step>B</step><alter>-1</alter><octave>4</octave></pitch><duration>128</duration><voice>1</voice><type>half</type><staff>1</staff></note><note><pitch><step>D</step><octave>4</octave></pitch><duration>128</duration><voice>1</voice><type>half</type><staff>1</staff></note><note><chord/><pitch><step>B</step><alter>-1</alter><octave>4</octave></pitch><duration>128</duration><voice>1</voice><type>half</type><staff>1</staff></note><backup><duration>256</duration></backup><attributes/><note><pitch><step>B</step><alter>-1</alter><octave>2</octave></pitch><duration>128</duration><voice>3</voice><type>half</type><staff>2</staff></note><note><chord/><pitch><step>F</step><octave>3</octave></pitch><duration>128</duration><voice>3</voice><type>half</type><staff>2</staff></note><note><pitch><step>A</step><alter>-1</alter><octave>2</octave></pitch><duration>128</duration><voice>3</voice><type>half</type><accidental>flat</accidental><staff>2</staff></note><note><chord/><pitch><step>F</step><octave>3</octave></pitch><duration>128</duration><voice>3</voice><type>half</type><staff>2</staff></note></measure><measure number="12"><print new-system="yes"/><note><pitch><step>E</step><alter>-1</alter><octave>4</octave></pitch><duration>256</duration><voice>1</voice><type>whole</type><staff>1</staff></note><note><chord/><pitch><step>B</step><alter>-1</alter><octave>4</octave></pitch><duration>256</duration><voice>1</voice><type>whole</type><staff>1</staff></note><backup><duration>256</duration></backup><attributes/><note><pitch><step>G</step><octave>2</octave></pitch><duration>256</duration><voice>3</voice><type>whole</type><staff>2</staff></note><note><chord/><pitch><step>E</step><alter>-1</alter><octave>3</octave></pitch><duration>256</duration><voice>3</voice><type>whole</type><staff>2</staff></note></measure><measure number="13"><direction placement="above"><direction-type><words relative-y="-10.41666666666667">Chords a 5th apart (upward) - the most common use of secondary dominant</words></direction-type></direction><note><pitch><step>D</step><octave>4</octave></pitch><duration>256</duration><voice>1</voice><type>whole</type><staff>1</staff></note><note><chord/><pitch><step>B</step><alter>-1</alter><octave>4</octave></pitch><duration>256</duration><voice>1</voice><type>whole</type><staff>1</staff></note><backup><duration>256</duration></backup><attributes/><note><pitch><step>G</step><octave>2</octave></pitch><duration>256</duration><voice>3</voice><type>whole</type><staff>2</staff></note><note><chord/><pitch><step>D</step><octave>3</octave></pitch><duration>256</duration><voice>3</voice><type>whole</type><staff>2</staff></note></measure><measure number="14"><note><pitch><step>D</step><octave>4</octave></pitch><duration>256</duration><voice>1</voice><type>whole</type><staff>1</staff></note><note><chord/><pitch><step>A</step><octave>4</octave></pitch><duration>256</duration><voice>1</voice><type>whole</type><staff>1</staff></note><backup><duration>256</duration></backup><attributes/><note><pitch><step>D</step><octave>2</octave></pitch><duration>256</duration><voice>3</voice><type>whole</type><staff>2</staff></note><note><chord/><pitch><step>F</step><alter>1</alter><octave>3</octave></pitch><duration>256</duration><voice>3</voice><type>whole</type><accidental>sharp</accidental><staff>2</staff></note></measure><measure number="15"><note><pitch><step>D</step><octave>4</octave></pitch><duration>128</duration><voice>1</voice><type>half</type><staff>1</staff></note><note><chord/><pitch><step>B</step><alter>-1</alter><octave>4</octave></pitch><duration>128</duration><voice>1</voice><type>half</type><staff>1</staff></note><note><pitch><step>C</step><alter>1</alter><octave>4</octave></pitch><duration>128</duration><voice>1</voice><type>half</type><accidental>sharp</accidental><staff>1</staff></note><note><chord/><pitch><step>A</step><octave>4</octave></pitch><duration>128</duration><voice>1</voice><type>half</type><staff>1</staff></note><backup><duration>256</duration></backup><attributes/><note><pitch><step>G</step><octave>2</octave></pitch><duration>128</duration><voice>3</voice><type>half</type><staff>2</staff></note><note><chord/><pitch><step>G</step><octave>3</octave></pitch><duration>128</duration><voice>3</voice><type>half</type><staff>2</staff></note><note><pitch><step>A</step><octave>2</octave></pitch><duration>128</duration><voice>3</voice><type>half</type><staff>2</staff></note><note><chord/><pitch><step>G</step><octave>3</octave></pitch><duration>128</duration><voice>3</voice><type>half</type><staff>2</staff></note></measure><measure number="16"><note><pitch><step>D</step><octave>4</octave></pitch><duration>256</duration><voice>1</voice><type>whole</type><staff>1</staff></note><note><chord/><pitch><step>A</step><octave>4</octave></pitch><duration>256</duration><voice>1</voice><type>whole</type><staff>1</staff></note><backup><duration>256</duration></backup><attributes/><note><pitch><step>D</step><octave>2</octave></pitch><duration>256</duration><voice>3</voice><type>whole</type><staff>2</staff></note><note><chord/><pitch><step>F</step><alter>1</alter><octave>3</octave></pitch><duration>256</duration><voice>3</voice><type>whole</type><accidental>sharp</accidental><staff>2</staff></note><barline location="right"><bar-style>light-heavy</bar-style></barline></measure></part></score-partwise>