<?xml version="1.0" encoding="UTF-8"?>
<!DOCTYPE score-partwise PUBLIC "-//Recordare//DTD MusicXML 2.0 Partwise//EN"
  "http://www.musicxml.org/dtds/partwise.dtd">
<score-partwise version="2.0"><work><work-title>La Forza del Destino</work-title></work><identification><creator type="composer">Giuseppe Verdi</creator><creator type="lyricist">Trumpet II in Bb</creator><rights/><encoding><software>Noteflight version 0.4</software><encoding-date>2024-06-02</encoding-date><supports attribute="new-system" element="print" type="no" value="no"/><supports attribute="new-page" element="print" type="no" value="no"/></encoding></identification><defaults><scaling><millimeters>2.1166666679999997</millimeters><tenths>10</tenths></scaling><page-layout><page-height>1320</page-height><page-width>1020</page-width><page-margins type="both"><left-margin>59.583333333333336</left-margin><right-margin>56.66666666666667</right-margin><top-margin>96.66666666666667</top-margin><bottom-margin>80</bottom-margin></page-margins></page-layout><system-layout><system-margins><left-margin>59.583333333333336</left-margin><right-margin>26.666666666666668</right-margin></system-margins><system-distance>92.5</system-distance><top-system-distance>145.83333333333334</top-system-distance></system-layout><staff-layout><staff-distance>55</staff-distance></staff-layout></defaults><credit page="1"><credit-type>title</credit-type><credit-words font-size="24" default-x="510" default-y="1210" justify="right" valign="top">La Forza del Destino</credit-words></credit><credit page="1"><credit-type>subtitle</credit-type><credit-words font-size="12" default-x="918" default-y="1210" justify="right" valign="top">Overture</credit-words></credit><credit page="1"><credit-type>composer</credit-type><credit-words font-size="12" default-x="918" default-y="1210" justify="right" valign="top">Giuseppe Verdi</credit-words></credit><credit page="1"><credit-type>lyricist</credit-type><credit-words font-size="12" default-x="918" default-y="1210" justify="right" valign="top">Trumpet II in Bb</credit-words></credit><part-list><score-part id="P1"><part-name>Trumpet</part-name><part-abbreviation>Tpt.</part-abbreviation><score-instrument id="P1I1"><instrument-name>Trumpet</instrument-name><instrument-sound>brass.trumpet</instrument-sound></score-instrument><midi-instrument id="P1I1"><midi-channel>1</midi-channel><midi-program>57</midi-program></midi-instrument></score-part></part-list><part id="P1"><measure number="1"><attributes><divisions>64</divisions><key><fifths>5</fifths><mode>major</mode></key><time print-object="yes"><beats>2</beats><beat-type>4</beat-type></time><clef number="1"><sign>G</sign><line>2</line></clef><transpose><diatonic>-1</diatonic><chromatic>-2</chromatic></transpose></attributes><direction placement="above"><direction-type><metronome print-object="no"><beat-unit>quarter</beat-unit><per-minute>132</per-minute></metronome></direction-type><sound tempo="132"/></direction><direction placement="above"><direction-type><metronome print-object="yes"><beat-unit>quarter</beat-unit><per-minute>132</per-minute></metronome></direction-type><sound tempo="132"/></direction><direction placement="below"><direction-type><dynamics placement="below"><f/></dynamics></direction-type></direction><note><pitch><step>G</step><alter>1</alter><octave>4</octave></pitch><duration>128</duration><voice>1</voice><type>half</type><notations><articulations><accent/></articulations></notations></note></measure><measure number="2"><attributes/><note><pitch><step>G</step><alter>1</alter><octave>4</octave></pitch><duration>128</duration><voice>1</voice><type>half</type><notations><articulations><accent/></articulations></notations></note></measure><measure number="3"><attributes/><note><pitch><step>G</step><alter>1</alter><octave>4</octave></pitch><duration>128</duration><voice>1</voice><type>half</type><notations><articulations><accent/></articulations></notations></note></measure><measure number="4"><attributes/><note><rest/><duration>128</duration><voice>1</voice><type>whole</type></note></measure><measure number="5"><attributes/><direction placement="below"><direction-type><dynamics placement="below"><f/></dynamics></direction-type></direction><note><pitch><step>G</step><alter>1</alter><octave>4</octave></pitch><duration>128</duration><voice>1</voice><type>half</type><notations><articulations><accent/></articulations></notations></note></measure><measure number="6"><attributes/><note><pitch><step>G</step><alter>1</alter><octave>4</octave></pitch><duration>128</duration><voice>1</voice><type>half</type><notations><articulations><accent/></articulations></notations></note></measure><measure number="7"><attributes/><note><pitch><step>G</step><alter>1</alter><octave>4</octave></pitch><duration>128</duration><voice>1</voice><type>half</type><notations><articulations><accent/></articulations></notations></note></measure><measure number="8"><attributes/><note><rest/><duration>128</duration><voice>1</voice><type>whole</type></note><barline location="right"><bar-style>light-light</bar-style></barline></measure><measure number="9"><attributes><time print-object="yes"><beats>3</beats><beat-type>8</beat-type></time></attributes><direction placement="above"><direction-type><words relative-x="10.416820271809897" relative-y="-15.625032297770192">16</words></direction-type></direction><note><rest/><duration>96</duration><voice>1</voice><type>whole</type></note></measure><measure number="10"><attributes/><direction placement="above"><direction-type><words relative-x="7.29169209798177" relative-y="-17.708314768473315">10</words></direction-type></direction><note><rest/><duration>96</duration><voice>1</voice><type>whole</type></note><direction placement="above"><direction-type><words enclosure="rectangle" relative-x="2.7960278856603216" relative-y="6.875024922688793">A</words></direction-type></direction></measure><measure number="11"><attributes/><note><rest/><duration>32</duration><voice>1</voice><type>eighth</type></note><note><rest/><duration>32</duration><voice>1</voice><type>eighth</type></note><note><pitch><step>G</step><alter>1</alter><octave>5</octave></pitch><duration>32</duration><voice>1</voice><type>eighth</type></note></measure><measure number="12"><attributes/><note><pitch><step>G</step><alter>1</alter><octave>5</octave></pitch><duration>32</duration><voice>1</voice><type>eighth</type><beam number="1">begin</beam></note><note><pitch><step>F</step><alter>2</alter><octave>5</octave></pitch><duration>16</duration><voice>1</voice><type>16th</type><accidental>double-sharp</accidental><beam number="1">end</beam></note><note><rest/><duration>16</duration><voice>1</voice><type>16th</type></note><note><pitch><step>A</step><alter>1</alter><octave>5</octave></pitch><duration>32</duration><voice>1</voice><type>eighth</type></note></measure><measure number="13"><attributes/><note><pitch><step>A</step><alter>1</alter><octave>5</octave></pitch><duration>32</duration><voice>1</voice><type>eighth</type><beam number="1">begin</beam></note><note><pitch><step>G</step><alter>1</alter><octave>5</octave></pitch><duration>16</duration><voice>1</voice><type>16th</type><beam number="1">end</beam></note><note><rest/><duration>16</duration><voice>1</voice><type>16th</type></note><note><pitch><step>B</step><octave>5</octave></pitch><duration>32</duration><voice>1</voice><type>eighth</type></note></measure><measure number="14"><attributes/><note><pitch><step>B</step><octave>5</octave></pitch><duration>32</duration><voice>1</voice><type>eighth</type><beam number="1">begin</beam></note><note><pitch><step>A</step><alter>1</alter><octave>5</octave></pitch><duration>16</duration><voice>1</voice><type>16th</type><beam number="1">end</beam></note><note><rest/><duration>16</duration><voice>1</voice><type>16th</type></note><note><pitch><step>C</step><alter>1</alter><octave>6</octave></pitch><duration>32</duration><voice>1</voice><type>eighth</type></note></measure><measure number="15"><attributes/><direction placement="below"><direction-type><dynamics placement="below"><f/></dynamics></direction-type></direction><note><pitch><step>G</step><alter>1</alter><octave>4</octave></pitch><duration>32</duration><voice>1</voice><type>eighth</type><notations><articulations><accent/></articulations></notations></note><note><rest/><duration>32</duration><voice>1</voice><type>eighth</type></note><note><rest/><duration>32</duration><voice>1</voice><type>eighth</type></note></measure><measure number="16"><attributes/><note><pitch><step>A</step><alter>1</alter><octave>4</octave></pitch><duration>32</duration><voice>1</voice><type>eighth</type><notations><articulations><accent/></articulations></notations></note><note><rest/><duration>32</duration><voice>1</voice><type>eighth</type></note><note><rest/><duration>32</duration><voice>1</voice><type>eighth</type></note></measure><measure number="17"><attributes/><note><pitch><step>G</step><alter>1</alter><octave>4</octave></pitch><duration>32</duration><voice>1</voice><type>eighth</type><notations><articulations><accent/></articulations></notations></note><note><rest/><duration>32</duration><voice>1</voice><type>eighth</type></note><note><rest/><duration>32</duration><voice>1</voice><type>eighth</type></note></measure><measure number="18"><attributes/><note><pitch><step>F</step><alter>2</alter><octave>4</octave></pitch><duration>32</duration><voice>1</voice><type>eighth</type><accidental>double-sharp</accidental><notations><articulations><accent/></articulations></notations></note><note><rest/><duration>32</duration><voice>1</voice><type>eighth</type></note><note><rest/><duration>32</duration><voice>1</voice><type>eighth</type></note><direction placement="above"><direction-type><words>I. Tempo</words></direction-type></direction><barline location="right"><bar-style>light-light</bar-style></barline></measure><measure number="19"><attributes><time print-object="yes"><beats>2</beats><beat-type>4</beat-type></time></attributes><direction placement="below"><direction-type><dynamics placement="below"><f/></dynamics></direction-type></direction><note><pitch><step>G</step><alter>1</alter><octave>4</octave></pitch><duration>128</duration><voice>1</voice><type>half</type><notations><articulations><accent/></articulations></notations></note></measure><measure number="20"><attributes/><note><pitch><step>G</step><alter>1</alter><octave>4</octave></pitch><duration>128</duration><voice>1</voice><type>half</type><notations><articulations><accent/></articulations></notations></note></measure><measure number="21"><attributes/><note><pitch><step>G</step><alter>1</alter><octave>4</octave></pitch><duration>128</duration><voice>1</voice><type>half</type><notations><articulations><accent/></articulations></notations></note></measure><measure number="22"><attributes/><note><rest/><duration>128</duration><voice>1</voice><type>whole</type></note></measure><measure number="23"><attributes/><direction placement="below"><direction-type><dynamics placement="below"><f/></dynamics></direction-type></direction><note><pitch><step>G</step><alter>1</alter><octave>4</octave></pitch><duration>128</duration><voice>1</voice><type>half</type><notations><articulations><accent/></articulations></notations></note></measure><measure number="24"><attributes/><note><pitch><step>G</step><alter>1</alter><octave>4</octave></pitch><duration>128</duration><voice>1</voice><type>half</type><notations><articulations><accent/></articulations></notations></note></measure><measure number="25"><attributes/><note><pitch><step>G</step><alter>1</alter><octave>4</octave></pitch><duration>128</duration><voice>1</voice><type>half</type><notations><articulations><accent/></articulations></notations></note></measure><measure number="26"><attributes/><note><rest/><duration>128</duration><voice>1</voice><type>whole</type></note><barline location="right"><bar-style>light-light</bar-style></barline></measure><measure number="27"><attributes/><direction placement="above"><direction-type><words enclosure="rectangle">B</words></direction-type></direction><note><rest/><duration>64</duration><voice>1</voice><type>quarter</type></note><direction placement="above"><direction-type><words relative-x="-3.7602687953267333" relative-y="1.0416920979817679">Andantino</words></direction-type></direction><note><rest/><duration>32</duration><voice>1</voice><type>eighth</type></note><note><pitch><step>G</step><alter>1</alter><octave>4</octave></pitch><duration>16</duration><voice>1</voice><type>16th</type><beam number="1">begin</beam></note><note><pitch><step>E</step><octave>5</octave></pitch><duration>16</duration><voice>1</voice><type>16th</type><beam number="1">end</beam></note></measure><measure number="28"><attributes/><note><pitch><step>D</step><alter>1</alter><octave>5</octave></pitch><duration>32</duration><voice>1</voice><type>eighth</type><beam number="1">begin</beam></note><note><pitch><step>C</step><alter>1</alter><octave>5</octave></pitch><duration>32</duration><voice>1</voice><type>eighth</type><beam number="1">end</beam></note><note><pitch><step>D</step><alter>1</alter><octave>5</octave></pitch><duration>32</duration><voice>1</voice><type>eighth</type><beam number="1">begin</beam></note><note><pitch><step>E</step><octave>5</octave></pitch><duration>32</duration><voice>1</voice><type>eighth</type><beam number="1">end</beam></note></measure><measure number="29"><attributes/><note><pitch><step>G</step><alter>1</alter><octave>4</octave></pitch><duration>96</duration><voice>1</voice><type>quarter</type><dot/></note><note><rest/><duration>32</duration><voice>1</voice><type>eighth</type></note></measure><measure number="30"><attributes/><direction placement="above"><direction-type><words relative-x="43.750152587890625" relative-y="-22.91668701171875">13</words></direction-type></direction><note><rest/><duration>128</duration><voice>1</voice><type>whole</type></note></measure><measure number="31"><attributes/><note><rest/><duration>128</duration><voice>1</voice><type>whole</type></note><barline location="right"><bar-style>light-light</bar-style></barline></measure><measure number="32"><attributes><time print-object="yes" symbol="common"><beats>4</beats><beat-type>4</beat-type></time></attributes><direction placement="above"><direction-type><words enclosure="rectangle" relative-y="1.0416920979817679">C</words></direction-type></direction><note><pitch><step>F</step><alter>1</alter><octave>4</octave></pitch><duration>64</duration><voice>1</voice><type>quarter</type></note><direction placement="above"><direction-type><words relative-x="-2.6492328905993645" relative-y="2.083460489908857">Andante mosso
Vl. 1</words></direction-type></direction><note><pitch><step>A</step><alter>1</alter><octave>4</octave></pitch><duration>64</duration><voice>1</voice><type>quarter</type></note><note><pitch><step>D</step><alter>1</alter><octave>5</octave></pitch><duration>96</duration><voice>1</voice><type>quarter</type><dot/></note><note><pitch><step>C</step><alter>1</alter><octave>5</octave></pitch><duration>32</duration><voice>1</voice><type>eighth</type></note></measure><measure number="33"><attributes/><note><pitch><step>B</step><octave>4</octave></pitch><duration>64</duration><voice>1</voice><type>quarter</type></note><note><pitch><step>D</step><alter>1</alter><octave>5</octave></pitch><duration>64</duration><voice>1</voice><type>quarter</type></note><note><pitch><step>G</step><alter>1</alter><octave>5</octave></pitch><duration>96</duration><voice>1</voice><type>quarter</type><dot/></note><note><pitch><step>G</step><octave>5</octave></pitch><duration>32</duration><voice>1</voice><type>eighth</type><accidental>natural</accidental></note></measure><measure number="34"><attributes/><direction placement="below"><direction-type><dynamics placement="below"><p/></dynamics></direction-type></direction><direction placement="above"><direction-type><words relative-y="-22.91668701171875">Hn. III</words></direction-type></direction><note><pitch><step>F</step><alter>1</alter><octave>4</octave></pitch><duration>256</duration><voice>1</voice><type>whole</type></note><direction placement="above"><direction-type><words relative-x="15.6936929292248" relative-y="-21.87502034505208">10</words></direction-type></direction></measure><measure number="35"><attributes/><note><pitch><step>G</step><alter>1</alter><octave>4</octave></pitch><duration>128</duration><voice>1</voice><type>half</type></note><note><pitch><step>G</step><alter>1</alter><octave>4</octave></pitch><duration>128</duration><voice>1</voice><type>half</type></note></measure><measure number="36"><attributes/><note><pitch><step>F</step><alter>1</alter><octave>4</octave></pitch><duration>128</duration><voice>1</voice><type>half</type></note><note><pitch><step>F</step><alter>1</alter><octave>4</octave></pitch><duration>128</duration><voice>1</voice><type>half</type></note></measure><measure number="37"><attributes><time print-object="yes"><beats>3</beats><beat-type>8</beat-type></time></attributes><direction placement="above"><direction-type><words enclosure="rectangle" relative-y="2.083460489908857">D</words></direction-type></direction><direction placement="below"><direction-type><dynamics placement="below"><f/></dynamics></direction-type></direction><direction><direction-type><wedge default-x="18.95" default-y="-27.5" spread="15" type="diminuendo"/></direction-type><staff>1</staff></direction><note><pitch><step>F</step><alter>1</alter><octave>4</octave></pitch><duration>96</duration><tie type="start"/><voice>1</voice><type>quarter</type><dot/><notations><tied type="start"/><articulations><accent/></articulations></notations></note></measure><measure number="38"><attributes/><note><pitch><step>F</step><alter>1</alter><octave>4</octave></pitch><duration>96</duration><tie type="stop"/><voice>1</voice><type>quarter</type><dot/><notations><tied type="stop"/></notations></note><direction><direction-type><wedge type="stop"/></direction-type><staff>1</staff></direction></measure><measure number="39"><attributes/><direction><direction-type><wedge default-x="0" default-y="-27.5" spread="15" type="diminuendo"/></direction-type><staff>1</staff></direction><note><pitch><step>F</step><alter>1</alter><octave>4</octave></pitch><duration>96</duration><tie type="start"/><voice>1</voice><type>quarter</type><dot/><notations><tied type="start"/><articulations><accent/></articulations></notations></note></measure><measure number="40"><attributes/><note><pitch><step>F</step><alter>1</alter><octave>4</octave></pitch><duration>96</duration><tie type="stop"/><voice>1</voice><type>quarter</type><dot/><notations><tied type="stop"/></notations></note><direction><direction-type><wedge type="stop"/></direction-type><staff>1</staff></direction></measure><measure number="41"><attributes/><direction><direction-type><wedge default-x="0" default-y="-27.5" spread="15" type="diminuendo"/></direction-type><staff>1</staff></direction><note><pitch><step>G</step><alter>1</alter><octave>4</octave></pitch><duration>96</duration><tie type="start"/><voice>1</voice><type>quarter</type><dot/><notations><tied type="start"/><articulations><accent/></articulations></notations></note></measure><measure number="42"><attributes/><note><pitch><step>G</step><alter>1</alter><octave>4</octave></pitch><duration>96</duration><tie type="stop"/><voice>1</voice><type>quarter</type><dot/><notations><tied type="stop"/></notations></note><direction><direction-type><wedge type="stop"/></direction-type><staff>1</staff></direction></measure><measure number="43"><attributes/><direction><direction-type><wedge default-x="0" default-y="-27.5" spread="15" type="diminuendo"/></direction-type><staff>1</staff></direction><note><pitch><step>G</step><alter>1</alter><octave>4</octave></pitch><duration>96</duration><tie type="start"/><voice>1</voice><type>quarter</type><dot/><notations><tied type="start"/><articulations><accent/></articulations></notations></note></measure><measure number="44"><attributes/><note><pitch><step>G</step><alter>1</alter><octave>4</octave></pitch><duration>96</duration><tie type="stop"/><voice>1</voice><type>quarter</type><dot/><notations><tied type="stop"/></notations></note><direction><direction-type><wedge type="stop"/></direction-type><staff>1</staff></direction></measure><measure number="45"><attributes/><direction><direction-type><wedge default-x="0" default-y="-27.5" spread="15" type="diminuendo"/></direction-type><staff>1</staff></direction><note><pitch><step>A</step><alter>1</alter><octave>4</octave></pitch><duration>96</duration><tie type="start"/><voice>1</voice><type>quarter</type><dot/><notations><tied type="start"/><articulations><accent/></articulations></notations></note></measure><measure number="46"><attributes/><note><pitch><step>A</step><alter>1</alter><octave>4</octave></pitch><duration>96</duration><tie type="stop"/><voice>1</voice><type>quarter</type><dot/><notations><tied type="stop"/></notations></note><direction><direction-type><wedge type="stop"/></direction-type><staff>1</staff></direction></measure><measure number="47"><attributes/><direction><direction-type><wedge default-x="0" default-y="-27.5" spread="15" type="diminuendo"/></direction-type><staff>1</staff></direction><note><pitch><step>A</step><alter>1</alter><octave>4</octave></pitch><duration>96</duration><tie type="start"/><voice>1</voice><type>quarter</type><dot/><notations><tied type="start"/><articulations><accent/></articulations></notations></note></measure><measure number="48"><attributes/><note><pitch><step>A</step><alter>1</alter><octave>4</octave></pitch><duration>96</duration><tie type="stop"/><voice>1</voice><type>quarter</type><dot/><notations><tied type="stop"/></notations></note><direction><direction-type><wedge type="stop"/></direction-type><staff>1</staff></direction></measure><measure number="49"><attributes/><direction placement="below"><direction-type><dynamics placement="below"><ff/></dynamics></direction-type></direction><note><pitch><step>G</step><alter>1</alter><octave>4</octave></pitch><duration>32</duration><voice>1</voice><type>eighth</type><notations><articulations><accent/></articulations></notations></note><note><pitch><step>G</step><alter>1</alter><octave>4</octave></pitch><duration>64</duration><tie type="start"/><voice>1</voice><type>quarter</type><notations><tied type="start"/><articulations><accent/></articulations></notations></note></measure><measure number="50"><attributes/><note><pitch><step>G</step><alter>1</alter><octave>4</octave></pitch><duration>96</duration><tie type="stop"/><voice>1</voice><type>quarter</type><dot/><notations><tied type="stop"/></notations></note></measure><measure number="51"><attributes/><note><pitch><step>G</step><alter>1</alter><octave>4</octave></pitch><duration>32</duration><voice>1</voice><type>eighth</type><notations><articulations><accent/></articulations></notations></note><note><pitch><step>G</step><alter>1</alter><octave>4</octave></pitch><duration>64</duration><tie type="start"/><voice>1</voice><type>quarter</type><notations><tied type="start"/><articulations><accent/></articulations></notations></note></measure><measure number="52"><attributes/><note><pitch><step>G</step><alter>1</alter><octave>4</octave></pitch><duration>96</duration><tie type="stop"/><voice>1</voice><type>quarter</type><dot/><notations><tied type="stop"/></notations></note></measure><measure number="53"><attributes/><note><pitch><step>G</step><alter>1</alter><octave>4</octave></pitch><duration>32</duration><voice>1</voice><type>eighth</type><notations><articulations><accent/></articulations></notations></note><note><pitch><step>G</step><alter>1</alter><octave>4</octave></pitch><duration>64</duration><tie type="start"/><voice>1</voice><type>quarter</type><notations><tied type="start"/><articulations><accent/></articulations></notations></note></measure><measure number="54"><attributes/><note><pitch><step>G</step><alter>1</alter><octave>4</octave></pitch><duration>96</duration><tie type="stop"/><voice>1</voice><type>quarter</type><dot/><notations><tied type="stop"/></notations></note><direction placement="above"><direction-type><words enclosure="rectangle" relative-y="2.083460489908857">E</words></direction-type></direction></measure><measure number="55"><attributes/><note><pitch><step>C</step><alter>1</alter><octave>5</octave></pitch><duration>32</duration><voice>1</voice><type>eighth</type><notations><articulations><accent/></articulations></notations></note><note><rest/><duration>32</duration><voice>1</voice><type>eighth</type></note><note><rest/><duration>32</duration><voice>1</voice><type>eighth</type></note></measure><measure number="56"><attributes/><note><pitch><step>B</step><octave>4</octave></pitch><duration>32</duration><voice>1</voice><type>eighth</type><notations><articulations><accent/></articulations></notations></note><note><rest/><duration>32</duration><voice>1</voice><type>eighth</type></note><note><rest/><duration>32</duration><voice>1</voice><type>eighth</type></note></measure><measure number="57"><attributes/><note><pitch><step>A</step><alter>1</alter><octave>4</octave></pitch><duration>32</duration><voice>1</voice><type>eighth</type><notations><articulations><accent/></articulations></notations></note><note><rest/><duration>32</duration><voice>1</voice><type>eighth</type></note><note><rest/><duration>32</duration><voice>1</voice><type>eighth</type></note></measure><measure number="58"><attributes/><note><pitch><step>G</step><alter>1</alter><octave>4</octave></pitch><duration>32</duration><voice>1</voice><type>eighth</type><notations><articulations><accent/></articulations></notations></note><note><rest/><duration>32</duration><voice>1</voice><type>eighth</type></note><note><rest/><duration>32</duration><voice>1</voice><type>eighth</type></note></measure><measure number="59"><attributes/><direction placement="above"><direction-type><words relative-x="20.833333333333336" relative-y="-21.87502543131511">4</words></direction-type></direction><note><rest/><duration>96</duration><voice>1</voice><type>whole</type></note></measure><measure number="60"><attributes/><note><pitch><step>B</step><octave>4</octave></pitch><duration>32</duration><voice>1</voice><type>eighth</type><notations><articulations><accent/></articulations></notations></note><note><rest/><duration>32</duration><voice>1</voice><type>eighth</type></note><note><rest/><duration>32</duration><voice>1</voice><type>eighth</type></note></measure><measure number="61"><attributes/><note><rest/><duration>96</duration><voice>1</voice><type>whole</type></note></measure><measure number="62"><attributes/><note><pitch><step>B</step><octave>4</octave></pitch><duration>32</duration><voice>1</voice><type>eighth</type><notations><articulations><accent/></articulations></notations></note><note><rest/><duration>32</duration><voice>1</voice><type>eighth</type></note><note><rest/><duration>32</duration><voice>1</voice><type>eighth</type></note></measure><measure number="63"><attributes/><direction placement="above"><direction-type><words relative-y="-21.87502543131511">10</words></direction-type></direction><note><rest/><duration>96</duration><voice>1</voice><type>whole</type></note></measure><measure number="64"><attributes><time print-object="yes"><beats>2</beats><beat-type>4</beat-type></time></attributes><direction placement="above"><direction-type><words enclosure="rectangle" relative-y="2.083460489908857">F</words></direction-type></direction><note><rest/><duration>128</duration><voice>1</voice><type>whole</type></note></measure><measure number="65"><attributes/><direction placement="above"><direction-type><words relative-y="-21.87502543131511">5</words></direction-type></direction><note><rest/><duration>128</duration><voice>1</voice><type>whole</type></note></measure><measure number="66"><attributes/><note><rest/><duration>128</duration><voice>1</voice><type>whole</type></note><direction placement="above"><direction-type><words enclosure="rectangle" relative-y="2.083460489908857">G</words></direction-type></direction><barline location="right"><bar-style>light-light</bar-style></barline></measure><measure number="67"><attributes><key><fifths>-4</fifths><mode>major</mode></key></attributes><direction placement="above"><direction-type><words relative-y="-21.87502543131511">Cl. 1</words></direction-type></direction><note><pitch><step>E</step><alter>-1</alter><octave>5</octave></pitch><duration>32</duration><voice>1</voice><type>eighth</type></note></measure><measure number="68"><attributes><time print-object="yes" symbol="common"><beats>4</beats><beat-type>4</beat-type></time></attributes><note><pitch><step>A</step><alter>-1</alter><octave>5</octave></pitch><duration>64</duration><voice>1</voice><type>quarter</type><notations><slur default-x="0.65" default-y="5" number="1" placement="above" type="start"/></notations></note><note><pitch><step>C</step><octave>6</octave></pitch><duration>64</duration><voice>1</voice><type>quarter</type></note><note><pitch><step>B</step><alter>-1</alter><octave>5</octave></pitch><duration>64</duration><voice>1</voice><type>quarter</type></note><note><pitch><step>A</step><alter>-1</alter><octave>5</octave></pitch><duration>64</duration><voice>1</voice><type>quarter</type><notations><slur default-x="0.65" default-y="5" number="1" type="stop"/></notations></note></measure><measure number="69"><attributes/><note><pitch><step>E</step><alter>-1</alter><octave>5</octave></pitch><duration>64</duration><voice>1</voice><type>quarter</type><notations><slur default-x="0.65" default-y="3.5" number="1" placement="above" type="start"/></notations></note><note><pitch><step>A</step><alter>-1</alter><octave>5</octave></pitch><duration>64</duration><voice>1</voice><type>quarter</type></note><note><pitch><step>G</step><octave>5</octave></pitch><duration>64</duration><voice>1</voice><type>quarter</type></note><note><pitch><step>F</step><octave>5</octave></pitch><duration>64</duration><voice>1</voice><type>quarter</type></note></measure><measure number="70"><attributes/><note><pitch><step>D</step><alter>-1</alter><octave>5</octave></pitch><duration>64</duration><voice>1</voice><type>quarter</type><notations><slur default-x="0.25490315755208326" default-y="3.6979166666666665" number="1" type="stop"/></notations></note><note><pitch><step>F</step><octave>5</octave></pitch><duration>64</duration><voice>1</voice><type>quarter</type><notations><slur default-x="0.65" default-y="4" number="1" placement="above" type="start"/></notations></note><note><pitch><step>E</step><alter>-1</alter><octave>5</octave></pitch><duration>96</duration><voice>1</voice><type>quarter</type><dot/></note><note><pitch><step>D</step><octave>5</octave></pitch><duration>32</duration><voice>1</voice><type>eighth</type><accidental>sharp</accidental></note></measure><measure number="71"><attributes/><note><pitch><step>E</step><alter>-1</alter><octave>5</octave></pitch><duration>128</duration><voice>1</voice><type>half</type></note><note><pitch><step>C</step><octave>5</octave></pitch><duration>64</duration><voice>1</voice><type>quarter</type><notations><slur default-x="0.15269267091542282" default-y="4.114583333333333" number="1" type="stop"/></notations></note><note><rest/><duration>64</duration><voice>1</voice><type>quarter</type></note></measure><measure number="72"><attributes/><note><rest/><duration>256</duration><voice>1</voice><type>whole</type></note><direction placement="above"><direction-type><words relative-x="17.84854283845305" relative-y="-14.583307902018232">15</words></direction-type></direction></measure><measure number="73"><attributes/><direction placement="above"><direction-type><words enclosure="rectangle" relative-y="2.083460489908857">H</words></direction-type></direction><note><rest/><duration>256</duration><voice>1</voice><type>whole</type></note></measure><measure number="74"><attributes/><note><rest/><duration>128</duration><voice>1</voice><type>half</type></note><note><rest/><duration>32</duration><voice>1</voice><type>eighth</type></note><direction placement="below"><direction-type><dynamics placement="below"><ff/></dynamics></direction-type></direction><direction><direction-type><wedge default-x="29.549999999999997" default-y="-27.5" spread="15" type="diminuendo"/></direction-type><staff>1</staff></direction><note><pitch><step>E</step><alter>-1</alter><octave>5</octave></pitch><duration>16</duration><voice>1</voice><type>16th</type><beam number="1">begin</beam><notations><articulations><staccato/></articulations></notations></note><note><pitch><step>E</step><alter>-1</alter><octave>5</octave></pitch><duration>16</duration><voice>1</voice><type>16th</type><beam number="1">end</beam><notations><articulations><staccato/></articulations></notations></note><note><pitch><step>E</step><alter>-1</alter><octave>5</octave></pitch><duration>64</duration><tie type="start"/><voice>1</voice><type>quarter</type><notations><tied type="start"/></notations></note></measure><measure number="75"><attributes/><note><pitch><step>E</step><alter>-1</alter><octave>5</octave></pitch><duration>32</duration><tie type="stop"/><voice>1</voice><type>eighth</type><notations><tied type="stop"/></notations></note><direction><direction-type><wedge type="stop"/></direction-type><staff>1</staff></direction><note><rest/><duration>32</duration><voice>1</voice><type>eighth</type></note><note><rest/><duration>64</duration><voice>1</voice><type>quarter</type></note><note><rest/><duration>128</duration><voice>1</voice><type>half</type></note></measure><measure number="76"><attributes/><note><rest/><duration>128</duration><voice>1</voice><type>half</type></note><note><rest/><duration>32</duration><voice>1</voice><type>eighth</type></note><direction placement="below"><direction-type><dynamics placement="below"><ff/></dynamics></direction-type></direction><direction><direction-type><wedge default-x="29.549999999999997" default-y="-27.5" spread="15" type="diminuendo"/></direction-type><staff>1</staff></direction><note><pitch><step>G</step><alter>-1</alter><octave>4</octave></pitch><duration>16</duration><voice>1</voice><type>16th</type><accidental>natural</accidental><beam number="1">begin</beam><notations><articulations><staccato/></articulations></notations></note><note><pitch><step>G</step><alter>-1</alter><octave>4</octave></pitch><duration>16</duration><voice>1</voice><type>16th</type><beam number="1">end</beam><notations><articulations><staccato/></articulations></notations></note><note><pitch><step>G</step><alter>-1</alter><octave>4</octave></pitch><duration>64</duration><tie type="start"/><voice>1</voice><type>quarter</type><notations><tied type="start"/></notations></note></measure><measure number="77"><attributes/><note><pitch><step>G</step><alter>-1</alter><octave>4</octave></pitch><duration>32</duration><tie type="stop"/><voice>1</voice><type>eighth</type><notations><tied type="stop"/></notations></note><direction><direction-type><wedge type="stop"/></direction-type><staff>1</staff></direction><note><rest/><duration>32</duration><voice>1</voice><type>eighth</type></note><note><rest/><duration>64</duration><voice>1</voice><type>quarter</type></note><note><rest/><duration>128</duration><voice>1</voice><type>half</type></note></measure><measure number="78"><attributes/><note><rest/><duration>128</duration><voice>1</voice><type>half</type></note><note><rest/><duration>32</duration><voice>1</voice><type>eighth</type></note><direction placement="below"><direction-type><dynamics placement="below"><ff/></dynamics></direction-type></direction><direction><direction-type><wedge default-x="29.549999999999997" default-y="-27.5" spread="15" type="diminuendo"/></direction-type><staff>1</staff></direction><note><pitch><step>B</step><alter>-1</alter><octave>4</octave></pitch><duration>16</duration><voice>1</voice><type>16th</type><beam number="1">begin</beam><notations><articulations><staccato/></articulations></notations></note><note><pitch><step>B</step><alter>-1</alter><octave>4</octave></pitch><duration>16</duration><voice>1</voice><type>16th</type><beam number="1">end</beam><notations><articulations><staccato/></articulations></notations></note><note><pitch><step>B</step><alter>-1</alter><octave>4</octave></pitch><duration>64</duration><tie type="start"/><voice>1</voice><type>quarter</type><notations><tied type="start"/></notations></note></measure><measure number="79"><attributes/><note><pitch><step>B</step><alter>-1</alter><octave>4</octave></pitch><duration>32</duration><tie type="stop"/><voice>1</voice><type>eighth</type><notations><tied type="stop"/></notations></note><direction><direction-type><wedge type="stop"/></direction-type><staff>1</staff></direction><note><rest/><duration>32</duration><voice>1</voice><type>eighth</type></note><note><rest/><duration>64</duration><voice>1</voice><type>quarter</type></note><note><rest/><duration>128</duration><voice>1</voice><type>half</type></note></measure><measure number="80"><attributes/><note><rest/><duration>256</duration><voice>1</voice><type>whole</type></note><direction placement="above"><direction-type><words relative-x="11.328976933948613" relative-y="-27.46682484944661">3</words></direction-type></direction></measure><measure number="81"><attributes/><direction placement="above"><direction-type><words enclosure="rectangle" relative-y="2.083460489908857">I</words></direction-type></direction><note><rest/><duration>128</duration><voice>1</voice><type>half</type></note><direction placement="below"><direction-type><dynamics placement="below"><ff/></dynamics></direction-type></direction><note><pitch><step>B</step><alter>-1</alter><octave>4</octave></pitch><duration>128</duration><voice>1</voice><type>half</type><notations><articulations><accent/></articulations><slur default-x="0.65" default-y="0" number="1" placement="below" type="start"/></notations></note><direction><direction-type><wedge default-x="29.549999999999997" default-y="-27.5" spread="15" type="diminuendo"/></direction-type><staff>1</staff></direction></measure><measure number="82"><attributes/><note><pitch><step>C</step><alter>-1</alter><octave>5</octave></pitch><duration>64</duration><voice>1</voice><type>quarter</type><accidental>natural</accidental></note><note><rest/><duration>64</duration><voice>1</voice><type>quarter</type><notations><slur default-x="0.65" default-y="0.5" number="1" type="stop"/></notations></note><direction><direction-type><wedge default-x="0" default-y="-27.5" spread="15" type="diminuendo"/></direction-type><staff>1</staff></direction><note><pitch><step>F</step><alter>-1</alter><octave>5</octave></pitch><duration>128</duration><voice>1</voice><type>half</type><accidental>natural</accidental><notations><articulations><accent/></articulations><slur default-x="0.65" default-y="4" number="1" placement="above" type="start"/></notations></note></measure><measure number="83"><attributes/><note><pitch><step>E</step><alter>-1</alter><octave>5</octave></pitch><duration>64</duration><voice>1</voice><type>quarter</type></note><direction><direction-type><wedge type="stop"/></direction-type><staff>1</staff></direction><note><rest/><duration>64</duration><voice>1</voice><type>quarter</type><notations><slur default-x="0.65" default-y="3.5" number="1" type="stop"/></notations></note><direction><direction-type><wedge default-x="0" default-y="-27.5" spread="15" type="diminuendo"/></direction-type><staff>1</staff></direction><note><pitch><step>E</step><alter>-1</alter><octave>5</octave></pitch><duration>128</duration><voice>1</voice><type>half</type><notations><articulations><accent/></articulations><slur default-x="0.65" default-y="3.5" number="1" placement="above" type="start"/></notations></note></measure><measure number="84"><attributes/><note><pitch><step>F</step><alter>-1</alter><octave>5</octave></pitch><duration>64</duration><voice>1</voice><type>quarter</type><accidental>natural</accidental></note><direction><direction-type><wedge type="stop"/></direction-type><staff>1</staff></direction><note><rest/><duration>64</duration><voice>1</voice><type>quarter</type><notations><slur default-x="0.65" default-y="4" number="1" type="stop"/></notations></note><direction><direction-type><wedge default-x="0" default-y="-27.5" spread="15" type="diminuendo"/></direction-type><staff>1</staff></direction><note><pitch><step>B</step><alter>-2</alter><octave>4</octave></pitch><duration>128</duration><voice>1</voice><type>half</type><accidental>flat-flat</accidental><notations><articulations><accent/></articulations><slur default-x="0.65" default-y="0" number="1" placement="below" type="start"/></notations></note></measure><measure number="85"><attributes/><note><pitch><step>A</step><alter>-1</alter><octave>4</octave></pitch><duration>64</duration><voice>1</voice><type>quarter</type></note><direction><direction-type><wedge type="stop"/></direction-type><staff>1</staff></direction><note><rest/><duration>64</duration><voice>1</voice><type>quarter</type><notations><slur default-x="0.65" default-y="-0.5" number="1" type="stop"/></notations></note><note><pitch><step>C</step><alter>-1</alter><octave>5</octave></pitch><duration>128</duration><voice>1</voice><type>half</type><accidental>natural</accidental><notations><articulations><accent/></articulations><slur default-x="0.65" default-y="0.5" number="1" placement="below" type="start"/></notations></note></measure><measure number="86"><attributes/><note><pitch><step>B</step><alter>-1</alter><octave>4</octave></pitch><duration>64</duration><voice>1</voice><type>quarter</type></note><note><rest/><duration>64</duration><voice>1</voice><type>quarter</type><notations><slur default-x="0.65" default-y="0" number="1" type="stop"/></notations></note><note><pitch><step>D</step><alter>-1</alter><octave>5</octave></pitch><duration>128</duration><voice>1</voice><type>half</type><notations><articulations><accent/></articulations><slur default-x="0.65" default-y="3" number="1" placement="above" type="start"/></notations></note></measure><measure number="87"><attributes/><note><pitch><step>C</step><octave>5</octave></pitch><duration>64</duration><voice>1</voice><type>quarter</type></note><note><rest/><duration>64</duration><voice>1</voice><type>quarter</type><notations><slur default-x="0.65" default-y="5.5" number="1" type="stop"/></notations></note><note><pitch><step>E</step><alter>-1</alter><octave>5</octave></pitch><duration>128</duration><voice>1</voice><type>half</type><notations><articulations><accent/></articulations></notations></note></measure><measure number="88"><attributes/><note><pitch><step>D</step><octave>5</octave></pitch><duration>64</duration><tie type="start"/><voice>1</voice><type>quarter</type><accidental>sharp</accidental><notations><tied type="start"/><articulations><accent/></articulations></notations></note><note><pitch><step>D</step><octave>5</octave></pitch><duration>32</duration><tie type="stop"/><voice>1</voice><type>eighth</type><notations><tied type="stop"/></notations></note><note><rest/><duration>32</duration><voice>1</voice><type>eighth</type></note><note><pitch><step>B</step><alter>-1</alter><octave>4</octave></pitch><duration>64</duration><tie type="start"/><voice>1</voice><type>quarter</type><notations><tied type="start"/><articulations><accent/></articulations></notations></note><note><pitch><step>B</step><alter>-1</alter><octave>4</octave></pitch><duration>32</duration><tie type="stop"/><voice>1</voice><type>eighth</type><notations><tied type="stop"/></notations></note><note><rest/><duration>32</duration><voice>1</voice><type>eighth</type></note></measure><measure number="89"><attributes/><note><pitch><step>B</step><alter>-1</alter><octave>4</octave></pitch><duration>64</duration><tie type="start"/><voice>1</voice><type>quarter</type><notations><tied type="start"/><articulations><accent/></articulations></notations></note><note><pitch><step>B</step><alter>-1</alter><octave>4</octave></pitch><duration>32</duration><tie type="stop"/><voice>1</voice><type>eighth</type><notations><tied type="stop"/></notations></note><note><rest/><duration>32</duration><voice>1</voice><type>eighth</type></note><note><pitch><step>B</step><alter>-1</alter><octave>4</octave></pitch><duration>64</duration><tie type="start"/><voice>1</voice><type>quarter</type><notations><tied type="start"/><articulations><accent/></articulations></notations></note><note><pitch><step>B</step><alter>-1</alter><octave>4</octave></pitch><duration>32</duration><tie type="stop"/><voice>1</voice><type>eighth</type><notations><tied type="stop"/></notations></note><note><rest/><duration>32</duration><voice>1</voice><type>eighth</type></note></measure><measure number="90"><attributes/><direction placement="above"><direction-type><words enclosure="rectangle" relative-y="2.083460489908857">J</words></direction-type></direction><direction placement="below"><direction-type><dynamics placement="below"><mf/></dynamics></direction-type></direction><note><pitch><step>C</step><alter>-1</alter><octave>5</octave></pitch><duration>128</duration><voice>1</voice><type>half</type><accidental>natural</accidental><notations><slur default-x="0.65" default-y="0.5" number="1" placement="below" type="start"/></notations></note><note><pitch><step>C</step><alter>-1</alter><octave>5</octave></pitch><duration>64</duration><voice>1</voice><type>quarter</type><notations><articulations><staccato/></articulations></notations></note><note><pitch><step>C</step><alter>-1</alter><octave>5</octave></pitch><duration>64</duration><voice>1</voice><type>quarter</type><notations><articulations><staccato/></articulations></notations></note></measure><measure number="91"><attributes/><note><pitch><step>B</step><alter>-1</alter><octave>4</octave></pitch><duration>192</duration><voice>1</voice><type>half</type><dot/><notations><slur default-x="0.65" default-y="0.06000000000000005" number="1" type="stop"/><articulations><accent/></articulations><slur default-x="0.65" default-y="5" number="1" placement="above" type="start"/></notations></note><note><pitch><step>D</step><alter>-1</alter><octave>5</octave></pitch><duration>64</duration><voice>1</voice><type>quarter</type></note></measure><measure number="92"><attributes/><note><pitch><step>C</step><alter>-1</alter><octave>5</octave></pitch><duration>128</duration><voice>1</voice><type>half</type><accidental>natural</accidental><notations><slur default-x="0.65" default-y="3" number="1" type="stop"/></notations></note><note><pitch><step>C</step><alter>-1</alter><octave>5</octave></pitch><duration>64</duration><voice>1</voice><type>quarter</type><notations><articulations><accent/></articulations></notations></note><note><pitch><step>C</step><alter>-1</alter><octave>5</octave></pitch><duration>64</duration><voice>1</voice><type>quarter</type><notations><articulations><accent/></articulations></notations></note></measure><measure number="93"><attributes/><note><pitch><step>B</step><alter>-1</alter><octave>4</octave></pitch><duration>128</duration><tie type="start"/><voice>1</voice><type>half</type><notations><tied type="start"/></notations></note><note><pitch><step>B</step><alter>-1</alter><octave>4</octave></pitch><duration>64</duration><tie type="stop"/><voice>1</voice><type>quarter</type><notations><tied type="stop"/></notations></note><note><rest/><duration>64</duration><voice>1</voice><type>quarter</type></note></measure><measure number="94"><attributes/><direction placement="below"><direction-type><dynamics placement="below"><mf/></dynamics></direction-type></direction><note><pitch><step>C</step><alter>-1</alter><octave>5</octave></pitch><duration>128</duration><voice>1</voice><type>half</type><accidental>natural</accidental><notations><slur default-x="0.65" default-y="0.5" number="1" placement="below" type="start"/></notations></note><note><pitch><step>C</step><alter>-1</alter><octave>5</octave></pitch><duration>64</duration><voice>1</voice><type>quarter</type><notations><articulations><staccato/></articulations></notations></note><note><pitch><step>C</step><alter>-1</alter><octave>5</octave></pitch><duration>64</duration><voice>1</voice><type>quarter</type><notations><articulations><staccato/></articulations></notations></note></measure><measure number="95"><attributes/><note><pitch><step>B</step><alter>-1</alter><octave>4</octave></pitch><duration>192</duration><voice>1</voice><type>half</type><dot/><notations><slur default-x="0.65" default-y="0.06000000000000005" number="1" type="stop"/><articulations><accent/></articulations><slur default-x="0.65" default-y="5" number="1" placement="above" type="start"/></notations></note><note><pitch><step>D</step><alter>-1</alter><octave>5</octave></pitch><duration>64</duration><voice>1</voice><type>quarter</type></note></measure><measure number="96"><attributes/><note><pitch><step>C</step><alter>-1</alter><octave>5</octave></pitch><duration>64</duration><voice>1</voice><type>quarter</type><accidental>natural</accidental><notations><slur default-x="0.65" default-y="0.5" number="2" placement="below" type="start"/></notations></note><note><pitch><step>C</step><alter>-1</alter><octave>5</octave></pitch><duration>128</duration><voice>1</voice><type>half</type><notations><slur default-x="0.65" default-y="3" number="1" type="stop"/></notations></note><note><pitch><step>B</step><alter>-1</alter><octave>4</octave></pitch><duration>64</duration><voice>1</voice><type>quarter</type></note></measure><measure number="97"><attributes/><direction><direction-type><wedge default-x="0" default-y="-27.5" spread="15" type="diminuendo"/></direction-type><staff>1</staff></direction><note><pitch><step>B</step><alter>-1</alter><octave>4</octave></pitch><duration>128</duration><voice>1</voice><type>half</type><notations><slur default-x="0.65" default-y="0" number="1" type="stop"/></notations></note><note><pitch><step>C</step><alter>-1</alter><octave>5</octave></pitch><duration>64</duration><voice>1</voice><type>quarter</type><accidental>natural</accidental></note><direction><direction-type><wedge type="stop"/></direction-type><staff>1</staff></direction><note><rest/><duration>64</duration><voice>1</voice><type>quarter</type></note></measure><measure number="98"><attributes/><direction placement="below"><direction-type><dynamics placement="below"><p/></dynamics></direction-type></direction><note><pitch><step>B</step><alter>-1</alter><octave>4</octave></pitch><duration>128</duration><voice>1</voice><type>half</type><notations><slur default-x="0.65" default-y="0" number="1" placement="below" type="start"/></notations></note><note><pitch><step>C</step><alter>-1</alter><octave>5</octave></pitch><duration>64</duration><voice>1</voice><type>quarter</type><accidental>natural</accidental></note><note><pitch><step>A</step><alter>-1</alter><octave>4</octave></pitch><duration>64</duration><voice>1</voice><type>quarter</type><notations><slur default-x="0.65" default-y="0.5" number="1" type="stop"/><articulations><accent/></articulations></notations></note></measure><measure number="99"><attributes/><note><pitch><step>B</step><alter>-1</alter><octave>4</octave></pitch><duration>128</duration><voice>1</voice><type>half</type><notations><slur default-x="0.65" default-y="0" number="1" placement="below" type="start"/></notations></note><note><pitch><step>C</step><alter>-1</alter><octave>5</octave></pitch><duration>64</duration><voice>1</voice><type>quarter</type><accidental>natural</accidental></note><note><pitch><step>A</step><alter>-1</alter><octave>4</octave></pitch><duration>64</duration><voice>1</voice><type>quarter</type><notations><slur default-x="0.65" default-y="0.5" number="1" type="stop"/><articulations><accent/></articulations></notations></note></measure><measure number="100"><attributes/><note><pitch><step>B</step><alter>-1</alter><octave>4</octave></pitch><duration>128</duration><voice>1</voice><type>half</type><notations><slur default-x="0.65" default-y="0" number="1" placement="below" type="start"/></notations></note><note><pitch><step>C</step><alter>-1</alter><octave>5</octave></pitch><duration>64</duration><voice>1</voice><type>quarter</type><accidental>natural</accidental></note><note><pitch><step>A</step><alter>-1</alter><octave>4</octave></pitch><duration>64</duration><voice>1</voice><type>quarter</type><notations><slur default-x="0.65" default-y="0.5" number="1" type="stop"/><articulations><accent/></articulations></notations></note></measure><measure number="101"><attributes/><note><pitch><step>B</step><alter>-1</alter><octave>4</octave></pitch><duration>256</duration><voice>1</voice><type>whole</type><notations><slur default-x="0.8199999999999998" default-y="2" number="1" placement="above" type="start"/></notations></note><direction><direction-type><wedge default-x="0" default-y="-27.5" spread="15" type="crescendo"/></direction-type><staff>1</staff></direction></measure><measure number="102"><attributes/><direction placement="below"><direction-type><dynamics placement="below"><f/></dynamics></direction-type></direction><direction><direction-type><wedge default-x="16.866717529296874" default-y="-27.5" spread="15" type="diminuendo"/></direction-type><staff>1</staff></direction><note><pitch><step>D</step><alter>-1</alter><octave>5</octave></pitch><duration>128</duration><voice>1</voice><type>half</type></note><note><pitch><step>E</step><alter>-1</alter><octave>5</octave></pitch><duration>64</duration><voice>1</voice><type>quarter</type><notations><slur default-x="0.65" default-y="3.5" number="2" placement="above" type="start"/></notations></note><note><pitch><step>B</step><alter>-1</alter><octave>4</octave></pitch><duration>64</duration><voice>1</voice><type>quarter</type><notations><slur default-x="0.65" default-y="3" number="1" type="stop"/></notations></note></measure><measure number="103"><attributes/><note><pitch><step>B</step><alter>-2</alter><octave>4</octave></pitch><duration>128</duration><voice>1</voice><type>half</type><accidental>flat-flat</accidental><notations><articulations><accent/></articulations></notations></note><direction><direction-type><wedge type="stop"/></direction-type><staff>1</staff></direction><direction placement="below"><direction-type><dynamics placement="below"><p/></dynamics></direction-type></direction><note><pitch><step>A</step><alter>-1</alter><octave>4</octave></pitch><duration>64</duration><voice>1</voice><type>quarter</type></note><note><pitch><step>A</step><alter>-1</alter><octave>4</octave></pitch><duration>64</duration><voice>1</voice><type>quarter</type></note><direction placement="above"><direction-type><words enclosure="rectangle" relative-y="2.083460489908857">L</words></direction-type></direction></measure><measure number="104"><attributes/><note><pitch><step>E</step><alter>-1</alter><octave>4</octave></pitch><duration>128</duration><voice>1</voice><type>half</type><notations><slur default-x="0.65" default-y="4.5" number="1" type="stop"/></notations></note><note><rest/><duration>128</duration><voice>1</voice><type>half</type></note></measure><measure number="105"><attributes/><note><rest/><duration>256</duration><voice>1</voice><type>whole</type></note><direction placement="above"><direction-type><words relative-x="18.554794776551873" relative-y="-13.925419090072495">8</words></direction-type></direction></measure><measure number="106"><attributes/><note><rest/><duration>64</duration><voice>1</voice><type>quarter</type></note><direction placement="below"><direction-type><dynamics placement="below"><pp/></dynamics></direction-type></direction><direction><direction-type><wedge default-x="24.70010148808332" default-y="-50.10292053222656" spread="15" type="crescendo"/></direction-type><staff>1</staff></direction><note><pitch><step>E</step><alter>-1</alter><octave>4</octave></pitch><duration>64</duration><voice>1</voice><type>quarter</type><notations><articulations><accent/></articulations></notations></note><note><rest/><duration>64</duration><voice>1</voice><type>quarter</type></note><note><pitch><step>F</step><octave>4</octave></pitch><duration>64</duration><voice>1</voice><type>quarter</type><notations><articulations><accent/></articulations></notations></note></measure><measure number="107"><attributes/><note><rest/><duration>64</duration><voice>1</voice><type>quarter</type></note><note><pitch><step>G</step><alter>-1</alter><octave>4</octave></pitch><duration>64</duration><voice>1</voice><type>quarter</type><accidental>natural</accidental><notations><articulations><accent/></articulations></notations></note><note><rest/><duration>64</duration><voice>1</voice><type>quarter</type></note><note><pitch><step>A</step><alter>-2</alter><octave>4</octave></pitch><duration>64</duration><voice>1</voice><type>quarter</type><accidental>flat-flat</accidental><notations><articulations><accent/></articulations></notations></note></measure><measure number="108"><attributes/><note><rest/><duration>64</duration><voice>1</voice><type>quarter</type></note><note><pitch><step>B</step><alter>-2</alter><octave>4</octave></pitch><duration>64</duration><voice>1</voice><type>quarter</type><accidental>flat-flat</accidental><notations><articulations><accent/></articulations></notations></note><note><rest/><duration>64</duration><voice>1</voice><type>quarter</type></note><note><pitch><step>B</step><alter>-1</alter><octave>4</octave></pitch><duration>64</duration><voice>1</voice><type>quarter</type><accidental>sharp</accidental><notations><articulations><accent/></articulations></notations></note><direction><direction-type><wedge type="stop"/></direction-type><staff>1</staff></direction></measure><measure number="109"><attributes/><direction placement="above"><direction-type><words enclosure="rectangle" relative-y="2.083460489908857">M</words></direction-type></direction><direction placement="below"><direction-type><dynamics placement="below"><f/></dynamics></direction-type></direction><note><pitch><step>B</step><alter>-1</alter><octave>4</octave></pitch><duration>32</duration><voice>1</voice><type>eighth</type><beam number="1">begin</beam></note><note><pitch><step>B</step><alter>-1</alter><octave>4</octave></pitch><duration>16</duration><voice>1</voice><type>16th</type><beam number="1">continue</beam><notations><articulations><staccato/></articulations></notations></note><note><pitch><step>B</step><alter>-1</alter><octave>4</octave></pitch><duration>16</duration><voice>1</voice><type>16th</type><beam number="1">end</beam><notations><articulations><staccato/></articulations></notations></note><note><pitch><step>B</step><alter>-1</alter><octave>4</octave></pitch><duration>64</duration><voice>1</voice><type>quarter</type></note><note><pitch><step>B</step><alter>-1</alter><octave>4</octave></pitch><duration>32</duration><voice>1</voice><type>eighth</type></note><note><rest/><duration>32</duration><voice>1</voice><type>eighth</type></note><note><rest/><duration>64</duration><voice>1</voice><type>quarter</type></note></measure><measure number="110"><attributes/><note><rest/><duration>256</duration><voice>1</voice><type>whole</type></note><barline location="right"><bar-style>light-heavy</bar-style></barline></measure></part></score-partwise>