<?xml version="1.0" encoding="UTF-8"?>
<!DOCTYPE score-partwise PUBLIC "-//Recordare//DTD MusicXML 2.0 Partwise//EN"
  "http://www.musicxml.org/dtds/partwise.dtd">
<score-partwise version="2.0"><work><work-title>Lesson 7 Part 1&amp;2 - Guided Practice in Counterpoint</work-title></work><identification><creator type="composer"/><creator type="lyricist"/><rights/><encoding><software>Noteflight version 0.4</software><encoding-date>2023-11-05</encoding-date><supports attribute="new-system" element="print" type="no" value="no"/><supports attribute="new-page" element="print" type="no" value="no"/></encoding></identification><defaults><scaling><millimeters>2.1166666679999997</millimeters><tenths>10</tenths></scaling><page-layout><page-height>1320</page-height><page-width>1020</page-width><page-margins type="both"><left-margin>59.583333333333336</left-margin><right-margin>56.66666666666667</right-margin><top-margin>96.66666666666667</top-margin><bottom-margin>80</bottom-margin></page-margins></page-layout><system-layout><system-margins><left-margin>59.583333333333336</left-margin><right-margin>26.666666666666668</right-margin></system-margins><system-distance>92.5</system-distance><top-system-distance>145.83333333333334</top-system-distance></system-layout><staff-layout><staff-distance>55</staff-distance></staff-layout></defaults><credit page="1"><credit-type>title</credit-type><credit-words font-size="24" default-x="510" default-y="1210" justify="right" valign="top">Lesson 7 Part 1&amp;2 - Guided Practice in Counterpoint</credit-words></credit><part-list><score-part id="P1"><part-name>Piano</part-name><part-abbreviation>Pno</part-abbreviation><score-instrument id="P1I1"><instrument-name>Piano</instrument-name><instrument-sound>keyboard.piano</instrument-sound></score-instrument><midi-instrument id="P1I1"><midi-channel>1</midi-channel><midi-program>1</midi-program></midi-instrument></score-part><score-part id="P2"><part-name>Drums</part-name><part-abbreviation>Dr.</part-abbreviation><score-instrument id="P2I1"><instrument-name>Drums</instrument-name><instrument-sound>drum.snare-drum</instrument-sound></score-instrument><midi-instrument id="P2I1"><midi-channel>2</midi-channel><midi-program>1</midi-program></midi-instrument></score-part><score-part id="P3"><part-name>Drums</part-name><part-abbreviation>Dr.</part-abbreviation><score-instrument id="P3I1"><instrument-name>Drums</instrument-name><instrument-sound>drum.snare-drum</instrument-sound></score-instrument><midi-instrument id="P3I1"><midi-channel>3</midi-channel><midi-program>1</midi-program></midi-instrument></score-part></part-list><part id="P1"><measure number="1"><direction placement="above"><direction-type><metronome><beat-unit>quarter</beat-unit><per-minute>90</per-minute></metronome></direction-type><sound tempo="90"/></direction><direction placement="above"><direction-type><metronome><beat-unit>quarter</beat-unit><per-minute>90</per-minute></metronome></direction-type><sound tempo="90"/></direction><note><pitch><step>G</step><octave>4</octave></pitch><duration>384</duration><voice>1</voice><type>half</type><staff>1</staff></note><note><pitch><step>A</step><octave>4</octave></pitch><duration>384</duration><voice>1</voice><type>half</type><staff>1</staff></note><backup><duration>768</duration></backup><attributes><divisions>192</divisions><key><fifths>-2</fifths><mode>minor</mode></key><time print-object="yes"><beats>4</beats><beat-type>4</beat-type></time><staves>2</staves><clef number="1"><sign>G</sign><line>2</line></clef><clef number="2"><sign>F</sign><line>4</line></clef></attributes><direction placement="above"><direction-type><metronome><beat-unit>quarter</beat-unit><per-minute>90</per-minute></metronome></direction-type><sound tempo="90"/></direction><harmony><root><root-step>C</root-step></root><kind text="g:i" relative-y="-100"/><kind text="g:i" relative-y="-100">none</kind></harmony><note><pitch><step>G</step><octave>3</octave></pitch><duration>384</duration><voice>3</voice><type>half</type><staff>2</staff></note><note><pitch><step>F</step><alter>1</alter><octave>3</octave></pitch><duration>384</duration><voice>3</voice><type>half</type><accidental>sharp</accidental><staff>2</staff></note></measure><measure number="2"><direction placement="above"><direction-type><words>repetition</words></direction-type></direction><note><pitch><step>G</step><octave>4</octave></pitch><duration>384</duration><voice>1</voice><type>half</type><staff>1</staff></note><note><pitch><step>G</step><octave>4</octave></pitch><duration>384</duration><voice>1</voice><type>half</type><staff>1</staff></note><backup><duration>768</duration></backup><attributes/><note><pitch><step>G</step><octave>3</octave></pitch><duration>384</duration><voice>3</voice><type>half</type><staff>2</staff></note><note><pitch><step>E</step><alter>-1</alter><octave>3</octave></pitch><duration>384</duration><voice>3</voice><type>half</type><staff>2</staff></note></measure><measure number="3"><note><pitch><step>A</step><octave>4</octave></pitch><duration>384</duration><voice>1</voice><type>half</type><staff>1</staff></note><direction placement="above"><direction-type><words>repetition</words></direction-type></direction><note><pitch><step>D</step><octave>5</octave></pitch><duration>384</duration><voice>1</voice><type>half</type><staff>1</staff></note><backup><duration>768</duration></backup><attributes/><note><pitch><step>D</step><octave>3</octave></pitch><duration>384</duration><voice>3</voice><type>half</type><staff>2</staff></note><note><pitch><step>C</step><octave>3</octave></pitch><duration>384</duration><voice>3</voice><type>half</type><staff>2</staff></note></measure><measure number="4"><note><pitch><step>D</step><octave>5</octave></pitch><duration>384</duration><voice>1</voice><type>half</type><staff>1</staff></note><note><pitch><step>F</step><alter>1</alter><octave>5</octave></pitch><duration>384</duration><voice>1</voice><type>half</type><accidental>sharp</accidental><staff>1</staff></note><backup><duration>768</duration></backup><attributes/><note><pitch><step>B</step><alter>-1</alter><octave>2</octave></pitch><duration>384</duration><voice>3</voice><type>half</type><staff>2</staff></note><note><pitch><step>A</step><octave>2</octave></pitch><duration>384</duration><voice>3</voice><type>half</type><staff>2</staff></note></measure><measure number="5"><note><pitch><step>G</step><octave>5</octave></pitch><duration>384</duration><voice>1</voice><type>half</type><staff>1</staff></note><note><pitch><step>E</step><alter>-1</alter><octave>5</octave></pitch><duration>384</duration><voice>1</voice><type>half</type><staff>1</staff></note><backup><duration>768</duration></backup><attributes/><note><pitch><step>G</step><octave>2</octave></pitch><duration>384</duration><voice>3</voice><type>half</type><staff>2</staff></note><note><pitch><step>C</step><octave>3</octave></pitch><duration>384</duration><voice>3</voice><type>half</type><staff>2</staff></note></measure><measure number="6"><direction placement="above"><direction-type><words>direct fifths</words></direction-type></direction><note><pitch><step>D</step><octave>5</octave></pitch><duration>384</duration><voice>1</voice><type>half</type><staff>1</staff></note><note><pitch><step>A</step><octave>4</octave></pitch><duration>384</duration><voice>1</voice><type>half</type><staff>1</staff></note><backup><duration>768</duration></backup><attributes/><note><pitch><step>D</step><octave>3</octave></pitch><duration>384</duration><voice>3</voice><type>half</type><staff>2</staff></note><note><pitch><step>D</step><octave>2</octave></pitch><duration>384</duration><voice>3</voice><type>half</type><staff>2</staff></note></measure><measure number="7"><print new-system="yes"/><note><pitch><step>G</step><octave>5</octave></pitch><duration>768</duration><voice>1</voice><type>whole</type><staff>1</staff></note><backup><duration>768</duration></backup><attributes/><note><pitch><step>G</step><octave>2</octave></pitch><duration>768</duration><voice>3</voice><type>whole</type><staff>2</staff></note></measure><measure number="8"><note><pitch><step>B</step><alter>-1</alter><octave>4</octave></pitch><duration>384</duration><voice>1</voice><type>half</type><staff>1</staff></note><note><pitch><step>A</step><octave>4</octave></pitch><duration>384</duration><voice>1</voice><type>half</type><staff>1</staff></note><backup><duration>768</duration></backup><attributes/><note><pitch><step>G</step><octave>3</octave></pitch><duration>384</duration><voice>3</voice><type>half</type><staff>2</staff></note><note><pitch><step>F</step><alter>1</alter><octave>3</octave></pitch><duration>384</duration><voice>3</voice><type>half</type><accidental>sharp</accidental><staff>2</staff></note></measure><measure number="9"><note><pitch><step>G</step><octave>4</octave></pitch><duration>384</duration><voice>1</voice><type>half</type><staff>1</staff></note><note><pitch><step>C</step><octave>5</octave></pitch><duration>384</duration><voice>1</voice><type>half</type><staff>1</staff></note><backup><duration>768</duration></backup><attributes/><note><pitch><step>G</step><octave>3</octave></pitch><duration>384</duration><voice>3</voice><type>half</type><staff>2</staff></note><note><pitch><step>E</step><alter>-1</alter><octave>3</octave></pitch><duration>384</duration><voice>3</voice><type>half</type><staff>2</staff></note></measure><measure number="10"><note><pitch><step>D</step><octave>5</octave></pitch><duration>384</duration><voice>1</voice><type>half</type><staff>1</staff></note><note><pitch><step>F</step><alter>1</alter><octave>5</octave></pitch><duration>384</duration><voice>1</voice><type>half</type><accidental>sharp</accidental><staff>1</staff></note><backup><duration>768</duration></backup><attributes/><note><pitch><step>D</step><octave>3</octave></pitch><duration>384</duration><voice>3</voice><type>half</type><staff>2</staff></note><note><pitch><step>C</step><octave>3</octave></pitch><duration>384</duration><voice>3</voice><type>half</type><staff>2</staff></note></measure><measure number="11"><direction placement="above"><direction-type><words>leap</words></direction-type></direction><note><pitch><step>D</step><octave>5</octave></pitch><duration>384</duration><voice>1</voice><type>half</type><staff>1</staff></note><note><pitch><step>F</step><alter>1</alter><octave>5</octave></pitch><duration>384</duration><voice>1</voice><type>half</type><accidental>sharp</accidental><staff>1</staff></note><backup><duration>768</duration></backup><attributes/><note><pitch><step>B</step><alter>-1</alter><octave>2</octave></pitch><duration>384</duration><voice>3</voice><type>half</type><staff>2</staff></note><note><pitch><step>A</step><octave>2</octave></pitch><duration>384</duration><voice>3</voice><type>half</type><staff>2</staff></note></measure><measure number="12"><note><pitch><step>G</step><octave>5</octave></pitch><duration>384</duration><voice>1</voice><type>half</type><staff>1</staff></note><note><pitch><step>A</step><octave>5</octave></pitch><duration>384</duration><voice>1</voice><type>half</type><staff>1</staff></note><backup><duration>768</duration></backup><attributes/><note><pitch><step>G</step><octave>2</octave></pitch><duration>384</duration><voice>3</voice><type>half</type><staff>2</staff></note><note><pitch><step>C</step><octave>3</octave></pitch><duration>384</duration><voice>3</voice><type>half</type><staff>2</staff></note></measure><measure number="13"><note><pitch><step>B</step><alter>-1</alter><octave>5</octave></pitch><duration>384</duration><voice>1</voice><type>half</type><staff>1</staff></note><note><pitch><step>A</step><octave>5</octave></pitch><duration>384</duration><voice>1</voice><type>half</type><staff>1</staff></note><backup><duration>768</duration></backup><attributes/><note><pitch><step>D</step><octave>3</octave></pitch><duration>384</duration><voice>3</voice><type>half</type><staff>2</staff></note><note><pitch><step>D</step><octave>2</octave></pitch><duration>384</duration><voice>3</voice><type>half</type><staff>2</staff></note></measure><measure number="14"><print new-system="yes"/><note><pitch><step>G</step><octave>5</octave></pitch><duration>768</duration><voice>1</voice><type>whole</type><staff>1</staff></note><backup><duration>768</duration></backup><attributes/><note><pitch><step>G</step><octave>2</octave></pitch><duration>768</duration><voice>3</voice><type>whole</type><staff>2</staff></note></measure><measure number="15"><direction placement="above"><direction-type><words relative-x="-11.5" relative-y="-6.750000000000007">Good</words></direction-type></direction><note><pitch><step>G</step><octave>4</octave></pitch><duration>384</duration><voice>1</voice><type>half</type><staff>1</staff></note><note><pitch><step>A</step><octave>4</octave></pitch><duration>384</duration><voice>1</voice><type>half</type><staff>1</staff></note><direction placement="above"><direction-type><words relative-x="-0.7911471321695807" relative-y="3.5000000000000053">Scale degree 
step-wise motion (bad)</words></direction-type></direction><backup><duration>768</duration></backup><attributes/><note><pitch><step>G</step><octave>3</octave></pitch><duration>384</duration><voice>3</voice><type>half</type><staff>2</staff></note><note><pitch><step>F</step><alter>1</alter><octave>3</octave></pitch><duration>384</duration><voice>3</voice><type>half</type><accidental>sharp</accidental><staff>2</staff></note></measure><measure number="16"><note><pitch><step>B</step><alter>-1</alter><octave>4</octave></pitch><duration>384</duration><voice>1</voice><type>half</type><staff>1</staff></note><note><pitch><step>C</step><octave>5</octave></pitch><duration>384</duration><voice>1</voice><type>half</type><staff>1</staff></note><backup><duration>768</duration></backup><attributes/><note><pitch><step>G</step><octave>3</octave></pitch><duration>384</duration><voice>3</voice><type>half</type><staff>2</staff></note><note><pitch><step>F</step><alter>1</alter><octave>3</octave></pitch><duration>384</duration><voice>3</voice><type>half</type><accidental>sharp</accidental><staff>2</staff></note></measure><measure number="17"><note><pitch><step>D</step><octave>5</octave></pitch><duration>384</duration><voice>1</voice><type>half</type><staff>1</staff></note><note><pitch><step>F</step><alter>1</alter><octave>5</octave></pitch><duration>384</duration><voice>1</voice><type>half</type><accidental>sharp</accidental><staff>1</staff></note><backup><duration>768</duration></backup><attributes/><note><pitch><step>E</step><alter>-1</alter><octave>3</octave></pitch><duration>384</duration><voice>3</voice><type>half</type><staff>2</staff></note><note><pitch><step>C</step><octave>3</octave></pitch><duration>384</duration><voice>3</voice><type>half</type><staff>2</staff></note></measure><measure number="18"><note><pitch><step>G</step><octave>5</octave></pitch><duration>384</duration><voice>1</voice><type>half</type><staff>1</staff></note><note><pitch><step>F</step><alter>1</alter><octave>5</octave></pitch><duration>384</duration><voice>1</voice><type>half</type><accidental>sharp</accidental><staff>1</staff></note><backup><duration>768</duration></backup><attributes/><note><pitch><step>B</step><alter>-1</alter><octave>2</octave></pitch><duration>384</duration><voice>3</voice><type>half</type><staff>2</staff></note><note><pitch><step>A</step><octave>2</octave></pitch><duration>384</duration><voice>3</voice><type>half</type><staff>2</staff></note></measure><measure number="19"><note><pitch><step>G</step><octave>5</octave></pitch><duration>384</duration><voice>1</voice><type>half</type><staff>1</staff></note><note><pitch><step>A</step><octave>5</octave></pitch><duration>384</duration><voice>1</voice><type>half</type><staff>1</staff></note><backup><duration>768</duration></backup><attributes/><note><pitch><step>G</step><octave>2</octave></pitch><duration>384</duration><voice>3</voice><type>half</type><staff>2</staff></note><note><pitch><step>C</step><octave>3</octave></pitch><duration>384</duration><voice>3</voice><type>half</type><staff>2</staff></note></measure><measure number="20"><note><pitch><step>B</step><alter>-1</alter><octave>5</octave></pitch><duration>384</duration><voice>1</voice><type>half</type><staff>1</staff></note><note><pitch><step>A</step><octave>5</octave></pitch><duration>384</duration><voice>1</voice><type>half</type><staff>1</staff></note><backup><duration>768</duration></backup><attributes/><note><pitch><step>D</step><octave>3</octave></pitch><duration>384</duration><voice>3</voice><type>half</type><staff>2</staff></note><note><pitch><step>D</step><octave>2</octave></pitch><duration>384</duration><voice>3</voice><type>half</type><staff>2</staff></note></measure><measure number="21"><print new-system="yes"/><note><pitch><step>G</step><octave>5</octave></pitch><duration>768</duration><voice>1</voice><type>whole</type><staff>1</staff></note><backup><duration>768</duration></backup><attributes/><note><pitch><step>G</step><octave>2</octave></pitch><duration>768</duration><voice>3</voice><type>whole</type><staff>2</staff></note></measure><measure number="22"><direction placement="above"><direction-type><words relative-x="-11.5" relative-y="-6.750000000000007">Better</words></direction-type></direction><note><pitch><step>B</step><alter>-1</alter><octave>4</octave></pitch><duration>384</duration><voice>1</voice><type>half</type><staff>1</staff></note><note><pitch><step>A</step><octave>4</octave></pitch><duration>384</duration><voice>1</voice><type>half</type><staff>1</staff></note><backup><duration>768</duration></backup><attributes/><note><pitch><step>G</step><octave>3</octave></pitch><duration>384</duration><voice>3</voice><type>half</type><staff>2</staff></note><note><pitch><step>F</step><alter>1</alter><octave>3</octave></pitch><duration>384</duration><voice>3</voice><type>half</type><accidental>sharp</accidental><staff>2</staff></note></measure><measure number="23"><note><pitch><step>G</step><octave>4</octave></pitch><duration>384</duration><voice>1</voice><type>half</type><staff>1</staff></note><note><pitch><step>C</step><octave>5</octave></pitch><duration>384</duration><voice>1</voice><type>half</type><staff>1</staff></note><backup><duration>768</duration></backup><attributes/><note><pitch><step>G</step><octave>3</octave></pitch><duration>384</duration><voice>3</voice><type>half</type><staff>2</staff></note><note><pitch><step>E</step><alter>-1</alter><octave>3</octave></pitch><duration>384</duration><voice>3</voice><type>half</type><staff>2</staff></note></measure><measure number="24"><note><pitch><step>A</step><octave>4</octave></pitch><duration>384</duration><voice>1</voice><type>half</type><staff>1</staff></note><note><pitch><step>F</step><alter>1</alter><octave>4</octave></pitch><duration>384</duration><voice>1</voice><type>half</type><accidental>sharp</accidental><staff>1</staff></note><backup><duration>768</duration></backup><attributes/><note><pitch><step>D</step><octave>3</octave></pitch><duration>384</duration><voice>3</voice><type>half</type><staff>2</staff></note><note><pitch><step>C</step><octave>3</octave></pitch><duration>384</duration><voice>3</voice><type>half</type><staff>2</staff></note></measure><measure number="25"><note><pitch><step>G</step><octave>4</octave></pitch><duration>384</duration><voice>1</voice><type>half</type><staff>1</staff></note><note><pitch><step>A</step><octave>4</octave></pitch><duration>384</duration><voice>1</voice><type>half</type><staff>1</staff></note><backup><duration>768</duration></backup><attributes/><note><pitch><step>B</step><alter>-1</alter><octave>2</octave></pitch><duration>384</duration><voice>3</voice><type>half</type><staff>2</staff></note><note><pitch><step>A</step><octave>2</octave></pitch><duration>384</duration><voice>3</voice><type>half</type><staff>2</staff></note></measure><measure number="26"><note><pitch><step>B</step><alter>-1</alter><octave>4</octave></pitch><duration>384</duration><voice>1</voice><type>half</type><staff>1</staff></note><note><pitch><step>E</step><alter>-1</alter><octave>4</octave></pitch><duration>384</duration><voice>1</voice><type>half</type><staff>1</staff></note><backup><duration>768</duration></backup><attributes/><note><pitch><step>G</step><octave>2</octave></pitch><duration>384</duration><voice>3</voice><type>half</type><staff>2</staff></note><note><pitch><step>C</step><octave>3</octave></pitch><duration>384</duration><voice>3</voice><type>half</type><staff>2</staff></note></measure><measure number="27"><note><pitch><step>G</step><octave>4</octave></pitch><duration>384</duration><voice>1</voice><type>half</type><staff>1</staff></note><note><pitch><step>F</step><alter>1</alter><octave>4</octave></pitch><duration>384</duration><voice>1</voice><type>half</type><accidental>sharp</accidental><staff>1</staff></note><backup><duration>768</duration></backup><attributes/><note><pitch><step>D</step><octave>3</octave></pitch><duration>384</duration><voice>3</voice><type>half</type><staff>2</staff></note><note><pitch><step>D</step><octave>2</octave></pitch><duration>384</duration><voice>3</voice><type>half</type><staff>2</staff></note></measure><measure number="28"><print new-system="yes"/><note><pitch><step>G</step><octave>4</octave></pitch><duration>768</duration><voice>1</voice><type>whole</type><staff>1</staff></note><backup><duration>768</duration></backup><attributes/><note><pitch><step>G</step><octave>2</octave></pitch><duration>768</duration><voice>3</voice><type>whole</type><staff>2</staff></note></measure><measure number="29"><note><pitch><step>B</step><alter>-1</alter><octave>4</octave></pitch><duration>192</duration><voice>1</voice><type>quarter</type><staff>1</staff></note><direction placement="above"><direction-type><words relative-y="-6.750000000000007">ant.</words></direction-type></direction><note><pitch><step>A</step><octave>4</octave></pitch><duration>192</duration><voice>1</voice><type>quarter</type><staff>1</staff></note><note><pitch><step>A</step><octave>4</octave></pitch><duration>192</duration><voice>1</voice><type>quarter</type><staff>1</staff></note><direction placement="above"><direction-type><words relative-y="-6.750000000000007">ant.</words></direction-type></direction><note><pitch><step>G</step><octave>4</octave></pitch><duration>192</duration><voice>1</voice><type>quarter</type><staff>1</staff></note><backup><duration>768</duration></backup><attributes/><note><pitch><step>G</step><octave>3</octave></pitch><duration>384</duration><voice>3</voice><type>half</type><staff>2</staff></note><note><pitch><step>F</step><alter>1</alter><octave>3</octave></pitch><duration>384</duration><voice>3</voice><type>half</type><accidental>sharp</accidental><staff>2</staff></note></measure><measure number="30"><note><pitch><step>G</step><octave>4</octave></pitch><duration>192</duration><voice>1</voice><type>quarter</type><staff>1</staff></note><note><pitch><step>A</step><octave>4</octave></pitch><duration>192</duration><voice>1</voice><type>quarter</type><staff>1</staff></note><note><pitch><step>C</step><octave>5</octave></pitch><duration>192</duration><voice>1</voice><type>quarter</type><staff>1</staff></note><direction placement="above"><direction-type><words relative-y="-6.750000000000007">parallel 5th</words></direction-type></direction><note><pitch><step>B</step><alter>-1</alter><octave>4</octave></pitch><duration>192</duration><voice>1</voice><type>quarter</type><staff>1</staff></note><backup><duration>768</duration></backup><attributes/><note><pitch><step>G</step><octave>3</octave></pitch><duration>384</duration><voice>3</voice><type>half</type><staff>2</staff></note><note><pitch><step>E</step><alter>-1</alter><octave>3</octave></pitch><duration>384</duration><voice>3</voice><type>half</type><staff>2</staff></note></measure><measure number="31"><note><pitch><step>A</step><octave>4</octave></pitch><duration>192</duration><voice>1</voice><type>quarter</type><staff>1</staff></note><note><pitch><step>G</step><octave>4</octave></pitch><duration>192</duration><voice>1</voice><type>quarter</type><staff>1</staff></note><note><pitch><step>F</step><alter>1</alter><octave>4</octave></pitch><duration>192</duration><voice>1</voice><type>quarter</type><accidental>sharp</accidental><staff>1</staff></note><note><pitch><step>D</step><octave>4</octave></pitch><duration>192</duration><voice>1</voice><type>quarter</type><staff>1</staff></note><backup><duration>768</duration></backup><attributes/><note><pitch><step>D</step><octave>3</octave></pitch><duration>384</duration><voice>3</voice><type>half</type><staff>2</staff></note><note><pitch><step>C</step><octave>3</octave></pitch><duration>384</duration><voice>3</voice><type>half</type><staff>2</staff></note></measure><measure number="32"><note><pitch><step>G</step><octave>4</octave></pitch><duration>192</duration><voice>1</voice><type>quarter</type><staff>1</staff></note><direction placement="above"><direction-type><words relative-y="-6.750000000000007">ant.</words></direction-type></direction><note><pitch><step>A</step><octave>4</octave></pitch><duration>192</duration><voice>1</voice><type>quarter</type><staff>1</staff></note><note><pitch><step>A</step><octave>4</octave></pitch><duration>192</duration><voice>1</voice><type>quarter</type><staff>1</staff></note><direction placement="above"><direction-type><words relative-y="-6.750000000000007">ant.</words></direction-type></direction><note><pitch><step>B</step><alter>-1</alter><octave>4</octave></pitch><duration>192</duration><voice>1</voice><type>quarter</type><staff>1</staff></note><backup><duration>768</duration></backup><attributes/><note><pitch><step>B</step><alter>-1</alter><octave>2</octave></pitch><duration>384</duration><voice>3</voice><type>half</type><staff>2</staff></note><note><pitch><step>A</step><octave>2</octave></pitch><duration>384</duration><voice>3</voice><type>half</type><staff>2</staff></note></measure><measure number="33"><note><pitch><step>B</step><alter>-1</alter><octave>4</octave></pitch><duration>192</duration><voice>1</voice><type>quarter</type><staff>1</staff></note><note><pitch><step>C</step><octave>5</octave></pitch><duration>192</duration><voice>1</voice><type>quarter</type><staff>1</staff></note><direction placement="above"><direction-type><words relative-x="-3.2317397078353416" relative-y="5.583333333333336">aug 2nd 
(avoid melodically)</words></direction-type></direction><note><pitch><step>E</step><alter>-1</alter><octave>4</octave></pitch><duration>192</duration><voice>1</voice><type>quarter</type><staff>1</staff></note><note><pitch><step>F</step><alter>1</alter><octave>4</octave></pitch><duration>192</duration><voice>1</voice><type>quarter</type><accidental>sharp</accidental><staff>1</staff></note><backup><duration>768</duration></backup><attributes/><note><pitch><step>G</step><octave>2</octave></pitch><duration>384</duration><voice>3</voice><type>half</type><staff>2</staff></note><note><pitch><step>C</step><octave>3</octave></pitch><duration>384</duration><voice>3</voice><type>half</type><staff>2</staff></note></measure><measure number="34"><note><pitch><step>G</step><octave>4</octave></pitch><duration>192</duration><voice>1</voice><type>quarter</type><staff>1</staff></note><note><pitch><step>A</step><octave>4</octave></pitch><duration>192</duration><voice>1</voice><type>quarter</type><staff>1</staff></note><note><pitch><step>F</step><alter>1</alter><octave>4</octave></pitch><duration>192</duration><voice>1</voice><type>quarter</type><accidental>sharp</accidental><staff>1</staff></note><direction placement="above"><direction-type><words relative-y="-6.750000000000007">ant.</words></direction-type></direction><note><pitch><step>G</step><octave>4</octave></pitch><duration>192</duration><voice>1</voice><type>quarter</type><staff>1</staff></note><backup><duration>768</duration></backup><attributes/><note><pitch><step>D</step><octave>3</octave></pitch><duration>384</duration><voice>3</voice><type>half</type><staff>2</staff></note><note><pitch><step>D</step><octave>2</octave></pitch><duration>384</duration><voice>3</voice><type>half</type><staff>2</staff></note></measure><measure number="35"><print new-system="yes"/><note><pitch><step>G</step><octave>4</octave></pitch><duration>768</duration><voice>1</voice><type>whole</type><staff>1</staff></note><backup><duration>768</duration></backup><attributes/><note><pitch><step>G</step><octave>2</octave></pitch><duration>768</duration><voice>3</voice><type>whole</type><staff>2</staff></note></measure><measure number="36"><note><pitch><step>B</step><alter>-1</alter><octave>4</octave></pitch><duration>192</duration><voice>1</voice><type>quarter</type><staff>1</staff></note><note><pitch><step>G</step><octave>4</octave></pitch><duration>192</duration><voice>1</voice><type>quarter</type><staff>1</staff></note><direction placement="above"><direction-type><words relative-y="-6.750000000000007">parallel 8ve</words></direction-type></direction><note><pitch><step>A</step><octave>4</octave></pitch><duration>192</duration><voice>1</voice><type>quarter</type><staff>1</staff></note><note><pitch><step>F</step><alter>1</alter><octave>4</octave></pitch><duration>192</duration><voice>1</voice><type>quarter</type><accidental>sharp</accidental><staff>1</staff></note><backup><duration>768</duration></backup><attributes/><note><pitch><step>G</step><octave>3</octave></pitch><duration>384</duration><voice>3</voice><type>half</type><staff>2</staff></note><note><pitch><step>F</step><alter>1</alter><octave>3</octave></pitch><duration>384</duration><voice>3</voice><type>half</type><accidental>sharp</accidental><staff>2</staff></note></measure><measure number="37"><note><pitch><step>G</step><octave>4</octave></pitch><duration>192</duration><voice>1</voice><type>quarter</type><staff>1</staff></note><note><pitch><step>B</step><alter>-1</alter><octave>4</octave></pitch><duration>192</duration><voice>1</voice><type>quarter</type><staff>1</staff></note><note><pitch><step>C</step><octave>5</octave></pitch><duration>192</duration><voice>1</voice><type>quarter</type><staff>1</staff></note><direction placement="above"><direction-type><words relative-y="-6.750000000000007">parallel 5ths</words></direction-type></direction><note><pitch><step>B</step><alter>-1</alter><octave>4</octave></pitch><duration>192</duration><voice>1</voice><type>quarter</type><staff>1</staff></note><backup><duration>768</duration></backup><attributes/><note><pitch><step>G</step><octave>3</octave></pitch><duration>384</duration><voice>3</voice><type>half</type><staff>2</staff></note><note><pitch><step>E</step><alter>-1</alter><octave>3</octave></pitch><duration>384</duration><voice>3</voice><type>half</type><staff>2</staff></note></measure><measure number="38"><note><pitch><step>A</step><octave>4</octave></pitch><duration>192</duration><voice>1</voice><type>quarter</type><staff>1</staff></note><note><pitch><step>G</step><octave>4</octave></pitch><duration>192</duration><voice>1</voice><type>quarter</type><staff>1</staff></note><note><pitch><step>F</step><alter>1</alter><octave>4</octave></pitch><duration>192</duration><voice>1</voice><type>quarter</type><accidental>sharp</accidental><staff>1</staff></note><direction placement="above"><direction-type><words relative-y="-6.750000000000007">leaps</words></direction-type></direction><note><pitch><step>D</step><octave>5</octave></pitch><duration>192</duration><voice>1</voice><type>quarter</type><staff>1</staff></note><backup><duration>768</duration></backup><attributes/><note><pitch><step>D</step><octave>3</octave></pitch><duration>384</duration><voice>3</voice><type>half</type><staff>2</staff></note><note><pitch><step>C</step><octave>3</octave></pitch><duration>384</duration><voice>3</voice><type>half</type><staff>2</staff></note></measure><measure number="39"><note><pitch><step>G</step><octave>4</octave></pitch><duration>192</duration><voice>1</voice><type>quarter</type><staff>1</staff></note><direction placement="above"><direction-type><words relative-y="-6.750000000000007">parallel 8ve</words></direction-type></direction><note><pitch><step>B</step><alter>-1</alter><octave>4</octave></pitch><duration>192</duration><voice>1</voice><type>quarter</type><staff>1</staff></note><note><pitch><step>A</step><octave>4</octave></pitch><duration>192</duration><voice>1</voice><type>quarter</type><staff>1</staff></note><note><pitch><step>C</step><octave>5</octave></pitch><duration>192</duration><voice>1</voice><type>quarter</type><staff>1</staff></note><backup><duration>768</duration></backup><attributes/><note><pitch><step>B</step><alter>-1</alter><octave>2</octave></pitch><duration>384</duration><voice>3</voice><type>half</type><staff>2</staff></note><note><pitch><step>A</step><octave>2</octave></pitch><duration>384</duration><voice>3</voice><type>half</type><staff>2</staff></note></measure><measure number="40"><note><pitch><step>B</step><alter>-1</alter><octave>4</octave></pitch><duration>192</duration><voice>1</voice><type>quarter</type><staff>1</staff></note><note><pitch><step>D</step><octave>5</octave></pitch><duration>192</duration><voice>1</voice><type>quarter</type><staff>1</staff></note><note><pitch><step>E</step><alter>-1</alter><octave>5</octave></pitch><duration>192</duration><voice>1</voice><type>quarter</type><staff>1</staff></note><note><pitch><step>C</step><octave>5</octave></pitch><duration>192</duration><voice>1</voice><type>quarter</type><staff>1</staff></note><backup><duration>768</duration></backup><attributes/><note><pitch><step>G</step><octave>2</octave></pitch><duration>384</duration><voice>3</voice><type>half</type><staff>2</staff></note><note><pitch><step>C</step><octave>3</octave></pitch><duration>384</duration><voice>3</voice><type>half</type><staff>2</staff></note></measure><measure number="41"><note><pitch><step>B</step><alter>-1</alter><octave>4</octave></pitch><duration>192</duration><voice>1</voice><type>quarter</type><staff>1</staff></note><note><pitch><step>G</step><octave>4</octave></pitch><duration>192</duration><voice>1</voice><type>quarter</type><staff>1</staff></note><note><pitch><step>F</step><alter>1</alter><octave>4</octave></pitch><duration>192</duration><voice>1</voice><type>quarter</type><accidental>sharp</accidental><staff>1</staff></note><note><pitch><step>A</step><octave>4</octave></pitch><duration>192</duration><voice>1</voice><type>quarter</type><staff>1</staff></note><backup><duration>768</duration></backup><attributes/><note><pitch><step>D</step><octave>3</octave></pitch><duration>384</duration><voice>3</voice><type>half</type><staff>2</staff></note><note><pitch><step>D</step><octave>2</octave></pitch><duration>384</duration><voice>3</voice><type>half</type><staff>2</staff></note></measure><measure number="42"><print new-system="yes"/><note><pitch><step>G</step><octave>4</octave></pitch><duration>768</duration><voice>1</voice><type>whole</type><staff>1</staff></note><backup><duration>768</duration></backup><attributes/><note><pitch><step>G</step><octave>2</octave></pitch><duration>768</duration><voice>3</voice><type>whole</type><staff>2</staff></note></measure><measure number="43"><direction placement="above"><direction-type><words relative-y="-6.750000000000007">Better</words></direction-type></direction><note><pitch><step>B</step><alter>-1</alter><octave>4</octave></pitch><duration>192</duration><voice>1</voice><type>quarter</type><staff>1</staff></note><note><pitch><step>C</step><octave>5</octave></pitch><duration>192</duration><voice>1</voice><type>quarter</type><staff>1</staff></note><note><pitch><step>A</step><octave>4</octave></pitch><duration>192</duration><voice>1</voice><type>quarter</type><staff>1</staff></note><note><pitch><step>D</step><octave>5</octave></pitch><duration>192</duration><voice>1</voice><type>quarter</type><staff>1</staff></note><backup><duration>768</duration></backup><attributes/><note><pitch><step>G</step><octave>3</octave></pitch><duration>384</duration><voice>3</voice><type>half</type><staff>2</staff></note><note><pitch><step>F</step><alter>1</alter><octave>3</octave></pitch><duration>384</duration><voice>3</voice><type>half</type><accidental>sharp</accidental><staff>2</staff></note></measure><measure number="44"><note><pitch><step>C</step><octave>5</octave></pitch><duration>192</duration><voice>1</voice><type>quarter</type><staff>1</staff></note><note><pitch><step>B</step><alter>-1</alter><octave>4</octave></pitch><duration>192</duration><voice>1</voice><type>quarter</type><staff>1</staff></note><note><pitch><step>A</step><octave>4</octave></pitch><duration>192</duration><voice>1</voice><type>quarter</type><staff>1</staff></note><note><pitch><step>G</step><octave>4</octave></pitch><duration>192</duration><voice>1</voice><type>quarter</type><staff>1</staff></note><backup><duration>768</duration></backup><attributes/><note><pitch><step>G</step><octave>3</octave></pitch><duration>384</duration><voice>3</voice><type>half</type><staff>2</staff></note><note><pitch><step>E</step><alter>-1</alter><octave>3</octave></pitch><duration>384</duration><voice>3</voice><type>half</type><staff>2</staff></note></measure><measure number="45"><note><pitch><step>A</step><octave>4</octave></pitch><duration>192</duration><voice>1</voice><type>quarter</type><staff>1</staff></note><note><pitch><step>G</step><octave>4</octave></pitch><duration>192</duration><voice>1</voice><type>quarter</type><staff>1</staff></note><note><pitch><step>F</step><alter>1</alter><octave>4</octave></pitch><duration>192</duration><voice>1</voice><type>quarter</type><accidental>sharp</accidental><staff>1</staff></note><note><pitch><step>D</step><octave>4</octave></pitch><duration>192</duration><voice>1</voice><type>quarter</type><staff>1</staff></note><backup><duration>768</duration></backup><attributes/><note><pitch><step>D</step><octave>3</octave></pitch><duration>384</duration><voice>3</voice><type>half</type><staff>2</staff></note><note><pitch><step>C</step><octave>3</octave></pitch><duration>384</duration><voice>3</voice><type>half</type><staff>2</staff></note></measure><measure number="46"><note><pitch><step>G</step><octave>4</octave></pitch><duration>192</duration><voice>1</voice><type>quarter</type><staff>1</staff></note><note><pitch><step>B</step><alter>-1</alter><octave>4</octave></pitch><duration>192</duration><voice>1</voice><type>quarter</type><staff>1</staff></note><note><pitch><step>C</step><octave>5</octave></pitch><duration>192</duration><voice>1</voice><type>quarter</type><staff>1</staff></note><note><pitch><step>A</step><octave>4</octave></pitch><duration>192</duration><voice>1</voice><type>quarter</type><staff>1</staff></note><backup><duration>768</duration></backup><attributes/><note><pitch><step>B</step><alter>-1</alter><octave>2</octave></pitch><duration>384</duration><voice>3</voice><type>half</type><staff>2</staff></note><note><pitch><step>A</step><octave>2</octave></pitch><duration>384</duration><voice>3</voice><type>half</type><staff>2</staff></note></measure><measure number="47"><note><pitch><step>B</step><alter>-1</alter><octave>4</octave></pitch><duration>192</duration><voice>1</voice><type>quarter</type><staff>1</staff></note><note><pitch><step>G</step><octave>5</octave></pitch><duration>192</duration><voice>1</voice><type>quarter</type><staff>1</staff></note><note><pitch><step>F</step><octave>5</octave></pitch><duration>192</duration><voice>1</voice><type>quarter</type><staff>1</staff></note><note><pitch><step>E</step><alter>-1</alter><octave>5</octave></pitch><duration>192</duration><voice>1</voice><type>quarter</type><staff>1</staff></note><backup><duration>768</duration></backup><attributes/><note><pitch><step>G</step><octave>2</octave></pitch><duration>384</duration><voice>3</voice><type>half</type><staff>2</staff></note><note><pitch><step>C</step><octave>3</octave></pitch><duration>384</duration><voice>3</voice><type>half</type><staff>2</staff></note></measure><measure number="48"><note><pitch><step>D</step><octave>5</octave></pitch><duration>192</duration><voice>1</voice><type>quarter</type><staff>1</staff></note><note><pitch><step>B</step><alter>-1</alter><octave>4</octave></pitch><duration>192</duration><voice>1</voice><type>quarter</type><staff>1</staff></note><note><pitch><step>C</step><octave>5</octave></pitch><duration>192</duration><voice>1</voice><type>quarter</type><staff>1</staff></note><note><pitch><step>A</step><octave>4</octave></pitch><duration>192</duration><voice>1</voice><type>quarter</type><staff>1</staff></note><backup><duration>768</duration></backup><attributes/><note><pitch><step>D</step><octave>3</octave></pitch><duration>384</duration><voice>3</voice><type>half</type><staff>2</staff></note><note><pitch><step>D</step><octave>2</octave></pitch><duration>384</duration><voice>3</voice><type>half</type><staff>2</staff></note></measure><measure number="49"><print new-system="yes"/><note><pitch><step>G</step><octave>4</octave></pitch><duration>768</duration><voice>1</voice><type>whole</type><staff>1</staff></note><backup><duration>768</duration></backup><attributes/><note><pitch><step>G</step><octave>2</octave></pitch><duration>768</duration><voice>3</voice><type>whole</type><staff>2</staff></note></measure><measure number="50"><direction placement="above"><direction-type><words relative-y="-6.750000000000007">Better with N6 Substitution</words></direction-type></direction><note><pitch><step>B</step><alter>-1</alter><octave>4</octave></pitch><duration>192</duration><voice>1</voice><type>quarter</type><staff>1</staff></note><note><pitch><step>C</step><octave>5</octave></pitch><duration>192</duration><voice>1</voice><type>quarter</type><staff>1</staff></note><note><pitch><step>A</step><octave>4</octave></pitch><duration>192</duration><voice>1</voice><type>quarter</type><staff>1</staff></note><note><pitch><step>D</step><octave>5</octave></pitch><duration>192</duration><voice>1</voice><type>quarter</type><staff>1</staff></note><backup><duration>768</duration></backup><attributes/><note><pitch><step>G</step><octave>3</octave></pitch><duration>384</duration><voice>3</voice><type>half</type><staff>2</staff></note><note><pitch><step>F</step><alter>1</alter><octave>3</octave></pitch><duration>384</duration><voice>3</voice><type>half</type><accidental>sharp</accidental><staff>2</staff></note></measure><measure number="51"><note><pitch><step>C</step><octave>5</octave></pitch><duration>192</duration><voice>1</voice><type>quarter</type><staff>1</staff></note><note><pitch><step>B</step><alter>-1</alter><octave>4</octave></pitch><duration>192</duration><voice>1</voice><type>quarter</type><staff>1</staff></note><note><pitch><step>A</step><octave>4</octave></pitch><duration>192</duration><voice>1</voice><type>quarter</type><staff>1</staff></note><note><pitch><step>G</step><octave>4</octave></pitch><duration>192</duration><voice>1</voice><type>quarter</type><staff>1</staff></note><backup><duration>768</duration></backup><attributes/><note><pitch><step>G</step><octave>3</octave></pitch><duration>384</duration><voice>3</voice><type>half</type><staff>2</staff></note><note><pitch><step>E</step><alter>-1</alter><octave>3</octave></pitch><duration>384</duration><voice>3</voice><type>half</type><staff>2</staff></note></measure><measure number="52"><note><pitch><step>A</step><octave>4</octave></pitch><duration>192</duration><voice>1</voice><type>quarter</type><staff>1</staff></note><note><pitch><step>G</step><octave>4</octave></pitch><duration>192</duration><voice>1</voice><type>quarter</type><staff>1</staff></note><note><pitch><step>F</step><alter>1</alter><octave>4</octave></pitch><duration>192</duration><voice>1</voice><type>quarter</type><accidental>sharp</accidental><staff>1</staff></note><note><pitch><step>D</step><octave>4</octave></pitch><duration>192</duration><voice>1</voice><type>quarter</type><staff>1</staff></note><backup><duration>768</duration></backup><attributes/><note><pitch><step>D</step><octave>3</octave></pitch><duration>384</duration><voice>3</voice><type>half</type><staff>2</staff></note><note><pitch><step>C</step><octave>3</octave></pitch><duration>384</duration><voice>3</voice><type>half</type><staff>2</staff></note></measure><measure number="53"><note><pitch><step>G</step><octave>4</octave></pitch><duration>192</duration><voice>1</voice><type>quarter</type><staff>1</staff></note><note><pitch><step>B</step><alter>-1</alter><octave>4</octave></pitch><duration>192</duration><voice>1</voice><type>quarter</type><staff>1</staff></note><note><pitch><step>C</step><octave>5</octave></pitch><duration>192</duration><voice>1</voice><type>quarter</type><staff>1</staff></note><note><pitch><step>A</step><octave>4</octave></pitch><duration>192</duration><voice>1</voice><type>quarter</type><staff>1</staff></note><backup><duration>768</duration></backup><attributes/><note><pitch><step>B</step><alter>-1</alter><octave>2</octave></pitch><duration>384</duration><voice>3</voice><type>half</type><staff>2</staff></note><note><pitch><step>A</step><octave>2</octave></pitch><duration>384</duration><voice>3</voice><type>half</type><staff>2</staff></note></measure><measure number="54"><note><pitch><step>B</step><alter>-1</alter><octave>4</octave></pitch><duration>192</duration><voice>1</voice><type>quarter</type><staff>1</staff></note><note><pitch><step>G</step><octave>4</octave></pitch><duration>192</duration><voice>1</voice><type>quarter</type><staff>1</staff></note><note><pitch><step>A</step><alter>-1</alter><octave>4</octave></pitch><duration>192</duration><voice>1</voice><type>quarter</type><accidental>flat</accidental><staff>1</staff></note><note><pitch><step>E</step><alter>-1</alter><octave>5</octave></pitch><duration>192</duration><voice>1</voice><type>quarter</type><staff>1</staff></note><backup><duration>768</duration></backup><attributes/><note><pitch><step>G</step><octave>2</octave></pitch><duration>384</duration><voice>3</voice><type>half</type><staff>2</staff></note><note><pitch><step>C</step><octave>3</octave></pitch><duration>384</duration><voice>3</voice><type>half</type><staff>2</staff></note></measure><measure number="55"><note><pitch><step>D</step><octave>5</octave></pitch><duration>192</duration><voice>1</voice><type>quarter</type><staff>1</staff></note><note><pitch><step>B</step><alter>-1</alter><octave>4</octave></pitch><duration>192</duration><voice>1</voice><type>quarter</type><staff>1</staff></note><note><pitch><step>C</step><octave>5</octave></pitch><duration>192</duration><voice>1</voice><type>quarter</type><staff>1</staff></note><note><pitch><step>A</step><octave>4</octave></pitch><duration>192</duration><voice>1</voice><type>quarter</type><accidental>natural</accidental><staff>1</staff></note><backup><duration>768</duration></backup><attributes/><note><pitch><step>D</step><octave>3</octave></pitch><duration>384</duration><voice>3</voice><type>half</type><staff>2</staff></note><note><pitch><step>D</step><octave>2</octave></pitch><duration>384</duration><voice>3</voice><type>half</type><staff>2</staff></note></measure><measure number="56"><print new-system="yes"/><note><pitch><step>G</step><octave>4</octave></pitch><duration>768</duration><voice>1</voice><type>whole</type><staff>1</staff></note><backup><duration>768</duration></backup><attributes/><note><pitch><step>G</step><octave>2</octave></pitch><duration>768</duration><voice>3</voice><type>whole</type><staff>2</staff></note></measure><measure number="57"><direction placement="above"><direction-type><words relative-y="-6.750000000000007">Mixed Note Values with N6 Substitution</words></direction-type></direction><note><pitch><step>B</step><alter>-1</alter><octave>4</octave></pitch><duration>96</duration><voice>1</voice><type>eighth</type><staff>1</staff><beam number="1">begin</beam></note><note><pitch><step>D</step><octave>5</octave></pitch><duration>96</duration><voice>1</voice><type>eighth</type><staff>1</staff><beam number="1">continue</beam></note><note><pitch><step>C</step><octave>5</octave></pitch><duration>96</duration><voice>1</voice><type>eighth</type><staff>1</staff><beam number="1">continue</beam></note><note><pitch><step>B</step><alter>-1</alter><octave>4</octave></pitch><duration>96</duration><voice>1</voice><type>eighth</type><staff>1</staff><beam number="1">end</beam></note><note><pitch><step>A</step><octave>4</octave></pitch><duration>96</duration><voice>1</voice><type>eighth</type><staff>1</staff><beam number="1">begin</beam></note><note><pitch><step>B</step><alter>-1</alter><octave>4</octave></pitch><duration>96</duration><voice>1</voice><type>eighth</type><staff>1</staff><beam number="1">continue</beam></note><note><pitch><step>C</step><octave>5</octave></pitch><duration>96</duration><voice>1</voice><type>eighth</type><staff>1</staff><beam number="1">continue</beam></note><note><pitch><step>D</step><octave>5</octave></pitch><duration>96</duration><voice>1</voice><type>eighth</type><staff>1</staff><beam number="1">end</beam></note><backup><duration>768</duration></backup><attributes/><note><pitch><step>G</step><octave>3</octave></pitch><duration>384</duration><voice>3</voice><type>half</type><staff>2</staff></note><note><pitch><step>F</step><alter>1</alter><octave>3</octave></pitch><duration>384</duration><voice>3</voice><type>half</type><accidental>sharp</accidental><staff>2</staff></note></measure><measure number="58"><note><pitch><step>B</step><alter>-1</alter><octave>4</octave></pitch><duration>192</duration><voice>1</voice><type>quarter</type><staff>1</staff></note><note><pitch><step>G</step><octave>4</octave></pitch><duration>192</duration><voice>1</voice><type>quarter</type><staff>1</staff><notations><slur default-x="0.65" default-y="0" number="1" placement="below" type="start"/></notations></note><note><pitch><step>G</step><octave>4</octave></pitch><duration>96</duration><voice>1</voice><type>eighth</type><staff>1</staff><beam number="1">begin</beam></note><note><pitch><step>A</step><octave>4</octave></pitch><duration>96</duration><voice>1</voice><type>eighth</type><staff>1</staff><beam number="1">continue</beam><notations><slur default-x="0.65" default-y="0" number="1" type="stop"/></notations></note><note><pitch><step>B</step><alter>-1</alter><octave>4</octave></pitch><duration>96</duration><voice>1</voice><type>eighth</type><staff>1</staff><beam number="1">continue</beam></note><note><pitch><step>C</step><octave>5</octave></pitch><duration>96</duration><voice>1</voice><type>eighth</type><staff>1</staff><beam number="1">end</beam></note><backup><duration>768</duration></backup><attributes/><note><pitch><step>G</step><octave>3</octave></pitch><duration>384</duration><voice>3</voice><type>half</type><staff>2</staff></note><note><pitch><step>E</step><alter>-1</alter><octave>3</octave></pitch><duration>384</duration><voice>3</voice><type>half</type><staff>2</staff></note></measure><measure number="59"><note><pitch><step>D</step><octave>5</octave></pitch><duration>192</duration><voice>1</voice><type>quarter</type><staff>1</staff></note><note><pitch><step>C</step><octave>5</octave></pitch><duration>96</duration><voice>1</voice><type>eighth</type><staff>1</staff><beam number="1">begin</beam></note><note><pitch><step>B</step><alter>-1</alter><octave>4</octave></pitch><duration>96</duration><voice>1</voice><type>eighth</type><staff>1</staff><beam number="1">end</beam></note><note><pitch><step>A</step><octave>4</octave></pitch><duration>96</duration><voice>1</voice><type>eighth</type><staff>1</staff><beam number="1">begin</beam></note><note><pitch><step>G</step><octave>4</octave></pitch><duration>96</duration><voice>1</voice><type>eighth</type><staff>1</staff><beam number="1">continue</beam></note><note><pitch><step>F</step><alter>1</alter><octave>4</octave></pitch><duration>96</duration><voice>1</voice><type>eighth</type><accidental>sharp</accidental><staff>1</staff><beam number="1">continue</beam></note><note><pitch><step>D</step><octave>4</octave></pitch><duration>96</duration><voice>1</voice><type>eighth</type><staff>1</staff><beam number="1">end</beam></note><backup><duration>768</duration></backup><attributes/><note><pitch><step>D</step><octave>3</octave></pitch><duration>384</duration><voice>3</voice><type>half</type><staff>2</staff></note><note><pitch><step>C</step><octave>3</octave></pitch><duration>384</duration><voice>3</voice><type>half</type><staff>2</staff></note></measure><measure number="60"><note><pitch><step>A</step><octave>4</octave></pitch><duration>192</duration><voice>1</voice><type>quarter</type><staff>1</staff></note><note><pitch><step>G</step><octave>4</octave></pitch><duration>192</duration><voice>1</voice><type>quarter</type><staff>1</staff></note><note><pitch><step>C</step><octave>5</octave></pitch><duration>96</duration><voice>1</voice><type>eighth</type><staff>1</staff><beam number="1">begin</beam></note><note><pitch><step>B</step><alter>-1</alter><octave>4</octave></pitch><duration>96</duration><voice>1</voice><type>eighth</type><staff>1</staff><beam number="1">continue</beam></note><note><pitch><step>A</step><octave>4</octave></pitch><duration>96</duration><voice>1</voice><type>eighth</type><staff>1</staff><beam number="1">continue</beam></note><note><pitch><step>C</step><octave>5</octave></pitch><duration>96</duration><voice>1</voice><type>eighth</type><staff>1</staff><beam number="1">end</beam></note><backup><duration>768</duration></backup><attributes/><note><pitch><step>B</step><alter>-1</alter><octave>2</octave></pitch><duration>384</duration><voice>3</voice><type>half</type><staff>2</staff></note><note><pitch><step>A</step><octave>2</octave></pitch><duration>384</duration><voice>3</voice><type>half</type><staff>2</staff></note></measure><measure number="61"><note><pitch><step>B</step><alter>-1</alter><octave>4</octave></pitch><duration>192</duration><voice>1</voice><type>quarter</type><staff>1</staff></note><note><pitch><step>G</step><octave>4</octave></pitch><duration>192</duration><voice>1</voice><type>quarter</type><staff>1</staff></note><note><pitch><step>E</step><alter>-1</alter><octave>4</octave></pitch><duration>96</duration><voice>1</voice><type>eighth</type><staff>1</staff><beam number="1">begin</beam></note><note><pitch><step>A</step><alter>-1</alter><octave>4</octave></pitch><duration>96</duration><voice>1</voice><type>eighth</type><accidental>flat</accidental><staff>1</staff><beam number="1">continue</beam></note><note><pitch><step>C</step><octave>5</octave></pitch><duration>96</duration><voice>1</voice><type>eighth</type><staff>1</staff><beam number="1">continue</beam></note><note><pitch><step>E</step><alter>-1</alter><octave>5</octave></pitch><duration>96</duration><voice>1</voice><type>eighth</type><staff>1</staff><beam number="1">end</beam></note><backup><duration>768</duration></backup><attributes/><note><pitch><step>G</step><octave>2</octave></pitch><duration>384</duration><voice>3</voice><type>half</type><staff>2</staff></note><note><pitch><step>C</step><octave>3</octave></pitch><duration>384</duration><voice>3</voice><type>half</type><staff>2</staff></note></measure><measure number="62"><note><pitch><step>D</step><octave>5</octave></pitch><duration>96</duration><voice>1</voice><type>eighth</type><staff>1</staff><beam number="1">begin</beam></note><note><pitch><step>C</step><octave>5</octave></pitch><duration>96</duration><voice>1</voice><type>eighth</type><staff>1</staff><beam number="1">continue</beam></note><note><pitch><step>B</step><alter>-1</alter><octave>4</octave></pitch><duration>96</duration><voice>1</voice><type>eighth</type><staff>1</staff><beam number="1">continue</beam></note><note><pitch><step>A</step><octave>4</octave></pitch><duration>96</duration><voice>1</voice><type>eighth</type><accidental>natural</accidental><staff>1</staff><beam number="1">end</beam></note><note><pitch><step>A</step><octave>4</octave></pitch><duration>192</duration><voice>1</voice><type>quarter</type><staff>1</staff></note><note><pitch><step>G</step><octave>4</octave></pitch><duration>96</duration><voice>1</voice><type>eighth</type><staff>1</staff><beam number="1">begin</beam></note><note><pitch><step>F</step><alter>1</alter><octave>4</octave></pitch><duration>96</duration><voice>1</voice><type>eighth</type><accidental>sharp</accidental><staff>1</staff><beam number="1">end</beam></note><backup><duration>768</duration></backup><attributes/><note><pitch><step>D</step><octave>3</octave></pitch><duration>384</duration><voice>3</voice><type>half</type><staff>2</staff></note><note><pitch><step>D</step><octave>2</octave></pitch><duration>384</duration><voice>3</voice><type>half</type><staff>2</staff></note></measure><measure number="63"><note><pitch><step>G</step><octave>4</octave></pitch><duration>768</duration><voice>1</voice><type>whole</type><staff>1</staff></note><backup><duration>768</duration></backup><attributes/><note><pitch><step>G</step><octave>2</octave></pitch><duration>768</duration><voice>3</voice><type>whole</type><staff>2</staff></note></measure><measure number="64"><direction placement="above"><direction-type><metronome><beat-unit>quarter</beat-unit><per-minute>73</per-minute></metronome></direction-type><sound tempo="73"/></direction><direction placement="above"><direction-type><metronome><beat-unit>quarter</beat-unit><per-minute>73</per-minute></metronome></direction-type><sound tempo="73"/></direction><note><rest/><duration>768</duration><voice>1</voice><type>whole</type><staff>1</staff></note><backup><duration>768</duration></backup><attributes/><direction placement="above"><direction-type><metronome><beat-unit>quarter</beat-unit><per-minute>73</per-minute></metronome></direction-type><sound tempo="73"/></direction><note><rest/><duration>768</duration><voice>3</voice><type>whole</type><staff>2</staff></note></measure><measure number="65"><note><rest/><duration>768</duration><voice>1</voice><type>whole</type><staff>1</staff></note><backup><duration>768</duration></backup><attributes/><note><rest/><duration>768</duration><voice>3</voice><type>whole</type><staff>2</staff></note><barline location="right"><bar-style>light-heavy</bar-style></barline></measure></part><part id="P2"><measure number="1"><attributes><divisions>192</divisions><time print-object="yes"><beats>4</beats><beat-type>4</beat-type></time><clef number="1"><sign>percussion</sign></clef></attributes><direction placement="above"><direction-type><metronome><beat-unit>quarter</beat-unit><per-minute>90</per-minute></metronome></direction-type><sound tempo="90"/></direction><note><unpitched><display-step>G</display-step><display-octave>5</display-octave></unpitched><duration>96</duration><voice>1</voice><type>eighth</type><notehead>x</notehead><beam number="1">begin</beam></note><note><unpitched><display-step>G</display-step><display-octave>5</display-octave></unpitched><duration>96</duration><voice>1</voice><type>eighth</type><notehead>x</notehead><beam number="1">end</beam></note><note><unpitched><display-step>G</display-step><display-octave>5</display-octave></unpitched><duration>96</duration><voice>1</voice><type>eighth</type><notehead>x</notehead><beam number="1">begin</beam></note><note><unpitched><display-step>G</display-step><display-octave>5</display-octave></unpitched><duration>96</duration><voice>1</voice><type>eighth</type><notehead>x</notehead><beam number="1">end</beam></note><note><unpitched><display-step>G</display-step><display-octave>5</display-octave></unpitched><duration>96</duration><voice>1</voice><type>eighth</type><notehead>x</notehead><beam number="1">begin</beam></note><note><unpitched><display-step>G</display-step><display-octave>5</display-octave></unpitched><duration>96</duration><voice>1</voice><type>eighth</type><notehead>x</notehead><beam number="1">end</beam></note><note><unpitched><display-step>G</display-step><display-octave>5</display-octave></unpitched><duration>96</duration><voice>1</voice><type>eighth</type><notehead>x</notehead><beam number="1">begin</beam></note><note><unpitched><display-step>G</display-step><display-octave>5</display-octave></unpitched><duration>96</duration><voice>1</voice><type>eighth</type><notehead>x</notehead><beam number="1">end</beam></note></measure><measure number="2"><attributes/><note><rest/><duration>768</duration><voice>1</voice><type>whole</type></note></measure><measure number="3"><attributes/><note><rest/><duration>768</duration><voice>1</voice><type>whole</type></note></measure><measure number="4"><attributes/><note><rest/><duration>768</duration><voice>1</voice><type>whole</type></note></measure><measure number="5"><attributes/><note><rest/><duration>768</duration><voice>1</voice><type>whole</type></note></measure><measure number="6"><attributes/><note><rest/><duration>768</duration><voice>1</voice><type>whole</type></note></measure><measure number="7"><attributes/><note><rest/><duration>768</duration><voice>1</voice><type>whole</type></note></measure><measure number="8"><attributes/><note><rest/><duration>768</duration><voice>1</voice><type>whole</type></note></measure><measure number="9"><attributes/><note><rest/><duration>768</duration><voice>1</voice><type>whole</type></note></measure><measure number="10"><attributes/><note><rest/><duration>768</duration><voice>1</voice><type>whole</type></note></measure><measure number="11"><attributes/><note><rest/><duration>768</duration><voice>1</voice><type>whole</type></note></measure><measure number="12"><attributes/><note><rest/><duration>768</duration><voice>1</voice><type>whole</type></note></measure><measure number="13"><attributes/><note><rest/><duration>768</duration><voice>1</voice><type>whole</type></note></measure><measure number="14"><attributes/><note><rest/><duration>768</duration><voice>1</voice><type>whole</type></note></measure><measure number="15"><attributes/><note><rest/><duration>768</duration><voice>1</voice><type>whole</type></note></measure><measure number="16"><attributes/><note><rest/><duration>768</duration><voice>1</voice><type>whole</type></note></measure><measure number="17"><attributes/><note><rest/><duration>768</duration><voice>1</voice><type>whole</type></note></measure><measure number="18"><attributes/><note><rest/><duration>768</duration><voice>1</voice><type>whole</type></note></measure><measure number="19"><attributes/><note><rest/><duration>768</duration><voice>1</voice><type>whole</type></note></measure><measure number="20"><attributes/><note><rest/><duration>768</duration><voice>1</voice><type>whole</type></note></measure><measure number="21"><attributes/><note><rest/><duration>768</duration><voice>1</voice><type>whole</type></note></measure><measure number="22"><attributes/><note><rest/><duration>768</duration><voice>1</voice><type>whole</type></note></measure><measure number="23"><attributes/><note><rest/><duration>768</duration><voice>1</voice><type>whole</type></note></measure><measure number="24"><attributes/><note><rest/><duration>768</duration><voice>1</voice><type>whole</type></note></measure><measure number="25"><attributes/><note><rest/><duration>768</duration><voice>1</voice><type>whole</type></note></measure><measure number="26"><attributes/><note><rest/><duration>768</duration><voice>1</voice><type>whole</type></note></measure><measure number="27"><attributes/><note><rest/><duration>768</duration><voice>1</voice><type>whole</type></note></measure><measure number="28"><attributes/><note><rest/><duration>768</duration><voice>1</voice><type>whole</type></note></measure><measure number="29"><attributes/><note><rest/><duration>768</duration><voice>1</voice><type>whole</type></note></measure><measure number="30"><attributes/><note><rest/><duration>768</duration><voice>1</voice><type>whole</type></note></measure><measure number="31"><attributes/><note><rest/><duration>768</duration><voice>1</voice><type>whole</type></note></measure><measure number="32"><attributes/><note><rest/><duration>768</duration><voice>1</voice><type>whole</type></note></measure><measure number="33"><attributes/><note><rest/><duration>768</duration><voice>1</voice><type>whole</type></note></measure><measure number="34"><attributes/><note><rest/><duration>768</duration><voice>1</voice><type>whole</type></note></measure><measure number="35"><attributes/><note><rest/><duration>768</duration><voice>1</voice><type>whole</type></note></measure><measure number="36"><attributes/><note><rest/><duration>768</duration><voice>1</voice><type>whole</type></note></measure><measure number="37"><attributes/><note><rest/><duration>768</duration><voice>1</voice><type>whole</type></note></measure><measure number="38"><attributes/><note><rest/><duration>768</duration><voice>1</voice><type>whole</type></note></measure><measure number="39"><attributes/><note><rest/><duration>768</duration><voice>1</voice><type>whole</type></note></measure><measure number="40"><attributes/><note><rest/><duration>768</duration><voice>1</voice><type>whole</type></note></measure><measure number="41"><attributes/><note><rest/><duration>768</duration><voice>1</voice><type>whole</type></note></measure><measure number="42"><attributes/><note><rest/><duration>768</duration><voice>1</voice><type>whole</type></note></measure><measure number="43"><attributes/><note><rest/><duration>768</duration><voice>1</voice><type>whole</type></note></measure><measure number="44"><attributes/><note><rest/><duration>768</duration><voice>1</voice><type>whole</type></note></measure><measure number="45"><attributes/><note><rest/><duration>768</duration><voice>1</voice><type>whole</type></note></measure><measure number="46"><attributes/><note><rest/><duration>768</duration><voice>1</voice><type>whole</type></note></measure><measure number="47"><attributes/><note><rest/><duration>768</duration><voice>1</voice><type>whole</type></note></measure><measure number="48"><attributes/><note><rest/><duration>768</duration><voice>1</voice><type>whole</type></note></measure><measure number="49"><attributes/><note><rest/><duration>768</duration><voice>1</voice><type>whole</type></note></measure><measure number="50"><attributes/><note><rest/><duration>768</duration><voice>1</voice><type>whole</type></note></measure><measure number="51"><attributes/><note><rest/><duration>768</duration><voice>1</voice><type>whole</type></note></measure><measure number="52"><attributes/><note><rest/><duration>768</duration><voice>1</voice><type>whole</type></note></measure><measure number="53"><attributes/><note><rest/><duration>768</duration><voice>1</voice><type>whole</type></note></measure><measure number="54"><attributes/><note><rest/><duration>768</duration><voice>1</voice><type>whole</type></note></measure><measure number="55"><attributes/><note><rest/><duration>768</duration><voice>1</voice><type>whole</type></note></measure><measure number="56"><attributes/><note><rest/><duration>768</duration><voice>1</voice><type>whole</type></note></measure><measure number="57"><attributes/><note><rest/><duration>768</duration><voice>1</voice><type>whole</type></note></measure><measure number="58"><attributes/><note><rest/><duration>768</duration><voice>1</voice><type>whole</type></note></measure><measure number="59"><attributes/><note><rest/><duration>768</duration><voice>1</voice><type>whole</type></note></measure><measure number="60"><attributes/><note><rest/><duration>768</duration><voice>1</voice><type>whole</type></note></measure><measure number="61"><attributes/><note><rest/><duration>768</duration><voice>1</voice><type>whole</type></note></measure><measure number="62"><attributes/><note><rest/><duration>768</duration><voice>1</voice><type>whole</type></note></measure><measure number="63"><attributes/><note><rest/><duration>768</duration><voice>1</voice><type>whole</type></note></measure><measure number="64"><attributes/><direction placement="above"><direction-type><metronome><beat-unit>quarter</beat-unit><per-minute>73</per-minute></metronome></direction-type><sound tempo="73"/></direction><note><unpitched><display-step>G</display-step><display-octave>5</display-octave></unpitched><duration>96</duration><voice>1</voice><type>eighth</type><notehead>x</notehead><beam number="1">begin</beam></note><note><unpitched><display-step>G</display-step><display-octave>5</display-octave></unpitched><duration>96</duration><voice>1</voice><type>eighth</type><notehead>x</notehead><beam number="1">end</beam></note><note><unpitched><display-step>G</display-step><display-octave>5</display-octave></unpitched><duration>96</duration><voice>1</voice><type>eighth</type><notehead>x</notehead><beam number="1">begin</beam></note><note><unpitched><display-step>G</display-step><display-octave>5</display-octave></unpitched><duration>96</duration><voice>1</voice><type>eighth</type><notehead>x</notehead><beam number="1">end</beam></note><note><unpitched><display-step>G</display-step><display-octave>5</display-octave></unpitched><duration>96</duration><voice>1</voice><type>eighth</type><notehead>x</notehead><beam number="1">begin</beam></note><note><unpitched><display-step>G</display-step><display-octave>5</display-octave></unpitched><duration>96</duration><voice>1</voice><type>eighth</type><notehead>x</notehead><beam number="1">end</beam></note><note><unpitched><display-step>G</display-step><display-octave>5</display-octave></unpitched><duration>96</duration><voice>1</voice><type>eighth</type><notehead>x</notehead><beam number="1">begin</beam></note><note><unpitched><display-step>G</display-step><display-octave>5</display-octave></unpitched><duration>96</duration><voice>1</voice><type>eighth</type><notehead>x</notehead><beam number="1">end</beam></note></measure><measure number="65"><attributes/><note><unpitched><display-step>G</display-step><display-octave>5</display-octave></unpitched><duration>96</duration><voice>1</voice><type>eighth</type><notehead>x</notehead><beam number="1">begin</beam></note><note><unpitched><display-step>G</display-step><display-octave>5</display-octave></unpitched><duration>96</duration><voice>1</voice><type>eighth</type><notehead>x</notehead><beam number="1">end</beam></note><note><unpitched><display-step>G</display-step><display-octave>5</display-octave></unpitched><duration>96</duration><voice>1</voice><type>eighth</type><notehead>x</notehead><beam number="1">begin</beam></note><note><unpitched><display-step>G</display-step><display-octave>5</display-octave></unpitched><duration>96</duration><voice>1</voice><type>eighth</type><notehead>x</notehead><beam number="1">end</beam></note><note><unpitched><display-step>G</display-step><display-octave>5</display-octave></unpitched><duration>96</duration><voice>1</voice><type>eighth</type><notehead>x</notehead><beam number="1">begin</beam></note><note><unpitched><display-step>G</display-step><display-octave>5</display-octave></unpitched><duration>96</duration><voice>1</voice><type>eighth</type><notehead>x</notehead><beam number="1">end</beam></note><note><unpitched><display-step>G</display-step><display-octave>5</display-octave></unpitched><duration>96</duration><voice>1</voice><type>eighth</type><notehead>x</notehead><beam number="1">begin</beam></note><note><unpitched><display-step>G</display-step><display-octave>5</display-octave></unpitched><duration>96</duration><voice>1</voice><type>eighth</type><notehead>x</notehead><beam number="1">end</beam></note><barline location="right"><bar-style>light-heavy</bar-style></barline></measure></part><part id="P3"><measure number="1"><attributes><divisions>192</divisions><time print-object="yes"><beats>4</beats><beat-type>4</beat-type></time><clef number="1"><sign>percussion</sign></clef></attributes><direction placement="above"><direction-type><metronome><beat-unit>quarter</beat-unit><per-minute>90</per-minute></metronome></direction-type><sound tempo="90"/></direction><note><unpitched><display-step>E</display-step><display-octave>4</display-octave></unpitched><voice>1</voice><type>eighth</type><duration>64</duration><time-modification><actual-notes>3</actual-notes><normal-notes>2</normal-notes><normal-type>quarter</normal-type></time-modification><beam number="1">begin</beam><notations><tuplet type="start" number="1"><tuplet-actual><tuplet-number>3</tuplet-number><tuplet-type>eighth</tuplet-type></tuplet-actual><tuplet-normal><tuplet-number>1</tuplet-number><tuplet-type>quarter</tuplet-type></tuplet-normal></tuplet></notations></note><note><unpitched><display-step>E</display-step><display-octave>4</display-octave></unpitched><voice>1</voice><type>eighth</type><duration>64</duration><time-modification><actual-notes>3</actual-notes><normal-notes>2</normal-notes><normal-type>quarter</normal-type></time-modification><beam number="1">continue</beam></note><note><unpitched><display-step>E</display-step><display-octave>4</display-octave></unpitched><voice>1</voice><type>eighth</type><duration>64</duration><time-modification><actual-notes>3</actual-notes><normal-notes>2</normal-notes><normal-type>quarter</normal-type></time-modification><beam number="1">end</beam><notations><tuplet type="stop" number="1"/></notations></note><note><unpitched><display-step>E</display-step><display-octave>4</display-octave></unpitched><voice>1</voice><type>eighth</type><duration>64</duration><time-modification><actual-notes>3</actual-notes><normal-notes>2</normal-notes><normal-type>quarter</normal-type></time-modification><beam number="1">begin</beam><notations><tuplet type="start" number="1"><tuplet-actual><tuplet-number>3</tuplet-number><tuplet-type>eighth</tuplet-type></tuplet-actual><tuplet-normal><tuplet-number>1</tuplet-number><tuplet-type>quarter</tuplet-type></tuplet-normal></tuplet></notations></note><note><unpitched><display-step>E</display-step><display-octave>4</display-octave></unpitched><voice>1</voice><type>eighth</type><duration>64</duration><time-modification><actual-notes>3</actual-notes><normal-notes>2</normal-notes><normal-type>quarter</normal-type></time-modification><beam number="1">continue</beam></note><note><unpitched><display-step>E</display-step><display-octave>4</display-octave></unpitched><voice>1</voice><type>eighth</type><duration>64</duration><time-modification><actual-notes>3</actual-notes><normal-notes>2</normal-notes><normal-type>quarter</normal-type></time-modification><beam number="1">end</beam><notations><tuplet type="stop" number="1"/></notations></note><note><unpitched><display-step>E</display-step><display-octave>4</display-octave></unpitched><voice>1</voice><type>eighth</type><duration>64</duration><time-modification><actual-notes>3</actual-notes><normal-notes>2</normal-notes><normal-type>quarter</normal-type></time-modification><beam number="1">begin</beam><notations><tuplet type="start" number="1"><tuplet-actual><tuplet-number>3</tuplet-number><tuplet-type>eighth</tuplet-type></tuplet-actual><tuplet-normal><tuplet-number>1</tuplet-number><tuplet-type>quarter</tuplet-type></tuplet-normal></tuplet></notations></note><note><unpitched><display-step>E</display-step><display-octave>4</display-octave></unpitched><voice>1</voice><type>eighth</type><duration>64</duration><time-modification><actual-notes>3</actual-notes><normal-notes>2</normal-notes><normal-type>quarter</normal-type></time-modification><beam number="1">continue</beam></note><note><unpitched><display-step>E</display-step><display-octave>4</display-octave></unpitched><voice>1</voice><type>eighth</type><duration>64</duration><time-modification><actual-notes>3</actual-notes><normal-notes>2</normal-notes><normal-type>quarter</normal-type></time-modification><beam number="1">end</beam><notations><tuplet type="stop" number="1"/></notations></note><note><unpitched><display-step>E</display-step><display-octave>4</display-octave></unpitched><voice>1</voice><type>eighth</type><duration>64</duration><time-modification><actual-notes>3</actual-notes><normal-notes>2</normal-notes><normal-type>quarter</normal-type></time-modification><beam number="1">begin</beam><notations><tuplet type="start" number="1"><tuplet-actual><tuplet-number>3</tuplet-number><tuplet-type>eighth</tuplet-type></tuplet-actual><tuplet-normal><tuplet-number>1</tuplet-number><tuplet-type>quarter</tuplet-type></tuplet-normal></tuplet></notations></note><note><unpitched><display-step>E</display-step><display-octave>4</display-octave></unpitched><voice>1</voice><type>eighth</type><duration>64</duration><time-modification><actual-notes>3</actual-notes><normal-notes>2</normal-notes><normal-type>quarter</normal-type></time-modification><beam number="1">continue</beam></note><note><unpitched><display-step>E</display-step><display-octave>4</display-octave></unpitched><voice>1</voice><type>eighth</type><duration>64</duration><time-modification><actual-notes>3</actual-notes><normal-notes>2</normal-notes><normal-type>quarter</normal-type></time-modification><beam number="1">end</beam><notations><tuplet type="stop" number="1"/></notations></note></measure><measure number="2"><attributes/><note><rest/><duration>768</duration><voice>1</voice><type>whole</type></note></measure><measure number="3"><attributes/><note><rest/><duration>768</duration><voice>1</voice><type>whole</type></note></measure><measure number="4"><attributes/><note><rest/><duration>768</duration><voice>1</voice><type>whole</type></note></measure><measure number="5"><attributes/><note><rest/><duration>768</duration><voice>1</voice><type>whole</type></note></measure><measure number="6"><attributes/><note><rest/><duration>768</duration><voice>1</voice><type>whole</type></note></measure><measure number="7"><attributes/><note><rest/><duration>768</duration><voice>1</voice><type>whole</type></note></measure><measure number="8"><attributes/><note><rest/><duration>768</duration><voice>1</voice><type>whole</type></note></measure><measure number="9"><attributes/><note><rest/><duration>768</duration><voice>1</voice><type>whole</type></note></measure><measure number="10"><attributes/><note><rest/><duration>768</duration><voice>1</voice><type>whole</type></note></measure><measure number="11"><attributes/><note><rest/><duration>768</duration><voice>1</voice><type>whole</type></note></measure><measure number="12"><attributes/><note><rest/><duration>768</duration><voice>1</voice><type>whole</type></note></measure><measure number="13"><attributes/><note><rest/><duration>768</duration><voice>1</voice><type>whole</type></note></measure><measure number="14"><attributes/><note><rest/><duration>768</duration><voice>1</voice><type>whole</type></note></measure><measure number="15"><attributes/><note><rest/><duration>768</duration><voice>1</voice><type>whole</type></note></measure><measure number="16"><attributes/><note><rest/><duration>768</duration><voice>1</voice><type>whole</type></note></measure><measure number="17"><attributes/><note><rest/><duration>768</duration><voice>1</voice><type>whole</type></note></measure><measure number="18"><attributes/><note><rest/><duration>768</duration><voice>1</voice><type>whole</type></note></measure><measure number="19"><attributes/><note><rest/><duration>768</duration><voice>1</voice><type>whole</type></note></measure><measure number="20"><attributes/><note><rest/><duration>768</duration><voice>1</voice><type>whole</type></note></measure><measure number="21"><attributes/><note><rest/><duration>768</duration><voice>1</voice><type>whole</type></note></measure><measure number="22"><attributes/><note><rest/><duration>768</duration><voice>1</voice><type>whole</type></note></measure><measure number="23"><attributes/><note><rest/><duration>768</duration><voice>1</voice><type>whole</type></note></measure><measure number="24"><attributes/><note><rest/><duration>768</duration><voice>1</voice><type>whole</type></note></measure><measure number="25"><attributes/><note><rest/><duration>768</duration><voice>1</voice><type>whole</type></note></measure><measure number="26"><attributes/><note><rest/><duration>768</duration><voice>1</voice><type>whole</type></note></measure><measure number="27"><attributes/><note><rest/><duration>768</duration><voice>1</voice><type>whole</type></note></measure><measure number="28"><attributes/><note><rest/><duration>768</duration><voice>1</voice><type>whole</type></note></measure><measure number="29"><attributes/><note><rest/><duration>768</duration><voice>1</voice><type>whole</type></note></measure><measure number="30"><attributes/><note><rest/><duration>768</duration><voice>1</voice><type>whole</type></note></measure><measure number="31"><attributes/><note><rest/><duration>768</duration><voice>1</voice><type>whole</type></note></measure><measure number="32"><attributes/><note><rest/><duration>768</duration><voice>1</voice><type>whole</type></note></measure><measure number="33"><attributes/><note><rest/><duration>768</duration><voice>1</voice><type>whole</type></note></measure><measure number="34"><attributes/><note><rest/><duration>768</duration><voice>1</voice><type>whole</type></note></measure><measure number="35"><attributes/><note><rest/><duration>768</duration><voice>1</voice><type>whole</type></note></measure><measure number="36"><attributes/><note><rest/><duration>768</duration><voice>1</voice><type>whole</type></note></measure><measure number="37"><attributes/><note><rest/><duration>768</duration><voice>1</voice><type>whole</type></note></measure><measure number="38"><attributes/><note><rest/><duration>768</duration><voice>1</voice><type>whole</type></note></measure><measure number="39"><attributes/><note><rest/><duration>768</duration><voice>1</voice><type>whole</type></note></measure><measure number="40"><attributes/><note><rest/><duration>768</duration><voice>1</voice><type>whole</type></note></measure><measure number="41"><attributes/><note><rest/><duration>768</duration><voice>1</voice><type>whole</type></note></measure><measure number="42"><attributes/><note><rest/><duration>768</duration><voice>1</voice><type>whole</type></note></measure><measure number="43"><attributes/><note><rest/><duration>768</duration><voice>1</voice><type>whole</type></note></measure><measure number="44"><attributes/><note><rest/><duration>768</duration><voice>1</voice><type>whole</type></note></measure><measure number="45"><attributes/><note><rest/><duration>768</duration><voice>1</voice><type>whole</type></note></measure><measure number="46"><attributes/><note><rest/><duration>768</duration><voice>1</voice><type>whole</type></note></measure><measure number="47"><attributes/><note><rest/><duration>768</duration><voice>1</voice><type>whole</type></note></measure><measure number="48"><attributes/><note><rest/><duration>768</duration><voice>1</voice><type>whole</type></note></measure><measure number="49"><attributes/><note><rest/><duration>768</duration><voice>1</voice><type>whole</type></note></measure><measure number="50"><attributes/><note><rest/><duration>768</duration><voice>1</voice><type>whole</type></note></measure><measure number="51"><attributes/><note><rest/><duration>768</duration><voice>1</voice><type>whole</type></note></measure><measure number="52"><attributes/><note><rest/><duration>768</duration><voice>1</voice><type>whole</type></note></measure><measure number="53"><attributes/><note><rest/><duration>768</duration><voice>1</voice><type>whole</type></note></measure><measure number="54"><attributes/><note><rest/><duration>768</duration><voice>1</voice><type>whole</type></note></measure><measure number="55"><attributes/><note><rest/><duration>768</duration><voice>1</voice><type>whole</type></note></measure><measure number="56"><attributes/><note><rest/><duration>768</duration><voice>1</voice><type>whole</type></note></measure><measure number="57"><attributes/><note><rest/><duration>768</duration><voice>1</voice><type>whole</type></note></measure><measure number="58"><attributes/><note><rest/><duration>768</duration><voice>1</voice><type>whole</type></note></measure><measure number="59"><attributes/><note><rest/><duration>768</duration><voice>1</voice><type>whole</type></note></measure><measure number="60"><attributes/><note><rest/><duration>768</duration><voice>1</voice><type>whole</type></note></measure><measure number="61"><attributes/><note><rest/><duration>768</duration><voice>1</voice><type>whole</type></note></measure><measure number="62"><attributes/><note><rest/><duration>768</duration><voice>1</voice><type>whole</type></note></measure><measure number="63"><attributes/><note><rest/><duration>768</duration><voice>1</voice><type>whole</type></note></measure><measure number="64"><attributes/><direction placement="above"><direction-type><metronome><beat-unit>quarter</beat-unit><per-minute>73</per-minute></metronome></direction-type><sound tempo="73"/></direction><note><unpitched><display-step>E</display-step><display-octave>4</display-octave></unpitched><voice>1</voice><type>eighth</type><duration>64</duration><time-modification><actual-notes>3</actual-notes><normal-notes>2</normal-notes><normal-type>quarter</normal-type></time-modification><beam number="1">begin</beam><notations><tuplet type="start" number="1"><tuplet-actual><tuplet-number>3</tuplet-number><tuplet-type>eighth</tuplet-type></tuplet-actual><tuplet-normal><tuplet-number>1</tuplet-number><tuplet-type>quarter</tuplet-type></tuplet-normal></tuplet></notations></note><note><unpitched><display-step>E</display-step><display-octave>4</display-octave></unpitched><voice>1</voice><type>eighth</type><duration>64</duration><time-modification><actual-notes>3</actual-notes><normal-notes>2</normal-notes><normal-type>quarter</normal-type></time-modification><beam number="1">continue</beam></note><note><unpitched><display-step>E</display-step><display-octave>4</display-octave></unpitched><voice>1</voice><type>eighth</type><duration>64</duration><time-modification><actual-notes>3</actual-notes><normal-notes>2</normal-notes><normal-type>quarter</normal-type></time-modification><beam number="1">end</beam><notations><tuplet type="stop" number="1"/></notations></note><note><unpitched><display-step>E</display-step><display-octave>4</display-octave></unpitched><voice>1</voice><type>eighth</type><duration>64</duration><time-modification><actual-notes>3</actual-notes><normal-notes>2</normal-notes><normal-type>quarter</normal-type></time-modification><beam number="1">begin</beam><notations><tuplet type="start" number="1"><tuplet-actual><tuplet-number>3</tuplet-number><tuplet-type>eighth</tuplet-type></tuplet-actual><tuplet-normal><tuplet-number>1</tuplet-number><tuplet-type>quarter</tuplet-type></tuplet-normal></tuplet></notations></note><note><unpitched><display-step>E</display-step><display-octave>4</display-octave></unpitched><voice>1</voice><type>eighth</type><duration>64</duration><time-modification><actual-notes>3</actual-notes><normal-notes>2</normal-notes><normal-type>quarter</normal-type></time-modification><beam number="1">continue</beam></note><note><unpitched><display-step>E</display-step><display-octave>4</display-octave></unpitched><voice>1</voice><type>eighth</type><duration>64</duration><time-modification><actual-notes>3</actual-notes><normal-notes>2</normal-notes><normal-type>quarter</normal-type></time-modification><beam number="1">end</beam><notations><tuplet type="stop" number="1"/></notations></note><note><unpitched><display-step>E</display-step><display-octave>4</display-octave></unpitched><voice>1</voice><type>eighth</type><duration>64</duration><time-modification><actual-notes>3</actual-notes><normal-notes>2</normal-notes><normal-type>quarter</normal-type></time-modification><beam number="1">begin</beam><notations><tuplet type="start" number="1"><tuplet-actual><tuplet-number>3</tuplet-number><tuplet-type>eighth</tuplet-type></tuplet-actual><tuplet-normal><tuplet-number>1</tuplet-number><tuplet-type>quarter</tuplet-type></tuplet-normal></tuplet></notations></note><note><unpitched><display-step>E</display-step><display-octave>4</display-octave></unpitched><voice>1</voice><type>eighth</type><duration>64</duration><time-modification><actual-notes>3</actual-notes><normal-notes>2</normal-notes><normal-type>quarter</normal-type></time-modification><beam number="1">continue</beam></note><note><unpitched><display-step>E</display-step><display-octave>4</display-octave></unpitched><voice>1</voice><type>eighth</type><duration>64</duration><time-modification><actual-notes>3</actual-notes><normal-notes>2</normal-notes><normal-type>quarter</normal-type></time-modification><beam number="1">end</beam><notations><tuplet type="stop" number="1"/></notations></note><note><unpitched><display-step>E</display-step><display-octave>4</display-octave></unpitched><voice>1</voice><type>eighth</type><duration>64</duration><time-modification><actual-notes>3</actual-notes><normal-notes>2</normal-notes><normal-type>quarter</normal-type></time-modification><beam number="1">begin</beam><notations><tuplet type="start" number="1"><tuplet-actual><tuplet-number>3</tuplet-number><tuplet-type>eighth</tuplet-type></tuplet-actual><tuplet-normal><tuplet-number>1</tuplet-number><tuplet-type>quarter</tuplet-type></tuplet-normal></tuplet></notations></note><note><unpitched><display-step>E</display-step><display-octave>4</display-octave></unpitched><voice>1</voice><type>eighth</type><duration>64</duration><time-modification><actual-notes>3</actual-notes><normal-notes>2</normal-notes><normal-type>quarter</normal-type></time-modification><beam number="1">continue</beam></note><note><unpitched><display-step>E</display-step><display-octave>4</display-octave></unpitched><voice>1</voice><type>eighth</type><duration>64</duration><time-modification><actual-notes>3</actual-notes><normal-notes>2</normal-notes><normal-type>quarter</normal-type></time-modification><beam number="1">end</beam><notations><tuplet type="stop" number="1"/></notations></note></measure><measure number="65"><attributes/><note><unpitched><display-step>E</display-step><display-octave>4</display-octave></unpitched><voice>1</voice><type>eighth</type><duration>64</duration><time-modification><actual-notes>3</actual-notes><normal-notes>2</normal-notes><normal-type>quarter</normal-type></time-modification><beam number="1">begin</beam><notations><tuplet type="start" number="1"><tuplet-actual><tuplet-number>3</tuplet-number><tuplet-type>eighth</tuplet-type></tuplet-actual><tuplet-normal><tuplet-number>1</tuplet-number><tuplet-type>quarter</tuplet-type></tuplet-normal></tuplet></notations></note><note><unpitched><display-step>E</display-step><display-octave>4</display-octave></unpitched><voice>1</voice><type>eighth</type><duration>64</duration><time-modification><actual-notes>3</actual-notes><normal-notes>2</normal-notes><normal-type>quarter</normal-type></time-modification><beam number="1">continue</beam></note><note><unpitched><display-step>E</display-step><display-octave>4</display-octave></unpitched><voice>1</voice><type>eighth</type><duration>64</duration><time-modification><actual-notes>3</actual-notes><normal-notes>2</normal-notes><normal-type>quarter</normal-type></time-modification><beam number="1">end</beam><notations><tuplet type="stop" number="1"/></notations></note><note><unpitched><display-step>E</display-step><display-octave>4</display-octave></unpitched><voice>1</voice><type>eighth</type><duration>64</duration><time-modification><actual-notes>3</actual-notes><normal-notes>2</normal-notes><normal-type>quarter</normal-type></time-modification><beam number="1">begin</beam><notations><tuplet type="start" number="1"><tuplet-actual><tuplet-number>3</tuplet-number><tuplet-type>eighth</tuplet-type></tuplet-actual><tuplet-normal><tuplet-number>1</tuplet-number><tuplet-type>quarter</tuplet-type></tuplet-normal></tuplet></notations></note><note><unpitched><display-step>E</display-step><display-octave>4</display-octave></unpitched><voice>1</voice><type>eighth</type><duration>64</duration><time-modification><actual-notes>3</actual-notes><normal-notes>2</normal-notes><normal-type>quarter</normal-type></time-modification><beam number="1">continue</beam></note><note><unpitched><display-step>E</display-step><display-octave>4</display-octave></unpitched><voice>1</voice><type>eighth</type><duration>64</duration><time-modification><actual-notes>3</actual-notes><normal-notes>2</normal-notes><normal-type>quarter</normal-type></time-modification><beam number="1">end</beam><notations><tuplet type="stop" number="1"/></notations></note><note><unpitched><display-step>E</display-step><display-octave>4</display-octave></unpitched><voice>1</voice><type>eighth</type><duration>64</duration><time-modification><actual-notes>3</actual-notes><normal-notes>2</normal-notes><normal-type>quarter</normal-type></time-modification><beam number="1">begin</beam><notations><tuplet type="start" number="1"><tuplet-actual><tuplet-number>3</tuplet-number><tuplet-type>eighth</tuplet-type></tuplet-actual><tuplet-normal><tuplet-number>1</tuplet-number><tuplet-type>quarter</tuplet-type></tuplet-normal></tuplet></notations></note><note><unpitched><display-step>E</display-step><display-octave>4</display-octave></unpitched><voice>1</voice><type>eighth</type><duration>64</duration><time-modification><actual-notes>3</actual-notes><normal-notes>2</normal-notes><normal-type>quarter</normal-type></time-modification><beam number="1">continue</beam></note><note><unpitched><display-step>E</display-step><display-octave>4</display-octave></unpitched><voice>1</voice><type>eighth</type><duration>64</duration><time-modification><actual-notes>3</actual-notes><normal-notes>2</normal-notes><normal-type>quarter</normal-type></time-modification><beam number="1">end</beam><notations><tuplet type="stop" number="1"/></notations></note><note><unpitched><display-step>E</display-step><display-octave>4</display-octave></unpitched><voice>1</voice><type>eighth</type><duration>64</duration><time-modification><actual-notes>3</actual-notes><normal-notes>2</normal-notes><normal-type>quarter</normal-type></time-modification><beam number="1">begin</beam><notations><tuplet type="start" number="1"><tuplet-actual><tuplet-number>3</tuplet-number><tuplet-type>eighth</tuplet-type></tuplet-actual><tuplet-normal><tuplet-number>1</tuplet-number><tuplet-type>quarter</tuplet-type></tuplet-normal></tuplet></notations></note><note><unpitched><display-step>E</display-step><display-octave>4</display-octave></unpitched><voice>1</voice><type>eighth</type><duration>64</duration><time-modification><actual-notes>3</actual-notes><normal-notes>2</normal-notes><normal-type>quarter</normal-type></time-modification><beam number="1">continue</beam></note><note><unpitched><display-step>E</display-step><display-octave>4</display-octave></unpitched><voice>1</voice><type>eighth</type><duration>64</duration><time-modification><actual-notes>3</actual-notes><normal-notes>2</normal-notes><normal-type>quarter</normal-type></time-modification><beam number="1">end</beam><notations><tuplet type="stop" number="1"/></notations></note><barline location="right"><bar-style>light-heavy</bar-style></barline></measure></part></score-partwise>