<?xml version="1.0" encoding="UTF-8"?>
<!DOCTYPE score-partwise PUBLIC "-//Recordare//DTD MusicXML 2.0 Partwise//EN"
  "http://www.musicxml.org/dtds/partwise.dtd">
<score-partwise version="2.0"><work><work-title>Lesson 6 Part 1 - Analysis: Mozart's K. 331</work-title></work><identification><creator type="composer"/><creator type="lyricist"/><rights/><encoding><software>Noteflight version 0.4</software><encoding-date>2021-06-26</encoding-date><supports attribute="new-system" element="print" type="no" value="no"/><supports attribute="new-page" element="print" type="no" value="no"/></encoding></identification><defaults><scaling><millimeters>2.1166666679999997</millimeters><tenths>10</tenths></scaling><page-layout><page-height>1320</page-height><page-width>1020</page-width><page-margins type="both"><left-margin>59.583333333333336</left-margin><right-margin>56.66666666666667</right-margin><top-margin>96.66666666666667</top-margin><bottom-margin>80</bottom-margin></page-margins></page-layout><system-layout><system-margins><left-margin>59.583333333333336</left-margin><right-margin>26.666666666666668</right-margin></system-margins><system-distance>92.5</system-distance><top-system-distance>145.83333333333334</top-system-distance></system-layout><staff-layout><staff-distance>55</staff-distance></staff-layout></defaults><credit page="1"><credit-type>title</credit-type><credit-words font-size="24" default-x="510" default-y="1210" justify="right" valign="top">Lesson 6 Part 1 - Analysis: Mozart's K. 331</credit-words></credit><part-list><score-part id="P1"><part-name>Piano</part-name><part-abbreviation>Pno</part-abbreviation><score-instrument id="P1I1"><instrument-name>Piano</instrument-name><instrument-sound>keyboard.piano</instrument-sound></score-instrument><midi-instrument id="P1I1"><midi-channel>1</midi-channel><midi-program>1</midi-program></midi-instrument></score-part></part-list><part id="P1"><measure number="1"><direction placement="above"><direction-type><metronome><beat-unit>quarter</beat-unit><per-minute>50</per-minute></metronome></direction-type><sound tempo="50"/></direction><direction placement="above"><direction-type><metronome><beat-unit>quarter</beat-unit><per-minute>50</per-minute></metronome></direction-type><sound tempo="50"/></direction><direction placement="below"><direction-type><dynamics placement="below"><p/></dynamics></direction-type></direction><direction placement="above"><direction-type><words>Andante grazioso</words></direction-type></direction><note><pitch><step>C</step><alter>1</alter><octave>5</octave></pitch><duration>48</duration><voice>1</voice><type>eighth</type><dot/><staff>1</staff><beam number="1">begin</beam><notations><slur default-x="0.65" default-y="3.5" number="1" placement="above" type="start"/></notations></note><direction placement="above"><direction-type><words relative-x="-0.09762668617524284" relative-y="-25.250000000000014">n</words></direction-type></direction><note><pitch><step>D</step><octave>5</octave></pitch><duration>16</duration><voice>1</voice><type>16th</type><staff>1</staff><beam number="1">continue</beam></note><note><pitch><step>C</step><alter>1</alter><octave>5</octave></pitch><duration>32</duration><voice>1</voice><type>eighth</type><staff>1</staff><beam number="1">end</beam></note><direction placement="above"><direction-type><words relative-x="15.329897313565759" relative-y="10.500000000000007">A - A': parallel period</words></direction-type></direction><note><pitch><step>E</step><octave>5</octave></pitch><duration>64</duration><voice>1</voice><type>quarter</type><staff>1</staff><notations><slur default-x="0.65" default-y="4.5" number="1" type="stop"/></notations></note><note><pitch><step>E</step><octave>5</octave></pitch><duration>32</duration><voice>1</voice><type>eighth</type><staff>1</staff></note><backup><duration>192</duration></backup><attributes><divisions>64</divisions><key><fifths>3</fifths><mode>major</mode></key><time print-object="yes"><beats>6</beats><beat-type>8</beat-type></time><staves>2</staves><clef number="1"><sign>G</sign><line>2</line></clef><clef number="2"><sign>F</sign><line>4</line></clef></attributes><harmony><root><root-step>A</root-step></root><kind text="A: I" relative-x="-23.73333333333333" relative-y="-85.58333333333331"/><kind text="A: I" relative-x="-23.73333333333333" relative-y="-85.58333333333331">none</kind></harmony><note><pitch><step>E</step><octave>4</octave></pitch><duration>64</duration><voice>3</voice><type>quarter</type><staff>2</staff><notations><slur default-x="0.65" default-y="9.5" number="2" placement="above" type="start"/></notations></note><direction placement="above"><direction-type><words>n</words></direction-type></direction><note><pitch><step>E</step><octave>4</octave></pitch><duration>32</duration><voice>3</voice><type>eighth</type><staff>2</staff></note><note><pitch><step>E</step><octave>4</octave></pitch><duration>64</duration><voice>3</voice><type>quarter</type><staff>2</staff><notations><slur default-x="0.65" default-y="9.5" number="2" type="stop"/></notations></note><note><pitch><step>E</step><octave>4</octave></pitch><duration>32</duration><voice>3</voice><type>eighth</type><staff>2</staff></note><backup><duration>192</duration></backup><note><pitch><step>A</step><octave>3</octave></pitch><duration>48</duration><voice>4</voice><type>eighth</type><dot/><staff>2</staff><beam number="1">begin</beam><notations><slur default-x="0.65" default-y="0.5" number="2" placement="below" type="start"/></notations></note><note><pitch><step>B</step><octave>3</octave></pitch><duration>16</duration><voice>4</voice><type>16th</type><staff>2</staff><beam number="1">continue</beam></note><note><pitch><step>A</step><octave>3</octave></pitch><duration>32</duration><voice>4</voice><type>eighth</type><staff>2</staff><beam number="1">end</beam></note><note><pitch><step>C</step><alter>1</alter><octave>4</octave></pitch><duration>64</duration><voice>4</voice><type>quarter</type><staff>2</staff><notations><slur default-x="0.65" default-y="1" number="2" type="stop"/></notations></note><note><pitch><step>C</step><alter>1</alter><octave>4</octave></pitch><duration>32</duration><voice>4</voice><type>eighth</type><staff>2</staff></note></measure><measure number="2"><note><pitch><step>B</step><octave>4</octave></pitch><duration>48</duration><voice>1</voice><type>eighth</type><dot/><staff>1</staff><beam number="1">begin</beam><notations><slur default-x="0.65" default-y="3" number="1" placement="above" type="start"/></notations></note><direction placement="above"><direction-type><words relative-x="-1.494403706896934" relative-y="-9.250000000000007">n</words></direction-type></direction><note><pitch><step>C</step><alter>1</alter><octave>5</octave></pitch><duration>16</duration><voice>1</voice><type>16th</type><staff>1</staff><beam number="1">continue</beam></note><note><pitch><step>B</step><octave>4</octave></pitch><duration>32</duration><voice>1</voice><type>eighth</type><staff>1</staff><beam number="1">end</beam></note><note><pitch><step>D</step><octave>5</octave></pitch><duration>64</duration><voice>1</voice><type>quarter</type><staff>1</staff><notations><slur default-x="0.65" default-y="4" number="1" type="stop"/></notations></note><note><pitch><step>D</step><octave>5</octave></pitch><duration>32</duration><voice>1</voice><type>eighth</type><staff>1</staff><notations><slur default-x="0.65" default-y="4" number="1" placement="above" type="start"/></notations></note><backup><duration>192</duration></backup><attributes/><note><pitch><step>E</step><octave>4</octave></pitch><duration>64</duration><voice>3</voice><type>quarter</type><staff>2</staff></note><direction placement="above"><direction-type><words>n</words></direction-type></direction><note><pitch><step>E</step><octave>4</octave></pitch><duration>32</duration><voice>3</voice><type>eighth</type><staff>2</staff></note><note><pitch><step>E</step><octave>4</octave></pitch><duration>64</duration><voice>3</voice><type>quarter</type><staff>2</staff></note><note><pitch><step>E</step><octave>4</octave></pitch><duration>32</duration><voice>3</voice><type>eighth</type><staff>2</staff></note><backup><duration>192</duration></backup><note><pitch><step>G</step><alter>1</alter><octave>3</octave></pitch><duration>48</duration><voice>4</voice><type>eighth</type><dot/><staff>2</staff><beam number="1">begin</beam><notations><slur default-x="0.65" default-y="0" number="2" placement="below" type="start"/></notations></note><note><pitch><step>A</step><octave>3</octave></pitch><duration>16</duration><voice>4</voice><type>16th</type><staff>2</staff><beam number="1">continue</beam></note><note><pitch><step>G</step><alter>1</alter><octave>3</octave></pitch><duration>32</duration><voice>4</voice><type>eighth</type><staff>2</staff><beam number="1">end</beam></note><note><pitch><step>B</step><octave>3</octave></pitch><duration>64</duration><voice>4</voice><type>quarter</type><staff>2</staff><notations><slur default-x="0.65" default-y="0.5" number="2" type="stop"/></notations></note><note><pitch><step>B</step><octave>3</octave></pitch><duration>32</duration><voice>4</voice><type>eighth</type><staff>2</staff><notations><slur default-x="0.65" default-y="0.5" number="2" placement="below" type="start"/></notations></note></measure><measure number="3"><note><pitch><step>A</step><octave>4</octave></pitch><duration>64</duration><voice>1</voice><type>quarter</type><staff>1</staff><notations><slur default-x="0.65" default-y="5.5" number="1" type="stop"/></notations></note><note><pitch><step>A</step><octave>4</octave></pitch><duration>32</duration><voice>1</voice><type>eighth</type><staff>1</staff><notations><slur default-x="0.65" default-y="5.5" number="1" placement="above" type="start"/></notations></note><note><pitch><step>B</step><octave>4</octave></pitch><duration>64</duration><voice>1</voice><type>quarter</type><staff>1</staff><notations><slur default-x="0.65" default-y="6" number="1" type="stop"/></notations></note><note><pitch><step>B</step><octave>4</octave></pitch><duration>32</duration><voice>1</voice><type>eighth</type><staff>1</staff><notations><slur default-x="0.65" default-y="6" number="1" placement="above" type="start"/></notations></note><backup><duration>192</duration></backup><note relative-y="-10"><rest/><duration>192</duration><voice>2</voice><type>whole</type><staff>1</staff></note><backup><duration>192</duration></backup><attributes/><note><pitch><step>E</step><octave>4</octave></pitch><duration>64</duration><voice>3</voice><type>quarter</type><staff>2</staff><notations><slur default-x="0.65" default-y="-1" number="2" type="stop"/></notations></note><note><pitch><step>E</step><octave>4</octave></pitch><duration>32</duration><voice>3</voice><type>eighth</type><staff>2</staff></note><note><pitch><step>E</step><octave>4</octave></pitch><duration>64</duration><voice>3</voice><type>quarter</type><staff>2</staff></note><note><pitch><step>E</step><octave>4</octave></pitch><duration>32</duration><voice>3</voice><type>eighth</type><staff>2</staff></note><backup><duration>192</duration></backup><note><pitch><step>F</step><alter>1</alter><octave>3</octave></pitch><duration>64</duration><voice>4</voice><type>quarter</type><staff>2</staff></note><note><pitch><step>F</step><alter>1</alter><octave>3</octave></pitch><duration>32</duration><voice>4</voice><type>eighth</type><staff>2</staff><notations><slur default-x="0.65" default-y="-1" number="2" placement="below" type="start"/></notations></note><note><pitch><step>G</step><alter>1</alter><octave>3</octave></pitch><duration>64</duration><voice>4</voice><type>quarter</type><staff>2</staff><notations><slur default-x="0.65" default-y="-0.5" number="2" type="stop"/></notations></note><note><pitch><step>G</step><alter>1</alter><octave>3</octave></pitch><duration>32</duration><voice>4</voice><type>eighth</type><staff>2</staff><notations><slur default-x="0.65" default-y="-0.5" number="2" placement="below" type="start"/></notations></note></measure><measure number="4"><note relative-y="10"><rest/><duration>32</duration><voice>1</voice><type>eighth</type><staff>1</staff><notations><slur default-x="0.65" default-y="6" number="1" type="stop"/></notations></note><note><rest/><duration>32</duration><voice>1</voice><type>eighth</type><staff>1</staff></note><direction placement="above"><direction-type><words relative-x="-6.322578176747609" relative-y="2.0833333333333304">app.</words></direction-type></direction><note><pitch><step>E</step><octave>5</octave></pitch><duration>16</duration><voice>1</voice><type>16th</type><staff>1</staff><beam number="1">begin</beam></note><note><pitch><step>D</step><octave>5</octave></pitch><duration>16</duration><voice>1</voice><type>16th</type><staff>1</staff><beam number="1">end</beam></note><direction placement="above"><direction-type><words relative-y="10.500000000000007">H.C.</words></direction-type></direction><note><pitch><step>C</step><alter>1</alter><octave>5</octave></pitch><duration>64</duration><voice>1</voice><type>quarter</type><staff>1</staff></note><note><pitch><step>B</step><octave>4</octave></pitch><duration>32</duration><voice>1</voice><type>eighth</type><staff>1</staff></note><backup><duration>192</duration></backup><note><pitch><step>C</step><alter>1</alter><octave>5</octave></pitch><duration>64</duration><voice>2</voice><type>quarter</type><staff>1</staff></note><note><pitch><step>B</step><octave>4</octave></pitch><duration>32</duration><voice>2</voice><type>eighth</type><staff>1</staff></note><note><pitch><step>A</step><octave>4</octave></pitch><duration>64</duration><voice>2</voice><type>quarter</type><staff>1</staff></note><note><pitch><step>G</step><alter>1</alter><octave>4</octave></pitch><duration>32</duration><voice>2</voice><type>eighth</type><staff>1</staff></note><backup><duration>192</duration></backup><attributes/><note><pitch><step>E</step><octave>4</octave></pitch><duration>64</duration><voice>3</voice><type>quarter</type><staff>2</staff><notations><slur default-x="0.65" default-y="0" number="2" type="stop"/></notations></note><note relative-y="30"><rest/><duration>32</duration><voice>3</voice><type>eighth</type><staff>2</staff></note><note relative-y="10"><rest/><duration>96</duration><voice>3</voice><type>quarter</type><dot/><staff>2</staff></note><backup><duration>192</duration></backup><note><pitch><step>A</step><octave>3</octave></pitch><duration>64</duration><voice>4</voice><type>quarter</type><staff>2</staff></note><note><pitch><step>D</step><octave>3</octave></pitch><duration>32</duration><voice>4</voice><type>eighth</type><staff>2</staff></note><note><pitch><step>E</step><octave>3</octave></pitch><duration>96</duration><voice>4</voice><type>quarter</type><dot/><staff>2</staff></note></measure><measure number="5"><note><pitch><step>C</step><alter>1</alter><octave>5</octave></pitch><duration>48</duration><voice>1</voice><type>eighth</type><dot/><staff>1</staff><beam number="1">begin</beam></note><note><pitch><step>D</step><octave>5</octave></pitch><duration>16</duration><voice>1</voice><type>16th</type><staff>1</staff><beam number="1">continue</beam></note><note><pitch><step>C</step><alter>1</alter><octave>5</octave></pitch><duration>32</duration><voice>1</voice><type>eighth</type><staff>1</staff><beam number="1">end</beam></note><note><pitch><step>E</step><octave>5</octave></pitch><duration>64</duration><voice>1</voice><type>quarter</type><staff>1</staff></note><note><pitch><step>E</step><octave>5</octave></pitch><duration>32</duration><voice>1</voice><type>eighth</type><staff>1</staff></note><backup><duration>192</duration></backup><attributes/><note><pitch><step>E</step><octave>4</octave></pitch><duration>64</duration><voice>3</voice><type>quarter</type><staff>2</staff></note><note><pitch><step>E</step><octave>4</octave></pitch><duration>32</duration><voice>3</voice><type>eighth</type><staff>2</staff></note><note><pitch><step>E</step><octave>4</octave></pitch><duration>64</duration><voice>3</voice><type>quarter</type><staff>2</staff></note><note><pitch><step>E</step><octave>4</octave></pitch><duration>32</duration><voice>3</voice><type>eighth</type><staff>2</staff></note><backup><duration>192</duration></backup><note><pitch><step>A</step><octave>3</octave></pitch><duration>48</duration><voice>4</voice><type>eighth</type><dot/><staff>2</staff><beam number="1">begin</beam><notations><slur default-x="0.65" default-y="0.5" number="2" placement="below" type="start"/></notations></note><note><pitch><step>B</step><octave>3</octave></pitch><duration>16</duration><voice>4</voice><type>16th</type><staff>2</staff><beam number="1">continue</beam></note><note><pitch><step>A</step><octave>3</octave></pitch><duration>32</duration><voice>4</voice><type>eighth</type><staff>2</staff><beam number="1">end</beam></note><note><pitch><step>C</step><alter>1</alter><octave>4</octave></pitch><duration>64</duration><voice>4</voice><type>quarter</type><staff>2</staff><notations><slur default-x="0.65" default-y="1" number="2" type="stop"/></notations></note><note><pitch><step>C</step><alter>1</alter><octave>4</octave></pitch><duration>32</duration><voice>4</voice><type>eighth</type><staff>2</staff></note></measure><measure number="6"><print new-system="yes"/><note><pitch><step>B</step><octave>4</octave></pitch><duration>48</duration><voice>1</voice><type>eighth</type><dot/><staff>1</staff><beam number="1">begin</beam></note><note><pitch><step>C</step><alter>1</alter><octave>5</octave></pitch><duration>16</duration><voice>1</voice><type>16th</type><staff>1</staff><beam number="1">continue</beam></note><note><pitch><step>B</step><octave>4</octave></pitch><duration>32</duration><voice>1</voice><type>eighth</type><staff>1</staff><beam number="1">end</beam></note><note><pitch><step>D</step><octave>5</octave></pitch><duration>64</duration><voice>1</voice><type>quarter</type><staff>1</staff></note><note><pitch><step>D</step><octave>5</octave></pitch><duration>32</duration><voice>1</voice><type>eighth</type><staff>1</staff></note><backup><duration>192</duration></backup><attributes/><note><pitch><step>E</step><octave>4</octave></pitch><duration>64</duration><voice>3</voice><type>quarter</type><staff>2</staff></note><note><pitch><step>E</step><octave>4</octave></pitch><duration>32</duration><voice>3</voice><type>eighth</type><staff>2</staff></note><note><pitch><step>E</step><octave>4</octave></pitch><duration>64</duration><voice>3</voice><type>quarter</type><staff>2</staff></note><note><pitch><step>E</step><octave>4</octave></pitch><duration>32</duration><voice>3</voice><type>eighth</type><staff>2</staff></note><backup><duration>192</duration></backup><note><pitch><step>G</step><alter>1</alter><octave>3</octave></pitch><duration>48</duration><voice>4</voice><type>eighth</type><dot/><staff>2</staff><beam number="1">begin</beam><notations><slur default-x="0.65" default-y="0" number="2" placement="below" type="start"/></notations></note><note><pitch><step>A</step><octave>3</octave></pitch><duration>16</duration><voice>4</voice><type>16th</type><staff>2</staff><beam number="1">continue</beam></note><note><pitch><step>G</step><alter>1</alter><octave>3</octave></pitch><duration>32</duration><voice>4</voice><type>eighth</type><staff>2</staff><beam number="1">end</beam></note><note><pitch><step>B</step><octave>3</octave></pitch><duration>64</duration><voice>4</voice><type>quarter</type><staff>2</staff><notations><slur default-x="0.65" default-y="0.5" number="2" type="stop"/></notations></note><note><pitch><step>B</step><octave>3</octave></pitch><duration>32</duration><voice>4</voice><type>eighth</type><staff>2</staff><notations><slur default-x="0.65" default-y="0.5" number="2" placement="below" type="start"/></notations></note></measure><measure number="7"><note><pitch><step>A</step><octave>4</octave></pitch><duration>64</duration><voice>1</voice><type>quarter</type><staff>1</staff></note><note><pitch><step>B</step><octave>4</octave></pitch><duration>32</duration><voice>1</voice><type>eighth</type><staff>1</staff><notations><slur default-x="0.65" default-y="3" number="1" placement="above" type="start"/></notations></note><note><pitch><step>C</step><alter>1</alter><octave>5</octave></pitch><duration>64</duration><voice>1</voice><type>quarter</type><staff>1</staff><notations><slur default-x="0.65" default-y="3.5" number="1" type="stop"/></notations></note><direction placement="below"><direction-type><dynamics placement="below"><sf/></dynamics></direction-type></direction><note><pitch><step>F</step><alter>1</alter><octave>4</octave></pitch><duration>32</duration><voice>1</voice><type>eighth</type><staff>1</staff></note><note><chord/><pitch><step>B</step><octave>4</octave></pitch><duration>32</duration><voice>1</voice><type>eighth</type><staff>1</staff></note><note><chord/><pitch><step>D</step><octave>5</octave></pitch><duration>32</duration><voice>1</voice><type>eighth</type><staff>1</staff></note><backup><duration>192</duration></backup><attributes/><note><pitch><step>E</step><octave>4</octave></pitch><duration>64</duration><voice>3</voice><type>quarter</type><staff>2</staff><notations><slur default-x="0.65" default-y="-1" number="2" type="stop"/></notations></note><note><pitch><step>E</step><octave>4</octave></pitch><duration>32</duration><voice>3</voice><type>eighth</type><staff>2</staff></note><note><pitch><step>E</step><octave>4</octave></pitch><duration>64</duration><voice>3</voice><type>quarter</type><staff>2</staff></note><note relative-y="5"><rest/><duration>32</duration><voice>3</voice><type>eighth</type><staff>2</staff></note><backup><duration>192</duration></backup><note><pitch><step>F</step><alter>1</alter><octave>3</octave></pitch><duration>64</duration><voice>4</voice><type>quarter</type><staff>2</staff></note><note><pitch><step>G</step><alter>1</alter><octave>3</octave></pitch><duration>32</duration><voice>4</voice><type>eighth</type><staff>2</staff></note><note><pitch><step>A</step><octave>3</octave></pitch><duration>64</duration><voice>4</voice><type>quarter</type><staff>2</staff></note><note><pitch><step>D</step><octave>3</octave></pitch><duration>32</duration><voice>4</voice><type>eighth</type><staff>2</staff></note></measure><measure number="8"><direction placement="below"><direction-type><dynamics placement="below"><p/></dynamics></direction-type></direction><note><pitch><step>D</step><octave>4</octave></pitch><duration>64</duration><voice>1</voice><type>quarter</type><staff>1</staff><notations><slur default-x="0.65" default-y="-1.5" number="1" placement="below" type="start"/></notations></note><note><chord/><pitch><step>E</step><octave>4</octave></pitch><duration>64</duration><voice>1</voice><type>quarter</type><staff>1</staff></note><note><chord/><pitch><step>A</step><octave>4</octave></pitch><duration>64</duration><voice>1</voice><type>quarter</type><staff>1</staff><notations><slur default-x="0.65" default-y="-2" number="1" type="stop"/></notations></note><note><chord/><pitch><step>C</step><alter>1</alter><octave>5</octave></pitch><duration>64</duration><voice>1</voice><type>quarter</type><staff>1</staff></note><note><pitch><step>D</step><octave>4</octave></pitch><duration>32</duration><voice>1</voice><type>eighth</type><staff>1</staff></note><note><chord/><pitch><step>E</step><octave>4</octave></pitch><duration>32</duration><voice>1</voice><type>eighth</type><staff>1</staff></note><note><chord/><pitch><step>G</step><alter>1</alter><octave>4</octave></pitch><duration>32</duration><voice>1</voice><type>eighth</type><staff>1</staff></note><note><chord/><pitch><step>B</step><octave>4</octave></pitch><duration>32</duration><voice>1</voice><type>eighth</type><staff>1</staff></note><direction placement="above"><direction-type><words relative-y="10.500000000000007">P.A.C.</words></direction-type></direction><note><pitch><step>C</step><alter>1</alter><octave>4</octave></pitch><duration>64</duration><voice>1</voice><type>quarter</type><staff>1</staff></note><note><chord/><pitch><step>E</step><octave>4</octave></pitch><duration>64</duration><voice>1</voice><type>quarter</type><staff>1</staff></note><note><chord/><pitch><step>A</step><octave>4</octave></pitch><duration>64</duration><voice>1</voice><type>quarter</type><staff>1</staff></note><note><rest/><duration>32</duration><voice>1</voice><type>eighth</type><staff>1</staff></note><backup><duration>192</duration></backup><attributes/><note><pitch><step>E</step><octave>3</octave></pitch><duration>64</duration><voice>3</voice><type>quarter</type><staff>2</staff></note><note><pitch><step>E</step><octave>2</octave></pitch><duration>32</duration><voice>3</voice><type>eighth</type><staff>2</staff></note><note><pitch><step>A</step><octave>2</octave></pitch><duration>64</duration><voice>3</voice><type>quarter</type><staff>2</staff></note><note><rest/><duration>32</duration><voice>3</voice><type>eighth</type><staff>2</staff></note><barline location="right"><repeat direction="backward"/></barline></measure><measure number="9"><barline location="left"><repeat direction="forward"/></barline><direction placement="below"><direction-type><dynamics placement="below"><p/></dynamics></direction-type></direction><direction placement="above"><direction-type><words relative-y="10.500000000000007">(A - B: contrasting period)</words></direction-type></direction><note><pitch><step>E</step><octave>5</octave></pitch><duration>48</duration><voice>1</voice><type>eighth</type><dot/><staff>1</staff><beam number="1">begin</beam><notations><slur default-x="0.65" default-y="4.5" number="1" placement="above" type="start"/></notations></note><note><pitch><step>F</step><alter>1</alter><octave>5</octave></pitch><duration>16</duration><voice>1</voice><type>16th</type><staff>1</staff><beam number="1">continue</beam></note><note><pitch><step>E</step><octave>5</octave></pitch><duration>32</duration><voice>1</voice><type>eighth</type><staff>1</staff><beam number="1">end</beam></note><note><pitch><step>F</step><alter>1</alter><octave>5</octave></pitch><duration>64</duration><voice>1</voice><type>quarter</type><staff>1</staff><notations><slur default-x="0.65" default-y="5" number="1" type="stop"/></notations></note><note><pitch><step>F</step><alter>1</alter><octave>5</octave></pitch><duration>32</duration><voice>1</voice><type>eighth</type><staff>1</staff></note><backup><duration>192</duration></backup><attributes/><note><pitch><step>A</step><octave>3</octave></pitch><duration>32</duration><voice>3</voice><type>eighth</type><staff>2</staff><beam number="1">begin</beam><notations><slur default-x="0.65" default-y="5" number="2" placement="above" type="start"/></notations></note><note><pitch><step>C</step><alter>1</alter><octave>4</octave></pitch><duration>32</duration><voice>3</voice><type>eighth</type><staff>2</staff><beam number="1">continue</beam></note><note><pitch><step>E</step><octave>4</octave></pitch><duration>32</duration><voice>3</voice><type>eighth</type><staff>2</staff><beam number="1">end</beam><notations><slur default-x="0.65" default-y="7" number="2" type="stop"/></notations></note><note><pitch><step>A</step><octave>3</octave></pitch><duration>32</duration><voice>3</voice><type>eighth</type><staff>2</staff><beam number="1">begin</beam><notations><slur default-x="0.65" default-y="5" number="2" placement="above" type="start"/></notations></note><note><pitch><step>D</step><octave>4</octave></pitch><duration>32</duration><voice>3</voice><type>eighth</type><staff>2</staff><beam number="1">continue</beam></note><note><pitch><step>F</step><alter>1</alter><octave>4</octave></pitch><duration>32</duration><voice>3</voice><type>eighth</type><staff>2</staff><beam number="1">end</beam><notations><slur default-x="0.65" default-y="7.5" number="2" type="stop"/></notations></note></measure><measure number="10"><note><pitch><step>A</step><octave>5</octave></pitch><duration>48</duration><voice>1</voice><type>eighth</type><dot/><staff>1</staff><beam number="1">begin</beam><notations><slur default-x="0.65" default-y="6" number="1" placement="above" type="start"/></notations></note><note><pitch><step>G</step><alter>1</alter><octave>5</octave></pitch><duration>16</duration><voice>1</voice><type>16th</type><staff>1</staff><beam number="1">continue</beam></note><note><pitch><step>F</step><alter>1</alter><octave>5</octave></pitch><duration>32</duration><voice>1</voice><type>eighth</type><staff>1</staff><beam number="1">end</beam></note><note><pitch><step>F</step><alter>1</alter><octave>5</octave></pitch><duration>32</duration><voice>1</voice><type>eighth</type><staff>1</staff><beam number="1">begin</beam><notations><slur default-x="0.65" default-y="5" number="1" type="stop"/><slur default-x="0.65" default-y="5" number="1" placement="above" type="start"/></notations></note><note><pitch><step>E</step><octave>5</octave></pitch><duration>32</duration><voice>1</voice><type>eighth</type><staff>1</staff><beam number="1">continue</beam><notations><slur default-x="0.65" default-y="4.5" number="1" type="stop"/></notations></note><note><pitch><step>E</step><octave>5</octave></pitch><duration>32</duration><voice>1</voice><type>eighth</type><staff>1</staff><beam number="1">end</beam><notations><articulations><staccato/></articulations></notations></note><backup><duration>192</duration></backup><attributes/><note><pitch><step>A</step><octave>3</octave></pitch><duration>32</duration><voice>3</voice><type>eighth</type><staff>2</staff><beam number="1">begin</beam><notations><slur default-x="0.65" default-y="5" number="2" placement="above" type="start"/></notations></note><note><pitch><step>D</step><octave>4</octave></pitch><duration>32</duration><voice>3</voice><type>eighth</type><staff>2</staff><beam number="1">continue</beam></note><note><pitch><step>F</step><alter>1</alter><octave>4</octave></pitch><duration>32</duration><voice>3</voice><type>eighth</type><staff>2</staff><beam number="1">end</beam><notations><slur default-x="0.65" default-y="7.5" number="2" type="stop"/></notations></note><note><pitch><step>A</step><octave>3</octave></pitch><duration>32</duration><voice>3</voice><type>eighth</type><staff>2</staff><beam number="1">begin</beam><notations><slur default-x="0.65" default-y="5" number="2" placement="above" type="start"/></notations></note><note><pitch><step>C</step><alter>1</alter><octave>4</octave></pitch><duration>32</duration><voice>3</voice><type>eighth</type><staff>2</staff><beam number="1">continue</beam></note><note><pitch><step>E</step><octave>4</octave></pitch><duration>32</duration><voice>3</voice><type>eighth</type><staff>2</staff><beam number="1">end</beam><notations><slur default-x="0.65" default-y="7" number="2" type="stop"/></notations></note></measure><measure number="11"><print new-system="yes"/><direction placement="below"><direction-type><dynamics placement="below"><sf/></dynamics></direction-type></direction><note><pitch><step>E</step><octave>5</octave></pitch><duration>32</duration><voice>1</voice><type>eighth</type><staff>1</staff><beam number="1">begin</beam><notations><slur default-x="0.65" default-y="4.5" number="1" placement="above" type="start"/></notations></note><note><pitch><step>C</step><alter>1</alter><octave>5</octave></pitch><duration>32</duration><voice>1</voice><type>eighth</type><staff>1</staff><beam number="1">continue</beam><notations><slur default-x="0.65" default-y="3.5" number="1" type="stop"/></notations></note><note><pitch><step>A</step><octave>4</octave></pitch><duration>32</duration><voice>1</voice><type>eighth</type><staff>1</staff><beam number="1">end</beam><notations><articulations><staccato/></articulations></notations></note><direction placement="below"><direction-type><dynamics placement="below"><sf/></dynamics></direction-type></direction><note><pitch><step>E</step><octave>5</octave></pitch><duration>32</duration><voice>1</voice><type>eighth</type><staff>1</staff><beam number="1">begin</beam><notations><slur default-x="0.65" default-y="4.5" number="1" placement="above" type="start"/></notations></note><note><pitch><step>D</step><octave>5</octave></pitch><duration>32</duration><voice>1</voice><type>eighth</type><staff>1</staff><beam number="1">continue</beam><notations><slur default-x="0.65" default-y="4" number="1" type="stop"/></notations></note><note><pitch><step>B</step><octave>4</octave></pitch><duration>32</duration><voice>1</voice><type>eighth</type><staff>1</staff><beam number="1">end</beam><notations><articulations><staccato/></articulations></notations></note><backup><duration>192</duration></backup><attributes/><note><pitch><step>A</step><octave>3</octave></pitch><duration>64</duration><voice>3</voice><type>quarter</type><staff>2</staff></note><note><chord/><pitch><step>C</step><alter>1</alter><octave>4</octave></pitch><duration>64</duration><voice>3</voice><type>quarter</type><staff>2</staff></note><note><rest/><duration>32</duration><voice>3</voice><type>eighth</type><staff>2</staff></note><note><pitch><step>G</step><alter>1</alter><octave>3</octave></pitch><duration>64</duration><voice>3</voice><type>quarter</type><staff>2</staff></note><note><chord/><pitch><step>D</step><octave>4</octave></pitch><duration>64</duration><voice>3</voice><type>quarter</type><staff>2</staff></note><note><rest/><duration>32</duration><voice>3</voice><type>eighth</type><staff>2</staff></note></measure><measure number="12"><direction placement="below"><direction-type><dynamics placement="below"><sf/></dynamics></direction-type></direction><note relative-y="20"><rest/><duration>32</duration><voice>1</voice><type>eighth</type><staff>1</staff></note><note relative-y="10"><rest/><duration>32</duration><voice>1</voice><type>eighth</type><staff>1</staff></note><note><rest/><duration>32</duration><voice>1</voice><type>eighth</type><staff>1</staff></note><note><pitch><step>C</step><alter>1</alter><octave>5</octave></pitch><duration>64</duration><voice>1</voice><type>quarter</type><staff>1</staff><notations><slur default-x="0.65" default-y="6" number="1" placement="above" type="start"/></notations></note><note><pitch><step>B</step><octave>4</octave></pitch><duration>32</duration><voice>1</voice><type>eighth</type><staff>1</staff></note><backup><duration>192</duration></backup><note><pitch><step>E</step><octave>5</octave></pitch><duration>32</duration><voice>2</voice><type>eighth</type><staff>1</staff><beam number="1">begin</beam><notations><slur default-x="0.65" default-y="6" number="1" type="stop"/><slur default-x="0.65" default-y="-0.5" number="1" placement="below" type="start"/></notations></note><note><pitch><step>C</step><alter>1</alter><octave>5</octave></pitch><duration>32</duration><voice>2</voice><type>eighth</type><staff>1</staff><beam number="1">continue</beam><notations><slur default-x="0.65" default-y="-1" number="1" type="stop"/></notations></note><note><pitch><step>A</step><octave>4</octave></pitch><duration>32</duration><voice>2</voice><type>eighth</type><staff>1</staff><beam number="1">end</beam><notations><articulations><staccato/></articulations></notations></note><note><pitch><step>A</step><octave>4</octave></pitch><duration>64</duration><voice>2</voice><type>quarter</type><staff>1</staff></note><note><pitch><step>G</step><alter>1</alter><octave>4</octave></pitch><duration>32</duration><voice>2</voice><type>eighth</type><staff>1</staff></note><backup><duration>192</duration></backup><attributes/><note><pitch><step>C</step><alter>1</alter><octave>4</octave></pitch><duration>64</duration><voice>3</voice><type>quarter</type><staff>2</staff></note><note><pitch><step>D</step><alter>1</alter><octave>4</octave></pitch><duration>32</duration><voice>3</voice><type>eighth</type><accidental>sharp</accidental><staff>2</staff></note><note><pitch><step>E</step><octave>4</octave></pitch><duration>96</duration><voice>3</voice><type>quarter</type><dot/><staff>2</staff></note><backup><duration>192</duration></backup><note><pitch><step>A</step><octave>3</octave></pitch><duration>64</duration><voice>4</voice><type>quarter</type><staff>2</staff></note><note><pitch><step>F</step><alter>1</alter><octave>3</octave></pitch><duration>32</duration><voice>4</voice><type>eighth</type><staff>2</staff></note><note><pitch><step>E</step><octave>3</octave></pitch><duration>96</duration><voice>4</voice><type>quarter</type><dot/><staff>2</staff></note></measure><measure number="13"><direction placement="below"><direction-type><dynamics placement="below"><p/></dynamics></direction-type></direction><note><pitch><step>C</step><alter>1</alter><octave>5</octave></pitch><duration>48</duration><voice>1</voice><type>eighth</type><dot/><staff>1</staff><beam number="1">begin</beam><notations><slur default-x="0.65" default-y="3.5" number="1" placement="above" type="start"/></notations></note><note><pitch><step>D</step><octave>5</octave></pitch><duration>16</duration><voice>1</voice><type>16th</type><staff>1</staff><beam number="1">continue</beam></note><note><pitch><step>C</step><alter>1</alter><octave>5</octave></pitch><duration>32</duration><voice>1</voice><type>eighth</type><staff>1</staff><beam number="1">end</beam></note><note><pitch><step>E</step><octave>5</octave></pitch><duration>64</duration><voice>1</voice><type>quarter</type><staff>1</staff><notations><slur default-x="0.65" default-y="4.5" number="1" type="stop"/></notations></note><note><pitch><step>E</step><octave>5</octave></pitch><duration>32</duration><voice>1</voice><type>eighth</type><staff>1</staff></note><backup><duration>192</duration></backup><attributes/><note><pitch><step>E</step><octave>4</octave></pitch><duration>64</duration><voice>3</voice><type>quarter</type><staff>2</staff><notations><slur default-x="0.65" default-y="9.5" number="2" placement="above" type="start"/></notations></note><note><pitch><step>E</step><octave>4</octave></pitch><duration>32</duration><voice>3</voice><type>eighth</type><staff>2</staff></note><note><pitch><step>E</step><octave>4</octave></pitch><duration>64</duration><voice>3</voice><type>quarter</type><staff>2</staff><notations><slur default-x="0.65" default-y="9.5" number="2" type="stop"/></notations></note><note><pitch><step>E</step><octave>4</octave></pitch><duration>32</duration><voice>3</voice><type>eighth</type><staff>2</staff></note><backup><duration>192</duration></backup><note><pitch><step>A</step><octave>3</octave></pitch><duration>48</duration><voice>4</voice><type>eighth</type><dot/><staff>2</staff><beam number="1">begin</beam><notations><slur default-x="0.65" default-y="0.5" number="2" placement="below" type="start"/></notations></note><note><pitch><step>B</step><octave>3</octave></pitch><duration>16</duration><voice>4</voice><type>16th</type><staff>2</staff><beam number="1">continue</beam></note><note><pitch><step>A</step><octave>3</octave></pitch><duration>32</duration><voice>4</voice><type>eighth</type><staff>2</staff><beam number="1">end</beam></note><note><pitch><step>C</step><alter>1</alter><octave>4</octave></pitch><duration>64</duration><voice>4</voice><type>quarter</type><staff>2</staff><notations><slur default-x="0.65" default-y="1" number="2" type="stop"/></notations></note><note><pitch><step>C</step><alter>1</alter><octave>4</octave></pitch><duration>32</duration><voice>4</voice><type>eighth</type><staff>2</staff></note></measure><measure number="14"><note><pitch><step>B</step><octave>4</octave></pitch><duration>48</duration><voice>1</voice><type>eighth</type><dot/><staff>1</staff><beam number="1">begin</beam><notations><slur default-x="0.65" default-y="3" number="1" placement="above" type="start"/></notations></note><note><pitch><step>C</step><alter>1</alter><octave>5</octave></pitch><duration>16</duration><voice>1</voice><type>16th</type><staff>1</staff><beam number="1">continue</beam></note><note><pitch><step>B</step><octave>4</octave></pitch><duration>32</duration><voice>1</voice><type>eighth</type><staff>1</staff><beam number="1">end</beam></note><note><pitch><step>D</step><octave>5</octave></pitch><duration>64</duration><voice>1</voice><type>quarter</type><staff>1</staff><notations><slur default-x="0.65" default-y="4" number="1" type="stop"/></notations></note><note><pitch><step>D</step><octave>5</octave></pitch><duration>32</duration><voice>1</voice><type>eighth</type><staff>1</staff></note><backup><duration>192</duration></backup><attributes/><note><pitch><step>E</step><octave>4</octave></pitch><duration>64</duration><voice>3</voice><type>quarter</type><staff>2</staff></note><note><pitch><step>E</step><octave>4</octave></pitch><duration>32</duration><voice>3</voice><type>eighth</type><staff>2</staff></note><note><pitch><step>E</step><octave>4</octave></pitch><duration>64</duration><voice>3</voice><type>quarter</type><staff>2</staff></note><note><pitch><step>E</step><octave>4</octave></pitch><duration>32</duration><voice>3</voice><type>eighth</type><staff>2</staff></note><backup><duration>192</duration></backup><note><pitch><step>G</step><alter>1</alter><octave>3</octave></pitch><duration>48</duration><voice>4</voice><type>eighth</type><dot/><staff>2</staff><beam number="1">begin</beam><notations><slur default-x="0.65" default-y="0" number="2" placement="below" type="start"/></notations></note><note><pitch><step>A</step><octave>3</octave></pitch><duration>16</duration><voice>4</voice><type>16th</type><staff>2</staff><beam number="1">continue</beam></note><note><pitch><step>G</step><alter>1</alter><octave>3</octave></pitch><duration>32</duration><voice>4</voice><type>eighth</type><staff>2</staff><beam number="1">end</beam></note><note><pitch><step>B</step><octave>3</octave></pitch><duration>64</duration><voice>4</voice><type>quarter</type><staff>2</staff><notations><slur default-x="0.65" default-y="0.5" number="2" type="stop"/></notations></note><note><pitch><step>B</step><octave>3</octave></pitch><duration>32</duration><voice>4</voice><type>eighth</type><staff>2</staff><notations><slur default-x="0.65" default-y="0.5" number="2" placement="below" type="start"/></notations></note></measure><measure number="15"><print new-system="yes"/><note><pitch><step>A</step><octave>4</octave></pitch><duration>64</duration><voice>1</voice><type>quarter</type><staff>1</staff></note><note><pitch><step>B</step><octave>4</octave></pitch><duration>32</duration><voice>1</voice><type>eighth</type><staff>1</staff><notations><slur default-x="0.65" default-y="3" number="1" placement="above" type="start"/></notations></note><note><pitch><step>C</step><alter>1</alter><octave>5</octave></pitch><duration>64</duration><voice>1</voice><type>quarter</type><staff>1</staff><notations><slur default-x="0.65" default-y="3.5" number="1" type="stop"/></notations></note><direction placement="below"><direction-type><dynamics placement="below"><sf/></dynamics></direction-type></direction><note><pitch><step>F</step><alter>1</alter><octave>4</octave></pitch><duration>32</duration><voice>1</voice><type>eighth</type><staff>1</staff></note><note><chord/><pitch><step>B</step><octave>4</octave></pitch><duration>32</duration><voice>1</voice><type>eighth</type><staff>1</staff></note><note><chord/><pitch><step>D</step><octave>5</octave></pitch><duration>32</duration><voice>1</voice><type>eighth</type><staff>1</staff></note><backup><duration>192</duration></backup><attributes/><note><pitch><step>E</step><octave>4</octave></pitch><duration>64</duration><voice>3</voice><type>quarter</type><staff>2</staff><notations><slur default-x="0.65" default-y="-1" number="2" type="stop"/></notations></note><note><pitch><step>E</step><octave>4</octave></pitch><duration>32</duration><voice>3</voice><type>eighth</type><staff>2</staff></note><note><pitch><step>E</step><octave>4</octave></pitch><duration>64</duration><voice>3</voice><type>quarter</type><staff>2</staff></note><note relative-y="5"><rest/><duration>32</duration><voice>3</voice><type>eighth</type><staff>2</staff></note><backup><duration>192</duration></backup><note><pitch><step>F</step><alter>1</alter><octave>3</octave></pitch><duration>64</duration><voice>4</voice><type>quarter</type><staff>2</staff></note><note><pitch><step>G</step><alter>1</alter><octave>3</octave></pitch><duration>32</duration><voice>4</voice><type>eighth</type><staff>2</staff></note><note><pitch><step>A</step><octave>3</octave></pitch><duration>64</duration><voice>4</voice><type>quarter</type><staff>2</staff></note><note><pitch><step>D</step><octave>3</octave></pitch><duration>32</duration><voice>4</voice><type>eighth</type><staff>2</staff></note></measure><measure number="16"><direction placement="below"><direction-type><dynamics placement="below"><p/></dynamics></direction-type></direction><note><pitch><step>E</step><octave>4</octave></pitch><duration>64</duration><voice>1</voice><type>quarter</type><staff>1</staff><notations><slur default-x="0.65" default-y="6" number="1" placement="above" type="start"/></notations></note><note><chord/><pitch><step>A</step><octave>4</octave></pitch><duration>64</duration><voice>1</voice><type>quarter</type><staff>1</staff><notations><slur default-x="0.65" default-y="6" number="1" type="stop"/></notations></note><note><chord/><pitch><step>C</step><alter>1</alter><octave>5</octave></pitch><duration>64</duration><voice>1</voice><type>quarter</type><staff>1</staff></note><note><pitch><step>E</step><octave>4</octave></pitch><duration>32</duration><voice>1</voice><type>eighth</type><staff>1</staff></note><note><chord/><pitch><step>G</step><alter>1</alter><octave>4</octave></pitch><duration>32</duration><voice>1</voice><type>eighth</type><staff>1</staff></note><note><chord/><pitch><step>B</step><octave>4</octave></pitch><duration>32</duration><voice>1</voice><type>eighth</type><staff>1</staff></note><direction placement="above"><direction-type><words relative-x="-21.68550656660411" relative-y="17.166666666666668">I.A.C.
retardation</words></direction-type></direction><note><pitch><step>G</step><alter>1</alter><octave>4</octave></pitch><duration>64</duration><voice>1</voice><type>quarter</type><staff>1</staff><notations><slur default-x="0.65" default-y="6" number="1" placement="above" type="start"/></notations></note><note><chord/><pitch><step>B</step><octave>4</octave></pitch><duration>64</duration><voice>1</voice><type>quarter</type><staff>1</staff><notations><slur default-x="0.65" default-y="6" number="1" type="stop"/></notations></note><note><pitch><step>A</step><octave>4</octave></pitch><duration>32</duration><voice>1</voice><type>eighth</type><staff>1</staff></note><note><chord/><pitch><step>C</step><alter>1</alter><octave>5</octave></pitch><duration>32</duration><voice>1</voice><type>eighth</type><staff>1</staff></note><backup><duration>192</duration></backup><note relative-y="-25"><rest/><duration>32</duration><voice>2</voice><type>eighth</type><staff>1</staff></note><note><rest/><duration>32</duration><voice>2</voice><type>eighth</type><staff>1</staff></note><note relative-y="-25"><rest/><duration>32</duration><voice>2</voice><type>eighth</type><staff>1</staff></note><note><pitch><step>E</step><octave>4</octave></pitch><duration>96</duration><voice>2</voice><type>quarter</type><dot/><staff>1</staff></note><backup><duration>192</duration></backup><attributes/><note><pitch><step>E</step><octave>3</octave></pitch><duration>64</duration><voice>3</voice><type>quarter</type><staff>2</staff></note><note><pitch><step>E</step><octave>2</octave></pitch><duration>32</duration><voice>3</voice><type>eighth</type><staff>2</staff></note><note><pitch><step>A</step><octave>2</octave></pitch><duration>96</duration><voice>3</voice><type>quarter</type><dot/><staff>2</staff></note></measure><measure number="17"><note><pitch><step>A</step><octave>4</octave></pitch><duration>64</duration><voice>1</voice><type>quarter</type><staff>1</staff></note><note><chord/><pitch><step>C</step><alter>1</alter><octave>5</octave></pitch><duration>64</duration><voice>1</voice><type>quarter</type><staff>1</staff></note><note><pitch><step>G</step><alter>1</alter><octave>4</octave></pitch><duration>32</duration><voice>1</voice><type>eighth</type><staff>1</staff></note><note><chord/><pitch><step>D</step><octave>5</octave></pitch><duration>32</duration><voice>1</voice><type>eighth</type><staff>1</staff></note><note><pitch><step>A</step><octave>4</octave></pitch><duration>64</duration><voice>1</voice><type>quarter</type><staff>1</staff></note><note><chord/><pitch><step>E</step><octave>5</octave></pitch><duration>64</duration><voice>1</voice><type>quarter</type><staff>1</staff></note><note><pitch><step>F</step><alter>1</alter><octave>5</octave></pitch><duration>16</duration><voice>1</voice><type>16th</type><staff>1</staff><beam number="1">begin</beam><notations><slur default-x="0.65" default-y="8.256015071218835" number="1" placement="above" type="start"/></notations></note><direction placement="above"><direction-type><words relative-y="17.166666666666668">p</words></direction-type></direction><note><pitch><step>G</step><alter>1</alter><octave>5</octave></pitch><duration>8</duration><voice>1</voice><type>32nd</type><staff>1</staff><beam number="1">continue</beam></note><note><pitch><step>A</step><octave>5</octave></pitch><duration>8</duration><voice>1</voice><type>32nd</type><staff>1</staff><beam number="1">end</beam></note><backup><duration>192</duration></backup><note><pitch><step>E</step><octave>4</octave></pitch><duration>64</duration><voice>2</voice><type>quarter</type><staff>1</staff><notations><slur default-x="0.65" default-y="8.756015071218835" number="1" type="stop"/></notations></note><note><pitch><step>E</step><octave>4</octave></pitch><duration>32</duration><voice>2</voice><type>eighth</type><staff>1</staff></note><note><pitch><step>E</step><octave>4</octave></pitch><duration>64</duration><voice>2</voice><type>quarter</type><staff>1</staff></note><note relative-y="-20"><rest/><duration>32</duration><voice>2</voice><type>eighth</type><staff>1</staff></note><backup><duration>192</duration></backup><attributes/><note><pitch><step>A</step><octave>2</octave></pitch><duration>64</duration><voice>3</voice><type>quarter</type><staff>2</staff></note><note><chord/><pitch><step>A</step><octave>3</octave></pitch><duration>64</duration><voice>3</voice><type>quarter</type><staff>2</staff></note><note><pitch><step>B</step><octave>2</octave></pitch><duration>32</duration><voice>3</voice><type>eighth</type><staff>2</staff></note><note><chord/><pitch><step>B</step><octave>3</octave></pitch><duration>32</duration><voice>3</voice><type>eighth</type><staff>2</staff></note><note><pitch><step>C</step><alter>1</alter><octave>3</octave></pitch><duration>64</duration><voice>3</voice><type>quarter</type><staff>2</staff></note><note><chord/><pitch><step>C</step><alter>1</alter><octave>4</octave></pitch><duration>64</duration><voice>3</voice><type>quarter</type><staff>2</staff></note><note><pitch><step>D</step><octave>3</octave></pitch><duration>32</duration><voice>3</voice><type>eighth</type><staff>2</staff></note><note><chord/><pitch><step>D</step><octave>4</octave></pitch><duration>32</duration><voice>3</voice><type>eighth</type><staff>2</staff></note></measure><measure number="18"><direction placement="above"><direction-type><words relative-x="4.666666666666668" relative-y="-4.500000000000002">A - A' - B - A (rounded binary)</words></direction-type></direction><note><pitch><step>A</step><octave>4</octave></pitch><duration>64</duration><voice>1</voice><type>quarter</type><staff>1</staff></note><direction placement="above"><direction-type><words relative-y="17.166666666666668">app.</words></direction-type></direction><note><pitch><step>C</step><alter>1</alter><octave>5</octave></pitch><duration>16</duration><voice>1</voice><type>16th</type><staff>1</staff><beam number="1">begin</beam><notations><slur default-x="0.65" default-y="5.5" number="1" placement="above" type="start"/></notations></note><note><pitch><step>B</step><octave>4</octave></pitch><duration>16</duration><voice>1</voice><type>16th</type><staff>1</staff><beam number="1">end</beam></note><direction placement="above"><direction-type><words relative-y="17.166666666666668">P.A.C</words></direction-type></direction><note><pitch><step>A</step><octave>4</octave></pitch><duration>64</duration><voice>1</voice><type>quarter</type><staff>1</staff><notations><slur default-x="0.65" default-y="5.5" number="1" type="stop"/></notations></note><note relative-y="-20"><rest/><duration>32</duration><voice>1</voice><type>eighth</type><staff>1</staff></note><backup><duration>192</duration></backup><note relative-y="-10"><rest/><duration>32</duration><voice>2</voice><type>eighth</type><staff>1</staff></note><note><rest/><duration>32</duration><voice>2</voice><type>eighth</type><staff>1</staff></note><note><pitch><step>G</step><alter>1</alter><octave>4</octave></pitch><duration>32</duration><voice>2</voice><type>eighth</type><staff>1</staff></note><note><pitch><step>A</step><octave>4</octave></pitch><duration>64</duration><voice>2</voice><type>quarter</type><staff>1</staff></note><note relative-y="20"><rest/><duration>32</duration><voice>2</voice><type>eighth</type><staff>1</staff></note><backup><duration>192</duration></backup><attributes/><note><pitch><step>E</step><octave>3</octave></pitch><duration>64</duration><voice>3</voice><type>quarter</type><staff>2</staff><notations><slur default-x="0.65" default-y="6" number="2" placement="above" type="start"/></notations></note><note><chord/><pitch><step>C</step><alter>1</alter><octave>4</octave></pitch><duration>64</duration><voice>3</voice><type>quarter</type><staff>2</staff></note><note><pitch><step>E</step><octave>3</octave></pitch><duration>32</duration><voice>3</voice><type>eighth</type><staff>2</staff><notations><slur default-x="0.65" default-y="6" number="2" type="stop"/></notations></note><note><chord/><pitch><step>D</step><octave>4</octave></pitch><duration>32</duration><voice>3</voice><type>eighth</type><staff>2</staff></note><note><pitch><step>A</step><octave>3</octave></pitch><duration>64</duration><voice>3</voice><type>quarter</type><staff>2</staff></note><note><chord/><pitch><step>C</step><alter>1</alter><octave>4</octave></pitch><duration>64</duration><voice>3</voice><type>quarter</type><staff>2</staff></note><note><rest/><duration>32</duration><voice>3</voice><type>eighth</type><staff>2</staff></note><barline location="right"><bar-style>light-heavy</bar-style><repeat direction="backward"/></barline></measure></part></score-partwise>