<?xml version="1.0" encoding="UTF-8"?>
<!DOCTYPE score-partwise PUBLIC "-//Recordare//DTD MusicXML 2.0 Partwise//EN"
  "http://www.musicxml.org/dtds/partwise.dtd">
<score-partwise version="2.0"><work><work-title>Moon River</work-title></work><identification><creator type="composer"/><creator type="lyricist"/><rights/><encoding><software>Noteflight version 0.4</software><encoding-date>2024-03-17</encoding-date><supports attribute="new-system" element="print" type="no" value="no"/><supports attribute="new-page" element="print" type="no" value="no"/></encoding></identification><defaults><scaling><millimeters>2.1166666679999997</millimeters><tenths>10</tenths></scaling><page-layout><page-height>1320</page-height><page-width>1020</page-width><page-margins type="both"><left-margin>59.583333333333336</left-margin><right-margin>56.66666666666667</right-margin><top-margin>96.66666666666667</top-margin><bottom-margin>80</bottom-margin></page-margins></page-layout><system-layout><system-margins><left-margin>59.583333333333336</left-margin><right-margin>26.666666666666668</right-margin></system-margins><system-distance>92.5</system-distance><top-system-distance>145.83333333333334</top-system-distance></system-layout><staff-layout><staff-distance>55</staff-distance></staff-layout></defaults><credit page="1"><credit-type>title</credit-type><credit-words font-size="24" default-x="510" default-y="1210" justify="right" valign="top">Moon River</credit-words></credit><part-list><score-part id="P1"><part-name>Piano</part-name><part-abbreviation>Pno.</part-abbreviation><score-instrument id="P1I1"><instrument-name>Piano</instrument-name><instrument-sound>keyboard.piano</instrument-sound></score-instrument><midi-instrument id="P1I1"><midi-channel>1</midi-channel><midi-program>1</midi-program></midi-instrument></score-part></part-list><part id="P1"><measure number="1"><direction placement="above"><direction-type><metronome><beat-unit>quarter</beat-unit><per-minute>95</per-minute></metronome></direction-type><sound tempo="95"/></direction><direction placement="above"><direction-type><metronome><beat-unit>quarter</beat-unit><per-minute>95</per-minute></metronome></direction-type><sound tempo="95"/></direction><note><pitch><step>C</step><octave>6</octave></pitch><duration>32</duration><voice>1</voice><type>eighth</type><staff>1</staff><beam number="1">begin</beam></note><note><pitch><step>A</step><alter>-1</alter><octave>5</octave></pitch><duration>32</duration><voice>1</voice><type>eighth</type><staff>1</staff><beam number="1">end</beam></note><note><pitch><step>B</step><alter>-1</alter><octave>5</octave></pitch><duration>32</duration><voice>1</voice><type>eighth</type><staff>1</staff><beam number="1">begin</beam></note><note><pitch><step>A</step><alter>-1</alter><octave>5</octave></pitch><duration>32</duration><voice>1</voice><type>eighth</type><staff>1</staff><beam number="1">end</beam></note><note><pitch><step>B</step><alter>-1</alter><octave>5</octave></pitch><duration>32</duration><voice>1</voice><type>eighth</type><staff>1</staff><beam number="1">begin</beam></note><note><pitch><step>A</step><alter>-1</alter><octave>5</octave></pitch><duration>32</duration><voice>1</voice><type>eighth</type><staff>1</staff><beam number="1">end</beam></note><backup><duration>192</duration></backup><attributes><divisions>64</divisions><key><fifths>-4</fifths><mode>major</mode></key><time print-object="yes"><beats>3</beats><beat-type>4</beat-type></time><staves>2</staves><clef number="1"><sign>G</sign><line>2</line></clef><clef number="2"><sign>F</sign><line>4</line></clef></attributes><note><pitch><step>A</step><alter>-1</alter><octave>2</octave></pitch><duration>32</duration><voice>3</voice><type>eighth</type><staff>2</staff><beam number="1">begin</beam></note><note><pitch><step>E</step><alter>-1</alter><octave>3</octave></pitch><duration>32</duration><voice>3</voice><type>eighth</type><staff>2</staff><beam number="1">end</beam></note><note><pitch><step>A</step><alter>-1</alter><octave>3</octave></pitch><duration>32</duration><voice>3</voice><type>eighth</type><staff>2</staff><beam number="1">begin</beam></note><note><pitch><step>B</step><alter>-1</alter><octave>3</octave></pitch><duration>32</duration><voice>3</voice><type>eighth</type><staff>2</staff><beam number="1">end</beam></note><note><pitch><step>C</step><octave>4</octave></pitch><duration>64</duration><voice>3</voice><type>quarter</type><staff>2</staff></note></measure><measure number="2"><note><pitch><step>C</step><octave>6</octave></pitch><duration>32</duration><voice>1</voice><type>eighth</type><staff>1</staff><beam number="1">begin</beam></note><note><pitch><step>A</step><alter>-1</alter><octave>5</octave></pitch><duration>32</duration><voice>1</voice><type>eighth</type><staff>1</staff><beam number="1">end</beam></note><note><pitch><step>B</step><alter>-1</alter><octave>5</octave></pitch><duration>32</duration><voice>1</voice><type>eighth</type><staff>1</staff><beam number="1">begin</beam></note><note><pitch><step>A</step><alter>-1</alter><octave>5</octave></pitch><duration>32</duration><voice>1</voice><type>eighth</type><staff>1</staff><beam number="1">end</beam></note><note><pitch><step>B</step><alter>-1</alter><octave>5</octave></pitch><duration>32</duration><voice>1</voice><type>eighth</type><staff>1</staff><beam number="1">begin</beam></note><note><pitch><step>A</step><alter>-1</alter><octave>5</octave></pitch><duration>32</duration><voice>1</voice><type>eighth</type><staff>1</staff><beam number="1">end</beam></note><backup><duration>192</duration></backup><attributes/><note><pitch><step>D</step><alter>-1</alter><octave>3</octave></pitch><duration>32</duration><voice>3</voice><type>eighth</type><staff>2</staff><beam number="1">begin</beam></note><note><pitch><step>A</step><alter>-1</alter><octave>3</octave></pitch><duration>32</duration><voice>3</voice><type>eighth</type><staff>2</staff><beam number="1">end</beam></note><note><pitch><step>D</step><alter>-1</alter><octave>4</octave></pitch><duration>32</duration><voice>3</voice><type>eighth</type><staff>2</staff><beam number="1">begin</beam></note><note><pitch><step>E</step><alter>-1</alter><octave>4</octave></pitch><duration>32</duration><voice>3</voice><type>eighth</type><staff>2</staff><beam number="1">end</beam></note><note><pitch><step>F</step><octave>4</octave></pitch><duration>64</duration><voice>3</voice><type>quarter</type><staff>2</staff></note></measure><measure number="3"><note><grace/><pitch><step>A</step><alter>-1</alter><octave>5</octave></pitch><voice>1</voice><type>16th</type><staff>1</staff></note><note><pitch><step>C</step><octave>6</octave></pitch><duration>32</duration><voice>1</voice><type>eighth</type><staff>1</staff><beam number="1">begin</beam></note><note><pitch><step>A</step><alter>-1</alter><octave>5</octave></pitch><duration>32</duration><voice>1</voice><type>eighth</type><staff>1</staff><beam number="1">end</beam></note><note><pitch><step>B</step><alter>-1</alter><octave>5</octave></pitch><duration>32</duration><voice>1</voice><type>eighth</type><staff>1</staff><beam number="1">begin</beam></note><note><pitch><step>A</step><alter>-1</alter><octave>5</octave></pitch><duration>32</duration><voice>1</voice><type>eighth</type><staff>1</staff><beam number="1">end</beam></note><note><pitch><step>B</step><alter>-1</alter><octave>5</octave></pitch><duration>32</duration><voice>1</voice><type>eighth</type><staff>1</staff><beam number="1">begin</beam></note><note><pitch><step>A</step><alter>-1</alter><octave>5</octave></pitch><duration>32</duration><voice>1</voice><type>eighth</type><staff>1</staff><beam number="1">end</beam></note><backup><duration>192</duration></backup><attributes/><note><pitch><step>A</step><alter>-1</alter><octave>2</octave></pitch><duration>32</duration><voice>3</voice><type>eighth</type><staff>2</staff><beam number="1">begin</beam></note><note><pitch><step>E</step><alter>-1</alter><octave>3</octave></pitch><duration>32</duration><voice>3</voice><type>eighth</type><staff>2</staff><beam number="1">end</beam></note><note><pitch><step>A</step><alter>-1</alter><octave>3</octave></pitch><duration>32</duration><voice>3</voice><type>eighth</type><staff>2</staff><beam number="1">begin</beam></note><note><pitch><step>B</step><alter>-1</alter><octave>3</octave></pitch><duration>32</duration><voice>3</voice><type>eighth</type><staff>2</staff><beam number="1">end</beam></note><note><pitch><step>C</step><octave>4</octave></pitch><duration>64</duration><voice>3</voice><type>quarter</type><staff>2</staff></note></measure><measure number="4"><note><grace/><pitch><step>A</step><alter>-1</alter><octave>5</octave></pitch><voice>1</voice><type>16th</type><staff>1</staff></note><note><pitch><step>C</step><octave>6</octave></pitch><duration>32</duration><voice>1</voice><type>eighth</type><staff>1</staff><beam number="1">begin</beam></note><note><pitch><step>A</step><alter>-1</alter><octave>5</octave></pitch><duration>32</duration><voice>1</voice><type>eighth</type><staff>1</staff><beam number="1">end</beam></note><note><pitch><step>B</step><alter>-1</alter><octave>5</octave></pitch><duration>32</duration><voice>1</voice><type>eighth</type><staff>1</staff><beam number="1">begin</beam></note><note><pitch><step>A</step><alter>-1</alter><octave>5</octave></pitch><duration>32</duration><voice>1</voice><type>eighth</type><staff>1</staff><beam number="1">end</beam></note><note><pitch><step>B</step><alter>-1</alter><octave>5</octave></pitch><duration>32</duration><voice>1</voice><type>eighth</type><staff>1</staff><beam number="1">begin</beam></note><note><pitch><step>A</step><alter>-1</alter><octave>5</octave></pitch><duration>32</duration><voice>1</voice><type>eighth</type><staff>1</staff><beam number="1">end</beam></note><backup><duration>192</duration></backup><attributes/><note><pitch><step>D</step><alter>-1</alter><octave>3</octave></pitch><duration>32</duration><voice>3</voice><type>eighth</type><staff>2</staff><beam number="1">begin</beam></note><note><pitch><step>A</step><alter>-1</alter><octave>3</octave></pitch><duration>32</duration><voice>3</voice><type>eighth</type><staff>2</staff><beam number="1">end</beam></note><note><pitch><step>D</step><alter>-1</alter><octave>4</octave></pitch><duration>32</duration><voice>3</voice><type>eighth</type><staff>2</staff><beam number="1">begin</beam></note><note><pitch><step>E</step><alter>-1</alter><octave>4</octave></pitch><duration>32</duration><voice>3</voice><type>eighth</type><staff>2</staff><beam number="1">end</beam></note><note><pitch><step>F</step><octave>4</octave></pitch><duration>64</duration><voice>3</voice><type>quarter</type><staff>2</staff></note></measure><measure number="5"><note><pitch><step>C</step><octave>6</octave></pitch><duration>192</duration><tie type="start"/><voice>1</voice><type>half</type><dot/><staff>1</staff><notations><tied type="start"/></notations></note><backup><duration>192</duration></backup><attributes/><note><pitch><step>A</step><alter>-1</alter><octave>2</octave></pitch><duration>32</duration><voice>3</voice><type>eighth</type><staff>2</staff><beam number="1">begin</beam></note><note><pitch><step>E</step><alter>-1</alter><octave>3</octave></pitch><duration>32</duration><voice>3</voice><type>eighth</type><staff>2</staff><beam number="1">end</beam></note><note><pitch><step>A</step><alter>-1</alter><octave>3</octave></pitch><duration>32</duration><voice>3</voice><type>eighth</type><staff>2</staff><beam number="1">begin</beam></note><note><pitch><step>B</step><alter>-1</alter><octave>3</octave></pitch><duration>32</duration><voice>3</voice><type>eighth</type><staff>2</staff><beam number="1">end</beam></note><note><pitch><step>C</step><octave>4</octave></pitch><duration>32</duration><voice>3</voice><type>eighth</type><staff>2</staff><beam number="1">begin</beam></note><note><pitch><step>E</step><alter>-1</alter><octave>4</octave></pitch><duration>32</duration><voice>3</voice><type>eighth</type><staff>2</staff><beam number="1">end</beam></note></measure><measure number="6"><note><pitch><step>C</step><octave>6</octave></pitch><duration>64</duration><tie type="stop"/><voice>1</voice><type>quarter</type><staff>1</staff><notations><tied type="stop"/></notations></note><note><rest/><duration>64</duration><voice>1</voice><type>quarter</type><staff>1</staff></note><note><rest/><duration>64</duration><voice>1</voice><type>quarter</type><staff>1</staff></note><backup><duration>192</duration></backup><attributes/><note><pitch><step>A</step><alter>-1</alter><octave>4</octave></pitch><duration>64</duration><voice>3</voice><type>quarter</type><staff>2</staff></note><note><pitch><step>E</step><alter>-1</alter><octave>4</octave></pitch><duration>64</duration><voice>3</voice><type>quarter</type><staff>2</staff></note><note><pitch><step>A</step><alter>-1</alter><octave>3</octave></pitch><duration>64</duration><voice>3</voice><type>quarter</type><staff>2</staff></note></measure><measure number="7"><note><grace/><pitch><step>C</step><octave>4</octave></pitch><voice>1</voice><type>eighth</type><staff>1</staff></note><note><pitch><step>E</step><alter>-1</alter><octave>4</octave></pitch><duration>64</duration><tie type="start"/><voice>1</voice><type>quarter</type><staff>1</staff><notations><tied type="start"/></notations></note><note><pitch><step>E</step><alter>-1</alter><octave>4</octave></pitch><duration>32</duration><tie type="stop"/><voice>1</voice><type>eighth</type><staff>1</staff><beam number="1">begin</beam><notations><tied type="stop"/></notations></note><note><pitch><step>C</step><octave>4</octave></pitch><duration>32</duration><voice>1</voice><type>eighth</type><staff>1</staff><beam number="1">end</beam></note><note><pitch><step>E</step><alter>-1</alter><octave>4</octave></pitch><duration>32</duration><voice>1</voice><type>eighth</type><staff>1</staff><beam number="1">begin</beam></note><note><pitch><step>C</step><octave>4</octave></pitch><duration>32</duration><voice>1</voice><type>eighth</type><staff>1</staff><beam number="1">end</beam></note><backup><duration>192</duration></backup><attributes/><note><pitch><step>A</step><alter>-1</alter><octave>2</octave></pitch><duration>32</duration><voice>3</voice><type>eighth</type><staff>2</staff><beam number="1">begin</beam></note><note><pitch><step>E</step><alter>-1</alter><octave>3</octave></pitch><duration>32</duration><voice>3</voice><type>eighth</type><staff>2</staff><beam number="1">end</beam></note><note><pitch><step>A</step><alter>-1</alter><octave>3</octave></pitch><duration>32</duration><voice>3</voice><type>eighth</type><staff>2</staff><beam number="1">begin</beam></note><note><pitch><step>C</step><octave>4</octave></pitch><duration>32</duration><tie type="start"/><voice>3</voice><type>eighth</type><staff>2</staff><beam number="1">end</beam><notations><tied type="start"/></notations></note><note><pitch><step>C</step><octave>4</octave></pitch><duration>64</duration><tie type="stop"/><voice>3</voice><type>quarter</type><staff>2</staff><notations><tied type="stop"/></notations></note></measure><measure number="8"><note><pitch><step>B</step><alter>-1</alter><octave>4</octave></pitch><duration>64</duration><voice>1</voice><type>quarter</type><staff>1</staff></note><note><pitch><step>A</step><alter>-1</alter><octave>4</octave></pitch><duration>128</duration><voice>1</voice><type>half</type><staff>1</staff></note><backup><duration>192</duration></backup><attributes/><note><pitch><step>F</step><octave>2</octave></pitch><duration>32</duration><voice>3</voice><type>eighth</type><staff>2</staff><beam number="1">begin</beam></note><note><pitch><step>C</step><octave>3</octave></pitch><duration>32</duration><voice>3</voice><type>eighth</type><staff>2</staff><beam number="1">end</beam></note><note><pitch><step>F</step><octave>3</octave></pitch><duration>32</duration><voice>3</voice><type>eighth</type><staff>2</staff><beam number="1">begin</beam></note><note><pitch><step>G</step><octave>3</octave></pitch><duration>32</duration><voice>3</voice><type>eighth</type><staff>2</staff><beam number="1">end</beam></note><note><pitch><step>A</step><alter>-1</alter><octave>3</octave></pitch><duration>64</duration><voice>3</voice><type>quarter</type><staff>2</staff></note></measure><measure number="9"><note><pitch><step>G</step><octave>4</octave></pitch><duration>64</duration><voice>1</voice><type>quarter</type><staff>1</staff></note><note><pitch><step>F</step><octave>4</octave></pitch><duration>64</duration><tie type="start"/><voice>1</voice><type>quarter</type><staff>1</staff><notations><tied type="start"/></notations></note><note><pitch><step>F</step><octave>4</octave></pitch><duration>32</duration><tie type="stop"/><voice>1</voice><type>eighth</type><staff>1</staff><beam number="1">begin</beam><notations><tied type="stop"/></notations></note><note><pitch><step>E</step><alter>-1</alter><octave>4</octave></pitch><duration>16</duration><voice>1</voice><type>16th</type><staff>1</staff><beam number="1">continue</beam></note><note><pitch><step>D</step><alter>-1</alter><octave>4</octave></pitch><duration>16</duration><voice>1</voice><type>16th</type><staff>1</staff><beam number="1">end</beam></note><backup><duration>192</duration></backup><attributes/><note><pitch><step>D</step><alter>-1</alter><octave>2</octave></pitch><duration>32</duration><voice>3</voice><type>eighth</type><staff>2</staff><beam number="1">begin</beam></note><note><pitch><step>A</step><alter>-1</alter><octave>2</octave></pitch><duration>32</duration><voice>3</voice><type>eighth</type><staff>2</staff><beam number="1">end</beam></note><note><pitch><step>D</step><alter>-1</alter><octave>3</octave></pitch><duration>64</duration><voice>3</voice><type>quarter</type><staff>2</staff></note><note><pitch><step>A</step><alter>-1</alter><octave>2</octave></pitch><duration>64</duration><voice>3</voice><type>quarter</type><staff>2</staff></note></measure><measure number="10"><note><pitch><step>E</step><alter>-1</alter><octave>4</octave></pitch><duration>128</duration><voice>1</voice><type>half</type><staff>1</staff></note><note><pitch><step>A</step><alter>-1</alter><octave>3</octave></pitch><duration>64</duration><voice>1</voice><type>quarter</type><staff>1</staff></note><backup><duration>192</duration></backup><attributes/><note><pitch><step>C</step><octave>2</octave></pitch><duration>32</duration><voice>3</voice><type>eighth</type><staff>2</staff><beam number="1">begin</beam></note><note><pitch><step>G</step><octave>2</octave></pitch><duration>32</duration><voice>3</voice><type>eighth</type><staff>2</staff><beam number="1">end</beam></note><note><pitch><step>C</step><octave>3</octave></pitch><duration>128</duration><voice>3</voice><type>half</type><staff>2</staff></note></measure><measure number="11"><note><pitch><step>G</step><octave>4</octave></pitch><duration>96</duration><voice>1</voice><type>quarter</type><dot/><staff>1</staff></note><note><pitch><step>F</step><octave>4</octave></pitch><duration>32</duration><tie type="start"/><voice>1</voice><type>eighth</type><staff>1</staff><notations><tied type="start"/></notations></note><note><pitch><step>F</step><octave>4</octave></pitch><duration>32</duration><tie type="stop"/><voice>1</voice><type>eighth</type><staff>1</staff><beam number="1">begin</beam><notations><tied type="stop"/></notations></note><note><pitch><step>E</step><alter>-1</alter><octave>4</octave></pitch><duration>16</duration><voice>1</voice><type>16th</type><staff>1</staff><beam number="1">continue</beam></note><note><pitch><step>D</step><alter>-1</alter><octave>4</octave></pitch><duration>16</duration><voice>1</voice><type>16th</type><staff>1</staff><beam number="1">end</beam></note><backup><duration>192</duration></backup><attributes/><note><pitch><step>D</step><alter>-1</alter><octave>2</octave></pitch><duration>32</duration><voice>3</voice><type>eighth</type><staff>2</staff><beam number="1">begin</beam></note><note><pitch><step>A</step><alter>-1</alter><octave>2</octave></pitch><duration>32</duration><voice>3</voice><type>eighth</type><staff>2</staff><beam number="1">end</beam></note><note><pitch><step>D</step><alter>-1</alter><octave>3</octave></pitch><duration>64</duration><voice>3</voice><type>quarter</type><staff>2</staff></note><note><pitch><step>A</step><alter>-1</alter><octave>2</octave></pitch><duration>64</duration><voice>3</voice><type>quarter</type><staff>2</staff></note></measure><measure number="12"><note><pitch><step>E</step><alter>-1</alter><octave>4</octave></pitch><duration>128</duration><voice>1</voice><type>half</type><staff>1</staff></note><note><pitch><step>A</step><alter>-1</alter><octave>3</octave></pitch><duration>64</duration><voice>1</voice><type>quarter</type><staff>1</staff></note><backup><duration>192</duration></backup><attributes/><note><pitch><step>C</step><octave>2</octave></pitch><duration>32</duration><voice>3</voice><type>eighth</type><staff>2</staff><beam number="1">begin</beam></note><note><pitch><step>G</step><octave>2</octave></pitch><duration>32</duration><voice>3</voice><type>eighth</type><staff>2</staff><beam number="1">end</beam></note><note><pitch><step>C</step><octave>3</octave></pitch><duration>128</duration><voice>3</voice><type>half</type><staff>2</staff></note></measure><measure number="13"><note><pitch><step>B</step><alter>-1</alter><octave>3</octave></pitch><duration>128</duration><voice>1</voice><type>half</type><staff>1</staff></note><note><rest/><duration>64</duration><voice>1</voice><type>quarter</type><staff>1</staff></note><backup><duration>192</duration></backup><attributes/><note><pitch><step>B</step><alter>-1</alter><octave>2</octave></pitch><duration>32</duration><voice>3</voice><type>eighth</type><staff>2</staff><beam number="1">begin</beam></note><note><pitch><step>F</step><octave>2</octave></pitch><duration>32</duration><voice>3</voice><type>eighth</type><staff>2</staff><beam number="1">end</beam></note><note><pitch><step>B</step><alter>-1</alter><octave>2</octave></pitch><duration>32</duration><voice>3</voice><type>eighth</type><staff>2</staff><beam number="1">begin</beam></note><note><pitch><step>C</step><octave>3</octave></pitch><duration>32</duration><voice>3</voice><type>eighth</type><staff>2</staff><beam number="1">end</beam></note><note><pitch><step>D</step><alter>-1</alter><octave>3</octave></pitch><duration>32</duration><voice>3</voice><type>eighth</type><staff>2</staff><beam number="1">begin</beam></note><note><pitch><step>E</step><alter>-1</alter><octave>3</octave></pitch><duration>32</duration><voice>3</voice><type>eighth</type><staff>2</staff><beam number="1">end</beam></note></measure><measure number="14"><note><rest/><duration>64</duration><voice>1</voice><type>quarter</type><staff>1</staff></note><note><rest/><duration>64</duration><voice>1</voice><type>quarter</type><staff>1</staff></note><note><rest/><duration>32</duration><voice>1</voice><type>eighth</type><staff>1</staff></note><note><pitch><step>C</step><octave>4</octave></pitch><duration>32</duration><voice>1</voice><type>eighth</type><staff>1</staff><beam number="1">begin</beam></note><backup><duration>192</duration></backup><attributes/><note><pitch><step>E</step><alter>-1</alter><octave>2</octave></pitch><duration>32</duration><voice>3</voice><type>eighth</type><staff>2</staff><beam number="1">begin</beam></note><note><pitch><step>B</step><alter>-1</alter><octave>2</octave></pitch><duration>32</duration><voice>3</voice><type>eighth</type><staff>2</staff><beam number="1">end</beam></note><note><pitch><step>E</step><alter>-1</alter><octave>3</octave></pitch><duration>32</duration><voice>3</voice><type>eighth</type><staff>2</staff><beam number="1">begin</beam></note><note><pitch><step>G</step><octave>3</octave></pitch><duration>32</duration><voice>3</voice><type>eighth</type><staff>2</staff><beam number="1">end</beam></note><note><pitch><step>B</step><alter>-1</alter><octave>3</octave></pitch><duration>64</duration><voice>3</voice><type>quarter</type><staff>2</staff></note></measure><measure number="15"><note><pitch><step>A</step><alter>-1</alter><octave>3</octave></pitch><duration>128</duration><voice>1</voice><type>half</type><staff>1</staff></note><note><rest/><duration>64</duration><voice>1</voice><type>quarter</type><staff>1</staff></note><backup><duration>192</duration></backup><attributes/><note><pitch><step>F</step><octave>2</octave></pitch><duration>32</duration><voice>3</voice><type>eighth</type><staff>2</staff><beam number="1">begin</beam></note><note><pitch><step>C</step><octave>3</octave></pitch><duration>32</duration><voice>3</voice><type>eighth</type><staff>2</staff><beam number="1">end</beam></note><note><pitch><step>F</step><octave>3</octave></pitch><duration>128</duration><voice>3</voice><type>half</type><staff>2</staff></note></measure><measure number="16"><note><grace/><pitch><step>B</step><alter>-1</alter><octave>3</octave></pitch><voice>1</voice><type>16th</type><staff>1</staff><beam number="1">begin</beam></note><note><grace/><pitch><step>C</step><octave>4</octave></pitch><voice>1</voice><type>16th</type><staff>1</staff></note><note><pitch><step>E</step><alter>-1</alter><octave>4</octave></pitch><duration>64</duration><voice>1</voice><type>quarter</type><staff>1</staff></note><note><pitch><step>C</step><octave>4</octave></pitch><duration>96</duration><voice>1</voice><type>quarter</type><dot/><staff>1</staff></note><note><pitch><step>B</step><alter>-1</alter><octave>3</octave></pitch><duration>32</duration><voice>1</voice><type>eighth</type><staff>1</staff></note><backup><duration>192</duration></backup><attributes/><note><pitch><step>A</step><alter>-1</alter><octave>2</octave></pitch><duration>32</duration><voice>3</voice><type>eighth</type><staff>2</staff><beam number="1">begin</beam></note><note><pitch><step>C</step><octave>3</octave></pitch><duration>32</duration><voice>3</voice><type>eighth</type><staff>2</staff><beam number="1">continue</beam></note><note><pitch><step>A</step><alter>-1</alter><octave>3</octave></pitch><duration>32</duration><voice>3</voice><type>eighth</type><staff>2</staff><beam number="1">end</beam></note><note><pitch><step>E</step><alter>-1</alter><octave>3</octave></pitch><duration>32</duration><voice>3</voice><type>eighth</type><staff>2</staff><beam number="1">begin</beam></note><note><pitch><step>C</step><octave>3</octave></pitch><duration>32</duration><voice>3</voice><type>eighth</type><staff>2</staff><beam number="1">continue</beam></note><note><pitch><step>A</step><alter>-1</alter><octave>2</octave></pitch><duration>32</duration><voice>3</voice><type>eighth</type><staff>2</staff><beam number="1">end</beam></note></measure><measure number="17"><note><pitch><step>A</step><alter>-1</alter><octave>3</octave></pitch><duration>128</duration><voice>1</voice><type>half</type><staff>1</staff></note><note><pitch><step>A</step><alter>-1</alter><octave>3</octave></pitch><duration>64</duration><voice>1</voice><type>quarter</type><staff>1</staff></note><backup><duration>192</duration></backup><attributes/><note><pitch><step>D</step><alter>-1</alter><octave>3</octave></pitch><duration>32</duration><voice>3</voice><type>eighth</type><staff>2</staff><beam number="1">begin</beam></note><note><pitch><step>A</step><alter>-1</alter><octave>2</octave></pitch><duration>32</duration><voice>3</voice><type>eighth</type><staff>2</staff><beam number="1">end</beam></note><note><pitch><step>D</step><alter>-1</alter><octave>3</octave></pitch><duration>32</duration><voice>3</voice><type>eighth</type><staff>2</staff><beam number="1">begin</beam></note><note><pitch><step>F</step><octave>3</octave></pitch><duration>32</duration><voice>3</voice><type>eighth</type><staff>2</staff><beam number="1">end</beam></note><note><pitch><step>C</step><octave>3</octave></pitch><duration>64</duration><voice>3</voice><type>quarter</type><staff>2</staff></note></measure><measure number="18"><note><grace/><pitch><step>B</step><alter>-1</alter><octave>3</octave></pitch><voice>1</voice><type>16th</type><staff>1</staff><beam number="1">begin</beam></note><note><grace/><pitch><step>C</step><octave>4</octave></pitch><voice>1</voice><type>16th</type><staff>1</staff></note><note><pitch><step>E</step><alter>-1</alter><octave>4</octave></pitch><duration>64</duration><voice>1</voice><type>quarter</type><staff>1</staff></note><note><pitch><step>C</step><octave>4</octave></pitch><duration>96</duration><voice>1</voice><type>quarter</type><dot/><staff>1</staff></note><note><pitch><step>B</step><alter>-1</alter><octave>3</octave></pitch><duration>32</duration><voice>1</voice><type>eighth</type><staff>1</staff></note><backup><duration>192</duration></backup><attributes/><note><pitch><step>A</step><alter>-1</alter><octave>2</octave></pitch><duration>32</duration><voice>3</voice><type>eighth</type><staff>2</staff><beam number="1">begin</beam></note><note><pitch><step>C</step><octave>3</octave></pitch><duration>32</duration><voice>3</voice><type>eighth</type><staff>2</staff><beam number="1">continue</beam></note><note><pitch><step>A</step><alter>-1</alter><octave>3</octave></pitch><duration>32</duration><voice>3</voice><type>eighth</type><staff>2</staff><beam number="1">end</beam></note><note><pitch><step>E</step><alter>-1</alter><octave>3</octave></pitch><duration>32</duration><voice>3</voice><type>eighth</type><staff>2</staff><beam number="1">begin</beam></note><note><pitch><step>C</step><octave>3</octave></pitch><duration>32</duration><voice>3</voice><type>eighth</type><staff>2</staff><beam number="1">continue</beam></note><note><pitch><step>A</step><alter>-1</alter><octave>2</octave></pitch><duration>32</duration><voice>3</voice><type>eighth</type><staff>2</staff><beam number="1">end</beam></note></measure><measure number="19"><note><pitch><step>A</step><alter>-1</alter><octave>3</octave></pitch><duration>64</duration><voice>1</voice><type>quarter</type><staff>1</staff></note><note><pitch><step>B</step><alter>-1</alter><octave>3</octave></pitch><duration>64</duration><voice>1</voice><type>quarter</type><staff>1</staff></note><note><chord/><pitch><step>C</step><octave>4</octave></pitch><duration>64</duration><voice>1</voice><type>quarter</type><staff>1</staff></note><note><pitch><step>E</step><alter>-1</alter><octave>4</octave></pitch><duration>64</duration><voice>1</voice><type>quarter</type><staff>1</staff></note><backup><duration>192</duration></backup><attributes/><note><pitch><step>A</step><alter>-1</alter><octave>2</octave></pitch><duration>64</duration><voice>3</voice><type>quarter</type><staff>2</staff></note><note><pitch><step>E</step><alter>-1</alter><octave>3</octave></pitch><duration>64</duration><voice>3</voice><type>quarter</type><staff>2</staff></note><note><pitch><step>A</step><alter>-1</alter><octave>3</octave></pitch><duration>64</duration><voice>3</voice><type>quarter</type><staff>2</staff></note></measure><measure number="20"><note><pitch><step>A</step><alter>-1</alter><octave>4</octave></pitch><duration>64</duration><voice>1</voice><type>quarter</type><staff>1</staff></note><note><pitch><step>G</step><octave>4</octave></pitch><duration>96</duration><voice>1</voice><type>quarter</type><dot/><staff>1</staff></note><note><pitch><step>F</step><octave>4</octave></pitch><duration>32</duration><voice>1</voice><type>eighth</type><staff>1</staff></note><backup><duration>192</duration></backup><attributes/><note><pitch><step>D</step><alter>-1</alter><octave>3</octave></pitch><duration>32</duration><voice>3</voice><type>eighth</type><staff>2</staff><beam number="1">begin</beam></note><note><pitch><step>F</step><octave>3</octave></pitch><duration>32</duration><voice>3</voice><type>eighth</type><staff>2</staff><beam number="1">end</beam></note><note><pitch><step>D</step><alter>-1</alter><octave>4</octave></pitch><duration>32</duration><voice>3</voice><type>eighth</type><staff>2</staff><beam number="1">begin</beam></note><note><pitch><step>A</step><alter>-1</alter><octave>3</octave></pitch><duration>32</duration><voice>3</voice><type>eighth</type><staff>2</staff><beam number="1">end</beam></note><note><pitch><step>F</step><octave>3</octave></pitch><duration>64</duration><voice>3</voice><type>quarter</type><staff>2</staff></note></measure><measure number="21"><note><grace/><pitch><step>G</step><octave>4</octave></pitch><voice>1</voice><type>eighth</type><staff>1</staff></note><note><pitch><step>A</step><alter>-1</alter><octave>4</octave></pitch><duration>64</duration><voice>1</voice><type>quarter</type><staff>1</staff></note><note><pitch><step>F</step><octave>4</octave></pitch><duration>64</duration><voice>1</voice><type>quarter</type><staff>1</staff></note><note><grace/><pitch><step>B</step><alter>-1</alter><octave>3</octave></pitch><voice>1</voice><type>16th</type><staff>1</staff><beam number="1">begin</beam></note><note><grace/><pitch><step>E</step><alter>-1</alter><octave>4</octave></pitch><voice>1</voice><type>16th</type><staff>1</staff></note><note><pitch><step>F</step><octave>4</octave></pitch><duration>64</duration><voice>1</voice><type>quarter</type><staff>1</staff></note><backup><duration>192</duration></backup><attributes/><note><pitch><step>B</step><alter>-1</alter><octave>2</octave></pitch><duration>32</duration><voice>3</voice><type>eighth</type><staff>2</staff><beam number="1">begin</beam></note><note><pitch><step>F</step><octave>3</octave></pitch><duration>32</duration><tie type="start"/><voice>3</voice><type>eighth</type><staff>2</staff><beam number="1">end</beam><notations><tied type="start"/></notations></note><note><pitch><step>F</step><octave>3</octave></pitch><duration>128</duration><tie type="stop"/><voice>3</voice><type>half</type><staff>2</staff><notations><tied type="stop"/></notations></note></measure><measure number="22"><note><pitch><step>E</step><alter>-1</alter><octave>4</octave></pitch><duration>192</duration><voice>1</voice><type>half</type><dot/><staff>1</staff></note><backup><duration>192</duration></backup><attributes/><direction placement="above"><direction-type><words relative-x="16.666666666666664" relative-y="-93.11662038167319">5</words></direction-type></direction><note><pitch><step>E</step><alter>-1</alter><octave>2</octave></pitch><duration>32</duration><voice>3</voice><type>eighth</type><staff>2</staff><beam number="1">begin</beam></note><direction placement="above"><direction-type><words relative-y="-93.11662038167319">3</words></direction-type></direction><note><pitch><step>B</step><alter>-1</alter><octave>2</octave></pitch><duration>32</duration><voice>3</voice><type>eighth</type><staff>2</staff><beam number="1">end</beam></note><direction placement="above"><direction-type><words relative-x="16.66668363715278" relative-y="-58.741582234700516">2</words></direction-type></direction><note><pitch><step>E</step><alter>-1</alter><octave>3</octave></pitch><duration>32</duration><voice>3</voice><type>eighth</type><staff>2</staff><beam number="1">begin</beam></note><direction placement="above"><direction-type><words relative-x="6.250025455729187" relative-y="-55.61655680338542">1</words></direction-type></direction><note><pitch><step>G</step><octave>3</octave></pitch><duration>32</duration><voice>3</voice><type>eighth</type><staff>2</staff><beam number="1">end</beam></note><direction placement="above"><direction-type><words relative-x="7.29170060763888" relative-y="-46.24153137207031">2</words></direction-type></direction><note><pitch><step>B</step><alter>-1</alter><octave>3</octave></pitch><duration>32</duration><voice>3</voice><type>eighth</type><staff>2</staff><beam number="1">begin</beam></note><direction placement="above"><direction-type><words relative-x="12.499915269639743" relative-y="-36.866493225097656">1</words></direction-type></direction><note><pitch><step>D</step><alter>-1</alter><octave>4</octave></pitch><duration>32</duration><tie type="start"/><voice>3</voice><type>eighth</type><staff>2</staff><beam number="1">end</beam><notations><tied type="start"/></notations></note></measure><measure number="23"><note><pitch><step>E</step><alter>-1</alter><octave>4</octave></pitch><duration>64</duration><voice>1</voice><type>quarter</type><staff>1</staff></note><note><pitch><step>D</step><alter>-1</alter><octave>4</octave></pitch><duration>64</duration><voice>1</voice><type>quarter</type><staff>1</staff></note><note><pitch><step>B</step><alter>-1</alter><octave>3</octave></pitch><duration>64</duration><voice>1</voice><type>quarter</type><staff>1</staff></note><backup><duration>192</duration></backup><attributes/><note><pitch><step>D</step><alter>-1</alter><octave>4</octave></pitch><duration>64</duration><tie type="stop"/><voice>3</voice><type>quarter</type><staff>2</staff><notations><tied type="stop"/></notations></note><note><rest/><duration>64</duration><voice>3</voice><type>quarter</type><staff>2</staff></note><note><rest/><duration>64</duration><voice>3</voice><type>quarter</type><staff>2</staff></note></measure><measure number="24"><note><grace/><pitch><step>A</step><alter>-1</alter><octave>3</octave></pitch><voice>1</voice><type>16th</type><staff>1</staff><beam number="1">begin</beam></note><note><grace/><pitch><step>C</step><octave>4</octave></pitch><voice>1</voice><type>16th</type><staff>1</staff></note><note><pitch><step>E</step><alter>-1</alter><octave>4</octave></pitch><duration>96</duration><voice>1</voice><type>quarter</type><dot/><staff>1</staff></note><note><pitch><step>C</step><octave>4</octave></pitch><duration>32</duration><voice>1</voice><type>eighth</type><staff>1</staff></note><note><pitch><step>E</step><alter>-1</alter><octave>4</octave></pitch><duration>32</duration><voice>1</voice><type>eighth</type><staff>1</staff><beam number="1">begin</beam></note><note><pitch><step>C</step><octave>4</octave></pitch><duration>32</duration><voice>1</voice><type>eighth</type><staff>1</staff><beam number="1">end</beam></note><backup><duration>192</duration></backup><attributes/><direction placement="above"><direction-type><words relative-x="8.333320007324225" relative-y="-86.86649322509766">5</words></direction-type></direction><note><pitch><step>A</step><alter>-1</alter><octave>2</octave></pitch><duration>32</duration><voice>3</voice><type>eighth</type><staff>2</staff><beam number="1">begin</beam></note><direction placement="above"><direction-type><words relative-x="5.2082701512016705" relative-y="-76.44982655843097">3</words></direction-type></direction><note><pitch><step>D</step><alter>-1</alter><octave>3</octave></pitch><duration>32</duration><voice>3</voice><type>eighth</type><staff>2</staff><beam number="1">end</beam></note><direction placement="above"><direction-type><words relative-x="5.20828387336687" relative-y="-49.366493225097656">2</words></direction-type></direction><note><pitch><step>A</step><alter>-1</alter><octave>3</octave></pitch><duration>32</duration><voice>3</voice><type>eighth</type><staff>2</staff><beam number="1">begin</beam></note><direction placement="above"><direction-type><words relative-x="6.249964262198731" relative-y="-42.074826558431">1</words></direction-type></direction><note><pitch><step>C</step><octave>4</octave></pitch><duration>32</duration><tie type="start"/><voice>3</voice><type>eighth</type><staff>2</staff><beam number="1">end</beam><notations><tied type="start"/></notations></note><note><pitch><step>C</step><octave>4</octave></pitch><duration>64</duration><tie type="stop"/><voice>3</voice><type>quarter</type><staff>2</staff><notations><tied type="stop"/></notations></note></measure><measure number="25"><note><pitch><step>B</step><alter>-1</alter><octave>4</octave></pitch><duration>64</duration><voice>1</voice><type>quarter</type><staff>1</staff></note><note><pitch><step>A</step><alter>-1</alter><octave>4</octave></pitch><duration>128</duration><voice>1</voice><type>half</type><staff>1</staff></note><backup><duration>192</duration></backup><attributes/><direction placement="above"><direction-type><words relative-x="14.58338419596354" relative-y="-92.074826558431">5</words></direction-type></direction><note><pitch><step>F</step><octave>2</octave></pitch><duration>32</duration><voice>3</voice><type>eighth</type><staff>2</staff><beam number="1">begin</beam></note><direction placement="above"><direction-type><words relative-x="10.416724298628628" relative-y="-78.53315989176434">2</words></direction-type></direction><note><pitch><step>C</step><octave>3</octave></pitch><duration>32</duration><voice>3</voice><type>eighth</type><staff>2</staff><beam number="1">end</beam></note><direction placement="above"><direction-type><words relative-x="7.291731067960381" relative-y="-55.616493225097656">1</words></direction-type></direction><note><pitch><step>F</step><octave>3</octave></pitch><duration>32</duration><voice>3</voice><type>eighth</type><staff>2</staff><beam number="1">begin</beam></note><direction placement="above"><direction-type><words relative-x="10.416737837292143" relative-y="-56.65815989176433">2</words></direction-type></direction><note><pitch><step>G</step><octave>3</octave></pitch><duration>32</duration><voice>3</voice><type>eighth</type><staff>2</staff><beam number="1">end</beam></note><direction placement="above"><direction-type><words relative-x="7.291744606623887" relative-y="-52.491493225097656">1</words></direction-type></direction><note><pitch><step>A</step><alter>-1</alter><octave>3</octave></pitch><duration>64</duration><voice>3</voice><type>quarter</type><staff>2</staff></note></measure><measure number="26"><note><pitch><step>G</step><octave>4</octave></pitch><duration>64</duration><tie type="start"/><voice>1</voice><type>quarter</type><staff>1</staff><notations><tied type="start"/></notations></note><note><pitch><step>G</step><octave>4</octave></pitch><duration>32</duration><tie type="stop"/><voice>1</voice><type>eighth</type><staff>1</staff><beam number="1">begin</beam><notations><tied type="stop"/></notations></note><note><pitch><step>F</step><octave>4</octave></pitch><duration>32</duration><tie type="start"/><voice>1</voice><type>eighth</type><staff>1</staff><beam number="1">end</beam><notations><tied type="start"/></notations></note><note><pitch><step>F</step><octave>4</octave></pitch><duration>32</duration><tie type="stop"/><voice>1</voice><type>eighth</type><staff>1</staff><beam number="1">begin</beam><notations><tied type="stop"/></notations></note><note><pitch><step>E</step><alter>-1</alter><octave>4</octave></pitch><duration>16</duration><voice>1</voice><type>16th</type><staff>1</staff><beam number="1">continue</beam></note><note><pitch><step>D</step><alter>-1</alter><octave>4</octave></pitch><duration>16</duration><voice>1</voice><type>16th</type><staff>1</staff><beam number="1">end</beam></note><backup><duration>192</duration></backup><attributes/><note><pitch><step>D</step><alter>-1</alter><octave>2</octave></pitch><duration>32</duration><voice>3</voice><type>eighth</type><staff>2</staff><beam number="1">begin</beam></note><note><pitch><step>A</step><alter>-1</alter><octave>2</octave></pitch><duration>32</duration><voice>3</voice><type>eighth</type><staff>2</staff><beam number="1">end</beam></note><note><pitch><step>D</step><alter>-1</alter><octave>3</octave></pitch><duration>64</duration><voice>3</voice><type>quarter</type><staff>2</staff></note><note><pitch><step>A</step><alter>-1</alter><octave>2</octave></pitch><duration>64</duration><voice>3</voice><type>quarter</type><staff>2</staff></note></measure><measure number="27"><note><pitch><step>E</step><alter>-1</alter><octave>4</octave></pitch><duration>64</duration><voice>1</voice><type>quarter</type><staff>1</staff></note><note><rest/><duration>64</duration><voice>1</voice><type>quarter</type><staff>1</staff></note><note><pitch><step>A</step><alter>-1</alter><octave>3</octave></pitch><duration>64</duration><voice>1</voice><type>quarter</type><staff>1</staff></note><backup><duration>192</duration></backup><attributes/><note><pitch><step>C</step><octave>2</octave></pitch><duration>32</duration><voice>3</voice><type>eighth</type><staff>2</staff><beam number="1">begin</beam></note><note><pitch><step>G</step><octave>2</octave></pitch><duration>32</duration><voice>3</voice><type>eighth</type><staff>2</staff><beam number="1">end</beam></note><note><pitch><step>C</step><octave>3</octave></pitch><duration>128</duration><voice>3</voice><type>half</type><staff>2</staff></note></measure><measure number="28"><note><pitch><step>G</step><octave>4</octave></pitch><duration>96</duration><voice>1</voice><type>quarter</type><dot/><staff>1</staff></note><note><pitch><step>F</step><octave>4</octave></pitch><duration>32</duration><tie type="start"/><voice>1</voice><type>eighth</type><staff>1</staff><notations><tied type="start"/></notations></note><note><pitch><step>F</step><octave>4</octave></pitch><duration>32</duration><tie type="stop"/><voice>1</voice><type>eighth</type><staff>1</staff><beam number="1">begin</beam><notations><tied type="stop"/></notations></note><note><pitch><step>E</step><alter>-1</alter><octave>4</octave></pitch><duration>16</duration><voice>1</voice><type>16th</type><staff>1</staff><beam number="1">continue</beam></note><note><pitch><step>D</step><alter>-1</alter><octave>4</octave></pitch><duration>16</duration><voice>1</voice><type>16th</type><staff>1</staff><beam number="1">end</beam></note><backup><duration>192</duration></backup><attributes/><note><pitch><step>D</step><alter>-1</alter><octave>2</octave></pitch><duration>32</duration><voice>3</voice><type>eighth</type><staff>2</staff><beam number="1">begin</beam></note><note><pitch><step>A</step><alter>-1</alter><octave>2</octave></pitch><duration>32</duration><voice>3</voice><type>eighth</type><staff>2</staff><beam number="1">end</beam></note><note><pitch><step>D</step><alter>-1</alter><octave>3</octave></pitch><duration>64</duration><voice>3</voice><type>quarter</type><staff>2</staff></note><note><pitch><step>A</step><alter>-1</alter><octave>2</octave></pitch><duration>64</duration><voice>3</voice><type>quarter</type><staff>2</staff></note></measure><measure number="29"><note><pitch><step>E</step><alter>-1</alter><octave>4</octave></pitch><duration>128</duration><voice>1</voice><type>half</type><staff>1</staff></note><note><pitch><step>A</step><alter>-1</alter><octave>3</octave></pitch><duration>64</duration><voice>1</voice><type>quarter</type><staff>1</staff></note><backup><duration>192</duration></backup><attributes/><note><pitch><step>C</step><octave>2</octave></pitch><duration>32</duration><voice>3</voice><type>eighth</type><staff>2</staff><beam number="1">begin</beam></note><note><pitch><step>G</step><octave>2</octave></pitch><duration>32</duration><voice>3</voice><type>eighth</type><staff>2</staff><beam number="1">end</beam></note><note><pitch><step>C</step><octave>3</octave></pitch><duration>128</duration><voice>3</voice><type>half</type><staff>2</staff></note></measure><measure number="30"><note><pitch><step>B</step><alter>-1</alter><octave>3</octave></pitch><duration>128</duration><voice>1</voice><type>half</type><staff>1</staff></note><note><rest/><duration>64</duration><voice>1</voice><type>quarter</type><staff>1</staff></note><backup><duration>192</duration></backup><attributes/><note><pitch><step>B</step><alter>-1</alter><octave>2</octave></pitch><duration>32</duration><voice>3</voice><type>eighth</type><staff>2</staff><beam number="1">begin</beam></note><note><pitch><step>F</step><octave>2</octave></pitch><duration>32</duration><voice>3</voice><type>eighth</type><staff>2</staff><beam number="1">end</beam></note><note><pitch><step>B</step><alter>-1</alter><octave>2</octave></pitch><duration>32</duration><voice>3</voice><type>eighth</type><staff>2</staff><beam number="1">begin</beam></note><note><pitch><step>C</step><octave>3</octave></pitch><duration>32</duration><voice>3</voice><type>eighth</type><staff>2</staff><beam number="1">end</beam></note><note><pitch><step>D</step><alter>-1</alter><octave>3</octave></pitch><duration>32</duration><voice>3</voice><type>eighth</type><staff>2</staff><beam number="1">begin</beam></note><note><pitch><step>E</step><alter>-1</alter><octave>3</octave></pitch><duration>32</duration><voice>3</voice><type>eighth</type><staff>2</staff><beam number="1">end</beam></note></measure><measure number="31"><note><rest/><duration>64</duration><voice>1</voice><type>quarter</type><staff>1</staff></note><note><rest/><duration>64</duration><voice>1</voice><type>quarter</type><staff>1</staff></note><note><rest/><duration>32</duration><voice>1</voice><type>eighth</type><staff>1</staff></note><note><pitch><step>C</step><octave>4</octave></pitch><duration>32</duration><voice>1</voice><type>eighth</type><staff>1</staff></note><backup><duration>192</duration></backup><attributes/><note><pitch><step>E</step><alter>-1</alter><octave>2</octave></pitch><duration>32</duration><voice>3</voice><type>eighth</type><staff>2</staff><beam number="1">begin</beam></note><note><pitch><step>B</step><alter>-1</alter><octave>2</octave></pitch><duration>32</duration><voice>3</voice><type>eighth</type><staff>2</staff><beam number="1">end</beam></note><note><pitch><step>E</step><alter>-1</alter><octave>3</octave></pitch><duration>32</duration><voice>3</voice><type>eighth</type><staff>2</staff><beam number="1">begin</beam></note><note><pitch><step>G</step><octave>3</octave></pitch><duration>32</duration><voice>3</voice><type>eighth</type><staff>2</staff><beam number="1">end</beam></note><note><pitch><step>B</step><alter>-1</alter><octave>3</octave></pitch><duration>64</duration><voice>3</voice><type>quarter</type><staff>2</staff></note></measure><measure number="32"><note><pitch><step>A</step><alter>-1</alter><octave>3</octave></pitch><duration>128</duration><voice>1</voice><type>half</type><staff>1</staff></note><note><rest/><duration>64</duration><voice>1</voice><type>quarter</type><staff>1</staff></note><backup><duration>192</duration></backup><attributes/><note><pitch><step>F</step><octave>2</octave></pitch><duration>32</duration><voice>3</voice><type>eighth</type><staff>2</staff><beam number="1">begin</beam></note><note><pitch><step>C</step><octave>3</octave></pitch><duration>32</duration><voice>3</voice><type>eighth</type><staff>2</staff><beam number="1">end</beam></note><note><pitch><step>F</step><octave>3</octave></pitch><duration>64</duration><voice>3</voice><type>quarter</type><staff>2</staff></note><note><pitch><step>C</step><octave>3</octave></pitch><duration>64</duration><voice>3</voice><type>quarter</type><staff>2</staff></note></measure><measure number="33"><note><rest/><duration>192</duration><voice>1</voice><type>whole</type><staff>1</staff></note><backup><duration>192</duration></backup><attributes/><note><rest/><duration>192</duration><voice>3</voice><type>whole</type><staff>2</staff></note><barline location="right"><bar-style>light-heavy</bar-style></barline></measure></part></score-partwise>