<?xml version="1.0" encoding="UTF-8"?>
<!DOCTYPE score-partwise PUBLIC "-//Recordare//DTD MusicXML 2.0 Partwise//EN"
  "http://www.musicxml.org/dtds/partwise.dtd">
<score-partwise version="2.0"><work><work-title>No 48. AIR FOR BASS</work-title></work><identification><creator type="composer">George Frideric Handel</creator><creator type="lyricist"/><rights/><encoding><software>Noteflight version 0.4</software><encoding-date>2024-03-17</encoding-date><supports attribute="new-system" element="print" type="no" value="no"/><supports attribute="new-page" element="print" type="no" value="no"/></encoding></identification><defaults><scaling><millimeters>2.1166666679999997</millimeters><tenths>10</tenths></scaling><page-layout><page-height>1320</page-height><page-width>1020</page-width><page-margins type="both"><left-margin>59.583333333333336</left-margin><right-margin>56.66666666666667</right-margin><top-margin>96.66666666666667</top-margin><bottom-margin>80</bottom-margin></page-margins></page-layout><system-layout><system-margins><left-margin>59.583333333333336</left-margin><right-margin>26.666666666666668</right-margin></system-margins><system-distance>92.5</system-distance><top-system-distance>145.83333333333334</top-system-distance></system-layout><staff-layout><staff-distance>55</staff-distance></staff-layout></defaults><credit page="1"><credit-type>title</credit-type><credit-words font-size="24" default-x="510" default-y="1210" justify="right" valign="top">No 48. AIR FOR BASS</credit-words></credit><credit page="1"><credit-type>subtitle</credit-type><credit-words font-size="12" default-x="918" default-y="1210" justify="right" valign="top">"THE TRUMPET SHALL SOUND"</credit-words></credit><credit page="1"><credit-type>composer</credit-type><credit-words font-size="12" default-x="918" default-y="1210" justify="right" valign="top">George Frideric Handel</credit-words></credit><part-list><score-part id="P1"><part-name>Bassoon</part-name><part-abbreviation>Bn</part-abbreviation><score-instrument id="P1I1"><instrument-name>Bassoon</instrument-name><instrument-sound>wind.reed.bassoon</instrument-sound></score-instrument><midi-instrument id="P1I1"><midi-channel>1</midi-channel><midi-program>71</midi-program></midi-instrument></score-part><score-part id="P2"><part-name>Piano</part-name><part-abbreviation>Pno</part-abbreviation><score-instrument id="P2I1"><instrument-name>Piano</instrument-name><instrument-sound>keyboard.piano</instrument-sound></score-instrument><midi-instrument id="P2I1"><midi-channel>2</midi-channel><midi-program>1</midi-program></midi-instrument></score-part></part-list><part id="P1"><measure number="1"><attributes><divisions>64</divisions><key><fifths>2</fifths><mode>major</mode></key><time print-object="yes"><beats>3</beats><beat-type>4</beat-type></time><clef number="1"><sign>F</sign><line>4</line></clef></attributes><direction placement="above"><direction-type><metronome><beat-unit>quarter</beat-unit><per-minute>80</per-minute></metronome></direction-type><sound tempo="80"/></direction><direction placement="above"><direction-type><metronome><beat-unit>quarter</beat-unit><per-minute>80</per-minute></metronome></direction-type><sound tempo="80"/></direction><note><rest/><duration>64</duration><voice>1</voice><type>whole</type></note></measure><measure number="2"><attributes><time print-object="yes"><beats>3</beats><beat-type>4</beat-type></time></attributes><note><rest/><duration>192</duration><voice>1</voice><type>whole</type></note></measure><measure number="3"><attributes/><note><rest/><duration>192</duration><voice>1</voice><type>whole</type></note></measure><measure number="4"><attributes/><note><rest/><duration>192</duration><voice>1</voice><type>whole</type></note></measure><measure number="5"><attributes/><note><rest/><duration>192</duration><voice>1</voice><type>whole</type></note></measure><measure number="6"><print new-system="yes"/><attributes/><note><rest/><duration>192</duration><voice>1</voice><type>whole</type></note></measure><measure number="7"><attributes/><note><rest/><duration>192</duration><voice>1</voice><type>whole</type></note></measure><measure number="8"><attributes/><note><rest/><duration>192</duration><voice>1</voice><type>whole</type></note></measure><measure number="9"><attributes/><note><rest/><duration>192</duration><voice>1</voice><type>whole</type></note></measure><measure number="10"><attributes/><note><rest/><duration>192</duration><voice>1</voice><type>whole</type></note></measure><measure number="11"><attributes/><note><rest/><duration>192</duration><voice>1</voice><type>whole</type></note></measure><measure number="12"><print new-system="yes"/><attributes/><note><rest/><duration>192</duration><voice>1</voice><type>whole</type></note></measure><measure number="13"><attributes/><note><rest/><duration>192</duration><voice>1</voice><type>whole</type></note></measure><measure number="14"><attributes/><note><rest/><duration>192</duration><voice>1</voice><type>whole</type></note></measure><measure number="15"><attributes/><note><rest/><duration>192</duration><voice>1</voice><type>whole</type></note></measure><measure number="16"><attributes/><note><rest/><duration>192</duration><voice>1</voice><type>whole</type></note></measure><measure number="17"><print new-system="yes"/><attributes/><note><rest/><duration>192</duration><voice>1</voice><type>whole</type></note></measure><measure number="18"><attributes/><note><rest/><duration>192</duration><voice>1</voice><type>whole</type></note></measure><measure number="19"><attributes/><note><rest/><duration>192</duration><voice>1</voice><type>whole</type></note></measure><measure number="20"><attributes/><note><rest/><duration>192</duration><voice>1</voice><type>whole</type></note></measure><measure number="21"><attributes/><note><rest/><duration>192</duration><voice>1</voice><type>whole</type></note></measure><measure number="22"><print new-system="yes"/><attributes/><note><rest/><duration>192</duration><voice>1</voice><type>whole</type></note></measure><measure number="23"><attributes/><note><rest/><duration>192</duration><voice>1</voice><type>whole</type></note></measure><measure number="24"><attributes/><note><rest/><duration>192</duration><voice>1</voice><type>whole</type></note></measure><measure number="25"><attributes/><note><rest/><duration>192</duration><voice>1</voice><type>whole</type></note></measure><measure number="26"><attributes/><note><rest/><duration>192</duration><voice>1</voice><type>whole</type></note></measure><measure number="27"><attributes/><note><rest/><duration>192</duration><voice>1</voice><type>whole</type></note></measure><measure number="28"><print new-system="yes"/><attributes/><note><rest/><duration>192</duration><voice>1</voice><type>whole</type></note></measure><measure number="29"><attributes/><note><rest/><duration>64</duration><voice>1</voice><type>quarter</type></note><note><rest/><duration>64</duration><voice>1</voice><type>quarter</type></note><note><pitch><step>D</step><octave>3</octave></pitch><duration>64</duration><voice>1</voice><type>quarter</type></note></measure><measure number="30"><attributes/><note><pitch><step>F</step><alter>1</alter><octave>3</octave></pitch><duration>64</duration><voice>1</voice><type>quarter</type></note><note><pitch><step>F</step><alter>1</alter><octave>3</octave></pitch><duration>64</duration><voice>1</voice><type>quarter</type></note><note><pitch><step>A</step><octave>3</octave></pitch><duration>64</duration><voice>1</voice><type>quarter</type></note></measure><measure number="31"><attributes/><note><pitch><step>D</step><octave>4</octave></pitch><duration>192</duration><voice>1</voice><type>half</type><dot/><notations><slur default-x="0.65" default-y="6.5" number="1" placement="above" type="start"/></notations></note></measure><measure number="32"><attributes/><note><pitch><step>D</step><octave>4</octave></pitch><duration>192</duration><voice>1</voice><type>half</type><dot/><notations><slur default-x="0.65" default-y="6.5" number="1" type="stop"/></notations></note></measure><measure number="33"><attributes/><note><rest/><duration>64</duration><voice>1</voice><type>quarter</type></note><note><pitch><step>A</step><octave>3</octave></pitch><duration>64</duration><voice>1</voice><type>quarter</type></note><note><pitch><step>A</step><octave>3</octave></pitch><duration>64</duration><voice>1</voice><type>quarter</type></note></measure><measure number="34"><attributes/><note><pitch><step>D</step><octave>3</octave></pitch><duration>64</duration><voice>1</voice><type>quarter</type></note><note><pitch><step>D</step><octave>3</octave></pitch><duration>32</duration><voice>1</voice><type>eighth</type><beam number="1">begin</beam></note><note><pitch><step>E</step><octave>3</octave></pitch><duration>32</duration><voice>1</voice><type>eighth</type><beam number="1">continue</beam></note><note><pitch><step>F</step><alter>1</alter><octave>3</octave></pitch><duration>32</duration><voice>1</voice><type>eighth</type><beam number="1">continue</beam></note><note><pitch><step>G</step><octave>3</octave></pitch><duration>32</duration><voice>1</voice><type>eighth</type><beam number="1">end</beam></note></measure><measure number="35"><attributes/><note><pitch><step>A</step><octave>3</octave></pitch><duration>128</duration><voice>1</voice><type>half</type></note><note><rest/><duration>64</duration><voice>1</voice><type>quarter</type></note></measure><measure number="36"><attributes/><note><rest/><duration>192</duration><voice>1</voice><type>whole</type></note><barline location="right"><bar-style>light-heavy</bar-style></barline></measure></part><part id="P2"><measure number="1"><direction placement="above"><direction-type><metronome><beat-unit>quarter</beat-unit><per-minute>80</per-minute></metronome></direction-type><sound tempo="80"/></direction><direction placement="below"><direction-type><dynamics placement="below"><f/></dynamics></direction-type></direction><note><pitch><step>A</step><octave>3</octave></pitch><duration>48</duration><voice>1</voice><type>eighth</type><dot/><staff>1</staff><beam number="1">begin</beam></note><note><chord/><pitch><step>D</step><octave>4</octave></pitch><duration>48</duration><voice>1</voice><type>eighth</type><dot/><staff>1</staff><beam number="1">begin</beam></note><note><pitch><step>A</step><octave>3</octave></pitch><duration>16</duration><voice>1</voice><type>16th</type><staff>1</staff><beam number="1">end</beam></note><note><chord/><pitch><step>D</step><octave>4</octave></pitch><duration>16</duration><voice>1</voice><type>16th</type><staff>1</staff><beam number="1">end</beam></note><backup><duration>64</duration></backup><attributes><divisions>64</divisions><key><fifths>2</fifths><mode>major</mode></key><time print-object="yes"><beats>3</beats><beat-type>4</beat-type></time><staves>2</staves><clef number="1"><sign>G</sign><line>2</line></clef><time print-object="yes"><beats>3</beats><beat-type>4</beat-type></time><clef number="2"><sign>F</sign><line>4</line></clef></attributes><note><pitch><step>D</step><octave>3</octave></pitch><duration>48</duration><voice>3</voice><type>eighth</type><dot/><staff>2</staff><beam number="1">begin</beam></note><note><chord/><pitch><step>F</step><alter>1</alter><octave>3</octave></pitch><duration>48</duration><voice>3</voice><type>eighth</type><dot/><staff>2</staff><beam number="1">begin</beam></note><note><pitch><step>D</step><octave>3</octave></pitch><duration>16</duration><voice>3</voice><type>16th</type><staff>2</staff><beam number="1">end</beam></note><note><chord/><pitch><step>F</step><alter>1</alter><octave>3</octave></pitch><duration>16</duration><voice>3</voice><type>16th</type><staff>2</staff><beam number="1">end</beam></note></measure><measure number="2"><note><pitch><step>D</step><octave>4</octave></pitch><duration>64</duration><voice>1</voice><type>quarter</type><staff>1</staff></note><note><chord/><pitch><step>F</step><alter>1</alter><octave>4</octave></pitch><duration>64</duration><voice>1</voice><type>quarter</type><staff>1</staff></note><note><rest/><duration>32</duration><voice>1</voice><type>eighth</type><staff>1</staff></note><note><pitch><step>D</step><octave>4</octave></pitch><duration>32</duration><voice>1</voice><type>eighth</type><staff>1</staff><beam number="1">begin</beam></note><note><chord/><pitch><step>F</step><alter>1</alter><octave>4</octave></pitch><duration>32</duration><voice>1</voice><type>eighth</type><staff>1</staff><beam number="1">begin</beam></note><note><pitch><step>D</step><octave>4</octave></pitch><duration>48</duration><voice>1</voice><type>eighth</type><dot/><staff>1</staff><beam number="1">continue</beam></note><note><chord/><pitch><step>F</step><alter>1</alter><octave>4</octave></pitch><duration>48</duration><voice>1</voice><type>eighth</type><dot/><staff>1</staff><beam number="1">continue</beam></note><note><pitch><step>D</step><octave>4</octave></pitch><duration>16</duration><voice>1</voice><type>16th</type><staff>1</staff><beam number="1">end</beam></note><note><chord/><pitch><step>F</step><alter>1</alter><octave>4</octave></pitch><duration>16</duration><voice>1</voice><type>16th</type><staff>1</staff><beam number="1">end</beam></note><backup><duration>192</duration></backup><attributes><time print-object="yes"><beats>3</beats><beat-type>4</beat-type></time><time print-object="yes"><beats>3</beats><beat-type>4</beat-type></time></attributes><note><pitch><step>D</step><octave>3</octave></pitch><duration>64</duration><voice>3</voice><type>quarter</type><staff>2</staff></note><note><chord/><pitch><step>A</step><octave>3</octave></pitch><duration>64</duration><voice>3</voice><type>quarter</type><staff>2</staff></note><note><rest/><duration>32</duration><voice>3</voice><type>eighth</type><staff>2</staff></note><note><pitch><step>D</step><octave>3</octave></pitch><duration>32</duration><voice>3</voice><type>eighth</type><staff>2</staff><beam number="1">begin</beam></note><note><chord/><pitch><step>A</step><octave>3</octave></pitch><duration>32</duration><voice>3</voice><type>eighth</type><staff>2</staff><beam number="1">begin</beam></note><note><pitch><step>D</step><octave>3</octave></pitch><duration>48</duration><voice>3</voice><type>eighth</type><dot/><staff>2</staff><beam number="1">continue</beam></note><note><chord/><pitch><step>A</step><octave>3</octave></pitch><duration>48</duration><voice>3</voice><type>eighth</type><dot/><staff>2</staff><beam number="1">continue</beam></note><note><pitch><step>D</step><octave>3</octave></pitch><duration>16</duration><voice>3</voice><type>16th</type><staff>2</staff><beam number="1">end</beam></note><note><chord/><pitch><step>A</step><octave>3</octave></pitch><duration>16</duration><voice>3</voice><type>16th</type><staff>2</staff><beam number="1">end</beam></note></measure><measure number="3"><note><pitch><step>E</step><octave>4</octave></pitch><duration>64</duration><voice>1</voice><type>quarter</type><staff>1</staff></note><note><chord/><pitch><step>A</step><octave>4</octave></pitch><duration>64</duration><voice>1</voice><type>quarter</type><staff>1</staff></note><note><rest/><duration>32</duration><voice>1</voice><type>eighth</type><staff>1</staff></note><note><pitch><step>E</step><octave>4</octave></pitch><duration>32</duration><voice>1</voice><type>eighth</type><staff>1</staff><beam number="1">begin</beam></note><note><chord/><pitch><step>A</step><octave>4</octave></pitch><duration>32</duration><voice>1</voice><type>eighth</type><staff>1</staff><beam number="1">begin</beam></note><note><pitch><step>E</step><octave>4</octave></pitch><duration>48</duration><voice>1</voice><type>eighth</type><dot/><staff>1</staff><beam number="1">continue</beam></note><note><chord/><pitch><step>A</step><octave>4</octave></pitch><duration>48</duration><voice>1</voice><type>eighth</type><dot/><staff>1</staff><beam number="1">continue</beam></note><note><pitch><step>E</step><octave>4</octave></pitch><duration>16</duration><voice>1</voice><type>16th</type><staff>1</staff><beam number="1">end</beam></note><note><chord/><pitch><step>A</step><octave>4</octave></pitch><duration>16</duration><voice>1</voice><type>16th</type><staff>1</staff><beam number="1">end</beam></note><backup><duration>192</duration></backup><attributes/><note><pitch><step>C</step><alter>1</alter><octave>3</octave></pitch><duration>64</duration><voice>3</voice><type>quarter</type><staff>2</staff></note><note><chord/><pitch><step>A</step><octave>3</octave></pitch><duration>64</duration><voice>3</voice><type>quarter</type><staff>2</staff></note><note><rest/><duration>32</duration><voice>3</voice><type>eighth</type><staff>2</staff></note><note><pitch><step>C</step><alter>1</alter><octave>3</octave></pitch><duration>32</duration><voice>3</voice><type>eighth</type><staff>2</staff><beam number="1">begin</beam></note><note><chord/><pitch><step>A</step><octave>3</octave></pitch><duration>32</duration><voice>3</voice><type>eighth</type><staff>2</staff><beam number="1">begin</beam></note><note><pitch><step>C</step><alter>1</alter><octave>3</octave></pitch><duration>48</duration><voice>3</voice><type>eighth</type><dot/><staff>2</staff><beam number="1">continue</beam></note><note><chord/><pitch><step>A</step><octave>3</octave></pitch><duration>48</duration><voice>3</voice><type>eighth</type><dot/><staff>2</staff><beam number="1">continue</beam></note><note><pitch><step>C</step><alter>1</alter><octave>3</octave></pitch><duration>16</duration><voice>3</voice><type>16th</type><staff>2</staff><beam number="1">end</beam></note><note><chord/><pitch><step>A</step><octave>3</octave></pitch><duration>16</duration><voice>3</voice><type>16th</type><staff>2</staff><beam number="1">end</beam></note></measure><measure number="4"><note><pitch><step>F</step><alter>1</alter><octave>4</octave></pitch><duration>64</duration><voice>1</voice><type>quarter</type><staff>1</staff></note><note><chord/><pitch><step>D</step><octave>5</octave></pitch><duration>64</duration><voice>1</voice><type>quarter</type><staff>1</staff></note><note><rest/><duration>32</duration><voice>1</voice><type>eighth</type><staff>1</staff></note><note><pitch><step>G</step><octave>4</octave></pitch><duration>32</duration><voice>1</voice><type>eighth</type><staff>1</staff><beam number="1">begin</beam></note><note><chord/><pitch><step>D</step><octave>5</octave></pitch><duration>32</duration><voice>1</voice><type>eighth</type><staff>1</staff><beam number="1">begin</beam></note><note><chord/><pitch><step>E</step><octave>5</octave></pitch><duration>32</duration><voice>1</voice><type>eighth</type><staff>1</staff><beam number="1">begin</beam></note><note><pitch><step>F</step><alter>1</alter><octave>4</octave></pitch><duration>32</duration><voice>1</voice><type>eighth</type><staff>1</staff><beam number="1">continue</beam></note><note><chord/><pitch><step>D</step><octave>5</octave></pitch><duration>32</duration><voice>1</voice><type>eighth</type><staff>1</staff><beam number="1">continue</beam></note><note><chord/><pitch><step>F</step><alter>1</alter><octave>5</octave></pitch><duration>32</duration><voice>1</voice><type>eighth</type><staff>1</staff><beam number="1">continue</beam></note><note><pitch><step>E</step><octave>5</octave></pitch><duration>32</duration><voice>1</voice><type>eighth</type><staff>1</staff><beam number="1">end</beam></note><note><chord/><pitch><step>G</step><octave>5</octave></pitch><duration>32</duration><voice>1</voice><type>eighth</type><staff>1</staff><beam number="1">end</beam></note><backup><duration>192</duration></backup><attributes/><note><pitch><step>B</step><octave>2</octave></pitch><duration>96</duration><voice>3</voice><type>quarter</type><dot/><staff>2</staff></note><note><chord/><pitch><step>F</step><alter>1</alter><octave>3</octave></pitch><duration>96</duration><voice>3</voice><type>quarter</type><dot/><staff>2</staff></note><note><pitch><step>B</step><octave>2</octave></pitch><duration>32</duration><voice>3</voice><type>eighth</type><staff>2</staff><beam number="1">begin</beam></note><note><chord/><pitch><step>B</step><octave>3</octave></pitch><duration>32</duration><voice>3</voice><type>eighth</type><staff>2</staff><beam number="1">begin</beam></note><note><pitch><step>A</step><octave>2</octave></pitch><duration>32</duration><voice>3</voice><type>eighth</type><staff>2</staff><beam number="1">continue</beam></note><note><chord/><pitch><step>A</step><octave>3</octave></pitch><duration>32</duration><voice>3</voice><type>eighth</type><staff>2</staff><beam number="1">continue</beam></note><note><pitch><step>G</step><octave>2</octave></pitch><duration>32</duration><voice>3</voice><type>eighth</type><staff>2</staff><beam number="1">end</beam></note><note><chord/><pitch><step>G</step><octave>3</octave></pitch><duration>32</duration><voice>3</voice><type>eighth</type><staff>2</staff><beam number="1">end</beam></note></measure><measure number="5"><note><pitch><step>D</step><octave>5</octave></pitch><duration>96</duration><voice>1</voice><type>quarter</type><dot/><staff>1</staff></note><note><chord/><pitch><step>F</step><alter>1</alter><octave>5</octave></pitch><duration>96</duration><voice>1</voice><type>quarter</type><dot/><staff>1</staff></note><note><chord/><pitch><step>A</step><octave>5</octave></pitch><duration>96</duration><voice>1</voice><type>quarter</type><dot/><staff>1</staff></note><note><pitch><step>A</step><octave>4</octave></pitch><duration>32</duration><voice>1</voice><type>eighth</type><staff>1</staff><beam number="1">begin</beam></note><note><chord/><pitch><step>G</step><octave>5</octave></pitch><duration>32</duration><voice>1</voice><type>eighth</type><staff>1</staff><beam number="1">begin</beam></note><note><pitch><step>B</step><octave>4</octave></pitch><duration>32</duration><voice>1</voice><type>eighth</type><staff>1</staff><beam number="1">continue</beam></note><note><chord/><pitch><step>F</step><alter>1</alter><octave>5</octave></pitch><duration>32</duration><voice>1</voice><type>eighth</type><staff>1</staff><beam number="1">continue</beam></note><note><pitch><step>C</step><alter>1</alter><octave>5</octave></pitch><duration>32</duration><voice>1</voice><type>eighth</type><staff>1</staff><beam number="1">end</beam></note><note><chord/><pitch><step>E</step><octave>5</octave></pitch><duration>32</duration><voice>1</voice><type>eighth</type><staff>1</staff><beam number="1">end</beam></note><backup><duration>192</duration></backup><attributes/><note><pitch><step>F</step><alter>1</alter><octave>2</octave></pitch><duration>96</duration><voice>3</voice><type>quarter</type><dot/><staff>2</staff></note><note><chord/><pitch><step>F</step><alter>1</alter><octave>3</octave></pitch><duration>96</duration><voice>3</voice><type>quarter</type><dot/><staff>2</staff></note><note><pitch><step>F</step><alter>1</alter><octave>3</octave></pitch><duration>32</duration><voice>3</voice><type>eighth</type><staff>2</staff><beam number="1">begin</beam></note><note><chord/><pitch><step>D</step><octave>4</octave></pitch><duration>32</duration><voice>3</voice><type>eighth</type><staff>2</staff><beam number="1">begin</beam></note><note><pitch><step>G</step><octave>3</octave></pitch><duration>32</duration><voice>3</voice><type>eighth</type><staff>2</staff><beam number="1">continue</beam></note><note><chord/><pitch><step>D</step><octave>4</octave></pitch><duration>32</duration><voice>3</voice><type>eighth</type><staff>2</staff><beam number="1">continue</beam></note><note><pitch><step>A</step><octave>3</octave></pitch><duration>32</duration><voice>3</voice><type>eighth</type><staff>2</staff><beam number="1">end</beam></note><note><chord/><pitch><step>C</step><alter>1</alter><octave>4</octave></pitch><duration>32</duration><voice>3</voice><type>eighth</type><staff>2</staff><beam number="1">end</beam></note></measure><measure number="6"><note><pitch><step>F</step><alter>1</alter><octave>4</octave></pitch><duration>96</duration><voice>1</voice><type>quarter</type><dot/><staff>1</staff></note><note><chord/><pitch><step>D</step><octave>5</octave></pitch><duration>96</duration><voice>1</voice><type>quarter</type><dot/><staff>1</staff></note><note><pitch><step>F</step><alter>1</alter><octave>4</octave></pitch><duration>32</duration><voice>1</voice><type>eighth</type><staff>1</staff><beam number="1">begin</beam></note><note><chord/><pitch><step>D</step><octave>5</octave></pitch><duration>32</duration><voice>1</voice><type>eighth</type><staff>1</staff><beam number="1">begin</beam></note><note><pitch><step>G</step><octave>4</octave></pitch><duration>32</duration><voice>1</voice><type>eighth</type><staff>1</staff><beam number="1">continue</beam></note><note><chord/><pitch><step>E</step><octave>5</octave></pitch><duration>32</duration><voice>1</voice><type>eighth</type><staff>1</staff><beam number="1">continue</beam></note><note><pitch><step>A</step><octave>4</octave></pitch><duration>32</duration><voice>1</voice><type>eighth</type><staff>1</staff><beam number="1">end</beam></note><note><chord/><pitch><step>F</step><alter>1</alter><octave>5</octave></pitch><duration>32</duration><voice>1</voice><type>eighth</type><staff>1</staff><beam number="1">end</beam></note><backup><duration>192</duration></backup><attributes/><note><pitch><step>B</step><octave>3</octave></pitch><duration>96</duration><voice>3</voice><type>quarter</type><dot/><staff>2</staff></note><note><chord/><pitch><step>D</step><octave>4</octave></pitch><duration>96</duration><voice>3</voice><type>quarter</type><dot/><staff>2</staff></note><note><pitch><step>A</step><octave>3</octave></pitch><duration>32</duration><voice>3</voice><type>eighth</type><staff>2</staff><beam number="1">begin</beam></note><note><chord/><pitch><step>C</step><alter>1</alter><octave>4</octave></pitch><duration>32</duration><voice>3</voice><type>eighth</type><staff>2</staff><beam number="1">begin</beam></note><note><pitch><step>G</step><octave>3</octave></pitch><duration>32</duration><voice>3</voice><type>eighth</type><staff>2</staff><beam number="1">continue</beam></note><note><chord/><pitch><step>B</step><octave>3</octave></pitch><duration>32</duration><voice>3</voice><type>eighth</type><staff>2</staff><beam number="1">continue</beam></note><note><pitch><step>F</step><alter>1</alter><octave>3</octave></pitch><duration>32</duration><voice>3</voice><type>eighth</type><staff>2</staff><beam number="1">end</beam></note><note><chord/><pitch><step>A</step><octave>3</octave></pitch><duration>32</duration><voice>3</voice><type>eighth</type><staff>2</staff><beam number="1">end</beam></note></measure><measure number="7"><note><pitch><step>B</step><octave>4</octave></pitch><duration>96</duration><voice>1</voice><type>quarter</type><dot/><staff>1</staff></note><note><chord/><pitch><step>G</step><octave>5</octave></pitch><duration>96</duration><voice>1</voice><type>quarter</type><dot/><staff>1</staff></note><note><pitch><step>B</step><octave>4</octave></pitch><duration>32</duration><voice>1</voice><type>eighth</type><staff>1</staff><beam number="1">begin</beam></note><note><chord/><pitch><step>D</step><octave>5</octave></pitch><duration>32</duration><voice>1</voice><type>eighth</type><staff>1</staff><beam number="1">begin</beam></note><note><chord/><pitch><step>F</step><alter>1</alter><octave>5</octave></pitch><duration>32</duration><voice>1</voice><type>eighth</type><staff>1</staff><beam number="1">begin</beam></note><note><pitch><step>A</step><octave>4</octave></pitch><duration>32</duration><voice>1</voice><type>eighth</type><staff>1</staff><beam number="1">continue</beam></note><note><chord/><pitch><step>E</step><octave>5</octave></pitch><duration>32</duration><voice>1</voice><type>eighth</type><staff>1</staff><beam number="1">continue</beam></note><note><chord/><pitch><step>G</step><octave>5</octave></pitch><duration>32</duration><voice>1</voice><type>eighth</type><staff>1</staff><beam number="1">continue</beam></note><note><pitch><step>A</step><octave>4</octave></pitch><duration>32</duration><voice>1</voice><type>eighth</type><staff>1</staff><beam number="1">end</beam></note><note><chord/><pitch><step>E</step><octave>5</octave></pitch><duration>32</duration><voice>1</voice><type>eighth</type><staff>1</staff><beam number="1">end</beam></note><backup><duration>192</duration></backup><attributes/><note><pitch><step>G</step><octave>3</octave></pitch><duration>96</duration><voice>3</voice><type>quarter</type><dot/><staff>2</staff></note><note><rest/><duration>32</duration><voice>3</voice><type>eighth</type><staff>2</staff></note><note relative-y="35"><rest/><duration>64</duration><voice>3</voice><type>quarter</type><staff>2</staff></note><backup><duration>192</duration></backup><note><pitch><step>E</step><octave>3</octave></pitch><duration>128</duration><voice>4</voice><type>half</type><staff>2</staff></note><note><pitch><step>C</step><alter>1</alter><octave>3</octave></pitch><duration>64</duration><voice>4</voice><type>quarter</type><staff>2</staff></note><note><chord/><pitch><step>C</step><alter>1</alter><octave>4</octave></pitch><duration>64</duration><voice>4</voice><type>quarter</type><staff>2</staff></note></measure><measure number="8"><note><pitch><step>D</step><octave>5</octave></pitch><duration>32</duration><voice>1</voice><type>eighth</type><staff>1</staff><beam number="1">begin</beam></note><note><chord/><pitch><step>F</step><alter>1</alter><octave>5</octave></pitch><duration>32</duration><voice>1</voice><type>eighth</type><staff>1</staff><beam number="1">begin</beam></note><note><pitch><step>E</step><octave>5</octave></pitch><duration>32</duration><voice>1</voice><type>eighth</type><staff>1</staff><beam number="1">end</beam></note><note><chord/><pitch><step>G</step><octave>5</octave></pitch><duration>32</duration><voice>1</voice><type>eighth</type><staff>1</staff><beam number="1">end</beam></note><note><pitch><step>D</step><octave>5</octave></pitch><duration>96</duration><voice>1</voice><type>quarter</type><dot/><staff>1</staff><notations><slur default-x="0.65" default-y="7.5" number="1" placement="above" type="start"/></notations></note><note><chord/><pitch><step>F</step><alter>1</alter><octave>5</octave></pitch><duration>96</duration><voice>1</voice><type>quarter</type><dot/><staff>1</staff><notations><slur default-x="0.65" default-y="7" number="1" type="stop"/></notations></note><note><pitch><step>C</step><alter>1</alter><octave>5</octave></pitch><duration>32</duration><voice>1</voice><type>eighth</type><staff>1</staff></note><note><chord/><pitch><step>E</step><octave>5</octave></pitch><duration>32</duration><voice>1</voice><type>eighth</type><staff>1</staff></note><backup><duration>192</duration></backup><note><pitch><step>A</step><octave>4</octave></pitch><duration>64</duration><voice>2</voice><type>quarter</type><staff>1</staff></note><note><pitch><step>A</step><octave>4</octave></pitch><duration>128</duration><voice>2</voice><type>half</type><staff>1</staff></note><backup><duration>192</duration></backup><attributes/><note><pitch><step>D</step><octave>3</octave></pitch><duration>32</duration><voice>3</voice><type>eighth</type><staff>2</staff><beam number="1">begin</beam></note><note><chord/><pitch><step>D</step><octave>4</octave></pitch><duration>32</duration><voice>3</voice><type>eighth</type><staff>2</staff><beam number="1">begin</beam></note><note><pitch><step>C</step><alter>1</alter><octave>3</octave></pitch><duration>32</duration><voice>3</voice><type>eighth</type><staff>2</staff><beam number="1">end</beam></note><note><chord/><pitch><step>C</step><alter>1</alter><octave>4</octave></pitch><duration>32</duration><voice>3</voice><type>eighth</type><staff>2</staff><beam number="1">end</beam></note><note><pitch><step>D</step><octave>3</octave></pitch><duration>64</duration><voice>3</voice><type>quarter</type><staff>2</staff></note><note><chord/><pitch><step>D</step><octave>4</octave></pitch><duration>64</duration><voice>3</voice><type>quarter</type><staff>2</staff></note><note><pitch><step>D</step><octave>2</octave></pitch><duration>64</duration><voice>3</voice><type>quarter</type><staff>2</staff></note><note><chord/><pitch><step>D</step><octave>3</octave></pitch><duration>64</duration><voice>3</voice><type>quarter</type><staff>2</staff></note></measure><measure number="9"><note><pitch><step>A</step><octave>4</octave></pitch><duration>128</duration><voice>1</voice><type>half</type><staff>1</staff></note><note><chord/><pitch><step>C</step><alter>1</alter><octave>5</octave></pitch><duration>128</duration><voice>1</voice><type>half</type><staff>1</staff></note><note><chord/><pitch><step>E</step><octave>5</octave></pitch><duration>128</duration><voice>1</voice><type>half</type><staff>1</staff></note><direction placement="below"><direction-type><dynamics placement="below"><p/></dynamics></direction-type></direction><note><pitch><step>A</step><octave>4</octave></pitch><duration>64</duration><voice>1</voice><type>quarter</type><staff>1</staff></note><note><chord/><pitch><step>E</step><octave>5</octave></pitch><duration>64</duration><voice>1</voice><type>quarter</type><staff>1</staff></note><backup><duration>192</duration></backup><attributes/><note><pitch><step>A</step><octave>2</octave></pitch><duration>96</duration><voice>3</voice><type>quarter</type><dot/><staff>2</staff></note><note><chord/><pitch><step>A</step><octave>3</octave></pitch><duration>96</duration><voice>3</voice><type>quarter</type><dot/><staff>2</staff></note><note><pitch><step>B</step><octave>3</octave></pitch><duration>32</duration><voice>3</voice><type>eighth</type><staff>2</staff><beam number="1">begin</beam></note><note><pitch><step>C</step><alter>1</alter><octave>4</octave></pitch><duration>32</duration><voice>3</voice><type>eighth</type><staff>2</staff><beam number="1">continue</beam></note><note><pitch><step>A</step><octave>3</octave></pitch><duration>32</duration><voice>3</voice><type>eighth</type><staff>2</staff><beam number="1">end</beam></note></measure><measure number="10"><note><pitch><step>F</step><alter>1</alter><octave>5</octave></pitch><duration>32</duration><voice>1</voice><type>eighth</type><staff>1</staff><beam number="1">begin</beam></note><note><pitch><step>E</step><octave>5</octave></pitch><duration>32</duration><voice>1</voice><type>eighth</type><staff>1</staff><beam number="1">continue</beam></note><note><pitch><step>D</step><octave>5</octave></pitch><duration>32</duration><voice>1</voice><type>eighth</type><staff>1</staff><beam number="1">continue</beam></note><note><pitch><step>F</step><alter>1</alter><octave>5</octave></pitch><duration>32</duration><voice>1</voice><type>eighth</type><staff>1</staff><beam number="1">continue</beam></note><note><pitch><step>E</step><octave>5</octave></pitch><duration>32</duration><voice>1</voice><type>eighth</type><staff>1</staff><beam number="1">continue</beam></note><note><pitch><step>D</step><octave>5</octave></pitch><duration>32</duration><voice>1</voice><type>eighth</type><staff>1</staff><beam number="1">end</beam></note><backup><duration>192</duration></backup><note><pitch><step>A</step><octave>4</octave></pitch><duration>128</duration><voice>2</voice><type>half</type><staff>1</staff></note><note><pitch><step>A</step><octave>4</octave></pitch><duration>64</duration><voice>2</voice><type>quarter</type><staff>1</staff></note><backup><duration>192</duration></backup><attributes/><note><pitch><step>D</step><octave>4</octave></pitch><duration>128</duration><voice>3</voice><type>half</type><staff>2</staff></note><note><pitch><step>D</step><octave>4</octave></pitch><duration>64</duration><voice>3</voice><type>quarter</type><staff>2</staff></note><note><chord/><pitch><step>F</step><alter>1</alter><octave>4</octave></pitch><duration>64</duration><voice>3</voice><type>quarter</type><staff>2</staff></note></measure><measure number="11"><note><pitch><step>E</step><octave>5</octave></pitch><duration>128</duration><voice>1</voice><type>half</type><staff>1</staff></note><note><pitch><step>A</step><octave>5</octave></pitch><duration>64</duration><voice>1</voice><type>quarter</type><staff>1</staff></note><backup><duration>192</duration></backup><note><pitch><step>A</step><octave>4</octave></pitch><duration>128</duration><voice>2</voice><type>half</type><staff>1</staff></note><note><pitch><step>C</step><alter>1</alter><octave>5</octave></pitch><duration>64</duration><voice>2</voice><type>quarter</type><staff>1</staff></note><backup><duration>192</duration></backup><attributes/><note><pitch><step>C</step><alter>1</alter><octave>4</octave></pitch><duration>32</duration><voice>3</voice><type>eighth</type><staff>2</staff><beam number="1">begin</beam></note><note><chord/><pitch><step>E</step><octave>4</octave></pitch><duration>32</duration><voice>3</voice><type>eighth</type><staff>2</staff><beam number="1">begin</beam></note><note><pitch><step>B</step><octave>3</octave></pitch><duration>32</duration><voice>3</voice><type>eighth</type><staff>2</staff><beam number="1">continue</beam></note><note><chord/><pitch><step>D</step><octave>4</octave></pitch><duration>32</duration><voice>3</voice><type>eighth</type><staff>2</staff><beam number="1">continue</beam></note><note><pitch><step>A</step><octave>3</octave></pitch><duration>32</duration><voice>3</voice><type>eighth</type><staff>2</staff><beam number="1">continue</beam></note><note><chord/><pitch><step>C</step><alter>1</alter><octave>4</octave></pitch><duration>32</duration><voice>3</voice><type>eighth</type><staff>2</staff><beam number="1">continue</beam></note><note><pitch><step>C</step><alter>1</alter><octave>4</octave></pitch><duration>32</duration><voice>3</voice><type>eighth</type><staff>2</staff><beam number="1">continue</beam></note><note><chord/><pitch><step>E</step><octave>4</octave></pitch><duration>32</duration><voice>3</voice><type>eighth</type><staff>2</staff><beam number="1">continue</beam></note><note><pitch><step>B</step><octave>3</octave></pitch><duration>32</duration><voice>3</voice><type>eighth</type><staff>2</staff><beam number="1">continue</beam></note><note><chord/><pitch><step>D</step><octave>4</octave></pitch><duration>32</duration><voice>3</voice><type>eighth</type><staff>2</staff><beam number="1">continue</beam></note><note><pitch><step>A</step><octave>3</octave></pitch><duration>32</duration><voice>3</voice><type>eighth</type><staff>2</staff><beam number="1">end</beam></note><note><chord/><pitch><step>C</step><alter>1</alter><octave>4</octave></pitch><duration>32</duration><voice>3</voice><type>eighth</type><staff>2</staff><beam number="1">end</beam></note></measure><measure number="12"><note><pitch><step>G</step><alter>1</alter><octave>5</octave></pitch><duration>32</duration><voice>1</voice><type>eighth</type><accidental>sharp</accidental><staff>1</staff><beam number="1">begin</beam></note><note><pitch><step>F</step><alter>1</alter><octave>5</octave></pitch><duration>32</duration><voice>1</voice><type>eighth</type><staff>1</staff><beam number="1">continue</beam></note><note><pitch><step>E</step><octave>5</octave></pitch><duration>32</duration><voice>1</voice><type>eighth</type><staff>1</staff><beam number="1">continue</beam></note><note><pitch><step>G</step><alter>1</alter><octave>5</octave></pitch><duration>32</duration><voice>1</voice><type>eighth</type><staff>1</staff><beam number="1">continue</beam></note><note><pitch><step>F</step><alter>1</alter><octave>5</octave></pitch><duration>32</duration><voice>1</voice><type>eighth</type><staff>1</staff><beam number="1">continue</beam></note><note><pitch><step>E</step><octave>5</octave></pitch><duration>32</duration><voice>1</voice><type>eighth</type><staff>1</staff><beam number="1">end</beam></note><backup><duration>192</duration></backup><note><pitch><step>B</step><octave>4</octave></pitch><duration>128</duration><voice>2</voice><type>half</type><staff>1</staff></note><note><pitch><step>B</step><octave>4</octave></pitch><duration>64</duration><voice>2</voice><type>quarter</type><staff>1</staff></note><backup><duration>192</duration></backup><attributes/><note><pitch><step>B</step><octave>3</octave></pitch><duration>128</duration><voice>3</voice><type>half</type><staff>2</staff></note><note><chord/><pitch><step>D</step><octave>4</octave></pitch><duration>128</duration><voice>3</voice><type>half</type><staff>2</staff></note><note><pitch><step>D</step><octave>4</octave></pitch><duration>64</duration><voice>3</voice><type>quarter</type><staff>2</staff></note><note><chord/><pitch><step>E</step><octave>4</octave></pitch><duration>64</duration><voice>3</voice><type>quarter</type><staff>2</staff></note></measure><measure number="13"><note><pitch><step>A</step><octave>5</octave></pitch><duration>128</duration><voice>1</voice><type>half</type><staff>1</staff></note><note><pitch><step>G</step><octave>5</octave></pitch><duration>64</duration><voice>1</voice><type>quarter</type><accidental>natural</accidental><staff>1</staff></note><backup><duration>192</duration></backup><note><pitch><step>A</step><octave>4</octave></pitch><duration>128</duration><voice>2</voice><type>half</type><staff>1</staff></note><note><pitch><step>A</step><octave>4</octave></pitch><duration>64</duration><voice>2</voice><type>quarter</type><staff>1</staff></note><backup><duration>192</duration></backup><attributes/><note><pitch><step>C</step><alter>1</alter><octave>4</octave></pitch><duration>32</duration><voice>3</voice><type>eighth</type><staff>2</staff><beam number="1">begin</beam></note><note><chord/><pitch><step>E</step><octave>4</octave></pitch><duration>32</duration><voice>3</voice><type>eighth</type><staff>2</staff><beam number="1">begin</beam></note><note><pitch><step>B</step><octave>3</octave></pitch><duration>32</duration><voice>3</voice><type>eighth</type><staff>2</staff><beam number="1">continue</beam></note><note><chord/><pitch><step>D</step><octave>4</octave></pitch><duration>32</duration><voice>3</voice><type>eighth</type><staff>2</staff><beam number="1">continue</beam></note><note><pitch><step>A</step><octave>3</octave></pitch><duration>32</duration><voice>3</voice><type>eighth</type><staff>2</staff><beam number="1">continue</beam></note><note><chord/><pitch><step>C</step><alter>1</alter><octave>4</octave></pitch><duration>32</duration><voice>3</voice><type>eighth</type><staff>2</staff><beam number="1">continue</beam></note><note><pitch><step>C</step><alter>1</alter><octave>4</octave></pitch><duration>32</duration><voice>3</voice><type>eighth</type><staff>2</staff><beam number="1">continue</beam></note><note><chord/><pitch><step>E</step><octave>4</octave></pitch><duration>32</duration><voice>3</voice><type>eighth</type><staff>2</staff><beam number="1">continue</beam></note><note><pitch><step>B</step><octave>3</octave></pitch><duration>32</duration><voice>3</voice><type>eighth</type><staff>2</staff><beam number="1">continue</beam></note><note><chord/><pitch><step>D</step><octave>4</octave></pitch><duration>32</duration><voice>3</voice><type>eighth</type><staff>2</staff><beam number="1">continue</beam></note><note><pitch><step>A</step><octave>3</octave></pitch><duration>32</duration><voice>3</voice><type>eighth</type><staff>2</staff><beam number="1">end</beam></note><note><chord/><pitch><step>C</step><alter>1</alter><octave>4</octave></pitch><duration>32</duration><voice>3</voice><type>eighth</type><staff>2</staff><beam number="1">end</beam></note></measure><measure number="14"><note><pitch><step>F</step><alter>1</alter><octave>5</octave></pitch><duration>32</duration><voice>1</voice><type>eighth</type><staff>1</staff><beam number="1">begin</beam></note><note><pitch><step>E</step><octave>5</octave></pitch><duration>32</duration><voice>1</voice><type>eighth</type><staff>1</staff><beam number="1">continue</beam></note><note><pitch><step>D</step><octave>5</octave></pitch><duration>32</duration><voice>1</voice><type>eighth</type><staff>1</staff><beam number="1">continue</beam></note><note><pitch><step>F</step><alter>1</alter><octave>5</octave></pitch><duration>32</duration><voice>1</voice><type>eighth</type><staff>1</staff><beam number="1">continue</beam></note><note><pitch><step>E</step><octave>5</octave></pitch><duration>32</duration><voice>1</voice><type>eighth</type><staff>1</staff><beam number="1">continue</beam></note><note><pitch><step>D</step><octave>5</octave></pitch><duration>32</duration><voice>1</voice><type>eighth</type><staff>1</staff><beam number="1">end</beam></note><backup><duration>192</duration></backup><note><pitch><step>A</step><octave>4</octave></pitch><duration>128</duration><voice>2</voice><type>half</type><staff>1</staff></note><note><pitch><step>A</step><octave>4</octave></pitch><duration>64</duration><voice>2</voice><type>quarter</type><staff>1</staff></note><backup><duration>192</duration></backup><attributes/><note><pitch><step>D</step><octave>4</octave></pitch><duration>128</duration><voice>3</voice><type>half</type><staff>2</staff></note><note><pitch><step>D</step><octave>4</octave></pitch><duration>64</duration><voice>3</voice><type>quarter</type><staff>2</staff></note><note><chord/><pitch><step>F</step><alter>1</alter><octave>4</octave></pitch><duration>64</duration><voice>3</voice><type>quarter</type><staff>2</staff></note></measure><measure number="15"><note><pitch><step>E</step><octave>5</octave></pitch><duration>128</duration><voice>1</voice><type>half</type><staff>1</staff></note><note><pitch><step>A</step><octave>5</octave></pitch><duration>64</duration><voice>1</voice><type>quarter</type><staff>1</staff></note><backup><duration>192</duration></backup><note><pitch><step>A</step><octave>4</octave></pitch><duration>128</duration><voice>2</voice><type>half</type><staff>1</staff></note><note><pitch><step>C</step><alter>1</alter><octave>5</octave></pitch><duration>64</duration><voice>2</voice><type>quarter</type><staff>1</staff></note><backup><duration>192</duration></backup><attributes/><note><pitch><step>C</step><alter>1</alter><octave>4</octave></pitch><duration>32</duration><voice>3</voice><type>eighth</type><staff>2</staff><beam number="1">begin</beam></note><note><chord/><pitch><step>E</step><octave>4</octave></pitch><duration>32</duration><voice>3</voice><type>eighth</type><staff>2</staff><beam number="1">begin</beam></note><note><pitch><step>B</step><octave>3</octave></pitch><duration>32</duration><voice>3</voice><type>eighth</type><staff>2</staff><beam number="1">continue</beam></note><note><chord/><pitch><step>D</step><octave>4</octave></pitch><duration>32</duration><voice>3</voice><type>eighth</type><staff>2</staff><beam number="1">continue</beam></note><note><pitch><step>A</step><octave>3</octave></pitch><duration>32</duration><voice>3</voice><type>eighth</type><staff>2</staff><beam number="1">continue</beam></note><note><chord/><pitch><step>C</step><alter>1</alter><octave>4</octave></pitch><duration>32</duration><voice>3</voice><type>eighth</type><staff>2</staff><beam number="1">continue</beam></note><note><pitch><step>C</step><alter>1</alter><octave>4</octave></pitch><duration>32</duration><voice>3</voice><type>eighth</type><staff>2</staff><beam number="1">continue</beam></note><note><chord/><pitch><step>E</step><octave>4</octave></pitch><duration>32</duration><voice>3</voice><type>eighth</type><staff>2</staff><beam number="1">continue</beam></note><note><pitch><step>B</step><octave>3</octave></pitch><duration>32</duration><voice>3</voice><type>eighth</type><staff>2</staff><beam number="1">continue</beam></note><note><chord/><pitch><step>D</step><octave>4</octave></pitch><duration>32</duration><voice>3</voice><type>eighth</type><staff>2</staff><beam number="1">continue</beam></note><note><pitch><step>A</step><octave>3</octave></pitch><duration>32</duration><voice>3</voice><type>eighth</type><staff>2</staff><beam number="1">end</beam></note><note><chord/><pitch><step>C</step><alter>1</alter><octave>4</octave></pitch><duration>32</duration><voice>3</voice><type>eighth</type><staff>2</staff><beam number="1">end</beam></note></measure><measure number="16"><note><pitch><step>G</step><alter>1</alter><octave>5</octave></pitch><duration>32</duration><voice>1</voice><type>eighth</type><accidental>sharp</accidental><staff>1</staff><beam number="1">begin</beam></note><note><pitch><step>F</step><alter>1</alter><octave>5</octave></pitch><duration>32</duration><voice>1</voice><type>eighth</type><staff>1</staff><beam number="1">continue</beam></note><note><pitch><step>E</step><octave>5</octave></pitch><duration>32</duration><voice>1</voice><type>eighth</type><staff>1</staff><beam number="1">continue</beam></note><note><pitch><step>G</step><alter>1</alter><octave>5</octave></pitch><duration>32</duration><voice>1</voice><type>eighth</type><staff>1</staff><beam number="1">continue</beam></note><note><pitch><step>F</step><alter>1</alter><octave>5</octave></pitch><duration>32</duration><voice>1</voice><type>eighth</type><staff>1</staff><beam number="1">continue</beam></note><note><pitch><step>E</step><octave>5</octave></pitch><duration>32</duration><voice>1</voice><type>eighth</type><staff>1</staff><beam number="1">end</beam></note><backup><duration>192</duration></backup><note><pitch><step>B</step><octave>4</octave></pitch><duration>128</duration><voice>2</voice><type>half</type><staff>1</staff></note><note><pitch><step>B</step><octave>4</octave></pitch><duration>64</duration><voice>2</voice><type>quarter</type><staff>1</staff></note><backup><duration>192</duration></backup><attributes/><note><pitch><step>B</step><octave>3</octave></pitch><duration>128</duration><voice>3</voice><type>half</type><staff>2</staff></note><note><chord/><pitch><step>D</step><octave>4</octave></pitch><duration>128</duration><voice>3</voice><type>half</type><staff>2</staff></note><note><pitch><step>D</step><octave>4</octave></pitch><duration>64</duration><voice>3</voice><type>quarter</type><staff>2</staff></note><note><chord/><pitch><step>E</step><octave>4</octave></pitch><duration>64</duration><voice>3</voice><type>quarter</type><staff>2</staff></note></measure><measure number="17"><note><pitch><step>A</step><octave>5</octave></pitch><duration>128</duration><voice>1</voice><type>half</type><staff>1</staff></note><note><pitch><step>A</step><octave>5</octave></pitch><duration>64</duration><voice>1</voice><type>quarter</type><staff>1</staff></note><backup><duration>192</duration></backup><note><pitch><step>A</step><octave>4</octave></pitch><duration>128</duration><voice>2</voice><type>half</type><staff>1</staff></note><note><pitch><step>A</step><octave>4</octave></pitch><duration>64</duration><voice>2</voice><type>quarter</type><staff>1</staff></note><backup><duration>192</duration></backup><attributes/><note><pitch><step>C</step><alter>1</alter><octave>4</octave></pitch><duration>32</duration><voice>3</voice><type>eighth</type><staff>2</staff><beam number="1">begin</beam></note><note><chord/><pitch><step>E</step><octave>4</octave></pitch><duration>32</duration><voice>3</voice><type>eighth</type><staff>2</staff><beam number="1">begin</beam></note><note><pitch><step>B</step><octave>3</octave></pitch><duration>32</duration><voice>3</voice><type>eighth</type><staff>2</staff><beam number="1">continue</beam></note><note><chord/><pitch><step>D</step><octave>4</octave></pitch><duration>32</duration><voice>3</voice><type>eighth</type><staff>2</staff><beam number="1">continue</beam></note><note><pitch><step>A</step><octave>3</octave></pitch><duration>32</duration><voice>3</voice><type>eighth</type><staff>2</staff><beam number="1">continue</beam></note><note><chord/><pitch><step>C</step><alter>1</alter><octave>4</octave></pitch><duration>32</duration><voice>3</voice><type>eighth</type><staff>2</staff><beam number="1">continue</beam></note><note><pitch><step>D</step><octave>4</octave></pitch><duration>32</duration><voice>3</voice><type>eighth</type><staff>2</staff><beam number="1">continue</beam></note><note><chord/><pitch><step>F</step><alter>1</alter><octave>4</octave></pitch><duration>32</duration><voice>3</voice><type>eighth</type><staff>2</staff><beam number="1">continue</beam></note><note><pitch><step>C</step><alter>1</alter><octave>4</octave></pitch><duration>32</duration><voice>3</voice><type>eighth</type><staff>2</staff><beam number="1">continue</beam></note><note><chord/><pitch><step>E</step><octave>4</octave></pitch><duration>32</duration><voice>3</voice><type>eighth</type><staff>2</staff><beam number="1">continue</beam></note><note><pitch><step>B</step><octave>3</octave></pitch><duration>32</duration><voice>3</voice><type>eighth</type><staff>2</staff><beam number="1">end</beam></note><note><chord/><pitch><step>D</step><octave>4</octave></pitch><duration>32</duration><voice>3</voice><type>eighth</type><staff>2</staff><beam number="1">end</beam></note></measure><measure number="18"><note><pitch><step>E</step><octave>5</octave></pitch><duration>32</duration><voice>1</voice><type>eighth</type><staff>1</staff><beam number="1">begin</beam></note><note><pitch><step>F</step><alter>1</alter><octave>5</octave></pitch><duration>32</duration><voice>1</voice><type>eighth</type><staff>1</staff><beam number="1">continue</beam></note><note><pitch><step>E</step><octave>5</octave></pitch><duration>32</duration><voice>1</voice><type>eighth</type><staff>1</staff><beam number="1">continue</beam></note><note><pitch><step>F</step><alter>1</alter><octave>5</octave></pitch><duration>32</duration><voice>1</voice><type>eighth</type><staff>1</staff><beam number="1">continue</beam></note><note><pitch><step>E</step><octave>5</octave></pitch><duration>32</duration><voice>1</voice><type>eighth</type><staff>1</staff><beam number="1">continue</beam></note><note><pitch><step>F</step><alter>1</alter><octave>5</octave></pitch><duration>32</duration><voice>1</voice><type>eighth</type><staff>1</staff><beam number="1">end</beam></note><backup><duration>192</duration></backup><note><pitch><step>A</step><octave>4</octave></pitch><duration>128</duration><voice>2</voice><type>half</type><staff>1</staff></note><note><pitch><step>A</step><octave>4</octave></pitch><duration>64</duration><voice>2</voice><type>quarter</type><staff>1</staff></note><backup><duration>192</duration></backup><attributes/><note><pitch><step>C</step><alter>1</alter><octave>4</octave></pitch><duration>96</duration><voice>3</voice><type>quarter</type><dot/><staff>2</staff></note><note><pitch><step>D</step><octave>4</octave></pitch><duration>32</duration><voice>3</voice><type>eighth</type><staff>2</staff><beam number="1">begin</beam></note><note><pitch><step>C</step><alter>1</alter><octave>4</octave></pitch><duration>32</duration><voice>3</voice><type>eighth</type><staff>2</staff><beam number="1">continue</beam></note><note><pitch><step>D</step><octave>4</octave></pitch><duration>32</duration><voice>3</voice><type>eighth</type><staff>2</staff><beam number="1">end</beam></note><backup><duration>192</duration></backup><note><rest/><duration>64</duration><voice>4</voice><type>quarter</type><staff>2</staff></note><note><rest/><duration>32</duration><voice>4</voice><type>eighth</type><staff>2</staff></note><note><pitch><step>A</step><octave>3</octave></pitch><duration>32</duration><voice>4</voice><type>eighth</type><staff>2</staff><beam number="1">begin</beam></note><note><pitch><step>G</step><octave>3</octave></pitch><duration>32</duration><voice>4</voice><type>eighth</type><staff>2</staff><beam number="1">continue</beam></note><note><pitch><step>F</step><alter>1</alter><octave>3</octave></pitch><duration>32</duration><voice>4</voice><type>eighth</type><staff>2</staff><beam number="1">end</beam></note></measure><measure number="19"><note><pitch><step>G</step><octave>5</octave></pitch><duration>128</duration><voice>1</voice><type>half</type><staff>1</staff></note><note><pitch><step>G</step><octave>5</octave></pitch><duration>64</duration><voice>1</voice><type>quarter</type><staff>1</staff></note><backup><duration>192</duration></backup><note><pitch><step>G</step><octave>4</octave></pitch><duration>32</duration><voice>2</voice><type>eighth</type><staff>1</staff><beam number="1">begin</beam></note><note><pitch><step>A</step><octave>4</octave></pitch><duration>32</duration><voice>2</voice><type>eighth</type><staff>1</staff><beam number="1">continue</beam></note><note><pitch><step>G</step><octave>4</octave></pitch><duration>32</duration><voice>2</voice><type>eighth</type><staff>1</staff><beam number="1">continue</beam></note><note><pitch><step>A</step><octave>4</octave></pitch><duration>32</duration><voice>2</voice><type>eighth</type><staff>1</staff><beam number="1">continue</beam></note><note><pitch><step>G</step><octave>4</octave></pitch><duration>32</duration><voice>2</voice><type>eighth</type><staff>1</staff><beam number="1">continue</beam></note><note><pitch><step>A</step><octave>4</octave></pitch><duration>32</duration><voice>2</voice><type>eighth</type><staff>1</staff><beam number="1">end</beam></note><backup><duration>192</duration></backup><attributes/><note><pitch><step>E</step><octave>4</octave></pitch><duration>128</duration><voice>3</voice><type>half</type><staff>2</staff></note><note><pitch><step>E</step><octave>4</octave></pitch><duration>64</duration><voice>3</voice><type>quarter</type><staff>2</staff></note><backup><duration>192</duration></backup><note><pitch><step>E</step><octave>3</octave></pitch><duration>32</duration><voice>4</voice><type>eighth</type><staff>2</staff><beam number="1">begin</beam></note><note><pitch><step>F</step><alter>1</alter><octave>3</octave></pitch><duration>32</duration><voice>4</voice><type>eighth</type><staff>2</staff><beam number="1">continue</beam></note><note><pitch><step>E</step><octave>3</octave></pitch><duration>32</duration><voice>4</voice><type>eighth</type><staff>2</staff><beam number="1">continue</beam></note><note><pitch><step>F</step><alter>1</alter><octave>3</octave></pitch><duration>32</duration><voice>4</voice><type>eighth</type><staff>2</staff><beam number="1">continue</beam></note><note><pitch><step>E</step><octave>3</octave></pitch><duration>32</duration><voice>4</voice><type>eighth</type><staff>2</staff><beam number="1">continue</beam></note><note><pitch><step>F</step><alter>1</alter><octave>3</octave></pitch><duration>32</duration><voice>4</voice><type>eighth</type><staff>2</staff><beam number="1">end</beam></note></measure><measure number="20"><note><pitch><step>D</step><octave>5</octave></pitch><duration>32</duration><voice>1</voice><type>eighth</type><staff>1</staff><beam number="1">begin</beam></note><note><pitch><step>E</step><octave>5</octave></pitch><duration>32</duration><voice>1</voice><type>eighth</type><staff>1</staff><beam number="1">continue</beam></note><note><pitch><step>D</step><octave>5</octave></pitch><duration>32</duration><voice>1</voice><type>eighth</type><staff>1</staff><beam number="1">continue</beam></note><note><pitch><step>E</step><octave>5</octave></pitch><duration>32</duration><voice>1</voice><type>eighth</type><staff>1</staff><beam number="1">continue</beam></note><note><pitch><step>D</step><octave>5</octave></pitch><duration>32</duration><voice>1</voice><type>eighth</type><staff>1</staff><beam number="1">continue</beam></note><note><pitch><step>E</step><octave>5</octave></pitch><duration>32</duration><voice>1</voice><type>eighth</type><staff>1</staff><beam number="1">end</beam></note><backup><duration>192</duration></backup><note><pitch><step>B</step><octave>4</octave></pitch><duration>128</duration><voice>2</voice><type>half</type><staff>1</staff></note><note><pitch><step>A</step><octave>4</octave></pitch><duration>32</duration><voice>2</voice><type>eighth</type><staff>1</staff><beam number="1">begin</beam></note><note><pitch><step>G</step><octave>4</octave></pitch><duration>32</duration><voice>2</voice><type>eighth</type><staff>1</staff><beam number="1">end</beam></note><backup><duration>192</duration></backup><attributes/><note><pitch><step>B</step><octave>3</octave></pitch><duration>32</duration><voice>3</voice><type>eighth</type><staff>2</staff><beam number="1">begin</beam></note><note><pitch><step>C</step><alter>1</alter><octave>4</octave></pitch><duration>32</duration><voice>3</voice><type>eighth</type><staff>2</staff><beam number="1">continue</beam></note><note><pitch><step>B</step><octave>3</octave></pitch><duration>32</duration><voice>3</voice><type>eighth</type><staff>2</staff><beam number="1">continue</beam></note><note><pitch><step>C</step><alter>1</alter><octave>4</octave></pitch><duration>32</duration><voice>3</voice><type>eighth</type><staff>2</staff><beam number="1">continue</beam></note><note><pitch><step>B</step><octave>3</octave></pitch><duration>32</duration><voice>3</voice><type>eighth</type><staff>2</staff><beam number="1">continue</beam></note><note><pitch><step>C</step><alter>1</alter><octave>4</octave></pitch><duration>32</duration><voice>3</voice><type>eighth</type><staff>2</staff><beam number="1">end</beam></note><backup><duration>192</duration></backup><note><pitch><step>G</step><octave>3</octave></pitch><duration>96</duration><voice>4</voice><type>quarter</type><dot/><staff>2</staff></note><note><pitch><step>G</step><octave>3</octave></pitch><duration>32</duration><voice>4</voice><type>eighth</type><staff>2</staff><beam number="1">begin</beam></note><note><pitch><step>F</step><alter>1</alter><octave>3</octave></pitch><duration>32</duration><voice>4</voice><type>eighth</type><staff>2</staff><beam number="1">continue</beam></note><note><pitch><step>E</step><octave>3</octave></pitch><duration>32</duration><voice>4</voice><type>eighth</type><staff>2</staff><beam number="1">end</beam></note></measure><measure number="21"><note><pitch><step>F</step><alter>1</alter><octave>5</octave></pitch><duration>64</duration><voice>1</voice><type>quarter</type><staff>1</staff></note><note><rest/><duration>32</duration><voice>1</voice><type>eighth</type><staff>1</staff></note><note><pitch><step>E</step><octave>5</octave></pitch><duration>32</duration><voice>1</voice><type>eighth</type><staff>1</staff><beam number="1">begin</beam></note><note><pitch><step>D</step><octave>5</octave></pitch><duration>32</duration><voice>1</voice><type>eighth</type><staff>1</staff><beam number="1">continue</beam></note><note><pitch><step>E</step><octave>5</octave></pitch><duration>32</duration><voice>1</voice><type>eighth</type><staff>1</staff><beam number="1">end</beam></note><backup><duration>192</duration></backup><note><pitch><step>A</step><octave>4</octave></pitch><duration>64</duration><voice>2</voice><type>quarter</type><staff>1</staff></note><note><rest/><duration>64</duration><voice>2</voice><type>quarter</type><staff>1</staff></note><note><rest/><duration>64</duration><voice>2</voice><type>quarter</type><staff>1</staff></note><backup><duration>192</duration></backup><attributes/><note><pitch><step>D</step><octave>4</octave></pitch><duration>64</duration><voice>3</voice><type>quarter</type><staff>2</staff></note><note relative-y="-20"><rest/><duration>64</duration><voice>3</voice><type>quarter</type><staff>2</staff></note><note relative-y="-20"><rest/><duration>64</duration><voice>3</voice><type>quarter</type><staff>2</staff></note><backup><duration>192</duration></backup><note><pitch><step>D</step><octave>3</octave></pitch><duration>64</duration><voice>4</voice><type>quarter</type><staff>2</staff></note><note relative-y="20"><rest/><duration>64</duration><voice>4</voice><type>quarter</type><staff>2</staff></note><note relative-y="20"><rest/><duration>64</duration><voice>4</voice><type>quarter</type><staff>2</staff></note></measure><measure number="22"><note><pitch><step>F</step><alter>1</alter><octave>5</octave></pitch><duration>32</duration><voice>1</voice><type>eighth</type><staff>1</staff><beam number="1">begin</beam></note><note><pitch><step>G</step><octave>5</octave></pitch><duration>32</duration><voice>1</voice><type>eighth</type><staff>1</staff><beam number="1">end</beam></note><note><pitch><step>A</step><octave>5</octave></pitch><duration>128</duration><voice>1</voice><type>half</type><staff>1</staff><notations><slur default-x="0.65" default-y="8.5" number="1" placement="above" type="start"/></notations></note><backup><duration>192</duration></backup><note><rest/><duration>64</duration><voice>2</voice><type>quarter</type><staff>1</staff></note><note><rest/><duration>32</duration><voice>2</voice><type>eighth</type><staff>1</staff></note><note><pitch><step>A</step><octave>4</octave></pitch><duration>32</duration><voice>2</voice><type>eighth</type><staff>1</staff><beam number="1">begin</beam><notations><slur default-x="0.65" default-y="8.5" number="1" type="stop"/></notations></note><note><chord/><pitch><step>E</step><octave>5</octave></pitch><duration>32</duration><voice>2</voice><type>eighth</type><staff>1</staff><beam number="1">begin</beam></note><note><pitch><step>B</step><octave>4</octave></pitch><duration>32</duration><voice>2</voice><type>eighth</type><staff>1</staff><beam number="1">continue</beam></note><note><chord/><pitch><step>D</step><octave>5</octave></pitch><duration>32</duration><voice>2</voice><type>eighth</type><staff>1</staff><beam number="1">continue</beam></note><note><pitch><step>A</step><octave>4</octave></pitch><duration>32</duration><voice>2</voice><type>eighth</type><staff>1</staff><beam number="1">end</beam></note><note><chord/><pitch><step>E</step><octave>5</octave></pitch><duration>32</duration><voice>2</voice><type>eighth</type><staff>1</staff><beam number="1">end</beam></note><backup><duration>192</duration></backup><attributes/><note><rest/><duration>64</duration><voice>3</voice><type>quarter</type><staff>2</staff></note><note><rest/><duration>32</duration><voice>3</voice><type>eighth</type><staff>2</staff></note><note><pitch><step>C</step><alter>1</alter><octave>4</octave></pitch><duration>32</duration><voice>3</voice><type>eighth</type><staff>2</staff><beam number="1">begin</beam></note><note><pitch><step>B</step><octave>3</octave></pitch><duration>32</duration><voice>3</voice><type>eighth</type><staff>2</staff><beam number="1">continue</beam></note><note><pitch><step>C</step><alter>1</alter><octave>4</octave></pitch><duration>32</duration><voice>3</voice><type>eighth</type><staff>2</staff><beam number="1">end</beam></note></measure><measure number="23"><note><pitch><step>A</step><octave>4</octave></pitch><duration>64</duration><voice>1</voice><type>quarter</type><staff>1</staff></note><note><chord/><pitch><step>A</step><octave>5</octave></pitch><duration>64</duration><voice>1</voice><type>quarter</type><staff>1</staff></note><note><pitch><step>A</step><octave>5</octave></pitch><duration>32</duration><voice>1</voice><type>eighth</type><staff>1</staff><beam number="1">begin</beam></note><note><pitch><step>E</step><octave>5</octave></pitch><duration>32</duration><voice>1</voice><type>eighth</type><staff>1</staff><beam number="1">continue</beam></note><note><pitch><step>D</step><octave>5</octave></pitch><duration>32</duration><voice>1</voice><type>eighth</type><staff>1</staff><beam number="1">continue</beam></note><note><pitch><step>E</step><octave>5</octave></pitch><duration>32</duration><voice>1</voice><type>eighth</type><staff>1</staff><beam number="1">end</beam></note><backup><duration>192</duration></backup><note><pitch><step>F</step><alter>1</alter><octave>5</octave></pitch><duration>32</duration><voice>2</voice><type>eighth</type><staff>1</staff><beam number="1">begin</beam></note><note><pitch><step>G</step><octave>5</octave></pitch><duration>32</duration><voice>2</voice><type>eighth</type><staff>1</staff><beam number="1">continue</beam></note><note><pitch><step>E</step><octave>5</octave></pitch><duration>32</duration><voice>2</voice><type>eighth</type><staff>1</staff><beam number="1">end</beam></note><note><rest/><duration>32</duration><voice>2</voice><type>eighth</type><staff>1</staff></note><note><rest/><duration>64</duration><voice>2</voice><type>quarter</type><staff>1</staff></note><backup><duration>192</duration></backup><attributes/><note><pitch><step>D</step><octave>4</octave></pitch><duration>64</duration><voice>3</voice><type>quarter</type><staff>2</staff></note><note><pitch><step>C</step><alter>1</alter><octave>4</octave></pitch><duration>64</duration><voice>3</voice><type>quarter</type><staff>2</staff></note><note><pitch><step>A</step><octave>3</octave></pitch><duration>64</duration><voice>3</voice><type>quarter</type><staff>2</staff></note></measure><measure number="24"><note><pitch><step>F</step><alter>1</alter><octave>5</octave></pitch><duration>32</duration><voice>1</voice><type>eighth</type><staff>1</staff><beam number="1">begin</beam></note><note><pitch><step>G</step><octave>5</octave></pitch><duration>32</duration><voice>1</voice><type>eighth</type><staff>1</staff><beam number="1">end</beam></note><note><pitch><step>A</step><octave>5</octave></pitch><duration>128</duration><voice>1</voice><type>half</type><staff>1</staff></note><backup><duration>192</duration></backup><note><rest/><duration>64</duration><voice>2</voice><type>quarter</type><staff>1</staff></note><note><rest/><duration>32</duration><voice>2</voice><type>eighth</type><staff>1</staff></note><note><pitch><step>A</step><octave>4</octave></pitch><duration>32</duration><voice>2</voice><type>eighth</type><staff>1</staff><beam number="1">begin</beam></note><note><chord/><pitch><step>E</step><octave>5</octave></pitch><duration>32</duration><voice>2</voice><type>eighth</type><staff>1</staff><beam number="1">begin</beam></note><note><pitch><step>B</step><octave>4</octave></pitch><duration>32</duration><voice>2</voice><type>eighth</type><staff>1</staff><beam number="1">continue</beam></note><note><chord/><pitch><step>D</step><octave>5</octave></pitch><duration>32</duration><voice>2</voice><type>eighth</type><staff>1</staff><beam number="1">continue</beam></note><note><pitch><step>A</step><octave>4</octave></pitch><duration>32</duration><voice>2</voice><type>eighth</type><staff>1</staff><beam number="1">end</beam></note><note><chord/><pitch><step>E</step><octave>5</octave></pitch><duration>32</duration><voice>2</voice><type>eighth</type><staff>1</staff><beam number="1">end</beam></note><backup><duration>192</duration></backup><attributes/><note><rest/><duration>64</duration><voice>3</voice><type>quarter</type><staff>2</staff></note><note><rest/><duration>32</duration><voice>3</voice><type>eighth</type><staff>2</staff></note><note><pitch><step>C</step><alter>1</alter><octave>4</octave></pitch><duration>32</duration><voice>3</voice><type>eighth</type><staff>2</staff><beam number="1">begin</beam></note><note><pitch><step>B</step><octave>3</octave></pitch><duration>32</duration><voice>3</voice><type>eighth</type><staff>2</staff><beam number="1">continue</beam></note><note><pitch><step>C</step><alter>1</alter><octave>4</octave></pitch><duration>32</duration><voice>3</voice><type>eighth</type><staff>2</staff><beam number="1">end</beam></note></measure><measure number="25"><note><pitch><step>A</step><octave>4</octave></pitch><duration>64</duration><voice>1</voice><type>quarter</type><staff>1</staff></note><note><chord/><pitch><step>A</step><octave>5</octave></pitch><duration>64</duration><voice>1</voice><type>quarter</type><staff>1</staff></note><note><pitch><step>A</step><octave>5</octave></pitch><duration>32</duration><voice>1</voice><type>eighth</type><staff>1</staff><beam number="1">begin</beam></note><direction placement="below"><direction-type><dynamics placement="below"><f/></dynamics></direction-type></direction><note><pitch><step>E</step><octave>5</octave></pitch><duration>32</duration><voice>1</voice><type>eighth</type><staff>1</staff><beam number="1">continue</beam></note><note><pitch><step>D</step><octave>5</octave></pitch><duration>32</duration><voice>1</voice><type>eighth</type><staff>1</staff><beam number="1">continue</beam></note><note><pitch><step>E</step><octave>5</octave></pitch><duration>32</duration><voice>1</voice><type>eighth</type><staff>1</staff><beam number="1">end</beam></note><backup><duration>192</duration></backup><note><pitch><step>F</step><alter>1</alter><octave>5</octave></pitch><duration>32</duration><voice>2</voice><type>eighth</type><staff>1</staff><beam number="1">begin</beam></note><note><pitch><step>G</step><octave>5</octave></pitch><duration>32</duration><voice>2</voice><type>eighth</type><staff>1</staff><beam number="1">continue</beam></note><note><pitch><step>A</step><octave>4</octave></pitch><duration>32</duration><voice>2</voice><type>eighth</type><staff>1</staff><beam number="1">continue</beam></note><note><pitch><step>C</step><alter>1</alter><octave>5</octave></pitch><duration>32</duration><voice>2</voice><type>eighth</type><staff>1</staff><beam number="1">continue</beam></note><note><pitch><step>B</step><octave>4</octave></pitch><duration>32</duration><voice>2</voice><type>eighth</type><staff>1</staff><beam number="1">continue</beam></note><note><pitch><step>C</step><alter>1</alter><octave>5</octave></pitch><duration>32</duration><voice>2</voice><type>eighth</type><staff>1</staff><beam number="1">end</beam></note><backup><duration>192</duration></backup><attributes/><note><pitch><step>D</step><octave>4</octave></pitch><duration>64</duration><voice>3</voice><type>quarter</type><staff>2</staff></note><note><pitch><step>C</step><alter>1</alter><octave>4</octave></pitch><duration>64</duration><voice>3</voice><type>quarter</type><staff>2</staff></note><note><pitch><step>A</step><octave>3</octave></pitch><duration>64</duration><voice>3</voice><type>quarter</type><staff>2</staff></note></measure><measure number="26"><note><pitch><step>D</step><octave>5</octave></pitch><duration>32</duration><voice>1</voice><type>eighth</type><staff>1</staff><beam number="1">begin</beam></note><note><chord/><pitch><step>F</step><alter>1</alter><octave>5</octave></pitch><duration>32</duration><voice>1</voice><type>eighth</type><staff>1</staff><beam number="1">begin</beam></note><note><pitch><step>F</step><alter>1</alter><octave>4</octave></pitch><duration>32</duration><voice>1</voice><type>eighth</type><staff>1</staff><beam number="1">end</beam></note><note><chord/><pitch><step>D</step><octave>5</octave></pitch><duration>32</duration><voice>1</voice><type>eighth</type><staff>1</staff><beam number="1">end</beam></note><note relative-y="30"><rest/><duration>64</duration><voice>1</voice><type>quarter</type><staff>1</staff></note><note relative-y="30"><rest/><duration>64</duration><voice>1</voice><type>quarter</type><staff>1</staff></note><backup><duration>192</duration></backup><note><pitch><step>A</step><octave>4</octave></pitch><duration>64</duration><voice>2</voice><type>quarter</type><staff>1</staff></note><note><pitch><step>G</step><octave>4</octave></pitch><duration>64</duration><voice>2</voice><type>quarter</type><staff>1</staff></note><note><chord/><pitch><step>D</step><octave>5</octave></pitch><duration>64</duration><voice>2</voice><type>quarter</type><staff>1</staff></note><note><chord/><pitch><step>G</step><octave>5</octave></pitch><duration>64</duration><voice>2</voice><type>quarter</type><staff>1</staff></note><note><pitch><step>G</step><octave>4</octave></pitch><duration>64</duration><voice>2</voice><type>quarter</type><staff>1</staff></note><note><chord/><pitch><step>B</step><octave>4</octave></pitch><duration>64</duration><voice>2</voice><type>quarter</type><staff>1</staff></note><note><chord/><pitch><step>G</step><octave>5</octave></pitch><duration>64</duration><voice>2</voice><type>quarter</type><staff>1</staff></note><backup><duration>192</duration></backup><attributes/><note><pitch><step>D</step><octave>4</octave></pitch><duration>64</duration><voice>3</voice><type>quarter</type><staff>2</staff></note><note><pitch><step>B</step><octave>3</octave></pitch><duration>64</duration><voice>3</voice><type>quarter</type><staff>2</staff></note><note><pitch><step>E</step><octave>4</octave></pitch><duration>64</duration><voice>3</voice><type>quarter</type><staff>2</staff></note></measure><measure number="27"><note relative-y="30"><rest/><duration>64</duration><voice>1</voice><type>quarter</type><staff>1</staff></note><note><rest/><duration>64</duration><voice>1</voice><type>quarter</type><staff>1</staff></note><note><pitch><step>D</step><octave>5</octave></pitch><duration>32</duration><voice>1</voice><type>eighth</type><staff>1</staff><beam number="1">begin</beam></note><note><chord/><pitch><step>F</step><alter>1</alter><octave>5</octave></pitch><duration>32</duration><voice>1</voice><type>eighth</type><staff>1</staff><beam number="1">begin</beam></note><note><pitch><step>C</step><alter>1</alter><octave>5</octave></pitch><duration>32</duration><voice>1</voice><type>eighth</type><staff>1</staff><beam number="1">end</beam></note><note><chord/><pitch><step>E</step><octave>5</octave></pitch><duration>32</duration><voice>1</voice><type>eighth</type><staff>1</staff><beam number="1">end</beam></note><backup><duration>192</duration></backup><note><pitch><step>C</step><alter>1</alter><octave>5</octave></pitch><duration>96</duration><voice>2</voice><type>quarter</type><dot/><staff>1</staff></note><note><chord/><pitch><step>G</step><octave>5</octave></pitch><duration>96</duration><voice>2</voice><type>quarter</type><dot/><staff>1</staff></note><note><pitch><step>A</step><octave>4</octave></pitch><duration>32</duration><voice>2</voice><type>eighth</type><staff>1</staff></note><note><chord/><pitch><step>E</step><octave>5</octave></pitch><duration>32</duration><voice>2</voice><type>eighth</type><staff>1</staff></note><note><chord/><pitch><step>A</step><octave>5</octave></pitch><duration>32</duration><voice>2</voice><type>eighth</type><staff>1</staff></note><note><pitch><step>A</step><octave>4</octave></pitch><duration>64</duration><voice>2</voice><type>quarter</type><staff>1</staff></note><backup><duration>192</duration></backup><attributes/><note><pitch><step>A</step><octave>3</octave></pitch><duration>96</duration><voice>3</voice><type>quarter</type><dot/><staff>2</staff></note><note><pitch><step>C</step><alter>1</alter><octave>4</octave></pitch><duration>32</duration><voice>3</voice><type>eighth</type><staff>2</staff></note><note><pitch><step>D</step><octave>4</octave></pitch><duration>64</duration><voice>3</voice><type>quarter</type><staff>2</staff></note></measure><measure number="28"><note><pitch><step>F</step><alter>1</alter><octave>5</octave></pitch><duration>32</duration><voice>1</voice><type>eighth</type><staff>1</staff><beam number="1">begin</beam></note><note><pitch><step>E</step><octave>5</octave></pitch><duration>32</duration><voice>1</voice><type>eighth</type><staff>1</staff><beam number="1">end</beam></note><note><chord/><pitch><step>G</step><octave>5</octave></pitch><duration>32</duration><voice>1</voice><type>eighth</type><staff>1</staff><beam number="1">end</beam></note><note><pitch><step>C</step><alter>1</alter><octave>5</octave></pitch><duration>96</duration><voice>1</voice><type>quarter</type><dot/><staff>1</staff><notations><slur default-x="0.65" default-y="7" number="1" placement="above" type="start"/></notations></note><note><chord/><pitch><step>E</step><octave>5</octave></pitch><duration>96</duration><voice>1</voice><type>quarter</type><dot/><staff>1</staff><notations><slur default-x="0.65" default-y="6.5" number="1" type="stop"/></notations></note><note><pitch><step>D</step><octave>5</octave></pitch><duration>32</duration><voice>1</voice><type>eighth</type><staff>1</staff></note><backup><duration>192</duration></backup><note><pitch><step>D</step><octave>5</octave></pitch><duration>32</duration><voice>2</voice><type>eighth</type><staff>1</staff><beam number="1">begin</beam></note><note><pitch><step>B</step><octave>4</octave></pitch><duration>32</duration><voice>2</voice><type>eighth</type><staff>1</staff><beam number="1">end</beam></note><note><pitch><step>A</step><octave>4</octave></pitch><duration>64</duration><voice>2</voice><type>quarter</type><staff>1</staff></note><note><pitch><step>A</step><octave>4</octave></pitch><duration>64</duration><voice>2</voice><type>quarter</type><staff>1</staff></note><backup><duration>192</duration></backup><attributes/><note><pitch><step>G</step><octave>3</octave></pitch><duration>64</duration><voice>3</voice><type>quarter</type><staff>2</staff></note><note><pitch><step>A</step><octave>3</octave></pitch><duration>64</duration><voice>3</voice><type>quarter</type><staff>2</staff></note><note><pitch><step>A</step><octave>2</octave></pitch><duration>64</duration><voice>3</voice><type>quarter</type><staff>2</staff></note></measure><measure number="29"><note><pitch><step>D</step><octave>5</octave></pitch><duration>128</duration><voice>1</voice><type>half</type><staff>1</staff></note><note relative-y="-20"><rest/><duration>64</duration><voice>1</voice><type>quarter</type><staff>1</staff></note><backup><duration>192</duration></backup><note><pitch><step>F</step><alter>1</alter><octave>4</octave></pitch><duration>128</duration><voice>2</voice><type>half</type><staff>1</staff></note><note relative-y="20"><rest/><duration>64</duration><voice>2</voice><type>quarter</type><staff>1</staff></note><backup><duration>192</duration></backup><attributes/><note><pitch><step>D</step><octave>3</octave></pitch><duration>128</duration><voice>3</voice><type>half</type><staff>2</staff></note><note><rest/><duration>64</duration><voice>3</voice><type>quarter</type><staff>2</staff></note></measure><measure number="30"><note><rest/><duration>192</duration><voice>1</voice><type>whole</type><staff>1</staff></note><backup><duration>192</duration></backup><attributes/><note><rest/><duration>192</duration><voice>3</voice><type>whole</type><staff>2</staff></note></measure><measure number="31"><note><rest/><duration>64</duration><voice>1</voice><type>quarter</type><staff>1</staff></note><note><rest/><duration>64</duration><voice>1</voice><type>quarter</type><staff>1</staff></note><note><pitch><step>A</step><octave>3</octave></pitch><duration>48</duration><voice>1</voice><type>eighth</type><dot/><staff>1</staff><beam number="1">begin</beam></note><note><chord/><pitch><step>D</step><octave>4</octave></pitch><duration>48</duration><voice>1</voice><type>eighth</type><dot/><staff>1</staff><beam number="1">begin</beam></note><note><pitch><step>A</step><octave>3</octave></pitch><duration>16</duration><voice>1</voice><type>16th</type><staff>1</staff><beam number="1">end</beam></note><note><chord/><pitch><step>D</step><octave>4</octave></pitch><duration>16</duration><voice>1</voice><type>16th</type><staff>1</staff><beam number="1">end</beam></note><backup><duration>192</duration></backup><attributes/><note><rest/><duration>64</duration><voice>3</voice><type>quarter</type><staff>2</staff></note><note><rest/><duration>64</duration><voice>3</voice><type>quarter</type><staff>2</staff></note><note><pitch><step>D</step><octave>3</octave></pitch><duration>48</duration><voice>3</voice><type>eighth</type><dot/><staff>2</staff><beam number="1">begin</beam></note><note><chord/><pitch><step>F</step><alter>1</alter><octave>3</octave></pitch><duration>48</duration><voice>3</voice><type>eighth</type><dot/><staff>2</staff><beam number="1">begin</beam></note><note><pitch><step>D</step><octave>3</octave></pitch><duration>16</duration><voice>3</voice><type>16th</type><staff>2</staff><beam number="1">end</beam></note><note><chord/><pitch><step>F</step><alter>1</alter><octave>3</octave></pitch><duration>16</duration><voice>3</voice><type>16th</type><staff>2</staff><beam number="1">end</beam></note></measure><measure number="32"><note><pitch><step>D</step><octave>4</octave></pitch><duration>64</duration><voice>1</voice><type>quarter</type><staff>1</staff></note><note><chord/><pitch><step>F</step><alter>1</alter><octave>4</octave></pitch><duration>64</duration><voice>1</voice><type>quarter</type><staff>1</staff></note><note><rest/><duration>32</duration><voice>1</voice><type>eighth</type><staff>1</staff></note><note><pitch><step>D</step><octave>4</octave></pitch><duration>32</duration><voice>1</voice><type>eighth</type><staff>1</staff><beam number="1">begin</beam></note><note><chord/><pitch><step>F</step><alter>1</alter><octave>4</octave></pitch><duration>32</duration><voice>1</voice><type>eighth</type><staff>1</staff><beam number="1">begin</beam></note><note><pitch><step>D</step><octave>4</octave></pitch><duration>48</duration><voice>1</voice><type>eighth</type><dot/><staff>1</staff><beam number="1">continue</beam></note><note><chord/><pitch><step>F</step><alter>1</alter><octave>4</octave></pitch><duration>48</duration><voice>1</voice><type>eighth</type><dot/><staff>1</staff><beam number="1">continue</beam></note><note><pitch><step>D</step><octave>4</octave></pitch><duration>16</duration><voice>1</voice><type>16th</type><staff>1</staff><beam number="1">end</beam></note><note><chord/><pitch><step>F</step><alter>1</alter><octave>4</octave></pitch><duration>16</duration><voice>1</voice><type>16th</type><staff>1</staff><beam number="1">end</beam></note><backup><duration>192</duration></backup><attributes/><note><pitch><step>D</step><octave>3</octave></pitch><duration>64</duration><voice>3</voice><type>quarter</type><staff>2</staff></note><note><chord/><pitch><step>A</step><octave>3</octave></pitch><duration>64</duration><voice>3</voice><type>quarter</type><staff>2</staff></note><note><rest/><duration>32</duration><voice>3</voice><type>eighth</type><staff>2</staff></note><note><pitch><step>D</step><octave>3</octave></pitch><duration>32</duration><voice>3</voice><type>eighth</type><staff>2</staff><beam number="1">begin</beam></note><note><chord/><pitch><step>A</step><octave>3</octave></pitch><duration>32</duration><voice>3</voice><type>eighth</type><staff>2</staff><beam number="1">begin</beam></note><note><pitch><step>D</step><octave>3</octave></pitch><duration>48</duration><voice>3</voice><type>eighth</type><dot/><staff>2</staff><beam number="1">continue</beam></note><note><chord/><pitch><step>A</step><octave>3</octave></pitch><duration>48</duration><voice>3</voice><type>eighth</type><dot/><staff>2</staff><beam number="1">continue</beam></note><note><pitch><step>D</step><octave>3</octave></pitch><duration>16</duration><voice>3</voice><type>16th</type><staff>2</staff><beam number="1">end</beam></note><note><chord/><pitch><step>A</step><octave>3</octave></pitch><duration>16</duration><voice>3</voice><type>16th</type><staff>2</staff><beam number="1">end</beam></note></measure><measure number="33"><note><pitch><step>E</step><octave>4</octave></pitch><duration>64</duration><voice>1</voice><type>quarter</type><staff>1</staff></note><note><chord/><pitch><step>A</step><octave>4</octave></pitch><duration>64</duration><voice>1</voice><type>quarter</type><staff>1</staff></note><note><rest/><duration>32</duration><voice>1</voice><type>eighth</type><staff>1</staff></note><note><pitch><step>E</step><octave>4</octave></pitch><duration>32</duration><voice>1</voice><type>eighth</type><staff>1</staff><beam number="1">begin</beam></note><note><chord/><pitch><step>A</step><octave>4</octave></pitch><duration>32</duration><voice>1</voice><type>eighth</type><staff>1</staff><beam number="1">begin</beam></note><note><pitch><step>E</step><octave>4</octave></pitch><duration>48</duration><voice>1</voice><type>eighth</type><dot/><staff>1</staff><beam number="1">continue</beam></note><note><chord/><pitch><step>A</step><octave>4</octave></pitch><duration>48</duration><voice>1</voice><type>eighth</type><dot/><staff>1</staff><beam number="1">continue</beam></note><note><pitch><step>E</step><octave>4</octave></pitch><duration>16</duration><voice>1</voice><type>16th</type><staff>1</staff><beam number="1">end</beam></note><note><chord/><pitch><step>A</step><octave>4</octave></pitch><duration>16</duration><voice>1</voice><type>16th</type><staff>1</staff><beam number="1">end</beam></note><backup><duration>192</duration></backup><attributes/><note><pitch><step>C</step><alter>1</alter><octave>3</octave></pitch><duration>64</duration><voice>3</voice><type>quarter</type><staff>2</staff></note><note><chord/><pitch><step>A</step><octave>3</octave></pitch><duration>64</duration><voice>3</voice><type>quarter</type><staff>2</staff></note><note><rest/><duration>32</duration><voice>3</voice><type>eighth</type><staff>2</staff></note><note><pitch><step>C</step><alter>1</alter><octave>3</octave></pitch><duration>32</duration><voice>3</voice><type>eighth</type><staff>2</staff><beam number="1">begin</beam></note><note><chord/><pitch><step>A</step><octave>3</octave></pitch><duration>32</duration><voice>3</voice><type>eighth</type><staff>2</staff><beam number="1">begin</beam></note><note><pitch><step>C</step><alter>1</alter><octave>3</octave></pitch><duration>48</duration><voice>3</voice><type>eighth</type><dot/><staff>2</staff><beam number="1">continue</beam></note><note><chord/><pitch><step>A</step><octave>3</octave></pitch><duration>48</duration><voice>3</voice><type>eighth</type><dot/><staff>2</staff><beam number="1">continue</beam></note><note><pitch><step>C</step><alter>1</alter><octave>3</octave></pitch><duration>16</duration><voice>3</voice><type>16th</type><staff>2</staff><beam number="1">end</beam></note><note><chord/><pitch><step>A</step><octave>3</octave></pitch><duration>16</duration><voice>3</voice><type>16th</type><staff>2</staff><beam number="1">end</beam></note></measure><measure number="34"><note><pitch><step>D</step><octave>4</octave></pitch><duration>96</duration><voice>1</voice><type>quarter</type><dot/><staff>1</staff></note><note><chord/><pitch><step>D</step><octave>5</octave></pitch><duration>96</duration><voice>1</voice><type>quarter</type><dot/><staff>1</staff></note><note><pitch><step>F</step><alter>1</alter><octave>3</octave></pitch><duration>32</duration><voice>1</voice><type>eighth</type><staff>1</staff><beam number="1">begin</beam></note><note><chord/><pitch><step>D</step><octave>4</octave></pitch><duration>32</duration><voice>1</voice><type>eighth</type><staff>1</staff><beam number="1">begin</beam></note><note><pitch><step>F</step><alter>1</alter><octave>3</octave></pitch><duration>48</duration><voice>1</voice><type>eighth</type><dot/><staff>1</staff><beam number="1">continue</beam></note><note><chord/><pitch><step>D</step><octave>4</octave></pitch><duration>48</duration><voice>1</voice><type>eighth</type><dot/><staff>1</staff><beam number="1">continue</beam></note><note><pitch><step>F</step><alter>1</alter><octave>3</octave></pitch><duration>16</duration><voice>1</voice><type>16th</type><staff>1</staff><beam number="1">end</beam></note><note><chord/><pitch><step>D</step><octave>4</octave></pitch><duration>16</duration><voice>1</voice><type>16th</type><staff>1</staff><beam number="1">end</beam></note><backup><duration>192</duration></backup><attributes/><note><pitch><step>B</step><octave>2</octave></pitch><duration>96</duration><voice>3</voice><type>quarter</type><dot/><staff>2</staff></note><note><chord/><pitch><step>F</step><alter>1</alter><octave>3</octave></pitch><duration>96</duration><voice>3</voice><type>quarter</type><dot/><staff>2</staff></note><note><pitch><step>B</step><octave>2</octave></pitch><duration>32</duration><voice>3</voice><type>eighth</type><staff>2</staff><beam number="1">begin</beam></note><note><chord/><pitch><step>D</step><octave>3</octave></pitch><duration>32</duration><voice>3</voice><type>eighth</type><staff>2</staff><beam number="1">begin</beam></note><note><pitch><step>B</step><octave>2</octave></pitch><duration>48</duration><voice>3</voice><type>eighth</type><dot/><staff>2</staff><beam number="1">continue</beam></note><note><chord/><pitch><step>D</step><octave>3</octave></pitch><duration>48</duration><voice>3</voice><type>eighth</type><dot/><staff>2</staff><beam number="1">continue</beam></note><note><pitch><step>B</step><octave>2</octave></pitch><duration>16</duration><voice>3</voice><type>16th</type><staff>2</staff><beam number="1">end</beam></note><note><chord/><pitch><step>D</step><octave>3</octave></pitch><duration>16</duration><voice>3</voice><type>16th</type><staff>2</staff><beam number="1">end</beam></note></measure><measure number="35"><note><pitch><step>A</step><octave>3</octave></pitch><duration>128</duration><voice>1</voice><type>half</type><staff>1</staff></note><note><chord/><pitch><step>C</step><alter>1</alter><octave>4</octave></pitch><duration>128</duration><voice>1</voice><type>half</type><staff>1</staff></note><note><pitch><step>C</step><alter>1</alter><octave>4</octave></pitch><duration>64</duration><voice>1</voice><type>quarter</type><staff>1</staff></note><note><chord/><pitch><step>E</step><octave>4</octave></pitch><duration>64</duration><voice>1</voice><type>quarter</type><staff>1</staff></note><note><chord/><pitch><step>A</step><octave>4</octave></pitch><duration>64</duration><voice>1</voice><type>quarter</type><staff>1</staff></note><backup><duration>192</duration></backup><attributes/><note><pitch><step>E</step><octave>3</octave></pitch><duration>128</duration><voice>3</voice><type>half</type><staff>2</staff></note><note><rest/><duration>64</duration><voice>3</voice><type>quarter</type><staff>2</staff></note><backup><duration>192</duration></backup><note><pitch><step>A</step><octave>2</octave></pitch><duration>96</duration><voice>4</voice><type>quarter</type><dot/><staff>2</staff></note><note><pitch><step>B</step><octave>2</octave></pitch><duration>32</duration><voice>4</voice><type>eighth</type><staff>2</staff><beam number="1">begin</beam></note><note><pitch><step>A</step><octave>2</octave></pitch><duration>48</duration><voice>4</voice><type>eighth</type><dot/><staff>2</staff><beam number="1">continue</beam></note><note><pitch><step>G</step><octave>2</octave></pitch><duration>16</duration><voice>4</voice><type>16th</type><staff>2</staff><beam number="1">end</beam></note></measure><measure number="36"><note><rest/><duration>192</duration><voice>1</voice><type>whole</type><staff>1</staff></note><backup><duration>192</duration></backup><attributes/><note><rest/><duration>192</duration><voice>3</voice><type>whole</type><staff>2</staff></note><barline location="right"><bar-style>light-heavy</bar-style></barline></measure></part></score-partwise>