<?xml version="1.0" encoding="UTF-8"?>
<!DOCTYPE score-partwise PUBLIC "-//Recordare//DTD MusicXML 2.0 Partwise//EN"
  "http://www.musicxml.org/dtds/partwise.dtd">
<score-partwise version="2.0"><work><work-title>The Barber of Seville Overture</work-title></work><identification><creator type="composer">Gioacchino Rossini</creator><creator type="lyricist"/><rights/><encoding><software>Noteflight version 0.4</software><encoding-date>2024-02-18</encoding-date><supports attribute="new-system" element="print" type="no" value="no"/><supports attribute="new-page" element="print" type="no" value="no"/></encoding></identification><defaults><scaling><millimeters>2.1166666679999997</millimeters><tenths>10</tenths></scaling><page-layout><page-height>1320</page-height><page-width>1020</page-width><page-margins type="both"><left-margin>59.583333333333336</left-margin><right-margin>56.66666666666667</right-margin><top-margin>96.66666666666667</top-margin><bottom-margin>80</bottom-margin></page-margins></page-layout><system-layout><system-margins><left-margin>59.583333333333336</left-margin><right-margin>26.666666666666668</right-margin></system-margins><system-distance>92.5</system-distance><top-system-distance>145.83333333333334</top-system-distance></system-layout><staff-layout><staff-distance>55</staff-distance></staff-layout></defaults><credit page="1"><credit-type>title</credit-type><credit-words font-size="24" default-x="510" default-y="1210" justify="right" valign="top">The Barber of Seville Overture</credit-words></credit><credit page="1"><credit-type>composer</credit-type><credit-words font-size="12" default-x="918" default-y="1210" justify="right" valign="top">Gioacchino Rossini</credit-words></credit><part-list><score-part id="P1"><part-name>Trumpet</part-name><part-abbreviation>Tpt.</part-abbreviation><score-instrument id="P1I1"><instrument-name>Trumpet</instrument-name><instrument-sound>brass.trumpet</instrument-sound></score-instrument><midi-instrument id="P1I1"><midi-channel>1</midi-channel><midi-program>57</midi-program></midi-instrument></score-part></part-list><part id="P1"><measure number="1"><attributes><divisions>64</divisions><key><fifths>2</fifths><mode>major</mode></key><time print-object="yes"><beats>4</beats><beat-type>4</beat-type></time><clef number="1"><sign>G</sign><line>2</line></clef><transpose><diatonic>-1</diatonic><chromatic>-2</chromatic></transpose></attributes><direction placement="above"><direction-type><metronome><beat-unit>quarter</beat-unit><per-minute>136</per-minute></metronome></direction-type><sound tempo="136"/></direction><direction placement="above"><direction-type><metronome><beat-unit>quarter</beat-unit><per-minute>136</per-minute></metronome></direction-type><sound tempo="136"/></direction><note><pitch><step>G</step><alter>1</alter><octave>4</octave></pitch><duration>16</duration><voice>1</voice><type>16th</type><accidental>sharp</accidental></note></measure><measure number="2"><attributes><time print-object="yes"><beats>4</beats><beat-type>4</beat-type></time></attributes><note><pitch><step>G</step><alter>1</alter><octave>4</octave></pitch><duration>64</duration><voice>1</voice><type>quarter</type><accidental>sharp</accidental></note><note><rest/><duration>64</duration><voice>1</voice><type>quarter</type></note><note><rest/><duration>128</duration><voice>1</voice><type>half</type></note></measure><measure number="3"><attributes/><note><rest/><duration>64</duration><voice>1</voice><type>quarter</type></note><note><rest/><duration>48</duration><voice>1</voice><type>eighth</type><dot/></note><note><pitch><step>D</step><alter>1</alter><octave>5</octave></pitch><duration>16</duration><voice>1</voice><type>16th</type><accidental>sharp</accidental></note><note><pitch><step>D</step><alter>1</alter><octave>5</octave></pitch><duration>64</duration><voice>1</voice><type>quarter</type></note><note><rest/><duration>64</duration><voice>1</voice><type>quarter</type></note></measure><measure number="4"><attributes/><direction placement="above"><direction-type><words>6</words></direction-type></direction><note><rest/><duration>128</duration><voice>1</voice><type>half</type></note><note><pitch><step>D</step><alter>1</alter><octave>5</octave></pitch><duration>128</duration><voice>1</voice><type>half</type><accidental>sharp</accidental><notations><slur default-x="0.65" default-y="3.5" number="1" placement="above" type="start"/></notations></note></measure><measure number="5"><attributes/><direction placement="above"><direction-type><words enclosure="rectangle">A</words></direction-type></direction><note><pitch><step>G</step><alter>1</alter><octave>4</octave></pitch><duration>32</duration><voice>1</voice><type>eighth</type><accidental>sharp</accidental></note><note><rest/><duration>32</duration><voice>1</voice><type>eighth</type></note><note><rest/><duration>64</duration><voice>1</voice><type>quarter</type><notations><slur default-x="0.013501790364583766" default-y="2.9270833333333335" number="1" type="stop"/></notations></note><note><rest/><duration>128</duration><voice>1</voice><type>half</type></note></measure><measure number="6"><attributes/><direction placement="above"><direction-type><words>5</words></direction-type></direction><note><rest/><duration>256</duration><voice>1</voice><type>whole</type></note></measure><measure number="7"><attributes/><note><rest/><duration>128</duration><voice>1</voice><type>half</type></note><note><rest/><duration>64</duration><voice>1</voice><type>quarter</type></note><note><rest/><duration>32</duration><voice>1</voice><type>eighth</type></note><note><pitch><step>G</step><alter>1</alter><octave>4</octave></pitch><duration>32</duration><voice>1</voice><type>eighth</type><accidental>sharp</accidental></note></measure><measure number="8"><attributes/><note><pitch><step>C</step><alter>1</alter><octave>5</octave></pitch><duration>32</duration><voice>1</voice><type>eighth</type></note><note><rest/><duration>32</duration><voice>1</voice><type>eighth</type></note><note><rest/><duration>64</duration><voice>1</voice><type>quarter</type></note><note><rest/><duration>64</duration><voice>1</voice><type>quarter</type></note><note><rest/><duration>32</duration><voice>1</voice><type>eighth</type></note><note><pitch><step>E</step><alter>1</alter><octave>5</octave></pitch><duration>32</duration><voice>1</voice><type>eighth</type><accidental>sharp</accidental></note><direction placement="above"><direction-type><words enclosure="rectangle">B</words></direction-type></direction></measure><measure number="9"><attributes/><note><pitch><step>D</step><alter>1</alter><octave>5</octave></pitch><duration>32</duration><voice>1</voice><type>eighth</type><accidental>sharp</accidental></note><note><rest/><duration>32</duration><voice>1</voice><type>eighth</type></note><note><rest/><duration>64</duration><voice>1</voice><type>quarter</type></note><note><rest/><duration>128</duration><voice>1</voice><type>half</type></note></measure><measure number="10"><attributes/><direction placement="above"><direction-type><words>3</words></direction-type></direction><note><rest/><duration>256</duration><voice>1</voice><type>whole</type></note></measure><measure number="11"><attributes/><note><rest/><duration>64</duration><voice>1</voice><type>quarter</type></note><note><rest/><duration>48</duration><voice>1</voice><type>eighth</type><dot/></note><note><pitch><step>D</step><alter>1</alter><octave>5</octave></pitch><duration>16</duration><voice>1</voice><type>16th</type><accidental>sharp</accidental></note><note><pitch><step>D</step><alter>1</alter><octave>5</octave></pitch><duration>64</duration><voice>1</voice><type>quarter</type></note><note><rest/><duration>48</duration><voice>1</voice><type>eighth</type><dot/></note><note><pitch><step>D</step><alter>1</alter><octave>5</octave></pitch><duration>16</duration><voice>1</voice><type>16th</type></note></measure><measure number="12"><attributes/><note><pitch><step>D</step><alter>1</alter><octave>5</octave></pitch><duration>256</duration><voice>1</voice><type>whole</type><accidental>sharp</accidental></note></measure><measure number="13"><attributes/><direction placement="above"><direction-type><words>23</words></direction-type></direction><note><rest/><duration>256</duration><voice>1</voice><type>whole</type></note><direction placement="above"><direction-type><words enclosure="rectangle">C</words></direction-type></direction></measure><measure number="14"><attributes><time print-object="yes" symbol="cut"><beats>2</beats><beat-type>2</beat-type></time></attributes><note><rest/><duration>32</duration><voice>1</voice><type>eighth</type></note><note><pitch><step>G</step><alter>1</alter><octave>4</octave></pitch><duration>16</duration><voice>1</voice><type>16th</type><accidental>sharp</accidental><beam number="1">begin</beam></note><note><pitch><step>G</step><alter>1</alter><octave>4</octave></pitch><duration>16</duration><voice>1</voice><type>16th</type><beam number="1">end</beam></note><note><pitch><step>G</step><alter>1</alter><octave>4</octave></pitch><duration>32</duration><voice>1</voice><type>eighth</type><beam number="1">begin</beam></note><note><pitch><step>G</step><alter>1</alter><octave>4</octave></pitch><duration>32</duration><voice>1</voice><type>eighth</type><beam number="1">end</beam></note><note><pitch><step>G</step><alter>1</alter><octave>4</octave></pitch><duration>64</duration><voice>1</voice><type>quarter</type></note><note><rest/><duration>64</duration><voice>1</voice><type>quarter</type></note></measure><measure number="15"><attributes/><note><rest/><duration>32</duration><voice>1</voice><type>eighth</type></note><note><pitch><step>G</step><alter>1</alter><octave>4</octave></pitch><duration>16</duration><voice>1</voice><type>16th</type><accidental>sharp</accidental><beam number="1">begin</beam></note><note><pitch><step>G</step><alter>1</alter><octave>4</octave></pitch><duration>16</duration><voice>1</voice><type>16th</type><beam number="1">end</beam></note><note><pitch><step>G</step><alter>1</alter><octave>4</octave></pitch><duration>32</duration><voice>1</voice><type>eighth</type><beam number="1">begin</beam></note><note><pitch><step>G</step><alter>1</alter><octave>4</octave></pitch><duration>32</duration><voice>1</voice><type>eighth</type><beam number="1">end</beam></note><note><pitch><step>G</step><alter>1</alter><octave>4</octave></pitch><duration>64</duration><voice>1</voice><type>quarter</type></note><note><rest/><duration>64</duration><voice>1</voice><type>quarter</type></note></measure><measure number="16"><attributes/><direction placement="above"><direction-type><words>2</words></direction-type></direction><note><rest/><duration>256</duration><voice>1</voice><type>whole</type></note></measure><measure number="17"><attributes/><note><rest/><duration>32</duration><voice>1</voice><type>eighth</type></note><note><pitch><step>D</step><alter>1</alter><octave>5</octave></pitch><duration>16</duration><voice>1</voice><type>16th</type><accidental>sharp</accidental><beam number="1">begin</beam></note><note><pitch><step>D</step><alter>1</alter><octave>5</octave></pitch><duration>16</duration><voice>1</voice><type>16th</type><beam number="1">end</beam></note><note><pitch><step>D</step><alter>1</alter><octave>5</octave></pitch><duration>32</duration><voice>1</voice><type>eighth</type><beam number="1">begin</beam></note><note><pitch><step>D</step><alter>1</alter><octave>5</octave></pitch><duration>32</duration><voice>1</voice><type>eighth</type><beam number="1">end</beam></note><note><pitch><step>D</step><alter>1</alter><octave>5</octave></pitch><duration>64</duration><voice>1</voice><type>quarter</type></note><note><rest/><duration>64</duration><voice>1</voice><type>quarter</type></note></measure><measure number="18"><attributes/><note><rest/><duration>32</duration><voice>1</voice><type>eighth</type></note><note><pitch><step>D</step><alter>1</alter><octave>5</octave></pitch><duration>16</duration><voice>1</voice><type>16th</type><accidental>sharp</accidental><beam number="1">begin</beam></note><note><pitch><step>D</step><alter>1</alter><octave>5</octave></pitch><duration>16</duration><voice>1</voice><type>16th</type><beam number="1">end</beam></note><note><pitch><step>D</step><alter>1</alter><octave>5</octave></pitch><duration>32</duration><voice>1</voice><type>eighth</type><beam number="1">begin</beam></note><note><pitch><step>D</step><alter>1</alter><octave>5</octave></pitch><duration>32</duration><voice>1</voice><type>eighth</type><beam number="1">end</beam></note><note><pitch><step>D</step><alter>1</alter><octave>5</octave></pitch><duration>64</duration><voice>1</voice><type>quarter</type></note><note><rest/><duration>64</duration><voice>1</voice><type>quarter</type></note></measure><measure number="19"><attributes/><direction placement="above"><direction-type><words>2</words></direction-type></direction><note><rest/><duration>256</duration><voice>1</voice><type>whole</type></note></measure><measure number="20"><attributes/><note><rest/><duration>32</duration><voice>1</voice><type>eighth</type></note><note><pitch><step>G</step><alter>1</alter><octave>4</octave></pitch><duration>16</duration><voice>1</voice><type>16th</type><accidental>sharp</accidental><beam number="1">begin</beam></note><note><pitch><step>G</step><alter>1</alter><octave>4</octave></pitch><duration>16</duration><voice>1</voice><type>16th</type><beam number="1">end</beam></note><note><pitch><step>G</step><alter>1</alter><octave>4</octave></pitch><duration>32</duration><voice>1</voice><type>eighth</type><beam number="1">begin</beam></note><note><pitch><step>G</step><alter>1</alter><octave>4</octave></pitch><duration>32</duration><voice>1</voice><type>eighth</type><beam number="1">end</beam></note><note><pitch><step>G</step><alter>1</alter><octave>4</octave></pitch><duration>64</duration><voice>1</voice><type>quarter</type></note><note><rest/><duration>64</duration><voice>1</voice><type>quarter</type></note></measure><measure number="21"><attributes/><note><rest/><duration>32</duration><voice>1</voice><type>eighth</type></note><note><pitch><step>G</step><alter>1</alter><octave>4</octave></pitch><duration>16</duration><voice>1</voice><type>16th</type><accidental>sharp</accidental><beam number="1">begin</beam></note><note><pitch><step>G</step><alter>1</alter><octave>4</octave></pitch><duration>16</duration><voice>1</voice><type>16th</type><beam number="1">end</beam></note><note><pitch><step>G</step><alter>1</alter><octave>4</octave></pitch><duration>32</duration><voice>1</voice><type>eighth</type><beam number="1">begin</beam></note><note><pitch><step>G</step><alter>1</alter><octave>4</octave></pitch><duration>32</duration><voice>1</voice><type>eighth</type><beam number="1">end</beam></note><note><pitch><step>G</step><alter>1</alter><octave>4</octave></pitch><duration>64</duration><voice>1</voice><type>quarter</type></note><note><rest/><duration>64</duration><voice>1</voice><type>quarter</type></note></measure><measure number="22"><attributes/><direction placement="above"><direction-type><words>2</words></direction-type></direction><note><rest/><duration>256</duration><voice>1</voice><type>whole</type></note></measure><measure number="23"><attributes/><note><rest/><duration>32</duration><voice>1</voice><type>eighth</type></note><note><pitch><step>C</step><alter>1</alter><octave>5</octave></pitch><duration>16</duration><voice>1</voice><type>16th</type><beam number="1">begin</beam></note><note><pitch><step>C</step><alter>1</alter><octave>5</octave></pitch><duration>16</duration><voice>1</voice><type>16th</type><beam number="1">end</beam></note><note><pitch><step>C</step><alter>1</alter><octave>5</octave></pitch><duration>32</duration><voice>1</voice><type>eighth</type><beam number="1">begin</beam></note><note><pitch><step>C</step><alter>1</alter><octave>5</octave></pitch><duration>32</duration><voice>1</voice><type>eighth</type><beam number="1">end</beam></note><note><pitch><step>C</step><alter>1</alter><octave>5</octave></pitch><duration>64</duration><voice>1</voice><type>quarter</type></note><note><rest/><duration>64</duration><voice>1</voice><type>quarter</type></note></measure><measure number="24"><attributes/><note><rest/><duration>32</duration><voice>1</voice><type>eighth</type></note><note><pitch><step>C</step><alter>1</alter><octave>5</octave></pitch><duration>16</duration><voice>1</voice><type>16th</type><beam number="1">begin</beam></note><note><pitch><step>C</step><alter>1</alter><octave>5</octave></pitch><duration>16</duration><voice>1</voice><type>16th</type><beam number="1">end</beam></note><note><pitch><step>C</step><alter>1</alter><octave>5</octave></pitch><duration>32</duration><voice>1</voice><type>eighth</type><beam number="1">begin</beam></note><note><pitch><step>C</step><alter>1</alter><octave>5</octave></pitch><duration>32</duration><voice>1</voice><type>eighth</type><beam number="1">end</beam></note><note><pitch><step>C</step><alter>1</alter><octave>5</octave></pitch><duration>64</duration><voice>1</voice><type>quarter</type></note><note><rest/><duration>64</duration><voice>1</voice><type>quarter</type></note></measure><measure number="25"><attributes/><direction placement="above"><direction-type><words>5</words></direction-type></direction><note><rest/><duration>256</duration><voice>1</voice><type>whole</type></note></measure><measure number="26"><attributes/><note><rest/><duration>64</duration><voice>1</voice><type>quarter</type></note><note><pitch><step>G</step><alter>1</alter><octave>4</octave></pitch><duration>128</duration><voice>1</voice><type>half</type><accidental>sharp</accidental></note><note><rest/><duration>64</duration><voice>1</voice><type>quarter</type></note></measure><measure number="27"><attributes/><direction placement="above"><direction-type><words>8</words></direction-type></direction><note><rest/><duration>256</duration><voice>1</voice><type>whole</type></note></measure><measure number="28"><attributes/><note><rest/><duration>64</duration><voice>1</voice><type>quarter</type></note><note><pitch><step>C</step><alter>1</alter><octave>5</octave></pitch><duration>64</duration><voice>1</voice><type>quarter</type></note><note><rest/><duration>128</duration><voice>1</voice><type>half</type></note></measure><measure number="29"><attributes/><note><rest/><duration>256</duration><voice>1</voice><type>whole</type></note></measure><measure number="30"><attributes/><note><rest/><duration>64</duration><voice>1</voice><type>quarter</type></note><note><pitch><step>C</step><alter>1</alter><octave>5</octave></pitch><duration>64</duration><voice>1</voice><type>quarter</type></note><note><rest/><duration>128</duration><voice>1</voice><type>half</type></note></measure><measure number="31"><attributes/><direction placement="above"><direction-type><words>12</words></direction-type></direction><note><rest/><duration>256</duration><voice>1</voice><type>whole</type></note></measure><measure number="32"><attributes/><note><rest/><duration>256</duration><voice>1</voice><type>whole</type></note><direction placement="above"><direction-type><words relative-x="11.048977053633777" relative-y="-19.79165395100911">24</words></direction-type></direction></measure><measure number="33"><attributes/><note><rest/><duration>256</duration><voice>1</voice><type>whole</type></note><direction placement="above"><direction-type><words relative-x="14.485292346891349" relative-y="-17.70832061767578">20</words></direction-type></direction></measure><measure number="34"><attributes/><direction placement="above"><direction-type><words relative-y="-17.70832061767578">Fl. 4</words></direction-type></direction><note><rest/><duration>256</duration><voice>1</voice><type>whole</type></note></measure><measure number="35"><attributes/><note><rest/><duration>64</duration><voice>1</voice><type>quarter</type></note><note><pitch><step>D</step><alter>1</alter><octave>5</octave></pitch><duration>128</duration><voice>1</voice><type>half</type><accidental>sharp</accidental></note><note><rest/><duration>64</duration><voice>1</voice><type>quarter</type></note></measure><measure number="36"><attributes/><note><rest/><duration>64</duration><voice>1</voice><type>quarter</type></note><note><pitch><step>C</step><alter>1</alter><octave>5</octave></pitch><duration>128</duration><voice>1</voice><type>half</type></note><note><rest/><duration>64</duration><voice>1</voice><type>quarter</type></note></measure><measure number="37"><attributes/><note><rest/><duration>64</duration><voice>1</voice><type>quarter</type></note><note><pitch><step>G</step><alter>1</alter><octave>4</octave></pitch><duration>128</duration><voice>1</voice><type>half</type><accidental>sharp</accidental></note><note><rest/><duration>64</duration><voice>1</voice><type>quarter</type></note></measure><measure number="38"><attributes/><note><pitch><step>D</step><alter>1</alter><octave>5</octave></pitch><duration>64</duration><voice>1</voice><type>quarter</type><accidental>sharp</accidental><notations><articulations><staccato/></articulations></notations></note><note><pitch><step>D</step><alter>1</alter><octave>5</octave></pitch><duration>64</duration><voice>1</voice><type>quarter</type><notations><articulations><staccato/></articulations></notations></note><note><pitch><step>C</step><alter>1</alter><octave>5</octave></pitch><duration>64</duration><voice>1</voice><type>quarter</type><notations><articulations><staccato/></articulations></notations></note><note><pitch><step>C</step><alter>1</alter><octave>5</octave></pitch><duration>64</duration><voice>1</voice><type>quarter</type><notations><articulations><staccato/></articulations></notations></note></measure><measure number="39"><attributes/><note><rest/><duration>64</duration><voice>1</voice><type>quarter</type></note><note><pitch><step>D</step><alter>1</alter><octave>5</octave></pitch><duration>128</duration><voice>1</voice><type>half</type><accidental>sharp</accidental></note><note><rest/><duration>64</duration><voice>1</voice><type>quarter</type></note></measure><measure number="40"><attributes/><note><rest/><duration>64</duration><voice>1</voice><type>quarter</type></note><note><pitch><step>C</step><alter>1</alter><octave>5</octave></pitch><duration>128</duration><voice>1</voice><type>half</type></note><note><rest/><duration>64</duration><voice>1</voice><type>quarter</type></note></measure><measure number="41"><attributes/><note><rest/><duration>64</duration><voice>1</voice><type>quarter</type></note><note><pitch><step>G</step><alter>1</alter><octave>4</octave></pitch><duration>128</duration><voice>1</voice><type>half</type><accidental>sharp</accidental></note><note><rest/><duration>64</duration><voice>1</voice><type>quarter</type></note></measure><measure number="42"><attributes/><note><pitch><step>D</step><alter>1</alter><octave>5</octave></pitch><duration>64</duration><voice>1</voice><type>quarter</type><accidental>sharp</accidental><notations><articulations><staccato/></articulations></notations></note><note><pitch><step>D</step><alter>1</alter><octave>5</octave></pitch><duration>64</duration><voice>1</voice><type>quarter</type><notations><articulations><staccato/></articulations></notations></note><note><pitch><step>C</step><alter>1</alter><octave>5</octave></pitch><duration>64</duration><voice>1</voice><type>quarter</type><notations><articulations><staccato/></articulations></notations></note><note><pitch><step>C</step><alter>1</alter><octave>5</octave></pitch><duration>64</duration><voice>1</voice><type>quarter</type><notations><articulations><staccato/></articulations></notations></note></measure><measure number="43"><attributes/><note><pitch><step>D</step><alter>1</alter><octave>5</octave></pitch><duration>64</duration><voice>1</voice><type>quarter</type><accidental>sharp</accidental></note><note><pitch><step>G</step><alter>1</alter><octave>4</octave></pitch><duration>64</duration><voice>1</voice><type>quarter</type><accidental>sharp</accidental></note><note><pitch><step>D</step><alter>1</alter><octave>5</octave></pitch><duration>64</duration><voice>1</voice><type>quarter</type></note><note><pitch><step>C</step><alter>1</alter><octave>5</octave></pitch><duration>64</duration><voice>1</voice><type>quarter</type></note></measure><measure number="44"><attributes/><note><pitch><step>D</step><alter>1</alter><octave>5</octave></pitch><duration>64</duration><voice>1</voice><type>quarter</type><accidental>sharp</accidental></note><note><pitch><step>G</step><alter>1</alter><octave>4</octave></pitch><duration>64</duration><voice>1</voice><type>quarter</type><accidental>sharp</accidental></note><note><pitch><step>D</step><alter>1</alter><octave>5</octave></pitch><duration>64</duration><voice>1</voice><type>quarter</type></note><note><pitch><step>C</step><alter>1</alter><octave>5</octave></pitch><duration>64</duration><voice>1</voice><type>quarter</type></note></measure><measure number="45"><attributes/><note><pitch><step>D</step><alter>1</alter><octave>5</octave></pitch><duration>64</duration><voice>1</voice><type>quarter</type><accidental>sharp</accidental></note><note><pitch><step>G</step><alter>1</alter><octave>4</octave></pitch><duration>64</duration><voice>1</voice><type>quarter</type><accidental>sharp</accidental></note><note><pitch><step>D</step><alter>1</alter><octave>5</octave></pitch><duration>64</duration><voice>1</voice><type>quarter</type></note><note><pitch><step>C</step><alter>1</alter><octave>5</octave></pitch><duration>64</duration><voice>1</voice><type>quarter</type></note></measure><measure number="46"><attributes/><note><pitch><step>D</step><alter>1</alter><octave>5</octave></pitch><duration>64</duration><voice>1</voice><type>quarter</type><accidental>sharp</accidental></note><note><rest/><duration>64</duration><voice>1</voice><type>quarter</type></note><note><rest/><duration>128</duration><voice>1</voice><type>half</type></note></measure><measure number="47"><attributes/><direction placement="above"><direction-type><words relative-y="-17.70832061767578">26</words></direction-type></direction><note><rest/><duration>256</duration><voice>1</voice><type>whole</type></note></measure><measure number="48"><attributes/><note><rest/><duration>256</duration><voice>1</voice><type>whole</type></note><direction placement="above"><direction-type><words relative-x="5.471949445201818" relative-y="-17.708282470703125">24</words></direction-type></direction></measure><measure number="49"><attributes/><note><rest/><duration>256</duration><voice>1</voice><type>whole</type></note><direction placement="above"><direction-type><words relative-x="38.992917528594724" relative-y="-7.552032470703125">16</words></direction-type></direction></measure><measure number="50"><attributes/><direction placement="above"><direction-type><words relative-y="-7.552032470703125">Pos. 4</words></direction-type></direction><note><rest/><duration>256</duration><voice>1</voice><type>whole</type></note></measure><measure number="51"><attributes/><note><pitch><step>G</step><alter>1</alter><octave>4</octave></pitch><duration>64</duration><voice>1</voice><type>quarter</type><accidental>sharp</accidental></note><note><pitch><step>G</step><alter>1</alter><octave>4</octave></pitch><duration>64</duration><voice>1</voice><type>quarter</type></note><note><pitch><step>D</step><alter>1</alter><octave>5</octave></pitch><duration>64</duration><voice>1</voice><type>quarter</type><accidental>sharp</accidental></note><note><pitch><step>D</step><alter>1</alter><octave>5</octave></pitch><duration>64</duration><voice>1</voice><type>quarter</type></note></measure><measure number="52"><attributes/><note><pitch><step>G</step><alter>1</alter><octave>4</octave></pitch><duration>64</duration><voice>1</voice><type>quarter</type><accidental>sharp</accidental></note><note><pitch><step>G</step><alter>1</alter><octave>4</octave></pitch><duration>64</duration><voice>1</voice><type>quarter</type></note><note><pitch><step>D</step><alter>1</alter><octave>5</octave></pitch><duration>64</duration><voice>1</voice><type>quarter</type><accidental>sharp</accidental></note><note><pitch><step>D</step><alter>1</alter><octave>5</octave></pitch><duration>64</duration><voice>1</voice><type>quarter</type></note></measure><measure number="53"><attributes/><note><pitch><step>G</step><alter>1</alter><octave>4</octave></pitch><duration>64</duration><voice>1</voice><type>quarter</type><accidental>sharp</accidental></note><note><pitch><step>G</step><alter>1</alter><octave>4</octave></pitch><duration>64</duration><voice>1</voice><type>quarter</type></note><note><pitch><step>D</step><alter>1</alter><octave>5</octave></pitch><duration>64</duration><voice>1</voice><type>quarter</type><accidental>sharp</accidental></note><note><pitch><step>D</step><alter>1</alter><octave>5</octave></pitch><duration>64</duration><voice>1</voice><type>quarter</type></note></measure><measure number="54"><attributes/><note><pitch><step>G</step><alter>1</alter><octave>4</octave></pitch><duration>64</duration><voice>1</voice><type>quarter</type><accidental>sharp</accidental></note><note><pitch><step>G</step><alter>1</alter><octave>4</octave></pitch><duration>64</duration><voice>1</voice><type>quarter</type></note><note><pitch><step>D</step><alter>1</alter><octave>5</octave></pitch><duration>64</duration><voice>1</voice><type>quarter</type><accidental>sharp</accidental></note><note><pitch><step>D</step><alter>1</alter><octave>5</octave></pitch><duration>64</duration><voice>1</voice><type>quarter</type></note></measure><measure number="55"><attributes/><note><pitch><step>G</step><alter>1</alter><octave>4</octave></pitch><duration>64</duration><voice>1</voice><type>quarter</type><accidental>sharp</accidental></note><note><rest/><duration>64</duration><voice>1</voice><type>quarter</type></note><note><rest/><duration>64</duration><voice>1</voice><type>quarter</type></note><note><pitch><step>E</step><alter>1</alter><octave>4</octave></pitch><duration>64</duration><voice>1</voice><type>quarter</type><accidental>sharp</accidental></note></measure><measure number="56"><attributes/><note><pitch><step>C</step><alter>1</alter><octave>5</octave></pitch><duration>64</duration><voice>1</voice><type>quarter</type></note><note><rest/><duration>64</duration><voice>1</voice><type>quarter</type></note><note><rest/><duration>64</duration><voice>1</voice><type>quarter</type></note><note><pitch><step>D</step><alter>1</alter><octave>5</octave></pitch><duration>64</duration><voice>1</voice><type>quarter</type><accidental>sharp</accidental></note></measure><measure number="57"><attributes/><note><pitch><step>G</step><alter>1</alter><octave>4</octave></pitch><duration>64</duration><voice>1</voice><type>quarter</type><accidental>sharp</accidental></note><note><rest/><duration>64</duration><voice>1</voice><type>quarter</type></note><note><rest/><duration>64</duration><voice>1</voice><type>quarter</type></note><note><pitch><step>E</step><alter>1</alter><octave>4</octave></pitch><duration>64</duration><voice>1</voice><type>quarter</type><accidental>sharp</accidental></note></measure><measure number="58"><attributes/><note><pitch><step>C</step><alter>1</alter><octave>5</octave></pitch><duration>64</duration><voice>1</voice><type>quarter</type></note><note><rest/><duration>64</duration><voice>1</voice><type>quarter</type></note><note><rest/><duration>64</duration><voice>1</voice><type>quarter</type></note><note><pitch><step>D</step><alter>1</alter><octave>5</octave></pitch><duration>64</duration><voice>1</voice><type>quarter</type><accidental>sharp</accidental></note></measure><measure number="59"><attributes/><note><pitch><step>G</step><alter>1</alter><octave>4</octave></pitch><duration>64</duration><voice>1</voice><type>quarter</type><accidental>sharp</accidental></note><note><rest/><duration>64</duration><voice>1</voice><type>quarter</type></note><note><rest/><duration>128</duration><voice>1</voice><type>half</type></note></measure><measure number="60"><attributes/><note><rest/><duration>256</duration><voice>1</voice><type>whole</type></note><direction placement="above"><direction-type><words relative-x="10.475008231535906" relative-y="-21.09374237060548">3</words></direction-type></direction></measure><measure number="61"><attributes/><note><pitch><step>G</step><alter>1</alter><octave>4</octave></pitch><duration>256</duration><voice>1</voice><type>whole</type><accidental>sharp</accidental></note></measure><measure number="62"><attributes/><note><pitch><step>C</step><alter>1</alter><octave>4</octave></pitch><duration>256</duration><voice>1</voice><type>whole</type></note></measure><measure number="63"><attributes/><note><pitch><step>C</step><alter>1</alter><octave>4</octave></pitch><duration>256</duration><voice>1</voice><type>whole</type></note></measure><measure number="64"><attributes/><note><pitch><step>G</step><alter>1</alter><octave>4</octave></pitch><duration>64</duration><voice>1</voice><type>quarter</type><accidental>sharp</accidental></note><note><pitch><step>G</step><alter>1</alter><octave>4</octave></pitch><duration>48</duration><voice>1</voice><type>eighth</type><dot/><beam number="1">begin</beam></note><note><pitch><step>G</step><alter>1</alter><octave>4</octave></pitch><duration>16</duration><voice>1</voice><type>16th</type><beam number="1">end</beam></note><note><pitch><step>G</step><alter>1</alter><octave>4</octave></pitch><duration>64</duration><voice>1</voice><type>quarter</type></note><note><pitch><step>G</step><alter>1</alter><octave>4</octave></pitch><duration>64</duration><voice>1</voice><type>quarter</type></note></measure><measure number="65"><attributes/><note><pitch><step>D</step><alter>1</alter><octave>5</octave></pitch><duration>64</duration><voice>1</voice><type>quarter</type><accidental>sharp</accidental></note><note><pitch><step>D</step><alter>1</alter><octave>5</octave></pitch><duration>48</duration><voice>1</voice><type>eighth</type><dot/><beam number="1">begin</beam></note><note><pitch><step>D</step><alter>1</alter><octave>5</octave></pitch><duration>16</duration><voice>1</voice><type>16th</type><beam number="1">end</beam></note><note><pitch><step>D</step><alter>1</alter><octave>5</octave></pitch><duration>64</duration><voice>1</voice><type>quarter</type></note><note><pitch><step>D</step><alter>1</alter><octave>5</octave></pitch><duration>64</duration><voice>1</voice><type>quarter</type></note></measure><measure number="66"><attributes/><note><pitch><step>G</step><alter>1</alter><octave>4</octave></pitch><duration>64</duration><voice>1</voice><type>quarter</type><accidental>sharp</accidental></note><note><rest/><duration>64</duration><voice>1</voice><type>quarter</type></note><note><rest/><duration>64</duration><voice>1</voice><type>quarter</type></note><note><pitch><step>E</step><alter>1</alter><octave>4</octave></pitch><duration>64</duration><voice>1</voice><type>quarter</type><accidental>sharp</accidental></note></measure><measure number="67"><attributes/><note><pitch><step>C</step><alter>1</alter><octave>5</octave></pitch><duration>64</duration><voice>1</voice><type>quarter</type></note><note><rest/><duration>64</duration><voice>1</voice><type>quarter</type></note><note><rest/><duration>64</duration><voice>1</voice><type>quarter</type></note><note><pitch><step>D</step><alter>1</alter><octave>5</octave></pitch><duration>64</duration><voice>1</voice><type>quarter</type><accidental>sharp</accidental></note></measure><measure number="68"><attributes/><note><pitch><step>G</step><alter>1</alter><octave>4</octave></pitch><duration>64</duration><voice>1</voice><type>quarter</type><accidental>sharp</accidental></note><note><rest/><duration>64</duration><voice>1</voice><type>quarter</type></note><note><rest/><duration>64</duration><voice>1</voice><type>quarter</type></note><note><pitch><step>E</step><alter>1</alter><octave>4</octave></pitch><duration>64</duration><voice>1</voice><type>quarter</type><accidental>sharp</accidental></note></measure><measure number="69"><attributes/><note><pitch><step>C</step><alter>1</alter><octave>5</octave></pitch><duration>64</duration><voice>1</voice><type>quarter</type></note><note><rest/><duration>64</duration><voice>1</voice><type>quarter</type></note><note><rest/><duration>64</duration><voice>1</voice><type>quarter</type></note><note><pitch><step>D</step><alter>1</alter><octave>5</octave></pitch><duration>64</duration><voice>1</voice><type>quarter</type><accidental>sharp</accidental></note></measure><measure number="70"><attributes/><note><pitch><step>G</step><alter>1</alter><octave>4</octave></pitch><duration>64</duration><voice>1</voice><type>quarter</type><accidental>sharp</accidental></note><note><rest/><duration>64</duration><voice>1</voice><type>quarter</type></note><note><rest/><duration>128</duration><voice>1</voice><type>half</type></note></measure><measure number="71"><attributes/><note><rest/><duration>256</duration><voice>1</voice><type>whole</type></note><direction placement="above"><direction-type><words relative-x="11.656010794366466" relative-y="-20.05219014485678">3</words></direction-type></direction></measure><measure number="72"><attributes/><note><pitch><step>G</step><alter>1</alter><octave>4</octave></pitch><duration>256</duration><voice>1</voice><type>whole</type><accidental>sharp</accidental></note></measure><measure number="73"><attributes/><note><pitch><step>C</step><alter>1</alter><octave>4</octave></pitch><duration>256</duration><voice>1</voice><type>whole</type></note></measure><measure number="74"><attributes/><note><pitch><step>C</step><alter>1</alter><octave>4</octave></pitch><duration>256</duration><voice>1</voice><type>whole</type></note></measure><measure number="75"><attributes/><note><pitch><step>G</step><alter>1</alter><octave>4</octave></pitch><duration>64</duration><voice>1</voice><type>quarter</type><accidental>sharp</accidental></note><note><pitch><step>G</step><alter>1</alter><octave>4</octave></pitch><duration>48</duration><voice>1</voice><type>eighth</type><dot/><beam number="1">begin</beam></note><note><pitch><step>G</step><alter>1</alter><octave>4</octave></pitch><duration>16</duration><voice>1</voice><type>16th</type><beam number="1">end</beam></note><note><pitch><step>G</step><alter>1</alter><octave>4</octave></pitch><duration>64</duration><voice>1</voice><type>quarter</type></note><note><pitch><step>G</step><alter>1</alter><octave>4</octave></pitch><duration>64</duration><voice>1</voice><type>quarter</type></note></measure><measure number="76"><attributes/><note><pitch><step>D</step><alter>1</alter><octave>5</octave></pitch><duration>64</duration><voice>1</voice><type>quarter</type><accidental>sharp</accidental></note><note><pitch><step>D</step><alter>1</alter><octave>5</octave></pitch><duration>48</duration><voice>1</voice><type>eighth</type><dot/><beam number="1">begin</beam></note><note><pitch><step>D</step><alter>1</alter><octave>5</octave></pitch><duration>16</duration><voice>1</voice><type>16th</type><beam number="1">end</beam></note><note><pitch><step>D</step><alter>1</alter><octave>5</octave></pitch><duration>64</duration><voice>1</voice><type>quarter</type></note><note><pitch><step>D</step><alter>1</alter><octave>5</octave></pitch><duration>64</duration><voice>1</voice><type>quarter</type></note></measure><measure number="77"><attributes/><note><rest/><duration>64</duration><voice>1</voice><type>quarter</type></note><note><pitch><step>G</step><alter>1</alter><octave>4</octave></pitch><duration>64</duration><voice>1</voice><type>quarter</type><accidental>sharp</accidental></note><note><rest/><duration>64</duration><voice>1</voice><type>quarter</type></note><note><pitch><step>E</step><alter>1</alter><octave>4</octave></pitch><duration>64</duration><voice>1</voice><type>quarter</type><accidental>sharp</accidental></note></measure><measure number="78"><attributes/><note><rest/><duration>64</duration><voice>1</voice><type>quarter</type></note><note><pitch><step>C</step><alter>1</alter><octave>5</octave></pitch><duration>64</duration><voice>1</voice><type>quarter</type></note><note><rest/><duration>64</duration><voice>1</voice><type>quarter</type></note><note><pitch><step>D</step><alter>1</alter><octave>5</octave></pitch><duration>64</duration><voice>1</voice><type>quarter</type><accidental>sharp</accidental></note></measure><measure number="79"><attributes/><note><rest/><duration>64</duration><voice>1</voice><type>quarter</type></note><note><pitch><step>G</step><alter>1</alter><octave>4</octave></pitch><duration>64</duration><voice>1</voice><type>quarter</type><accidental>sharp</accidental></note><note><rest/><duration>64</duration><voice>1</voice><type>quarter</type></note><note><pitch><step>E</step><alter>1</alter><octave>4</octave></pitch><duration>64</duration><voice>1</voice><type>quarter</type><accidental>sharp</accidental></note></measure><measure number="80"><attributes/><note><rest/><duration>64</duration><voice>1</voice><type>quarter</type></note><note><pitch><step>C</step><alter>1</alter><octave>5</octave></pitch><duration>64</duration><voice>1</voice><type>quarter</type></note><note><rest/><duration>64</duration><voice>1</voice><type>quarter</type></note><note><pitch><step>D</step><alter>1</alter><octave>5</octave></pitch><duration>64</duration><voice>1</voice><type>quarter</type><accidental>sharp</accidental></note></measure><measure number="81"><attributes/><note><rest/><duration>64</duration><voice>1</voice><type>quarter</type></note><note><pitch><step>C</step><alter>1</alter><octave>5</octave></pitch><duration>64</duration><voice>1</voice><type>quarter</type></note><note><rest/><duration>64</duration><voice>1</voice><type>quarter</type></note><note><pitch><step>D</step><alter>1</alter><octave>5</octave></pitch><duration>64</duration><voice>1</voice><type>quarter</type><accidental>sharp</accidental></note></measure><measure number="82"><attributes/><note><pitch><step>G</step><alter>1</alter><octave>4</octave></pitch><duration>64</duration><voice>1</voice><type>quarter</type><accidental>sharp</accidental></note><note><pitch><step>C</step><alter>1</alter><octave>5</octave></pitch><duration>64</duration><voice>1</voice><type>quarter</type></note><note><pitch><step>G</step><alter>1</alter><octave>4</octave></pitch><duration>64</duration><voice>1</voice><type>quarter</type></note><note><pitch><step>D</step><alter>1</alter><octave>5</octave></pitch><duration>64</duration><voice>1</voice><type>quarter</type><accidental>sharp</accidental></note></measure><measure number="83"><attributes/><note><pitch><step>G</step><alter>1</alter><octave>4</octave></pitch><duration>64</duration><voice>1</voice><type>quarter</type><accidental>sharp</accidental></note><note><pitch><step>C</step><alter>1</alter><octave>5</octave></pitch><duration>64</duration><voice>1</voice><type>quarter</type></note><note><pitch><step>G</step><alter>1</alter><octave>4</octave></pitch><duration>64</duration><voice>1</voice><type>quarter</type></note><note><pitch><step>D</step><alter>1</alter><octave>5</octave></pitch><duration>64</duration><voice>1</voice><type>quarter</type><accidental>sharp</accidental></note></measure><measure number="84"><attributes/><note><pitch><step>G</step><alter>1</alter><octave>4</octave></pitch><duration>64</duration><voice>1</voice><type>quarter</type><accidental>sharp</accidental></note><note><pitch><step>C</step><alter>1</alter><octave>5</octave></pitch><duration>64</duration><voice>1</voice><type>quarter</type></note><note><pitch><step>G</step><alter>1</alter><octave>4</octave></pitch><duration>64</duration><voice>1</voice><type>quarter</type></note><note><pitch><step>D</step><alter>1</alter><octave>5</octave></pitch><duration>64</duration><voice>1</voice><type>quarter</type><accidental>sharp</accidental></note></measure><measure number="85"><attributes/><note><pitch><step>G</step><alter>1</alter><octave>4</octave></pitch><duration>256</duration><tie type="start"/><voice>1</voice><type>whole</type><accidental>sharp</accidental><notations><tied type="start"/></notations></note></measure><measure number="86"><attributes/><note><pitch><step>G</step><alter>1</alter><octave>4</octave></pitch><duration>256</duration><tie type="start"/><tie type="stop"/><voice>1</voice><type>whole</type><notations><tied type="start"/><tied type="stop"/></notations></note></measure><measure number="87"><attributes/><note><pitch><step>G</step><alter>1</alter><octave>4</octave></pitch><duration>128</duration><tie type="stop"/><voice>1</voice><type>half</type><notations><tied type="stop"/></notations></note><note><pitch><step>G</step><alter>1</alter><octave>4</octave></pitch><duration>128</duration><tie type="start"/><voice>1</voice><type>half</type><accidental>sharp</accidental><notations><tied type="start"/></notations></note></measure><measure number="88"><attributes/><note><pitch><step>G</step><alter>1</alter><octave>4</octave></pitch><duration>128</duration><tie type="stop"/><voice>1</voice><type>half</type><notations><tied type="stop"/></notations></note><note><pitch><step>G</step><alter>1</alter><octave>4</octave></pitch><duration>128</duration><voice>1</voice><type>half</type><accidental>sharp</accidental></note></measure><measure number="89"><attributes/><note><pitch><step>G</step><alter>1</alter><octave>4</octave></pitch><duration>128</duration><voice>1</voice><type>half</type><accidental>sharp</accidental></note><note><rest/><duration>128</duration><voice>1</voice><type>half</type></note></measure><measure number="90"><attributes/><note><pitch><step>G</step><alter>1</alter><octave>4</octave></pitch><duration>128</duration><voice>1</voice><type>half</type><accidental>sharp</accidental></note><note><rest/><duration>128</duration><voice>1</voice><type>half</type></note></measure><measure number="91"><attributes/><note><pitch><step>G</step><alter>1</alter><octave>4</octave></pitch><duration>256</duration><voice>1</voice><type>whole</type><accidental>sharp</accidental></note></measure><measure number="92"><attributes><time print-object="yes"><beats>4</beats><beat-type>4</beat-type></time></attributes><note><rest/><duration>64</duration><voice>1</voice><type>quarter</type></note><note><rest/><duration>64</duration><voice>1</voice><type>quarter</type></note><note><rest/><duration>64</duration><voice>1</voice><type>quarter</type></note><note><rest/><duration>32</duration><voice>1</voice><type>eighth</type></note><note><rest/><duration>16</duration><voice>1</voice><type>16th</type></note><note><pitch><step>A</step><octave>4</octave></pitch><duration>16</duration><voice>1</voice><type>16th</type></note></measure><measure number="93"><attributes/><note><pitch><step>A</step><octave>4</octave></pitch><duration>64</duration><voice>1</voice><type>quarter</type></note><note><rest/><duration>64</duration><voice>1</voice><type>quarter</type></note><note><rest/><duration>128</duration><voice>1</voice><type>half</type></note></measure><measure number="94"><attributes/><direction placement="above"><direction-type><words relative-y="-20.05219014485678">1</words></direction-type></direction><note><rest/><duration>256</duration><voice>1</voice><type>whole</type></note></measure><measure number="95"><attributes/><note><rest/><duration>64</duration><voice>1</voice><type>quarter</type></note><note><rest/><duration>48</duration><voice>1</voice><type>eighth</type><dot/></note><note><pitch><step>E</step><octave>5</octave></pitch><duration>16</duration><voice>1</voice><type>16th</type></note><note><pitch><step>E</step><octave>5</octave></pitch><duration>64</duration><voice>1</voice><type>quarter</type></note><note><rest/><duration>64</duration><voice>1</voice><type>quarter</type></note></measure><measure number="96"><attributes/><direction placement="above"><direction-type><words relative-y="-20.05219014485678">6</words></direction-type></direction><note><rest/><duration>256</duration><voice>1</voice><type>whole</type></note></measure><measure number="97"><attributes/><note><rest/><duration>64</duration><voice>1</voice><type>quarter</type></note><note><rest/><duration>64</duration><voice>1</voice><type>quarter</type></note><note><pitch><step>E</step><octave>5</octave></pitch><duration>128</duration><voice>1</voice><type>half</type><notations><slur default-x="0.65" default-y="4" number="1" placement="above" type="start"/></notations></note><direction placement="above"><direction-type><words enclosure="rectangle">A</words></direction-type></direction></measure><measure number="98"><attributes/><note><pitch><step>A</step><octave>4</octave></pitch><duration>32</duration><voice>1</voice><type>eighth</type></note><note><rest/><duration>32</duration><voice>1</voice><type>eighth</type></note><note><rest/><duration>64</duration><voice>1</voice><type>quarter</type><notations><slur default-x="-0.06366984049479174" default-y="2.5416763305664056" number="1" type="stop"/></notations></note><note><rest/><duration>128</duration><voice>1</voice><type>half</type></note></measure><measure number="99"><attributes/><direction placement="above"><direction-type><words relative-y="-20.05219014485678">5</words></direction-type></direction><note><rest/><duration>64</duration><voice>1</voice><type>quarter</type></note><note><rest/><duration>64</duration><voice>1</voice><type>quarter</type></note><note><rest/><duration>64</duration><voice>1</voice><type>quarter</type></note><note><rest/><duration>32</duration><voice>1</voice><type>eighth</type></note><note><pitch><step>A</step><octave>4</octave></pitch><duration>32</duration><voice>1</voice><type>eighth</type><notations><articulations><staccato/></articulations></notations></note></measure><measure number="100"><attributes/><note><pitch><step>D</step><octave>5</octave></pitch><duration>32</duration><voice>1</voice><type>eighth</type><notations><articulations><staccato/></articulations></notations></note><note><rest/><duration>32</duration><voice>1</voice><type>eighth</type></note><note><rest/><duration>64</duration><voice>1</voice><type>quarter</type></note><note><rest/><duration>64</duration><voice>1</voice><type>quarter</type></note><note><rest/><duration>32</duration><voice>1</voice><type>eighth</type></note><note><pitch><step>F</step><alter>1</alter><octave>5</octave></pitch><duration>32</duration><voice>1</voice><type>eighth</type><notations><articulations><staccato/></articulations></notations></note></measure><measure number="101"><attributes/><direction placement="above"><direction-type><words enclosure="rectangle">B</words></direction-type></direction><note><pitch><step>E</step><octave>5</octave></pitch><duration>32</duration><voice>1</voice><type>eighth</type><notations><articulations><staccato/></articulations></notations></note><note><rest/><duration>32</duration><voice>1</voice><type>eighth</type></note><note><rest/><duration>64</duration><voice>1</voice><type>quarter</type></note><note><rest/><duration>128</duration><voice>1</voice><type>half</type></note></measure><measure number="102"><attributes/><direction placement="above"><direction-type><words relative-y="-20.05219014485678">3</words></direction-type></direction><note><rest/><duration>256</duration><voice>1</voice><type>whole</type></note></measure><measure number="103"><attributes/><note><rest/><duration>64</duration><voice>1</voice><type>quarter</type></note><note><rest/><duration>48</duration><voice>1</voice><type>eighth</type><dot/></note><note><pitch><step>E</step><octave>5</octave></pitch><duration>16</duration><voice>1</voice><type>16th</type></note><note><pitch><step>E</step><octave>5</octave></pitch><duration>64</duration><voice>1</voice><type>quarter</type></note><note><rest/><duration>48</duration><voice>1</voice><type>eighth</type><dot/></note><note><pitch><step>E</step><octave>5</octave></pitch><duration>16</duration><voice>1</voice><type>16th</type></note></measure><measure number="104"><attributes/><note><pitch><step>E</step><octave>5</octave></pitch><duration>256</duration><voice>1</voice><type>whole</type></note></measure><measure number="105"><attributes/><direction placement="above"><direction-type><words relative-y="-20.05219014485678">23</words></direction-type></direction><note><rest/><duration>256</duration><voice>1</voice><type>whole</type></note><direction placement="above"><direction-type><words enclosure="rectangle">C</words></direction-type></direction></measure><measure number="106"><attributes><time print-object="yes" symbol="cut"><beats>2</beats><beat-type>2</beat-type></time></attributes><note><rest/><duration>32</duration><voice>1</voice><type>eighth</type></note><note><pitch><step>A</step><octave>4</octave></pitch><duration>16</duration><voice>1</voice><type>16th</type><beam number="1">begin</beam></note><note><pitch><step>A</step><octave>4</octave></pitch><duration>16</duration><voice>1</voice><type>16th</type><beam number="1">end</beam></note><note><pitch><step>A</step><octave>4</octave></pitch><duration>32</duration><voice>1</voice><type>eighth</type><beam number="1">begin</beam></note><note><pitch><step>A</step><octave>4</octave></pitch><duration>32</duration><voice>1</voice><type>eighth</type><beam number="1">end</beam></note><note><pitch><step>A</step><octave>4</octave></pitch><duration>64</duration><voice>1</voice><type>quarter</type></note><note><rest/><duration>64</duration><voice>1</voice><type>quarter</type></note></measure><measure number="107"><attributes/><note><rest/><duration>32</duration><voice>1</voice><type>eighth</type></note><note><pitch><step>A</step><octave>4</octave></pitch><duration>16</duration><voice>1</voice><type>16th</type><beam number="1">begin</beam></note><note><pitch><step>A</step><octave>4</octave></pitch><duration>16</duration><voice>1</voice><type>16th</type><beam number="1">end</beam></note><note><pitch><step>A</step><octave>4</octave></pitch><duration>32</duration><voice>1</voice><type>eighth</type><beam number="1">begin</beam></note><note><pitch><step>A</step><octave>4</octave></pitch><duration>32</duration><voice>1</voice><type>eighth</type><beam number="1">end</beam></note><note><pitch><step>A</step><octave>4</octave></pitch><duration>64</duration><voice>1</voice><type>quarter</type></note><note><rest/><duration>64</duration><voice>1</voice><type>quarter</type></note></measure><measure number="108"><attributes/><direction placement="above"><direction-type><words relative-y="-20.05219014485678">2</words></direction-type></direction><note><rest/><duration>256</duration><voice>1</voice><type>whole</type></note></measure><measure number="109"><attributes/><note><rest/><duration>32</duration><voice>1</voice><type>eighth</type></note><note><pitch><step>E</step><octave>5</octave></pitch><duration>16</duration><voice>1</voice><type>16th</type><beam number="1">begin</beam></note><note><pitch><step>E</step><octave>5</octave></pitch><duration>16</duration><voice>1</voice><type>16th</type><beam number="1">end</beam></note><note><pitch><step>E</step><octave>5</octave></pitch><duration>32</duration><voice>1</voice><type>eighth</type><beam number="1">begin</beam></note><note><pitch><step>E</step><octave>5</octave></pitch><duration>32</duration><voice>1</voice><type>eighth</type><beam number="1">end</beam></note><note><pitch><step>E</step><octave>5</octave></pitch><duration>64</duration><voice>1</voice><type>quarter</type></note><note><rest/><duration>64</duration><voice>1</voice><type>quarter</type></note></measure><measure number="110"><attributes/><note><rest/><duration>32</duration><voice>1</voice><type>eighth</type></note><note><pitch><step>E</step><octave>5</octave></pitch><duration>16</duration><voice>1</voice><type>16th</type><beam number="1">begin</beam></note><note><pitch><step>E</step><octave>5</octave></pitch><duration>16</duration><voice>1</voice><type>16th</type><beam number="1">end</beam></note><note><pitch><step>E</step><octave>5</octave></pitch><duration>32</duration><voice>1</voice><type>eighth</type><beam number="1">begin</beam></note><note><pitch><step>E</step><octave>5</octave></pitch><duration>32</duration><voice>1</voice><type>eighth</type><beam number="1">end</beam></note><note><pitch><step>E</step><octave>5</octave></pitch><duration>64</duration><voice>1</voice><type>quarter</type></note><note><rest/><duration>64</duration><voice>1</voice><type>quarter</type></note></measure><measure number="111"><attributes/><direction placement="above"><direction-type><words relative-y="-20.05219014485678">2</words></direction-type></direction><note><rest/><duration>256</duration><voice>1</voice><type>whole</type></note></measure><measure number="112"><attributes/><note><rest/><duration>32</duration><voice>1</voice><type>eighth</type></note><note><pitch><step>A</step><octave>4</octave></pitch><duration>16</duration><voice>1</voice><type>16th</type><beam number="1">begin</beam></note><note><pitch><step>A</step><octave>4</octave></pitch><duration>16</duration><voice>1</voice><type>16th</type><beam number="1">end</beam></note><note><pitch><step>A</step><octave>4</octave></pitch><duration>32</duration><voice>1</voice><type>eighth</type><beam number="1">begin</beam></note><note><pitch><step>A</step><octave>4</octave></pitch><duration>32</duration><voice>1</voice><type>eighth</type><beam number="1">end</beam></note><note><pitch><step>A</step><octave>4</octave></pitch><duration>64</duration><voice>1</voice><type>quarter</type></note><note><rest/><duration>64</duration><voice>1</voice><type>quarter</type></note></measure><measure number="113"><attributes/><note><rest/><duration>32</duration><voice>1</voice><type>eighth</type></note><note><pitch><step>A</step><octave>4</octave></pitch><duration>16</duration><voice>1</voice><type>16th</type><beam number="1">begin</beam></note><note><pitch><step>A</step><octave>4</octave></pitch><duration>16</duration><voice>1</voice><type>16th</type><beam number="1">end</beam></note><note><pitch><step>A</step><octave>4</octave></pitch><duration>32</duration><voice>1</voice><type>eighth</type><beam number="1">begin</beam></note><note><pitch><step>A</step><octave>4</octave></pitch><duration>32</duration><voice>1</voice><type>eighth</type><beam number="1">end</beam></note><note><pitch><step>A</step><octave>4</octave></pitch><duration>64</duration><voice>1</voice><type>quarter</type></note><note><rest/><duration>64</duration><voice>1</voice><type>quarter</type></note></measure><measure number="114"><attributes/><direction placement="above"><direction-type><words relative-y="-20.05219014485678">2</words></direction-type></direction><note><rest/><duration>256</duration><voice>1</voice><type>whole</type></note></measure><measure number="115"><attributes/><note><rest/><duration>32</duration><voice>1</voice><type>eighth</type></note><note><pitch><step>D</step><octave>5</octave></pitch><duration>16</duration><voice>1</voice><type>16th</type><beam number="1">begin</beam></note><note><pitch><step>D</step><octave>5</octave></pitch><duration>16</duration><voice>1</voice><type>16th</type><beam number="1">end</beam></note><note><pitch><step>D</step><octave>5</octave></pitch><duration>32</duration><voice>1</voice><type>eighth</type><beam number="1">begin</beam></note><note><pitch><step>D</step><octave>5</octave></pitch><duration>32</duration><voice>1</voice><type>eighth</type><beam number="1">end</beam></note><note><pitch><step>D</step><octave>5</octave></pitch><duration>64</duration><voice>1</voice><type>quarter</type></note><note><rest/><duration>64</duration><voice>1</voice><type>quarter</type></note></measure><measure number="116"><attributes/><note><rest/><duration>32</duration><voice>1</voice><type>eighth</type></note><note><pitch><step>D</step><octave>5</octave></pitch><duration>16</duration><voice>1</voice><type>16th</type><beam number="1">begin</beam></note><note><pitch><step>D</step><octave>5</octave></pitch><duration>16</duration><voice>1</voice><type>16th</type><beam number="1">end</beam></note><note><pitch><step>D</step><octave>5</octave></pitch><duration>32</duration><voice>1</voice><type>eighth</type><beam number="1">begin</beam></note><note><pitch><step>D</step><octave>5</octave></pitch><duration>32</duration><voice>1</voice><type>eighth</type><beam number="1">end</beam></note><note><pitch><step>D</step><octave>5</octave></pitch><duration>64</duration><voice>1</voice><type>quarter</type></note><note><rest/><duration>64</duration><voice>1</voice><type>quarter</type></note></measure><measure number="117"><attributes/><direction placement="above"><direction-type><words relative-y="-20.05219014485678">5</words></direction-type></direction><note><rest/><duration>256</duration><voice>1</voice><type>whole</type></note></measure><measure number="118"><attributes/><note><rest/><duration>64</duration><voice>1</voice><type>quarter</type></note><note><pitch><step>A</step><octave>4</octave></pitch><duration>128</duration><voice>1</voice><type>half</type><notations><articulations><accent/></articulations></notations></note><note><rest/><duration>64</duration><voice>1</voice><type>quarter</type></note></measure><measure number="119"><attributes/><direction placement="above"><direction-type><words relative-y="-20.05219014485678">8</words></direction-type></direction><note><rest/><duration>256</duration><voice>1</voice><type>whole</type></note></measure><measure number="120"><attributes/><note><rest/><duration>64</duration><voice>1</voice><type>quarter</type></note><direction placement="below"><direction-type><dynamics placement="below"><f/></dynamics></direction-type></direction><note><pitch><step>D</step><octave>5</octave></pitch><duration>64</duration><voice>1</voice><type>quarter</type></note><note><rest/><duration>128</duration><voice>1</voice><type>half</type></note></measure><measure number="121"><attributes/><direction placement="above"><direction-type><words relative-y="-20.05219014485678">1</words></direction-type></direction><note><rest/><duration>256</duration><voice>1</voice><type>whole</type></note></measure><measure number="122"><attributes/><note><rest/><duration>64</duration><voice>1</voice><type>quarter</type></note><direction placement="below"><direction-type><dynamics placement="below"><f/></dynamics></direction-type></direction><note><pitch><step>D</step><octave>5</octave></pitch><duration>64</duration><voice>1</voice><type>quarter</type></note><note><rest/><duration>128</duration><voice>1</voice><type>half</type></note></measure><measure number="123"><attributes/><direction placement="above"><direction-type><words>12</words></direction-type></direction><note><rest/><duration>256</duration><voice>1</voice><type>whole</type></note></measure><measure number="124"><attributes/><note><rest/><duration>256</duration><voice>1</voice><type>whole</type></note><direction placement="above"><direction-type><words relative-x="11.048977053633777" relative-y="-19.79165395100911">24</words></direction-type></direction></measure><measure number="125"><attributes/><note><rest/><duration>256</duration><voice>1</voice><type>whole</type></note></measure><measure number="126"><attributes/><note><rest/><duration>256</duration><voice>1</voice><type>whole</type></note><direction placement="above"><direction-type><words relative-x="14.485292346891349" relative-y="-17.70832061767578">20</words></direction-type></direction></measure><measure number="127"><attributes/><direction placement="above"><direction-type><words relative-y="-17.70832061767578">Fl. 4</words></direction-type></direction><note><rest/><duration>256</duration><voice>1</voice><type>whole</type></note></measure><measure number="128"><attributes/><note><rest/><duration>64</duration><voice>1</voice><type>quarter</type></note><direction placement="below"><direction-type><dynamics placement="below"><f/></dynamics></direction-type></direction><note><pitch><step>E</step><octave>5</octave></pitch><duration>128</duration><voice>1</voice><type>half</type></note><note><rest/><duration>64</duration><voice>1</voice><type>quarter</type></note></measure><measure number="129"><attributes/><note><rest/><duration>64</duration><voice>1</voice><type>quarter</type></note><direction placement="below"><direction-type><dynamics placement="below"><f/></dynamics></direction-type></direction><note><pitch><step>D</step><octave>5</octave></pitch><duration>128</duration><voice>1</voice><type>half</type></note><note><rest/><duration>64</duration><voice>1</voice><type>quarter</type></note></measure><measure number="130"><attributes/><note><rest/><duration>64</duration><voice>1</voice><type>quarter</type></note><direction placement="below"><direction-type><dynamics placement="below"><f/></dynamics></direction-type></direction><note><pitch><step>A</step><octave>4</octave></pitch><duration>128</duration><voice>1</voice><type>half</type></note><note><rest/><duration>64</duration><voice>1</voice><type>quarter</type></note></measure><measure number="131"><attributes/><note><pitch><step>E</step><octave>5</octave></pitch><duration>64</duration><voice>1</voice><type>quarter</type><notations><articulations><staccato/></articulations></notations></note><note><pitch><step>E</step><octave>5</octave></pitch><duration>64</duration><voice>1</voice><type>quarter</type><notations><articulations><staccato/></articulations></notations></note><note><pitch><step>D</step><octave>5</octave></pitch><duration>64</duration><voice>1</voice><type>quarter</type><notations><articulations><staccato/></articulations></notations></note><note><pitch><step>D</step><octave>5</octave></pitch><duration>64</duration><voice>1</voice><type>quarter</type><notations><articulations><staccato/></articulations></notations></note></measure><measure number="132"><attributes/><note><rest/><duration>64</duration><voice>1</voice><type>quarter</type></note><direction placement="below"><direction-type><dynamics placement="below"><f/></dynamics></direction-type></direction><note><pitch><step>E</step><octave>5</octave></pitch><duration>128</duration><voice>1</voice><type>half</type></note><note><rest/><duration>64</duration><voice>1</voice><type>quarter</type></note></measure><measure number="133"><attributes/><note><rest/><duration>64</duration><voice>1</voice><type>quarter</type></note><direction placement="below"><direction-type><dynamics placement="below"><f/></dynamics></direction-type></direction><note><pitch><step>D</step><octave>5</octave></pitch><duration>128</duration><voice>1</voice><type>half</type></note><note><rest/><duration>64</duration><voice>1</voice><type>quarter</type></note></measure><measure number="134"><attributes/><note><rest/><duration>64</duration><voice>1</voice><type>quarter</type></note><direction placement="below"><direction-type><dynamics placement="below"><f/></dynamics></direction-type></direction><note><pitch><step>A</step><octave>4</octave></pitch><duration>128</duration><voice>1</voice><type>half</type></note><note><rest/><duration>64</duration><voice>1</voice><type>quarter</type></note></measure><measure number="135"><attributes/><note><pitch><step>E</step><octave>5</octave></pitch><duration>64</duration><voice>1</voice><type>quarter</type><notations><articulations><staccato/></articulations></notations></note><note><pitch><step>E</step><octave>5</octave></pitch><duration>64</duration><voice>1</voice><type>quarter</type><notations><articulations><staccato/></articulations></notations></note><note><pitch><step>D</step><octave>5</octave></pitch><duration>64</duration><voice>1</voice><type>quarter</type><notations><articulations><staccato/></articulations></notations></note><note><pitch><step>D</step><octave>5</octave></pitch><duration>64</duration><voice>1</voice><type>quarter</type><notations><articulations><staccato/></articulations></notations></note></measure><measure number="136"><attributes/><note><pitch><step>E</step><octave>5</octave></pitch><duration>64</duration><voice>1</voice><type>quarter</type></note><note><pitch><step>A</step><octave>4</octave></pitch><duration>64</duration><voice>1</voice><type>quarter</type></note><note><pitch><step>E</step><octave>5</octave></pitch><duration>64</duration><voice>1</voice><type>quarter</type></note><note><pitch><step>D</step><octave>5</octave></pitch><duration>64</duration><voice>1</voice><type>quarter</type></note></measure><measure number="137"><attributes/><note><pitch><step>E</step><octave>5</octave></pitch><duration>64</duration><voice>1</voice><type>quarter</type></note><note><pitch><step>A</step><octave>4</octave></pitch><duration>64</duration><voice>1</voice><type>quarter</type></note><note><pitch><step>E</step><octave>5</octave></pitch><duration>64</duration><voice>1</voice><type>quarter</type></note><note><pitch><step>D</step><octave>5</octave></pitch><duration>64</duration><voice>1</voice><type>quarter</type></note></measure><measure number="138"><attributes/><note><pitch><step>E</step><octave>5</octave></pitch><duration>64</duration><voice>1</voice><type>quarter</type></note><note><rest/><duration>64</duration><voice>1</voice><type>quarter</type></note><note><rest/><duration>128</duration><voice>1</voice><type>half</type></note></measure><measure number="139"><attributes/><direction placement="above"><direction-type><words relative-y="-17.70832061767578">26</words></direction-type></direction><note><rest/><duration>256</duration><voice>1</voice><type>whole</type></note></measure><measure number="140"><attributes/><direction placement="above"><direction-type><words relative-y="-17.70832061767578">24</words></direction-type></direction><note><rest/><duration>256</duration><voice>1</voice><type>whole</type></note></measure><measure number="141"><attributes/><direction placement="above"><direction-type><words relative-y="-17.70832061767578">16</words></direction-type></direction><note><rest/><duration>256</duration><voice>1</voice><type>whole</type></note></measure><measure number="142"><attributes/><direction placement="above"><direction-type><words relative-y="-17.70832061767578">4 Pos.</words></direction-type></direction><note><pitch><step>E</step><octave>4</octave></pitch><duration>64</duration><voice>1</voice><type>quarter</type></note><note><rest/><duration>64</duration><voice>1</voice><type>quarter</type></note><note><pitch><step>E</step><octave>4</octave></pitch><duration>64</duration><voice>1</voice><type>quarter</type></note><note><rest/><duration>64</duration><voice>1</voice><type>quarter</type></note></measure><measure number="143"><attributes/><note><pitch><step>A</step><octave>4</octave></pitch><duration>64</duration><voice>1</voice><type>quarter</type></note><note><pitch><step>A</step><octave>4</octave></pitch><duration>64</duration><voice>1</voice><type>quarter</type></note><note><pitch><step>E</step><octave>5</octave></pitch><duration>64</duration><voice>1</voice><type>quarter</type></note><note><pitch><step>E</step><octave>5</octave></pitch><duration>64</duration><voice>1</voice><type>quarter</type></note></measure><measure number="144"><attributes/><note><pitch><step>A</step><octave>4</octave></pitch><duration>64</duration><voice>1</voice><type>quarter</type></note><note><pitch><step>A</step><octave>4</octave></pitch><duration>64</duration><voice>1</voice><type>quarter</type></note><note><pitch><step>E</step><octave>5</octave></pitch><duration>64</duration><voice>1</voice><type>quarter</type></note><note><pitch><step>E</step><octave>5</octave></pitch><duration>64</duration><voice>1</voice><type>quarter</type></note></measure><measure number="145"><attributes/><note><pitch><step>A</step><octave>4</octave></pitch><duration>64</duration><voice>1</voice><type>quarter</type></note><note><pitch><step>A</step><octave>4</octave></pitch><duration>64</duration><voice>1</voice><type>quarter</type></note><note><pitch><step>E</step><octave>5</octave></pitch><duration>64</duration><voice>1</voice><type>quarter</type></note><note><pitch><step>E</step><octave>5</octave></pitch><duration>64</duration><voice>1</voice><type>quarter</type></note></measure><measure number="146"><attributes/><note><pitch><step>A</step><octave>4</octave></pitch><duration>64</duration><voice>1</voice><type>quarter</type></note><note><pitch><step>A</step><octave>4</octave></pitch><duration>64</duration><voice>1</voice><type>quarter</type></note><note><pitch><step>E</step><octave>5</octave></pitch><duration>64</duration><voice>1</voice><type>quarter</type></note><note><pitch><step>E</step><octave>5</octave></pitch><duration>64</duration><voice>1</voice><type>quarter</type></note></measure><measure number="147"><attributes/><note><pitch><step>A</step><octave>4</octave></pitch><duration>64</duration><voice>1</voice><type>quarter</type></note><note><rest/><duration>64</duration><voice>1</voice><type>quarter</type></note><note><rest/><duration>64</duration><voice>1</voice><type>quarter</type></note><note><pitch><step>F</step><alter>1</alter><octave>4</octave></pitch><duration>64</duration><voice>1</voice><type>quarter</type></note></measure><measure number="148"><attributes/><note><pitch><step>D</step><octave>5</octave></pitch><duration>64</duration><voice>1</voice><type>quarter</type></note><note><rest/><duration>64</duration><voice>1</voice><type>quarter</type></note><note><rest/><duration>64</duration><voice>1</voice><type>quarter</type></note><note><pitch><step>E</step><octave>5</octave></pitch><duration>64</duration><voice>1</voice><type>quarter</type></note></measure><measure number="149"><attributes/><note><pitch><step>A</step><octave>4</octave></pitch><duration>64</duration><voice>1</voice><type>quarter</type></note><note><rest/><duration>64</duration><voice>1</voice><type>quarter</type></note><note><rest/><duration>64</duration><voice>1</voice><type>quarter</type></note><note><pitch><step>F</step><alter>1</alter><octave>4</octave></pitch><duration>64</duration><voice>1</voice><type>quarter</type></note></measure><measure number="150"><attributes/><note><pitch><step>D</step><octave>5</octave></pitch><duration>64</duration><voice>1</voice><type>quarter</type></note><note><rest/><duration>64</duration><voice>1</voice><type>quarter</type></note><note><rest/><duration>64</duration><voice>1</voice><type>quarter</type></note><note><pitch><step>E</step><octave>5</octave></pitch><duration>64</duration><voice>1</voice><type>quarter</type></note></measure><measure number="151"><attributes/><note><pitch><step>A</step><octave>4</octave></pitch><duration>64</duration><voice>1</voice><type>quarter</type></note><note><rest/><duration>64</duration><voice>1</voice><type>quarter</type></note><note><rest/><duration>128</duration><voice>1</voice><type>half</type></note></measure><measure number="152"><attributes/><note><rest/><duration>256</duration><voice>1</voice><type>whole</type></note><direction placement="above"><direction-type><words relative-x="10.475008231535906" relative-y="-21.09374237060548">3</words></direction-type></direction></measure><measure number="153"><attributes/><note><pitch><step>A</step><octave>4</octave></pitch><duration>256</duration><voice>1</voice><type>whole</type></note></measure><measure number="154"><attributes/><note><pitch><step>D</step><octave>4</octave></pitch><duration>256</duration><voice>1</voice><type>whole</type></note></measure><measure number="155"><attributes/><note><pitch><step>D</step><octave>4</octave></pitch><duration>256</duration><voice>1</voice><type>whole</type></note></measure><measure number="156"><attributes/><note><pitch><step>A</step><octave>4</octave></pitch><duration>64</duration><voice>1</voice><type>quarter</type></note><note><pitch><step>A</step><octave>4</octave></pitch><duration>48</duration><voice>1</voice><type>eighth</type><dot/><beam number="1">begin</beam></note><note><pitch><step>A</step><octave>4</octave></pitch><duration>16</duration><voice>1</voice><type>16th</type><beam number="1">end</beam></note><note><pitch><step>A</step><octave>4</octave></pitch><duration>64</duration><voice>1</voice><type>quarter</type></note><note><pitch><step>A</step><octave>4</octave></pitch><duration>64</duration><voice>1</voice><type>quarter</type></note></measure><measure number="157"><attributes/><note><pitch><step>E</step><octave>5</octave></pitch><duration>64</duration><voice>1</voice><type>quarter</type></note><note><pitch><step>E</step><octave>5</octave></pitch><duration>48</duration><voice>1</voice><type>eighth</type><dot/><beam number="1">begin</beam></note><note><pitch><step>E</step><octave>5</octave></pitch><duration>16</duration><voice>1</voice><type>16th</type><beam number="1">end</beam></note><note><pitch><step>E</step><octave>5</octave></pitch><duration>64</duration><voice>1</voice><type>quarter</type></note><note><pitch><step>E</step><octave>5</octave></pitch><duration>64</duration><voice>1</voice><type>quarter</type></note></measure><measure number="158"><attributes/><note><pitch><step>A</step><octave>4</octave></pitch><duration>64</duration><voice>1</voice><type>quarter</type></note><note><rest/><duration>64</duration><voice>1</voice><type>quarter</type></note><note><rest/><duration>64</duration><voice>1</voice><type>quarter</type></note><note><pitch><step>F</step><alter>1</alter><octave>4</octave></pitch><duration>64</duration><voice>1</voice><type>quarter</type></note></measure><measure number="159"><attributes/><note><pitch><step>D</step><octave>5</octave></pitch><duration>64</duration><voice>1</voice><type>quarter</type></note><note><rest/><duration>64</duration><voice>1</voice><type>quarter</type></note><note><rest/><duration>64</duration><voice>1</voice><type>quarter</type></note><note><pitch><step>E</step><octave>5</octave></pitch><duration>64</duration><voice>1</voice><type>quarter</type></note></measure><measure number="160"><attributes/><note><pitch><step>A</step><octave>4</octave></pitch><duration>64</duration><voice>1</voice><type>quarter</type></note><note><rest/><duration>64</duration><voice>1</voice><type>quarter</type></note><note><rest/><duration>64</duration><voice>1</voice><type>quarter</type></note><note><pitch><step>F</step><alter>1</alter><octave>4</octave></pitch><duration>64</duration><voice>1</voice><type>quarter</type></note></measure><measure number="161"><attributes/><note><pitch><step>D</step><octave>5</octave></pitch><duration>64</duration><voice>1</voice><type>quarter</type></note><note><rest/><duration>64</duration><voice>1</voice><type>quarter</type></note><note><rest/><duration>64</duration><voice>1</voice><type>quarter</type></note><note><pitch><step>E</step><octave>5</octave></pitch><duration>64</duration><voice>1</voice><type>quarter</type></note></measure><measure number="162"><attributes/><note><pitch><step>A</step><octave>4</octave></pitch><duration>64</duration><voice>1</voice><type>quarter</type></note><note><rest/><duration>64</duration><voice>1</voice><type>quarter</type></note><note><rest/><duration>128</duration><voice>1</voice><type>half</type></note></measure><measure number="163"><attributes/><note><rest/><duration>256</duration><voice>1</voice><type>whole</type></note><direction placement="above"><direction-type><words relative-x="11.656010794366466" relative-y="-20.05219014485678">3</words></direction-type></direction></measure><measure number="164"><attributes/><note><pitch><step>A</step><octave>4</octave></pitch><duration>256</duration><voice>1</voice><type>whole</type></note></measure><measure number="165"><attributes/><note><pitch><step>D</step><octave>4</octave></pitch><duration>256</duration><voice>1</voice><type>whole</type></note></measure><measure number="166"><attributes/><note><pitch><step>D</step><octave>4</octave></pitch><duration>256</duration><voice>1</voice><type>whole</type></note></measure><measure number="167"><attributes/><note><pitch><step>A</step><octave>4</octave></pitch><duration>64</duration><voice>1</voice><type>quarter</type></note><note><pitch><step>A</step><octave>4</octave></pitch><duration>48</duration><voice>1</voice><type>eighth</type><dot/><beam number="1">begin</beam></note><note><pitch><step>A</step><octave>4</octave></pitch><duration>16</duration><voice>1</voice><type>16th</type><beam number="1">end</beam></note><note><pitch><step>A</step><octave>4</octave></pitch><duration>64</duration><voice>1</voice><type>quarter</type></note><note><pitch><step>A</step><octave>4</octave></pitch><duration>64</duration><voice>1</voice><type>quarter</type></note></measure><measure number="168"><attributes/><note><pitch><step>E</step><octave>5</octave></pitch><duration>64</duration><voice>1</voice><type>quarter</type></note><note><pitch><step>E</step><octave>5</octave></pitch><duration>48</duration><voice>1</voice><type>eighth</type><dot/><beam number="1">begin</beam></note><note><pitch><step>E</step><octave>5</octave></pitch><duration>16</duration><voice>1</voice><type>16th</type><beam number="1">end</beam></note><note><pitch><step>E</step><octave>5</octave></pitch><duration>64</duration><voice>1</voice><type>quarter</type></note><note><pitch><step>E</step><octave>5</octave></pitch><duration>64</duration><voice>1</voice><type>quarter</type></note></measure><measure number="169"><attributes/><note><rest/><duration>64</duration><voice>1</voice><type>quarter</type></note><note><pitch><step>A</step><octave>4</octave></pitch><duration>64</duration><voice>1</voice><type>quarter</type></note><note><rest/><duration>64</duration><voice>1</voice><type>quarter</type></note><note><pitch><step>F</step><alter>1</alter><octave>4</octave></pitch><duration>64</duration><voice>1</voice><type>quarter</type></note></measure><measure number="170"><attributes/><note><rest/><duration>64</duration><voice>1</voice><type>quarter</type></note><note><pitch><step>D</step><octave>5</octave></pitch><duration>64</duration><voice>1</voice><type>quarter</type></note><note><rest/><duration>64</duration><voice>1</voice><type>quarter</type></note><note><pitch><step>E</step><octave>5</octave></pitch><duration>64</duration><voice>1</voice><type>quarter</type></note></measure><measure number="171"><attributes/><note><rest/><duration>64</duration><voice>1</voice><type>quarter</type></note><note><pitch><step>A</step><octave>4</octave></pitch><duration>64</duration><voice>1</voice><type>quarter</type></note><note><rest/><duration>64</duration><voice>1</voice><type>quarter</type></note><note><pitch><step>F</step><alter>1</alter><octave>4</octave></pitch><duration>64</duration><voice>1</voice><type>quarter</type></note></measure><measure number="172"><attributes/><note><rest/><duration>64</duration><voice>1</voice><type>quarter</type></note><note><pitch><step>D</step><octave>5</octave></pitch><duration>64</duration><voice>1</voice><type>quarter</type></note><note><rest/><duration>64</duration><voice>1</voice><type>quarter</type></note><note><pitch><step>E</step><octave>5</octave></pitch><duration>64</duration><voice>1</voice><type>quarter</type></note></measure><measure number="173"><attributes/><note><pitch><step>A</step><octave>4</octave></pitch><duration>64</duration><voice>1</voice><type>quarter</type></note><note><pitch><step>D</step><octave>5</octave></pitch><duration>64</duration><voice>1</voice><type>quarter</type></note><note><pitch><step>A</step><octave>4</octave></pitch><duration>64</duration><voice>1</voice><type>quarter</type></note><note><pitch><step>E</step><octave>5</octave></pitch><duration>64</duration><voice>1</voice><type>quarter</type></note></measure><measure number="174"><attributes/><note><pitch><step>A</step><octave>4</octave></pitch><duration>64</duration><voice>1</voice><type>quarter</type></note><note><pitch><step>D</step><octave>5</octave></pitch><duration>64</duration><voice>1</voice><type>quarter</type></note><note><pitch><step>A</step><octave>4</octave></pitch><duration>64</duration><voice>1</voice><type>quarter</type></note><note><pitch><step>E</step><octave>5</octave></pitch><duration>64</duration><voice>1</voice><type>quarter</type></note></measure><measure number="175"><attributes/><note><pitch><step>A</step><octave>4</octave></pitch><duration>64</duration><voice>1</voice><type>quarter</type></note><note><pitch><step>D</step><octave>5</octave></pitch><duration>64</duration><voice>1</voice><type>quarter</type></note><note><pitch><step>A</step><octave>4</octave></pitch><duration>64</duration><voice>1</voice><type>quarter</type></note><note><pitch><step>E</step><octave>5</octave></pitch><duration>64</duration><voice>1</voice><type>quarter</type></note></measure><measure number="176"><attributes/><note><pitch><step>A</step><octave>4</octave></pitch><duration>256</duration><tie type="start"/><voice>1</voice><type>whole</type><notations><tied type="start"/></notations></note></measure><measure number="177"><attributes/><note><pitch><step>A</step><octave>4</octave></pitch><duration>256</duration><tie type="start"/><tie type="stop"/><voice>1</voice><type>whole</type><notations><tied type="start"/><tied type="stop"/></notations></note></measure><measure number="178"><attributes/><note><pitch><step>A</step><octave>4</octave></pitch><duration>128</duration><tie type="stop"/><voice>1</voice><type>half</type><notations><tied type="stop"/></notations></note><note><pitch><step>A</step><octave>4</octave></pitch><duration>128</duration><tie type="start"/><voice>1</voice><type>half</type><notations><tied type="start"/></notations></note></measure><measure number="179"><attributes/><note><pitch><step>A</step><octave>4</octave></pitch><duration>128</duration><tie type="stop"/><voice>1</voice><type>half</type><notations><tied type="stop"/></notations></note><note><pitch><step>A</step><octave>4</octave></pitch><duration>128</duration><voice>1</voice><type>half</type></note></measure><measure number="180"><attributes/><note><pitch><step>A</step><octave>4</octave></pitch><duration>128</duration><voice>1</voice><type>half</type></note><note><rest/><duration>128</duration><voice>1</voice><type>half</type></note></measure><measure number="181"><attributes/><note><pitch><step>A</step><octave>4</octave></pitch><duration>128</duration><voice>1</voice><type>half</type></note><note><rest/><duration>128</duration><voice>1</voice><type>half</type></note></measure><measure number="182"><attributes/><note><pitch><step>A</step><octave>4</octave></pitch><duration>256</duration><voice>1</voice><type>whole</type></note><barline location="right"><bar-style>light-heavy</bar-style></barline></measure></part></score-partwise>